<?xml version="1.0" standalone="no"?>
 <!DOCTYPE svg PUBLIC "-//W3C//DTD SVG 1.1//EN" 
 "http://www.w3.org/Graphics/SVG/1.1/DTD/svg11.dtd"> 
<svg
  xmlns:svg="http://www.w3.org/2000/svg"
  xmlns="http://www.w3.org/2000/svg"
  xmlns:xlink="http://www.w3.org/1999/xlink"
  version="1.1"
  width="29.700220cm" height="21.000720cm" viewBox="0 0 297002200 210007200">
<title>SVG Picture created as StormCloud-F_Cu.svg date 2024/01/02 13:25:30 </title>
  <desc>Picture generated by PCBNEW </desc>
<g style="fill:#000000; fill-opacity:1.000000;stroke:#000000; stroke-opacity:1.000000;
stroke-linecap:round; stroke-linejoin:round;"
 transform="translate(0 0) scale(1 1)">
</g>
<g style="fill:#000000; fill-opacity:0.0; 
stroke:#000000; stroke-width:0.000000; stroke-opacity:1; 
stroke-linecap:round; stroke-linejoin:round;">
</g>
<g style="fill:#000000; fill-opacity:0.0; 
stroke:#000000; stroke-width:21200.000000; stroke-opacity:1; 
stroke-linecap:round; stroke-linejoin:round;">
</g>
<g style="fill:#000000; fill-opacity:0.0; 
stroke:#000000; stroke-width:150000.000000; stroke-opacity:1; 
stroke-linecap:round; stroke-linejoin:round;">
<rect x="177002200.000000" y="166007200.000000" width="108000000.000000" height="32000000.000000" rx="0.000000" />
</g>
<g style="fill:#000000; fill-opacity:0.0; 
stroke:#000000; stroke-width:21200.000000; stroke-opacity:1; 
stroke-linecap:round; stroke-linejoin:round;">
</g>
<g style="fill:#000000; fill-opacity:0.0; 
stroke:#000000; stroke-width:150000.000000; stroke-opacity:1; 
stroke-linecap:round; stroke-linejoin:round;">
<rect x="10000000.000000" y="10000000.000000" width="277002200.000000" height="190007200.000000" rx="0.000000" />
</g>
<g style="fill:#000000; fill-opacity:0.0; 
stroke:#000000; stroke-width:21200.000000; stroke-opacity:1; 
stroke-linecap:round; stroke-linejoin:round;">
</g>
<g style="fill:#000000; fill-opacity:0.0; 
stroke:#000000; stroke-width:150000.000000; stroke-opacity:1; 
stroke-linecap:round; stroke-linejoin:round;">
<rect x="12000000.000000" y="12000000.000000" width="273002200.000000" height="186007200.000000" rx="0.000000" />
</g>
<g style="fill:#000000; fill-opacity:0.0; 
stroke:#000000; stroke-width:21200.000000; stroke-opacity:1; 
stroke-linecap:round; stroke-linejoin:round;">
</g>
<g style="fill:#000000; fill-opacity:0.0; 
stroke:#000000; stroke-width:150000.000000; stroke-opacity:1; 
stroke-linecap:round; stroke-linejoin:round;">
<path d="M60000000 12000000
L60000000 10000000
" />
</g>
<g style="fill:#000000; fill-opacity:0.0; 
stroke:#000000; stroke-width:21200.000000; stroke-opacity:1; 
stroke-linecap:round; stroke-linejoin:round;">
</g>
<g style="fill:#000000; fill-opacity:0.0; 
stroke:#000000; stroke-width:150000.000000; stroke-opacity:1; 
stroke-linecap:round; stroke-linejoin:round;">
<path d="M110000000 12000000
L110000000 10000000
" />
</g>
<g style="fill:#000000; fill-opacity:0.0; 
stroke:#000000; stroke-width:21200.000000; stroke-opacity:1; 
stroke-linecap:round; stroke-linejoin:round;">
</g>
<g style="fill:#000000; fill-opacity:0.0; 
stroke:#000000; stroke-width:150000.000000; stroke-opacity:1; 
stroke-linecap:round; stroke-linejoin:round;">
<path d="M160000000 12000000
L160000000 10000000
" />
</g>
<g style="fill:#000000; fill-opacity:0.0; 
stroke:#000000; stroke-width:21200.000000; stroke-opacity:1; 
stroke-linecap:round; stroke-linejoin:round;">
</g>
<g style="fill:#000000; fill-opacity:0.0; 
stroke:#000000; stroke-width:150000.000000; stroke-opacity:1; 
stroke-linecap:round; stroke-linejoin:round;">
<path d="M210000000 12000000
L210000000 10000000
" />
</g>
<g style="fill:#000000; fill-opacity:0.0; 
stroke:#000000; stroke-width:21200.000000; stroke-opacity:1; 
stroke-linecap:round; stroke-linejoin:round;">
</g>
<g style="fill:#000000; fill-opacity:0.0; 
stroke:#000000; stroke-width:150000.000000; stroke-opacity:1; 
stroke-linecap:round; stroke-linejoin:round;">
<path d="M260000000 12000000
L260000000 10000000
" />
</g>
<g style="fill:#000000; fill-opacity:0.0; 
stroke:#000000; stroke-width:21200.000000; stroke-opacity:1; 
stroke-linecap:round; stroke-linejoin:round;">
</g>
<g style="fill:#000000; fill-opacity:0.0; 
stroke:#000000; stroke-width:150000.000000; stroke-opacity:1; 
stroke-linecap:round; stroke-linejoin:round;">
<text x="35000000.000000" y="11650000.000000"
textLength="1438095.000000" font-size="1733333.000000" lengthAdjust="spacingAndGlyphs"
text-anchor="start" opacity="0">1</text>
<g class="stroked-text"><desc>1</desc>
<path d="M36065476 11588095
L35322619 11588095
" />
<path d="M35694047 11588095
L35694047 10288095
L35570238 10473809
L35446428 10597619
L35322619 10659523
" />
</g></g>
<g style="fill:#000000; fill-opacity:0.0; 
stroke:#000000; stroke-width:21200.000000; stroke-opacity:1; 
stroke-linecap:round; stroke-linejoin:round;">
</g>
<g style="fill:#000000; fill-opacity:0.0; 
stroke:#000000; stroke-width:150000.000000; stroke-opacity:1; 
stroke-linecap:round; stroke-linejoin:round;">
<text x="85000000.000000" y="11650000.000000"
textLength="1388095.000000" font-size="1733333.000000" lengthAdjust="spacingAndGlyphs"
text-anchor="start" opacity="0">2</text>
<g class="stroked-text"><desc>2</desc>
<path d="M85322619 10411904
L85384523 10350000
L85508333 10288095
L85817857 10288095
L85941666 10350000
L86003571 10411904
L86065476 10535714
L86065476 10659523
L86003571 10845238
L85260714 11588095
L86065476 11588095
" />
</g></g>
<g style="fill:#000000; fill-opacity:0.0; 
stroke:#000000; stroke-width:21200.000000; stroke-opacity:1; 
stroke-linecap:round; stroke-linejoin:round;">
</g>
<g style="fill:#000000; fill-opacity:0.0; 
stroke:#000000; stroke-width:150000.000000; stroke-opacity:1; 
stroke-linecap:round; stroke-linejoin:round;">
<text x="135000000.000000" y="11650000.000000"
textLength="1388095.000000" font-size="1733333.000000" lengthAdjust="spacingAndGlyphs"
text-anchor="start" opacity="0">3</text>
<g class="stroked-text"><desc>3</desc>
<path d="M135260714 10288095
L136065476 10288095
L135632142 10783333
L135817857 10783333
L135941666 10845238
L136003571 10907142
L136065476 11030952
L136065476 11340476
L136003571 11464285
L135941666 11526190
L135817857 11588095
L135446428 11588095
L135322619 11526190
L135260714 11464285
" />
</g></g>
<g style="fill:#000000; fill-opacity:0.0; 
stroke:#000000; stroke-width:21200.000000; stroke-opacity:1; 
stroke-linecap:round; stroke-linejoin:round;">
</g>
<g style="fill:#000000; fill-opacity:0.0; 
stroke:#000000; stroke-width:150000.000000; stroke-opacity:1; 
stroke-linecap:round; stroke-linejoin:round;">
<text x="185000000.000000" y="11650000.000000"
textLength="1388095.000000" font-size="1733333.000000" lengthAdjust="spacingAndGlyphs"
text-anchor="start" opacity="0">4</text>
<g class="stroked-text"><desc>4</desc>
<path d="M185941666 10721428
L185941666 11588095
" />
<path d="M185632142 10226190
L185322619 11154761
L186127380 11154761
" />
</g></g>
<g style="fill:#000000; fill-opacity:0.0; 
stroke:#000000; stroke-width:21200.000000; stroke-opacity:1; 
stroke-linecap:round; stroke-linejoin:round;">
</g>
<g style="fill:#000000; fill-opacity:0.0; 
stroke:#000000; stroke-width:150000.000000; stroke-opacity:1; 
stroke-linecap:round; stroke-linejoin:round;">
<text x="235000000.000000" y="11650000.000000"
textLength="1388095.000000" font-size="1733333.000000" lengthAdjust="spacingAndGlyphs"
text-anchor="start" opacity="0">5</text>
<g class="stroked-text"><desc>5</desc>
<path d="M236003571 10288095
L235384523 10288095
L235322619 10907142
L235384523 10845238
L235508333 10783333
L235817857 10783333
L235941666 10845238
L236003571 10907142
L236065476 11030952
L236065476 11340476
L236003571 11464285
L235941666 11526190
L235817857 11588095
L235508333 11588095
L235384523 11526190
L235322619 11464285
" />
</g></g>
<g style="fill:#000000; fill-opacity:0.0; 
stroke:#000000; stroke-width:21200.000000; stroke-opacity:1; 
stroke-linecap:round; stroke-linejoin:round;">
</g>
<g style="fill:#000000; fill-opacity:0.0; 
stroke:#000000; stroke-width:150000.000000; stroke-opacity:1; 
stroke-linecap:round; stroke-linejoin:round;">
<text x="285000000.000000" y="11650000.000000"
textLength="1388095.000000" font-size="1733333.000000" lengthAdjust="spacingAndGlyphs"
text-anchor="start" opacity="0">6</text>
<g class="stroked-text"><desc>6</desc>
<path d="M285941666 10288095
L285694047 10288095
L285570238 10350000
L285508333 10411904
L285384523 10597619
L285322619 10845238
L285322619 11340476
L285384523 11464285
L285446428 11526190
L285570238 11588095
L285817857 11588095
L285941666 11526190
L286003571 11464285
L286065476 11340476
L286065476 11030952
L286003571 10907142
L285941666 10845238
L285817857 10783333
L285570238 10783333
L285446428 10845238
L285384523 10907142
L285322619 11030952
" />
</g></g>
<g style="fill:#000000; fill-opacity:0.0; 
stroke:#000000; stroke-width:21200.000000; stroke-opacity:1; 
stroke-linecap:round; stroke-linejoin:round;">
</g>
<g style="fill:#000000; fill-opacity:0.0; 
stroke:#000000; stroke-width:150000.000000; stroke-opacity:1; 
stroke-linecap:round; stroke-linejoin:round;">
<path d="M60000000 198007200
L60000000 200007200
" />
</g>
<g style="fill:#000000; fill-opacity:0.0; 
stroke:#000000; stroke-width:21200.000000; stroke-opacity:1; 
stroke-linecap:round; stroke-linejoin:round;">
</g>
<g style="fill:#000000; fill-opacity:0.0; 
stroke:#000000; stroke-width:150000.000000; stroke-opacity:1; 
stroke-linecap:round; stroke-linejoin:round;">
<path d="M110000000 198007200
L110000000 200007200
" />
</g>
<g style="fill:#000000; fill-opacity:0.0; 
stroke:#000000; stroke-width:21200.000000; stroke-opacity:1; 
stroke-linecap:round; stroke-linejoin:round;">
</g>
<g style="fill:#000000; fill-opacity:0.0; 
stroke:#000000; stroke-width:150000.000000; stroke-opacity:1; 
stroke-linecap:round; stroke-linejoin:round;">
<path d="M160000000 198007200
L160000000 200007200
" />
</g>
<g style="fill:#000000; fill-opacity:0.0; 
stroke:#000000; stroke-width:21200.000000; stroke-opacity:1; 
stroke-linecap:round; stroke-linejoin:round;">
</g>
<g style="fill:#000000; fill-opacity:0.0; 
stroke:#000000; stroke-width:150000.000000; stroke-opacity:1; 
stroke-linecap:round; stroke-linejoin:round;">
<path d="M210000000 198007200
L210000000 200007200
" />
</g>
<g style="fill:#000000; fill-opacity:0.0; 
stroke:#000000; stroke-width:21200.000000; stroke-opacity:1; 
stroke-linecap:round; stroke-linejoin:round;">
</g>
<g style="fill:#000000; fill-opacity:0.0; 
stroke:#000000; stroke-width:150000.000000; stroke-opacity:1; 
stroke-linecap:round; stroke-linejoin:round;">
<path d="M260000000 198007200
L260000000 200007200
" />
</g>
<g style="fill:#000000; fill-opacity:0.0; 
stroke:#000000; stroke-width:21200.000000; stroke-opacity:1; 
stroke-linecap:round; stroke-linejoin:round;">
</g>
<g style="fill:#000000; fill-opacity:0.0; 
stroke:#000000; stroke-width:150000.000000; stroke-opacity:1; 
stroke-linecap:round; stroke-linejoin:round;">
<text x="35000000.000000" y="199657200.000000"
textLength="1388095.000000" font-size="1733333.000000" lengthAdjust="spacingAndGlyphs"
text-anchor="start" opacity="0">1</text>
<g class="stroked-text"><desc>1</desc>
<path d="M36065476 199595295
L35322619 199595295
" />
<path d="M35694047 199595295
L35694047 198295295
L35570238 198481009
L35446428 198604819
L35322619 198666723
" />
</g></g>
<g style="fill:#000000; fill-opacity:0.0; 
stroke:#000000; stroke-width:21200.000000; stroke-opacity:1; 
stroke-linecap:round; stroke-linejoin:round;">
</g>
<g style="fill:#000000; fill-opacity:0.0; 
stroke:#000000; stroke-width:150000.000000; stroke-opacity:1; 
stroke-linecap:round; stroke-linejoin:round;">
<text x="85000000.000000" y="199657200.000000"
textLength="1388095.000000" font-size="1733333.000000" lengthAdjust="spacingAndGlyphs"
text-anchor="start" opacity="0">2</text>
<g class="stroked-text"><desc>2</desc>
<path d="M85322619 198419104
L85384523 198357200
L85508333 198295295
L85817857 198295295
L85941666 198357200
L86003571 198419104
L86065476 198542914
L86065476 198666723
L86003571 198852438
L85260714 199595295
L86065476 199595295
" />
</g></g>
<g style="fill:#000000; fill-opacity:0.0; 
stroke:#000000; stroke-width:21200.000000; stroke-opacity:1; 
stroke-linecap:round; stroke-linejoin:round;">
</g>
<g style="fill:#000000; fill-opacity:0.0; 
stroke:#000000; stroke-width:150000.000000; stroke-opacity:1; 
stroke-linecap:round; stroke-linejoin:round;">
<text x="135000000.000000" y="199657200.000000"
textLength="1388095.000000" font-size="1733333.000000" lengthAdjust="spacingAndGlyphs"
text-anchor="start" opacity="0">3</text>
<g class="stroked-text"><desc>3</desc>
<path d="M135260714 198295295
L136065476 198295295
L135632142 198790533
L135817857 198790533
L135941666 198852438
L136003571 198914342
L136065476 199038152
L136065476 199347676
L136003571 199471485
L135941666 199533390
L135817857 199595295
L135446428 199595295
L135322619 199533390
L135260714 199471485
" />
</g></g>
<g style="fill:#000000; fill-opacity:0.0; 
stroke:#000000; stroke-width:21200.000000; stroke-opacity:1; 
stroke-linecap:round; stroke-linejoin:round;">
</g>
<g style="fill:#000000; fill-opacity:0.0; 
stroke:#000000; stroke-width:150000.000000; stroke-opacity:1; 
stroke-linecap:round; stroke-linejoin:round;">
<text x="185000000.000000" y="199657200.000000"
textLength="1388095.000000" font-size="1733333.000000" lengthAdjust="spacingAndGlyphs"
text-anchor="start" opacity="0">4</text>
<g class="stroked-text"><desc>4</desc>
<path d="M185941666 198728628
L185941666 199595295
" />
<path d="M185632142 198233390
L185322619 199161961
L186127380 199161961
" />
</g></g>
<g style="fill:#000000; fill-opacity:0.0; 
stroke:#000000; stroke-width:21200.000000; stroke-opacity:1; 
stroke-linecap:round; stroke-linejoin:round;">
</g>
<g style="fill:#000000; fill-opacity:0.0; 
stroke:#000000; stroke-width:150000.000000; stroke-opacity:1; 
stroke-linecap:round; stroke-linejoin:round;">
<text x="235000000.000000" y="199657200.000000"
textLength="1388095.000000" font-size="1733333.000000" lengthAdjust="spacingAndGlyphs"
text-anchor="start" opacity="0">5</text>
<g class="stroked-text"><desc>5</desc>
<path d="M236003571 198295295
L235384523 198295295
L235322619 198914342
L235384523 198852438
L235508333 198790533
L235817857 198790533
L235941666 198852438
L236003571 198914342
L236065476 199038152
L236065476 199347676
L236003571 199471485
L235941666 199533390
L235817857 199595295
L235508333 199595295
L235384523 199533390
L235322619 199471485
" />
</g></g>
<g style="fill:#000000; fill-opacity:0.0; 
stroke:#000000; stroke-width:21200.000000; stroke-opacity:1; 
stroke-linecap:round; stroke-linejoin:round;">
</g>
<g style="fill:#000000; fill-opacity:0.0; 
stroke:#000000; stroke-width:150000.000000; stroke-opacity:1; 
stroke-linecap:round; stroke-linejoin:round;">
<text x="285000000.000000" y="199657200.000000"
textLength="1388095.000000" font-size="1733333.000000" lengthAdjust="spacingAndGlyphs"
text-anchor="start" opacity="0">6</text>
<g class="stroked-text"><desc>6</desc>
<path d="M285941666 198295295
L285694047 198295295
L285570238 198357200
L285508333 198419104
L285384523 198604819
L285322619 198852438
L285322619 199347676
L285384523 199471485
L285446428 199533390
L285570238 199595295
L285817857 199595295
L285941666 199533390
L286003571 199471485
L286065476 199347676
L286065476 199038152
L286003571 198914342
L285941666 198852438
L285817857 198790533
L285570238 198790533
L285446428 198852438
L285384523 198914342
L285322619 199038152
" />
</g></g>
<g style="fill:#000000; fill-opacity:0.0; 
stroke:#000000; stroke-width:21200.000000; stroke-opacity:1; 
stroke-linecap:round; stroke-linejoin:round;">
</g>
<g style="fill:#000000; fill-opacity:0.0; 
stroke:#000000; stroke-width:150000.000000; stroke-opacity:1; 
stroke-linecap:round; stroke-linejoin:round;">
<path d="M10000000 60000000
L12000000 60000000
" />
</g>
<g style="fill:#000000; fill-opacity:0.0; 
stroke:#000000; stroke-width:21200.000000; stroke-opacity:1; 
stroke-linecap:round; stroke-linejoin:round;">
</g>
<g style="fill:#000000; fill-opacity:0.0; 
stroke:#000000; stroke-width:150000.000000; stroke-opacity:1; 
stroke-linecap:round; stroke-linejoin:round;">
<path d="M10000000 110000000
L12000000 110000000
" />
</g>
<g style="fill:#000000; fill-opacity:0.0; 
stroke:#000000; stroke-width:21200.000000; stroke-opacity:1; 
stroke-linecap:round; stroke-linejoin:round;">
</g>
<g style="fill:#000000; fill-opacity:0.0; 
stroke:#000000; stroke-width:150000.000000; stroke-opacity:1; 
stroke-linecap:round; stroke-linejoin:round;">
<path d="M10000000 160000000
L12000000 160000000
" />
</g>
<g style="fill:#000000; fill-opacity:0.0; 
stroke:#000000; stroke-width:21200.000000; stroke-opacity:1; 
stroke-linecap:round; stroke-linejoin:round;">
</g>
<g style="fill:#000000; fill-opacity:0.0; 
stroke:#000000; stroke-width:150000.000000; stroke-opacity:1; 
stroke-linecap:round; stroke-linejoin:round;">
<text x="11000000.000000" y="35650000.000000"
textLength="1264286.000000" font-size="1733333.000000" lengthAdjust="spacingAndGlyphs"
text-anchor="middle" opacity="0">A</text>
<g class="stroked-text"><desc>A</desc>
<path d="M10690476 35216666
L11309523 35216666
" />
<path d="M10566666 35588095
L11000000 34288095
L11433333 35588095
" />
</g></g>
<g style="fill:#000000; fill-opacity:0.0; 
stroke:#000000; stroke-width:21200.000000; stroke-opacity:1; 
stroke-linecap:round; stroke-linejoin:round;">
</g>
<g style="fill:#000000; fill-opacity:0.0; 
stroke:#000000; stroke-width:150000.000000; stroke-opacity:1; 
stroke-linecap:round; stroke-linejoin:round;">
<text x="11000000.000000" y="85650000.000000"
textLength="1450000.000000" font-size="1733333.000000" lengthAdjust="spacingAndGlyphs"
text-anchor="middle" opacity="0">B</text>
<g class="stroked-text"><desc>B</desc>
<path d="M11092857 84907142
L11278571 84969047
L11340476 85030952
L11402380 85154761
L11402380 85340476
L11340476 85464285
L11278571 85526190
L11154761 85588095
L10659523 85588095
L10659523 84288095
L11092857 84288095
L11216666 84350000
L11278571 84411904
L11340476 84535714
L11340476 84659523
L11278571 84783333
L11216666 84845238
L11092857 84907142
L10659523 84907142
" />
</g></g>
<g style="fill:#000000; fill-opacity:0.0; 
stroke:#000000; stroke-width:21200.000000; stroke-opacity:1; 
stroke-linecap:round; stroke-linejoin:round;">
</g>
<g style="fill:#000000; fill-opacity:0.0; 
stroke:#000000; stroke-width:150000.000000; stroke-opacity:1; 
stroke-linecap:round; stroke-linejoin:round;">
<text x="11000000.000000" y="135650000.000000"
textLength="1450000.000000" font-size="1733333.000000" lengthAdjust="spacingAndGlyphs"
text-anchor="middle" opacity="0">C</text>
<g class="stroked-text"><desc>C</desc>
<path d="M11402380 135464285
L11340476 135526190
L11154761 135588095
L11030952 135588095
L10845238 135526190
L10721428 135402380
L10659523 135278571
L10597619 135030952
L10597619 134845238
L10659523 134597619
L10721428 134473809
L10845238 134350000
L11030952 134288095
L11154761 134288095
L11340476 134350000
L11402380 134411904
" />
</g></g>
<g style="fill:#000000; fill-opacity:0.0; 
stroke:#000000; stroke-width:21200.000000; stroke-opacity:1; 
stroke-linecap:round; stroke-linejoin:round;">
</g>
<g style="fill:#000000; fill-opacity:0.0; 
stroke:#000000; stroke-width:150000.000000; stroke-opacity:1; 
stroke-linecap:round; stroke-linejoin:round;">
<text x="11000000.000000" y="185650000.000000"
textLength="1450000.000000" font-size="1733333.000000" lengthAdjust="spacingAndGlyphs"
text-anchor="middle" opacity="0">D</text>
<g class="stroked-text"><desc>D</desc>
<path d="M10659523 185588095
L10659523 184288095
L10969047 184288095
L11154761 184350000
L11278571 184473809
L11340476 184597619
L11402380 184845238
L11402380 185030952
L11340476 185278571
L11278571 185402380
L11154761 185526190
L10969047 185588095
L10659523 185588095
" />
</g></g>
<g style="fill:#000000; fill-opacity:0.0; 
stroke:#000000; stroke-width:21200.000000; stroke-opacity:1; 
stroke-linecap:round; stroke-linejoin:round;">
</g>
<g style="fill:#000000; fill-opacity:0.0; 
stroke:#000000; stroke-width:150000.000000; stroke-opacity:1; 
stroke-linecap:round; stroke-linejoin:round;">
<path d="M287002200 60000000
L285002200 60000000
" />
</g>
<g style="fill:#000000; fill-opacity:0.0; 
stroke:#000000; stroke-width:21200.000000; stroke-opacity:1; 
stroke-linecap:round; stroke-linejoin:round;">
</g>
<g style="fill:#000000; fill-opacity:0.0; 
stroke:#000000; stroke-width:150000.000000; stroke-opacity:1; 
stroke-linecap:round; stroke-linejoin:round;">
<path d="M287002200 110000000
L285002200 110000000
" />
</g>
<g style="fill:#000000; fill-opacity:0.0; 
stroke:#000000; stroke-width:21200.000000; stroke-opacity:1; 
stroke-linecap:round; stroke-linejoin:round;">
</g>
<g style="fill:#000000; fill-opacity:0.0; 
stroke:#000000; stroke-width:150000.000000; stroke-opacity:1; 
stroke-linecap:round; stroke-linejoin:round;">
<path d="M287002200 160000000
L285002200 160000000
" />
</g>
<g style="fill:#000000; fill-opacity:0.0; 
stroke:#000000; stroke-width:21200.000000; stroke-opacity:1; 
stroke-linecap:round; stroke-linejoin:round;">
</g>
<g style="fill:#000000; fill-opacity:0.0; 
stroke:#000000; stroke-width:150000.000000; stroke-opacity:1; 
stroke-linecap:round; stroke-linejoin:round;">
<text x="286002200.000000" y="35650000.000000"
textLength="1264286.000000" font-size="1733333.000000" lengthAdjust="spacingAndGlyphs"
text-anchor="middle" opacity="0">A</text>
<g class="stroked-text"><desc>A</desc>
<path d="M285692676 35216666
L286311723 35216666
" />
<path d="M285568866 35588095
L286002200 34288095
L286435533 35588095
" />
</g></g>
<g style="fill:#000000; fill-opacity:0.0; 
stroke:#000000; stroke-width:21200.000000; stroke-opacity:1; 
stroke-linecap:round; stroke-linejoin:round;">
</g>
<g style="fill:#000000; fill-opacity:0.0; 
stroke:#000000; stroke-width:150000.000000; stroke-opacity:1; 
stroke-linecap:round; stroke-linejoin:round;">
<text x="286002200.000000" y="85650000.000000"
textLength="1450000.000000" font-size="1733333.000000" lengthAdjust="spacingAndGlyphs"
text-anchor="middle" opacity="0">B</text>
<g class="stroked-text"><desc>B</desc>
<path d="M286095057 84907142
L286280771 84969047
L286342676 85030952
L286404580 85154761
L286404580 85340476
L286342676 85464285
L286280771 85526190
L286156961 85588095
L285661723 85588095
L285661723 84288095
L286095057 84288095
L286218866 84350000
L286280771 84411904
L286342676 84535714
L286342676 84659523
L286280771 84783333
L286218866 84845238
L286095057 84907142
L285661723 84907142
" />
</g></g>
<g style="fill:#000000; fill-opacity:0.0; 
stroke:#000000; stroke-width:21200.000000; stroke-opacity:1; 
stroke-linecap:round; stroke-linejoin:round;">
</g>
<g style="fill:#000000; fill-opacity:0.0; 
stroke:#000000; stroke-width:150000.000000; stroke-opacity:1; 
stroke-linecap:round; stroke-linejoin:round;">
<text x="286002200.000000" y="135650000.000000"
textLength="1450000.000000" font-size="1733333.000000" lengthAdjust="spacingAndGlyphs"
text-anchor="middle" opacity="0">C</text>
<g class="stroked-text"><desc>C</desc>
<path d="M286404580 135464285
L286342676 135526190
L286156961 135588095
L286033152 135588095
L285847438 135526190
L285723628 135402380
L285661723 135278571
L285599819 135030952
L285599819 134845238
L285661723 134597619
L285723628 134473809
L285847438 134350000
L286033152 134288095
L286156961 134288095
L286342676 134350000
L286404580 134411904
" />
</g></g>
<g style="fill:#000000; fill-opacity:0.0; 
stroke:#000000; stroke-width:21200.000000; stroke-opacity:1; 
stroke-linecap:round; stroke-linejoin:round;">
</g>
<g style="fill:#000000; fill-opacity:0.0; 
stroke:#000000; stroke-width:150000.000000; stroke-opacity:1; 
stroke-linecap:round; stroke-linejoin:round;">
<text x="286002200.000000" y="185650000.000000"
textLength="1450000.000000" font-size="1733333.000000" lengthAdjust="spacingAndGlyphs"
text-anchor="middle" opacity="0">D</text>
<g class="stroked-text"><desc>D</desc>
<path d="M285661723 185588095
L285661723 184288095
L285971247 184288095
L286156961 184350000
L286280771 184473809
L286342676 184597619
L286404580 184845238
L286404580 185030952
L286342676 185278571
L286280771 185402380
L286156961 185526190
L285971247 185588095
L285661723 185588095
" />
</g></g>
<g style="fill:#000000; fill-opacity:0.0; 
stroke:#000000; stroke-width:21200.000000; stroke-opacity:1; 
stroke-linecap:round; stroke-linejoin:round;">
</g>
<g style="fill:#000000; fill-opacity:0.0; 
stroke:#000000; stroke-width:150000.000000; stroke-opacity:1; 
stroke-linecap:round; stroke-linejoin:round;">
<text x="200002200.000000" y="193857200.000000"
textLength="7007143.000000" font-size="2000000.000000" lengthAdjust="spacingAndGlyphs"
text-anchor="start" opacity="0">Date: </text>
<g class="stroked-text"><desc>Date: </desc>
<path d="M200434342 193785771
L200434342 192285771
L200791485 192285771
L201005771 192357200
L201148628 192500057
L201220057 192642914
L201291485 192928628
L201291485 193142914
L201220057 193428628
L201148628 193571485
L201005771 193714342
L200791485 193785771
L200434342 193785771
" />
<path d="M202577200 193785771
L202577200 193000057
L202505771 192857200
L202362914 192785771
L202077200 192785771
L201934342 192857200
" />
<path d="M202577200 193714342
L202434342 193785771
L202077200 193785771
L201934342 193714342
L201862914 193571485
L201862914 193428628
L201934342 193285771
L202077200 193214342
L202434342 193214342
L202577200 193142914
" />
<path d="M203077200 192785771
L203648628 192785771
" />
<path d="M203291485 192285771
L203291485 193571485
L203362914 193714342
L203505771 193785771
L203648628 193785771
" />
<path d="M204720057 193714342
L204577200 193785771
L204291485 193785771
L204148628 193714342
L204077200 193571485
L204077200 193000057
L204148628 192857200
L204291485 192785771
L204577200 192785771
L204720057 192857200
L204791485 193000057
L204791485 193142914
L204077200 193285771
" />
<path d="M205434342 193642914
L205505771 193714342
L205434342 193785771
L205362914 193714342
L205434342 193642914
L205434342 193785771
" />
<path d="M205434342 192857200
L205505771 192928628
L205434342 193000057
L205362914 192928628
L205434342 192857200
L205434342 193000057
" />
</g></g>
<g style="fill:#000000; fill-opacity:0.0; 
stroke:#000000; stroke-width:21200.000000; stroke-opacity:1; 
stroke-linecap:round; stroke-linejoin:round;">
</g>
<g style="fill:#000000; fill-opacity:0.0; 
stroke:#000000; stroke-width:150000.000000; stroke-opacity:1; 
stroke-linecap:round; stroke-linejoin:round;">
<path d="M177002200 194507200
L285002200 194507200
" />
</g>
<g style="fill:#000000; fill-opacity:0.0; 
stroke:#000000; stroke-width:21200.000000; stroke-opacity:1; 
stroke-linecap:round; stroke-linejoin:round;">
</g>
<g style="fill:#000000; fill-opacity:0.0; 
stroke:#000000; stroke-width:150000.000000; stroke-opacity:1; 
stroke-linecap:round; stroke-linejoin:round;">
<text x="178002200.000000" y="196657200.000000"
textLength="31078571.000000" font-size="2000000.000000" lengthAdjust="spacingAndGlyphs"
text-anchor="start" opacity="0">KiCad E.D.A.  kicad (6.0.1)</text>
<g class="stroked-text"><desc>KiCad E.D.A.  kicad (6.0.1)</desc>
<path d="M178434342 196585771
L178434342 195085771
" />
<path d="M179291485 196585771
L178648628 195728628
" />
<path d="M179291485 195085771
L178434342 195942914
" />
<path d="M179934342 196585771
L179934342 195585771
" />
<path d="M179934342 195085771
L179862914 195157200
L179934342 195228628
L180005771 195157200
L179934342 195085771
L179934342 195228628
" />
<path d="M181505771 196442914
L181434342 196514342
L181220057 196585771
L181077200 196585771
L180862914 196514342
L180720057 196371485
L180648628 196228628
L180577200 195942914
L180577200 195728628
L180648628 195442914
L180720057 195300057
L180862914 195157200
L181077200 195085771
L181220057 195085771
L181434342 195157200
L181505771 195228628
" />
<path d="M182791485 196585771
L182791485 195800057
L182720057 195657200
L182577200 195585771
L182291485 195585771
L182148628 195657200
" />
<path d="M182791485 196514342
L182648628 196585771
L182291485 196585771
L182148628 196514342
L182077200 196371485
L182077200 196228628
L182148628 196085771
L182291485 196014342
L182648628 196014342
L182791485 195942914
" />
<path d="M184148628 196585771
L184148628 195085771
" />
<path d="M184148628 196514342
L184005771 196585771
L183720057 196585771
L183577200 196514342
L183505771 196442914
L183434342 196300057
L183434342 195871485
L183505771 195728628
L183577200 195657200
L183720057 195585771
L184005771 195585771
L184148628 195657200
" />
<path d="M186005771 195800057
L186505771 195800057
" />
<path d="M186720057 196585771
L186005771 196585771
L186005771 195085771
L186720057 195085771
" />
<path d="M187362914 196442914
L187434342 196514342
L187362914 196585771
L187291485 196514342
L187362914 196442914
L187362914 196585771
" />
<path d="M188077200 196585771
L188077200 195085771
L188434342 195085771
L188648628 195157200
L188791485 195300057
L188862914 195442914
L188934342 195728628
L188934342 195942914
L188862914 196228628
L188791485 196371485
L188648628 196514342
L188434342 196585771
L188077200 196585771
" />
<path d="M189577200 196442914
L189648628 196514342
L189577200 196585771
L189505771 196514342
L189577200 196442914
L189577200 196585771
" />
<path d="M190220057 196157200
L190934342 196157200
" />
<path d="M190077200 196585771
L190577200 195085771
L191077200 196585771
" />
<path d="M191577200 196442914
L191648628 196514342
L191577200 196585771
L191505771 196514342
L191577200 196442914
L191577200 196585771
" />
<path d="M194577200 196585771
L194577200 195085771
" />
<path d="M194720057 196014342
L195148628 196585771
" />
<path d="M195148628 195585771
L194577200 196157200
" />
<path d="M195791485 196585771
L195791485 195585771
" />
<path d="M195791485 195085771
L195720057 195157200
L195791485 195228628
L195862914 195157200
L195791485 195085771
L195791485 195228628
" />
<path d="M197148628 196514342
L197005771 196585771
L196720057 196585771
L196577200 196514342
L196505771 196442914
L196434342 196300057
L196434342 195871485
L196505771 195728628
L196577200 195657200
L196720057 195585771
L197005771 195585771
L197148628 195657200
" />
<path d="M198434342 196585771
L198434342 195800057
L198362914 195657200
L198220057 195585771
L197934342 195585771
L197791485 195657200
" />
<path d="M198434342 196514342
L198291485 196585771
L197934342 196585771
L197791485 196514342
L197720057 196371485
L197720057 196228628
L197791485 196085771
L197934342 196014342
L198291485 196014342
L198434342 195942914
" />
<path d="M199791485 196585771
L199791485 195085771
" />
<path d="M199791485 196514342
L199648628 196585771
L199362914 196585771
L199220057 196514342
L199148628 196442914
L199077200 196300057
L199077200 195871485
L199148628 195728628
L199220057 195657200
L199362914 195585771
L199648628 195585771
L199791485 195657200
" />
<path d="M202077200 197157200
L202005771 197085771
L201862914 196871485
L201791485 196728628
L201720057 196514342
L201648628 196157200
L201648628 195871485
L201720057 195514342
L201791485 195300057
L201862914 195157200
L202005771 194942914
L202077200 194871485
" />
<path d="M203291485 195085771
L203005771 195085771
L202862914 195157200
L202791485 195228628
L202648628 195442914
L202577200 195728628
L202577200 196300057
L202648628 196442914
L202720057 196514342
L202862914 196585771
L203148628 196585771
L203291485 196514342
L203362914 196442914
L203434342 196300057
L203434342 195942914
L203362914 195800057
L203291485 195728628
L203148628 195657200
L202862914 195657200
L202720057 195728628
L202648628 195800057
L202577200 195942914
" />
<path d="M204077200 196442914
L204148628 196514342
L204077200 196585771
L204005771 196514342
L204077200 196442914
L204077200 196585771
" />
<path d="M205077200 195085771
L205220057 195085771
L205362914 195157200
L205434342 195228628
L205505771 195371485
L205577200 195657200
L205577200 196014342
L205505771 196300057
L205434342 196442914
L205362914 196514342
L205220057 196585771
L205077200 196585771
L204934342 196514342
L204862914 196442914
L204791485 196300057
L204720057 196014342
L204720057 195657200
L204791485 195371485
L204862914 195228628
L204934342 195157200
L205077200 195085771
" />
<path d="M206220057 196442914
L206291485 196514342
L206220057 196585771
L206148628 196514342
L206220057 196442914
L206220057 196585771
" />
<path d="M207720057 196585771
L206862914 196585771
" />
<path d="M207291485 196585771
L207291485 195085771
L207148628 195300057
L207005771 195442914
L206862914 195514342
" />
<path d="M208220057 197157200
L208291485 197085771
L208434342 196871485
L208505771 196728628
L208577200 196514342
L208648628 196157200
L208648628 195871485
L208577200 195514342
L208505771 195300057
L208434342 195157200
L208291485 194942914
L208220057 194871485
" />
</g></g>
<g style="fill:#000000; fill-opacity:0.0; 
stroke:#000000; stroke-width:21200.000000; stroke-opacity:1; 
stroke-linecap:round; stroke-linejoin:round;">
</g>
<g style="fill:#000000; fill-opacity:0.0; 
stroke:#000000; stroke-width:150000.000000; stroke-opacity:1; 
stroke-linecap:round; stroke-linejoin:round;">
<path d="M177002200 191507200
L285002200 191507200
" />
</g>
<g style="fill:#000000; fill-opacity:0.0; 
stroke:#000000; stroke-width:21200.000000; stroke-opacity:1; 
stroke-linecap:round; stroke-linejoin:round;">
</g>
<g style="fill:#000000; fill-opacity:0.0; 
stroke:#000000; stroke-width:300000.000000; stroke-opacity:1; 
stroke-linecap:round; stroke-linejoin:round;">
<text x="263002200.000000" y="193857200.000000"
textLength="5935714.000000" font-size="2000000.000000" lengthAdjust="spacingAndGlyphs"
text-anchor="start" opacity="0">Rev: </text>
<g class="stroked-text"><desc>Rev: </desc>
<path d="M264411485 193785771
L263911485 193071485
" />
<path d="M263554342 193785771
L263554342 192285771
L264125771 192285771
L264268628 192357200
L264340057 192428628
L264411485 192571485
L264411485 192785771
L264340057 192928628
L264268628 193000057
L264125771 193071485
L263554342 193071485
" />
<path d="M265625771 193714342
L265482914 193785771
L265197200 193785771
L265054342 193714342
L264982914 193571485
L264982914 193000057
L265054342 192857200
L265197200 192785771
L265482914 192785771
L265625771 192857200
L265697200 193000057
L265697200 193142914
L264982914 193285771
" />
<path d="M266197200 192785771
L266554342 193785771
L266911485 192785771
" />
<path d="M267482914 193642914
L267554342 193714342
L267482914 193785771
L267411485 193714342
L267482914 193642914
L267482914 193785771
" />
<path d="M267482914 192857200
L267554342 192928628
L267482914 193000057
L267411485 192928628
L267482914 192857200
L267482914 193000057
" />
</g></g>
<g style="fill:#000000; fill-opacity:0.0; 
stroke:#000000; stroke-width:21200.000000; stroke-opacity:1; 
stroke-linecap:round; stroke-linejoin:round;">
</g>
<g style="fill:#000000; fill-opacity:0.0; 
stroke:#000000; stroke-width:150000.000000; stroke-opacity:1; 
stroke-linecap:round; stroke-linejoin:round;">
<text x="178002200.000000" y="193857200.000000"
textLength="9604286.000000" font-size="2000000.000000" lengthAdjust="spacingAndGlyphs"
text-anchor="start" opacity="0">Size: A4</text>
<g class="stroked-text"><desc>Size: A4</desc>
<path d="M178362914 193714342
L178577200 193785771
L178934342 193785771
L179077200 193714342
L179148628 193642914
L179220057 193500057
L179220057 193357200
L179148628 193214342
L179077200 193142914
L178934342 193071485
L178648628 193000057
L178505771 192928628
L178434342 192857200
L178362914 192714342
L178362914 192571485
L178434342 192428628
L178505771 192357200
L178648628 192285771
L179005771 192285771
L179220057 192357200
" />
<path d="M179862914 193785771
L179862914 192785771
" />
<path d="M179862914 192285771
L179791485 192357200
L179862914 192428628
L179934342 192357200
L179862914 192285771
L179862914 192428628
" />
<path d="M180434342 192785771
L181220057 192785771
L180434342 193785771
L181220057 193785771
" />
<path d="M182362914 193714342
L182220057 193785771
L181934342 193785771
L181791485 193714342
L181720057 193571485
L181720057 193000057
L181791485 192857200
L181934342 192785771
L182220057 192785771
L182362914 192857200
L182434342 193000057
L182434342 193142914
L181720057 193285771
" />
<path d="M183077200 193642914
L183148628 193714342
L183077200 193785771
L183005771 193714342
L183077200 193642914
L183077200 193785771
" />
<path d="M183077200 192857200
L183148628 192928628
L183077200 193000057
L183005771 192928628
L183077200 192857200
L183077200 193000057
" />
<path d="M184862914 193357200
L185577200 193357200
" />
<path d="M184720057 193785771
L185220057 192285771
L185720057 193785771
" />
<path d="M186862914 192785771
L186862914 193785771
" />
<path d="M186505771 192214342
L186148628 193285771
L187077200 193285771
" />
</g></g>
<g style="fill:#000000; fill-opacity:0.0; 
stroke:#000000; stroke-width:21200.000000; stroke-opacity:1; 
stroke-linecap:round; stroke-linejoin:round;">
</g>
<g style="fill:#000000; fill-opacity:0.0; 
stroke:#000000; stroke-width:150000.000000; stroke-opacity:1; 
stroke-linecap:round; stroke-linejoin:round;">
<text x="263002200.000000" y="196657200.000000"
textLength="8507143.000000" font-size="2000000.000000" lengthAdjust="spacingAndGlyphs"
text-anchor="start" opacity="0">Id: 1/1</text>
<g class="stroked-text"><desc>Id: 1/1</desc>
<path d="M263434342 196585771
L263434342 195085771
" />
<path d="M264791485 196585771
L264791485 195085771
" />
<path d="M264791485 196514342
L264648628 196585771
L264362914 196585771
L264220057 196514342
L264148628 196442914
L264077200 196300057
L264077200 195871485
L264148628 195728628
L264220057 195657200
L264362914 195585771
L264648628 195585771
L264791485 195657200
" />
<path d="M265505771 196442914
L265577200 196514342
L265505771 196585771
L265434342 196514342
L265505771 196442914
L265505771 196585771
" />
<path d="M265505771 195657200
L265577200 195728628
L265505771 195800057
L265434342 195728628
L265505771 195657200
L265505771 195800057
" />
<path d="M268148628 196585771
L267291485 196585771
" />
<path d="M267720057 196585771
L267720057 195085771
L267577200 195300057
L267434342 195442914
L267291485 195514342
" />
<path d="M269862914 195014342
L268577200 196942914
" />
<path d="M271148628 196585771
L270291485 196585771
" />
<path d="M270720057 196585771
L270720057 195085771
L270577200 195300057
L270434342 195442914
L270291485 195514342
" />
</g></g>
<g style="fill:#000000; fill-opacity:0.0; 
stroke:#000000; stroke-width:21200.000000; stroke-opacity:1; 
stroke-linecap:round; stroke-linejoin:round;">
</g>
<g style="fill:#000000; fill-opacity:0.0; 
stroke:#000000; stroke-width:150000.000000; stroke-opacity:1; 
stroke-linecap:round; stroke-linejoin:round;">
<path d="M177002200 187507200
L285002200 187507200
" />
</g>
<g style="fill:#000000; fill-opacity:0.0; 
stroke:#000000; stroke-width:21200.000000; stroke-opacity:1; 
stroke-linecap:round; stroke-linejoin:round;">
</g>
<g style="fill:#000000; fill-opacity:0.0; 
stroke:#000000; stroke-width:400000.000000; stroke-opacity:1; 
stroke-linecap:round; stroke-linejoin:round;">
<text x="178002200.000000" y="190307200.000000"
textLength="34933452.000000" font-size="2666666.000000" lengthAdjust="spacingAndGlyphs"
text-anchor="start" opacity="0">Title: RainCloud Blinky</text>
<g class="stroked-text"><desc>Title: RainCloud Blinky</desc>
<path d="M178714580 188211961
L179857438 188211961
" />
<path d="M179036009 190211961
L179286009 188211961
" />
<path d="M180274104 190211961
L180440771 188878628
" />
<path d="M180524104 188211961
L180416961 188307200
L180500295 188402438
L180607438 188307200
L180524104 188211961
L180500295 188402438
" />
<path d="M181107438 188878628
L181869342 188878628
" />
<path d="M181476485 188211961
L181262200 189926247
L181333628 190116723
L181512200 190211961
L181702676 190211961
" />
<path d="M182655057 190211961
L182476485 190116723
L182405057 189926247
L182619342 188211961
" />
<path d="M184190771 190116723
L183988390 190211961
L183607438 190211961
L183428866 190116723
L183357438 189926247
L183452676 189164342
L183571723 188973866
L183774104 188878628
L184155057 188878628
L184333628 188973866
L184405057 189164342
L184381247 189354819
L183405057 189545295
" />
<path d="M185155057 190021485
L185238390 190116723
L185131247 190211961
L185047914 190116723
L185155057 190021485
L185131247 190211961
" />
<path d="M185286009 188973866
L185369342 189069104
L185262200 189164342
L185178866 189069104
L185286009 188973866
L185262200 189164342
" />
<path d="M188750295 190211961
L188202676 189259580
" />
<path d="M187607438 190211961
L187857438 188211961
L188619342 188211961
L188797914 188307200
L188881247 188402438
L188952676 188592914
L188916961 188878628
L188797914 189069104
L188690771 189164342
L188488390 189259580
L187726485 189259580
" />
<path d="M190464580 190211961
L190595533 189164342
L190524104 188973866
L190345533 188878628
L189964580 188878628
L189762200 188973866
" />
<path d="M190476485 190116723
L190274104 190211961
L189797914 190211961
L189619342 190116723
L189547914 189926247
L189571723 189735771
L189690771 189545295
L189893152 189450057
L190369342 189450057
L190571723 189354819
" />
<path d="M191416961 190211961
L191583628 188878628
" />
<path d="M191666961 188211961
L191559819 188307200
L191643152 188402438
L191750295 188307200
L191666961 188211961
L191643152 188402438
" />
<path d="M192536009 188878628
L192369342 190211961
" />
<path d="M192512200 189069104
L192619342 188973866
L192821723 188878628
L193107438 188878628
L193286009 188973866
L193357438 189164342
L193226485 190211961
" />
<path d="M195345533 190021485
L195238390 190116723
L194940771 190211961
L194750295 190211961
L194476485 190116723
L194309819 189926247
L194238390 189735771
L194190771 189354819
L194226485 189069104
L194369342 188688152
L194488390 188497676
L194702676 188307200
L195000295 188211961
L195190771 188211961
L195464580 188307200
L195547914 188402438
" />
<path d="M196464580 190211961
L196286009 190116723
L196214580 189926247
L196428866 188211961
" />
<path d="M197512200 190211961
L197333628 190116723
L197250295 190021485
L197178866 189831009
L197250295 189259580
L197369342 189069104
L197476485 188973866
L197678866 188878628
L197964580 188878628
L198143152 188973866
L198226485 189069104
L198297914 189259580
L198226485 189831009
L198107438 190021485
L198000295 190116723
L197797914 190211961
L197512200 190211961
" />
<path d="M200059819 188878628
L199893152 190211961
" />
<path d="M199202676 188878628
L199071723 189926247
L199143152 190116723
L199321723 190211961
L199607438 190211961
L199809819 190116723
L199916961 190021485
" />
<path d="M201702676 190211961
L201952676 188211961
" />
<path d="M201714580 190116723
L201512200 190211961
L201131247 190211961
L200952676 190116723
L200869342 190021485
L200797914 189831009
L200869342 189259580
L200988390 189069104
L201095533 188973866
L201297914 188878628
L201678866 188878628
L201857438 188973866
" />
<path d="M204976485 189164342
L205250295 189259580
L205333628 189354819
L205405057 189545295
L205369342 189831009
L205250295 190021485
L205143152 190116723
L204940771 190211961
L204178866 190211961
L204428866 188211961
L205095533 188211961
L205274104 188307200
L205357438 188402438
L205428866 188592914
L205405057 188783390
L205286009 188973866
L205178866 189069104
L204976485 189164342
L204309819 189164342
" />
<path d="M206464580 190211961
L206286009 190116723
L206214580 189926247
L206428866 188211961
" />
<path d="M207226485 190211961
L207393152 188878628
" />
<path d="M207476485 188211961
L207369342 188307200
L207452676 188402438
L207559819 188307200
L207476485 188211961
L207452676 188402438
" />
<path d="M208345533 188878628
L208178866 190211961
" />
<path d="M208321723 189069104
L208428866 188973866
L208631247 188878628
L208916961 188878628
L209095533 188973866
L209166961 189164342
L209036009 190211961
" />
<path d="M209988390 190211961
L210238390 188211961
" />
<path d="M210274104 189450057
L210750295 190211961
" />
<path d="M210916961 188878628
L210059819 189640533
" />
<path d="M211583628 188878628
L211893152 190211961
" />
<path d="M212536009 188878628
L211893152 190211961
L211643152 190688152
L211536009 190783390
L211333628 190878628
" />
</g></g>
<g style="fill:#000000; fill-opacity:0.0; 
stroke:#000000; stroke-width:21200.000000; stroke-opacity:1; 
stroke-linecap:round; stroke-linejoin:round;">
</g>
<g style="fill:#000000; fill-opacity:0.0; 
stroke:#000000; stroke-width:150000.000000; stroke-opacity:1; 
stroke-linecap:round; stroke-linejoin:round;">
<text x="178002200.000000" y="186457200.000000"
textLength="31162857.000000" font-size="2000000.000000" lengthAdjust="spacingAndGlyphs"
text-anchor="start" opacity="0">File: StormCloud.kicad_pcb</text>
<g class="stroked-text"><desc>File: StormCloud.kicad_pcb</desc>
<path d="M178934342 185600057
L178434342 185600057
" />
<path d="M178434342 186385771
L178434342 184885771
L179148628 184885771
" />
<path d="M179720057 186385771
L179720057 185385771
" />
<path d="M179720057 184885771
L179648628 184957200
L179720057 185028628
L179791485 184957200
L179720057 184885771
L179720057 185028628
" />
<path d="M180648628 186385771
L180505771 186314342
L180434342 186171485
L180434342 184885771
" />
<path d="M181791485 186314342
L181648628 186385771
L181362914 186385771
L181220057 186314342
L181148628 186171485
L181148628 185600057
L181220057 185457200
L181362914 185385771
L181648628 185385771
L181791485 185457200
L181862914 185600057
L181862914 185742914
L181148628 185885771
" />
<path d="M182505771 186242914
L182577200 186314342
L182505771 186385771
L182434342 186314342
L182505771 186242914
L182505771 186385771
" />
<path d="M182505771 185457200
L182577200 185528628
L182505771 185600057
L182434342 185528628
L182505771 185457200
L182505771 185600057
" />
<path d="M184291485 186314342
L184505771 186385771
L184862914 186385771
L185005771 186314342
L185077200 186242914
L185148628 186100057
L185148628 185957200
L185077200 185814342
L185005771 185742914
L184862914 185671485
L184577200 185600057
L184434342 185528628
L184362914 185457200
L184291485 185314342
L184291485 185171485
L184362914 185028628
L184434342 184957200
L184577200 184885771
L184934342 184885771
L185148628 184957200
" />
<path d="M185577200 185385771
L186148628 185385771
" />
<path d="M185791485 184885771
L185791485 186171485
L185862914 186314342
L186005771 186385771
L186148628 186385771
" />
<path d="M186862914 186385771
L186720057 186314342
L186648628 186242914
L186577200 186100057
L186577200 185671485
L186648628 185528628
L186720057 185457200
L186862914 185385771
L187077200 185385771
L187220057 185457200
L187291485 185528628
L187362914 185671485
L187362914 186100057
L187291485 186242914
L187220057 186314342
L187077200 186385771
L186862914 186385771
" />
<path d="M188005771 186385771
L188005771 185385771
" />
<path d="M188005771 185671485
L188077200 185528628
L188148628 185457200
L188291485 185385771
L188434342 185385771
" />
<path d="M188934342 186385771
L188934342 185385771
" />
<path d="M188934342 185528628
L189005771 185457200
L189148628 185385771
L189362914 185385771
L189505771 185457200
L189577200 185600057
L189577200 186385771
" />
<path d="M189577200 185600057
L189648628 185457200
L189791485 185385771
L190005771 185385771
L190148628 185457200
L190220057 185600057
L190220057 186385771
" />
<path d="M191791485 186242914
L191720057 186314342
L191505771 186385771
L191362914 186385771
L191148628 186314342
L191005771 186171485
L190934342 186028628
L190862914 185742914
L190862914 185528628
L190934342 185242914
L191005771 185100057
L191148628 184957200
L191362914 184885771
L191505771 184885771
L191720057 184957200
L191791485 185028628
" />
<path d="M192648628 186385771
L192505771 186314342
L192434342 186171485
L192434342 184885771
" />
<path d="M193434342 186385771
L193291485 186314342
L193220057 186242914
L193148628 186100057
L193148628 185671485
L193220057 185528628
L193291485 185457200
L193434342 185385771
L193648628 185385771
L193791485 185457200
L193862914 185528628
L193934342 185671485
L193934342 186100057
L193862914 186242914
L193791485 186314342
L193648628 186385771
L193434342 186385771
" />
<path d="M195220057 185385771
L195220057 186385771
" />
<path d="M194577200 185385771
L194577200 186171485
L194648628 186314342
L194791485 186385771
L195005771 186385771
L195148628 186314342
L195220057 186242914
" />
<path d="M196577200 186385771
L196577200 184885771
" />
<path d="M196577200 186314342
L196434342 186385771
L196148628 186385771
L196005771 186314342
L195934342 186242914
L195862914 186100057
L195862914 185671485
L195934342 185528628
L196005771 185457200
L196148628 185385771
L196434342 185385771
L196577200 185457200
" />
<path d="M197291485 186242914
L197362914 186314342
L197291485 186385771
L197220057 186314342
L197291485 186242914
L197291485 186385771
" />
<path d="M198005771 186385771
L198005771 184885771
" />
<path d="M198148628 185814342
L198577200 186385771
" />
<path d="M198577200 185385771
L198005771 185957200
" />
<path d="M199220057 186385771
L199220057 185385771
" />
<path d="M199220057 184885771
L199148628 184957200
L199220057 185028628
L199291485 184957200
L199220057 184885771
L199220057 185028628
" />
<path d="M200577200 186314342
L200434342 186385771
L200148628 186385771
L200005771 186314342
L199934342 186242914
L199862914 186100057
L199862914 185671485
L199934342 185528628
L200005771 185457200
L200148628 185385771
L200434342 185385771
L200577200 185457200
" />
<path d="M201862914 186385771
L201862914 185600057
L201791485 185457200
L201648628 185385771
L201362914 185385771
L201220057 185457200
" />
<path d="M201862914 186314342
L201720057 186385771
L201362914 186385771
L201220057 186314342
L201148628 186171485
L201148628 186028628
L201220057 185885771
L201362914 185814342
L201720057 185814342
L201862914 185742914
" />
<path d="M203220057 186385771
L203220057 184885771
" />
<path d="M203220057 186314342
L203077200 186385771
L202791485 186385771
L202648628 186314342
L202577200 186242914
L202505771 186100057
L202505771 185671485
L202577200 185528628
L202648628 185457200
L202791485 185385771
L203077200 185385771
L203220057 185457200
" />
<path d="M203577200 186528628
L204720057 186528628
" />
<path d="M205077200 185385771
L205077200 186885771
" />
<path d="M205077200 185457200
L205220057 185385771
L205505771 185385771
L205648628 185457200
L205720057 185528628
L205791485 185671485
L205791485 186100057
L205720057 186242914
L205648628 186314342
L205505771 186385771
L205220057 186385771
L205077200 186314342
" />
<path d="M207077200 186314342
L206934342 186385771
L206648628 186385771
L206505771 186314342
L206434342 186242914
L206362914 186100057
L206362914 185671485
L206434342 185528628
L206505771 185457200
L206648628 185385771
L206934342 185385771
L207077200 185457200
" />
<path d="M207720057 186385771
L207720057 184885771
" />
<path d="M207720057 185457200
L207862914 185385771
L208148628 185385771
L208291485 185457200
L208362914 185528628
L208434342 185671485
L208434342 186100057
L208362914 186242914
L208291485 186314342
L208148628 186385771
L207862914 186385771
L207720057 186314342
" />
</g></g>
<g style="fill:#000000; fill-opacity:0.0; 
stroke:#000000; stroke-width:21200.000000; stroke-opacity:1; 
stroke-linecap:round; stroke-linejoin:round;">
</g>
<g style="fill:#000000; fill-opacity:0.0; 
stroke:#000000; stroke-width:150000.000000; stroke-opacity:1; 
stroke-linecap:round; stroke-linejoin:round;">
<path d="M177002200 181507200
L285002200 181507200
" />
</g>
<g style="fill:#000000; fill-opacity:0.0; 
stroke:#000000; stroke-width:21200.000000; stroke-opacity:1; 
stroke-linecap:round; stroke-linejoin:round;">
</g>
<g style="fill:#000000; fill-opacity:0.0; 
stroke:#000000; stroke-width:150000.000000; stroke-opacity:1; 
stroke-linecap:round; stroke-linejoin:round;">
<text x="178002200.000000" y="183757200.000000"
textLength="8221429.000000" font-size="2000000.000000" lengthAdjust="spacingAndGlyphs"
text-anchor="start" opacity="0">Sheet: </text>
<g class="stroked-text"><desc>Sheet: </desc>
<path d="M178362914 183614342
L178577200 183685771
L178934342 183685771
L179077200 183614342
L179148628 183542914
L179220057 183400057
L179220057 183257200
L179148628 183114342
L179077200 183042914
L178934342 182971485
L178648628 182900057
L178505771 182828628
L178434342 182757200
L178362914 182614342
L178362914 182471485
L178434342 182328628
L178505771 182257200
L178648628 182185771
L179005771 182185771
L179220057 182257200
" />
<path d="M179862914 183685771
L179862914 182185771
" />
<path d="M180505771 183685771
L180505771 182900057
L180434342 182757200
L180291485 182685771
L180077200 182685771
L179934342 182757200
L179862914 182828628
" />
<path d="M181791485 183614342
L181648628 183685771
L181362914 183685771
L181220057 183614342
L181148628 183471485
L181148628 182900057
L181220057 182757200
L181362914 182685771
L181648628 182685771
L181791485 182757200
L181862914 182900057
L181862914 183042914
L181148628 183185771
" />
<path d="M183077200 183614342
L182934342 183685771
L182648628 183685771
L182505771 183614342
L182434342 183471485
L182434342 182900057
L182505771 182757200
L182648628 182685771
L182934342 182685771
L183077200 182757200
L183148628 182900057
L183148628 183042914
L182434342 183185771
" />
<path d="M183577200 182685771
L184148628 182685771
" />
<path d="M183791485 182185771
L183791485 183471485
L183862914 183614342
L184005771 183685771
L184148628 183685771
" />
<path d="M184648628 183542914
L184720057 183614342
L184648628 183685771
L184577200 183614342
L184648628 183542914
L184648628 183685771
" />
<path d="M184648628 182757200
L184720057 182828628
L184648628 182900057
L184577200 182828628
L184648628 182757200
L184648628 182900057
" />
</g></g>
<g style="fill:#000000; fill-opacity:0.0; 
stroke:#000000; stroke-width:21200.000000; stroke-opacity:1; 
stroke-linecap:round; stroke-linejoin:round;">
</g>
<g style="fill:#000000; fill-opacity:0.0; 
stroke:#000000; stroke-width:300000.000000; stroke-opacity:1; 
stroke-linecap:round; stroke-linejoin:round;">
<text x="178002200.000000" y="180757200.000000"
textLength="150000.000000" font-size="2000000.000000" lengthAdjust="spacingAndGlyphs"
text-anchor="start" opacity="0"></text>
<g class="stroked-text"><desc></desc>
</g></g>
<g style="fill:#000000; fill-opacity:0.0; 
stroke:#000000; stroke-width:21200.000000; stroke-opacity:1; 
stroke-linecap:round; stroke-linejoin:round;">
</g>
<g style="fill:#000000; fill-opacity:0.0; 
stroke:#000000; stroke-width:150000.000000; stroke-opacity:1; 
stroke-linecap:round; stroke-linejoin:round;">
<text x="178002200.000000" y="177757200.000000"
textLength="300000.000000" font-size="2000000.000000" lengthAdjust="spacingAndGlyphs"
text-anchor="start" opacity="0"></text>
<g class="stroked-text"><desc></desc>
</g></g>
<g style="fill:#000000; fill-opacity:0.0; 
stroke:#000000; stroke-width:21200.000000; stroke-opacity:1; 
stroke-linecap:round; stroke-linejoin:round;">
</g>
<g style="fill:#000000; fill-opacity:0.0; 
stroke:#000000; stroke-width:150000.000000; stroke-opacity:1; 
stroke-linecap:round; stroke-linejoin:round;">
<text x="178002200.000000" y="174757200.000000"
textLength="150000.000000" font-size="2000000.000000" lengthAdjust="spacingAndGlyphs"
text-anchor="start" opacity="0"></text>
<g class="stroked-text"><desc></desc>
</g></g>
<g style="fill:#000000; fill-opacity:0.0; 
stroke:#000000; stroke-width:21200.000000; stroke-opacity:1; 
stroke-linecap:round; stroke-linejoin:round;">
</g>
<g style="fill:#000000; fill-opacity:0.0; 
stroke:#000000; stroke-width:150000.000000; stroke-opacity:1; 
stroke-linecap:round; stroke-linejoin:round;">
<text x="178002200.000000" y="171757200.000000"
textLength="150000.000000" font-size="2000000.000000" lengthAdjust="spacingAndGlyphs"
text-anchor="start" opacity="0"></text>
<g class="stroked-text"><desc></desc>
</g></g>
<g style="fill:#000000; fill-opacity:0.0; 
stroke:#000000; stroke-width:21200.000000; stroke-opacity:1; 
stroke-linecap:round; stroke-linejoin:round;">
</g>
<g style="fill:#000000; fill-opacity:0.0; 
stroke:#000000; stroke-width:150000.000000; stroke-opacity:1; 
stroke-linecap:round; stroke-linejoin:round;">
<text x="178002200.000000" y="168757200.000000"
textLength="150000.000000" font-size="2000000.000000" lengthAdjust="spacingAndGlyphs"
text-anchor="start" opacity="0"></text>
<g class="stroked-text"><desc></desc>
</g></g>
<g style="fill:#000000; fill-opacity:0.0; 
stroke:#000000; stroke-width:21200.000000; stroke-opacity:1; 
stroke-linecap:round; stroke-linejoin:round;">
</g>
<g style="fill:#000000; fill-opacity:0.0; 
stroke:#000000; stroke-width:150000.000000; stroke-opacity:1; 
stroke-linecap:round; stroke-linejoin:round;">
<path d="M197002200 191507200
L197002200 194507200
" />
</g>
<g style="fill:#000000; fill-opacity:0.0; 
stroke:#000000; stroke-width:21200.000000; stroke-opacity:1; 
stroke-linecap:round; stroke-linejoin:round;">
</g>
<g style="fill:#000000; fill-opacity:0.0; 
stroke:#000000; stroke-width:150000.000000; stroke-opacity:1; 
stroke-linecap:round; stroke-linejoin:round;">
<path d="M261002200 191507200
L261002200 198007200
" />
</g>
<g style="fill:#C20000; fill-opacity:0.0; 
stroke:#C20000; stroke-width:150000.000000; stroke-opacity:1; 
stroke-linecap:round; stroke-linejoin:round;">
</g>
<g style="fill:#C20000; fill-opacity:0.0; 
stroke:#C20000; stroke-width:1016000.000000; stroke-opacity:1; 
stroke-linecap:round; stroke-linejoin:round;">
<circle cx="121700000.000000" cy="93795045.000000" r="4204955.000000" /> 
</g>
<g style="fill:#C20000; fill-opacity:0.0; 
stroke:#C20000; stroke-width:100000.000000; stroke-opacity:1; 
stroke-linecap:round; stroke-linejoin:round;">
<path d="M122047000 84709000
L115189000 89027000
" />
<path d="M115189000 89027000
L116601875 90646250
" />
<path d="M116601875 90646250
L124206000 85852000
" />
<path d="M124206000 85852000
L122047000 84709000
" />
</g>
<g style="fill:#C20000; fill-opacity:1.0; 
stroke:#C20000; stroke-width:100000.000000; stroke-opacity:1; 
stroke-linecap:round; stroke-linejoin:round;">
<path style="fill:#C20000; fill-opacity:1.0; 
stroke:#C20000; stroke-width:100000.000000; stroke-opacity:1; 
stroke-linecap:round; stroke-linejoin:round;fill-rule:evenodd;"
d="M 124206000.000000,85852000.000000
116601875.000000,90646250.000000
115189000.000000,89027000.000000
122047000.000000,84709000.000000
Z" /> 
</g>
<g style="fill:#C20000; fill-opacity:0.0; 
stroke:#C20000; stroke-width:100000.000000; stroke-opacity:1; 
stroke-linecap:round; stroke-linejoin:round;">
<path d="M100980875 84836000
L107838875 89154000
" />
<path d="M107838875 89154000
L106426000 90773250
" />
<path d="M106426000 90773250
L98821875 85979000
" />
<path d="M98821875 85979000
L100980875 84836000
" />
</g>
<g style="fill:#C20000; fill-opacity:1.0; 
stroke:#C20000; stroke-width:100000.000000; stroke-opacity:1; 
stroke-linecap:round; stroke-linejoin:round;">
<path style="fill:#C20000; fill-opacity:1.0; 
stroke:#C20000; stroke-width:100000.000000; stroke-opacity:1; 
stroke-linecap:round; stroke-linejoin:round;fill-rule:evenodd;"
d="M 107838875.000000,89154000.000000
106426000.000000,90773250.000000
98821875.000000,85979000.000000
100980875.000000,84836000.000000
Z" /> 
</g>
<g style="fill:#C20000; fill-opacity:0.0; 
stroke:#C20000; stroke-width:1016000.000000; stroke-opacity:1; 
stroke-linecap:round; stroke-linejoin:round;">
<circle cx="100700000.000000" cy="93795045.000000" r="4204955.000000" /> 
</g>
<g style="fill:#C20000; fill-opacity:0.0; 
stroke:#C20000; stroke-width:100000.000000; stroke-opacity:1; 
stroke-linecap:round; stroke-linejoin:round;">
<path d="M126365000 109728000
L123317000 109728000
" />
<path d="M123317000 109728000
L123698000 110871000
" />
<path d="M123698000 110871000
L123317000 110871000
" />
<path d="M123317000 110871000
L123317000 111760000
" />
<path d="M123317000 111760000
L120142000 108204000
" />
<path d="M120142000 108204000
L122936000 108204000
" />
<path d="M122936000 108204000
L121158000 105283000
" />
<path d="M121158000 105283000
L125095000 105283000
" />
<path d="M125095000 105283000
L126365000 109728000
" />
</g>
<g style="fill:#C20000; fill-opacity:1.0; 
stroke:#C20000; stroke-width:100000.000000; stroke-opacity:1; 
stroke-linecap:round; stroke-linejoin:round;">
<path style="fill:#C20000; fill-opacity:1.0; 
stroke:#C20000; stroke-width:100000.000000; stroke-opacity:1; 
stroke-linecap:round; stroke-linejoin:round;fill-rule:evenodd;"
d="M 126365000.000000,109728000.000000
123317000.000000,109728000.000000
123698000.000000,110871000.000000
123317000.000000,110871000.000000
123317000.000000,111760000.000000
120142000.000000,108204000.000000
122936000.000000,108204000.000000
121158000.000000,105283000.000000
125095000.000000,105283000.000000
Z" /> 
</g>
<g style="fill:#C20000; fill-opacity:0.0; 
stroke:#C20000; stroke-width:100000.000000; stroke-opacity:1; 
stroke-linecap:round; stroke-linejoin:round;">
<path d="M114400000 100900000
L113900000 101600000
" />
<path d="M113900000 101600000
L113100000 102000000
" />
<path d="M113100000 102000000
L112300000 102200000
" />
<path d="M112300000 102200000
L111300000 102000000
" />
<path d="M111300000 102000000
L110700000 101700000
" />
<path d="M110700000 101700000
L110000000 100900000
" />
<path d="M110000000 100900000
L109700000 100200000
" />
<path d="M109700000 100200000
L109700000 99500000
" />
<path d="M109700000 99500000
L114900000 99500000
" />
<path d="M114900000 99500000
L114400000 100900000
" />
</g>
<g style="fill:#C20000; fill-opacity:1.0; 
stroke:#C20000; stroke-width:100000.000000; stroke-opacity:1; 
stroke-linecap:round; stroke-linejoin:round;">
<path style="fill:#C20000; fill-opacity:1.0; 
stroke:#C20000; stroke-width:100000.000000; stroke-opacity:1; 
stroke-linecap:round; stroke-linejoin:round;fill-rule:evenodd;"
d="M 114400000.000000,100900000.000000
113900000.000000,101600000.000000
113100000.000000,102000000.000000
112300000.000000,102200000.000000
111300000.000000,102000000.000000
110700000.000000,101700000.000000
110000000.000000,100900000.000000
109700000.000000,100200000.000000
109700000.000000,99500000.000000
114900000.000000,99500000.000000
Z" /> 
</g>
<g style="fill:#C20000; fill-opacity:1.0; 
stroke:#C20000; stroke-width:635000.000000; stroke-opacity:1; 
stroke-linecap:round; stroke-linejoin:round;">
</g>
<g style="fill:#C20000; fill-opacity:0.0; 
stroke:#C20000; stroke-width:635000.000000; stroke-opacity:1; 
stroke-linecap:round; stroke-linejoin:round;">
<path d="M109600000 99500000
L114800000 99500000
" />
<path d="M109600000.000000 99500000.000000 A2600000.000000 2600000.000000 0.0 0 0 114800000.000000 99500000.000000" />
</g>
<g style="fill:#C20000; fill-opacity:0.0; 
stroke:#C20000; stroke-width:100000.000000; stroke-opacity:1; 
stroke-linecap:round; stroke-linejoin:round;">
<path d="M114427000 113157000
L111252000 113157000
" />
<path d="M111252000 113157000
L111887000 116713000
" />
<path d="M111887000 116713000
L110744000 116713000
" />
<path d="M110744000 116713000
L105918000 110998000
" />
<path d="M105918000 110998000
L109728000 110998000
" />
<path d="M109728000 110998000
L107188000 105156000
" />
<path d="M107188000 105156000
L112395000 105156000
" />
<path d="M112395000 105156000
L114427000 113157000
" />
</g>
<g style="fill:#C20000; fill-opacity:1.0; 
stroke:#C20000; stroke-width:100000.000000; stroke-opacity:1; 
stroke-linecap:round; stroke-linejoin:round;">
<path style="fill:#C20000; fill-opacity:1.0; 
stroke:#C20000; stroke-width:100000.000000; stroke-opacity:1; 
stroke-linecap:round; stroke-linejoin:round;fill-rule:evenodd;"
d="M 114427000.000000,113157000.000000
111252000.000000,113157000.000000
111887000.000000,116713000.000000
110744000.000000,116713000.000000
105918000.000000,110998000.000000
109728000.000000,110998000.000000
107188000.000000,105156000.000000
112395000.000000,105156000.000000
Z" /> 
</g>
<g style="fill:#C20000; fill-opacity:0.0; 
stroke:#C20000; stroke-width:100000.000000; stroke-opacity:1; 
stroke-linecap:round; stroke-linejoin:round;">
<path d="M99314000 105156000
L100330000 110744000
" />
<path d="M100330000 110744000
L97028000 110744000
" />
<path d="M97028000 110744000
L97409000 112649000
" />
<path d="M97409000 112649000
L96520000 112649000
" />
<path d="M96520000 112649000
L93726000 108585000
" />
<path d="M93726000 108585000
L96901000 108585000
" />
<path d="M96901000 108585000
L95123000 105029000
" />
<path d="M95123000 105029000
L99314000 105156000
" />
</g>
<g style="fill:#C20000; fill-opacity:1.0; 
stroke:#C20000; stroke-width:100000.000000; stroke-opacity:1; 
stroke-linecap:round; stroke-linejoin:round;">
<path style="fill:#C20000; fill-opacity:1.0; 
stroke:#C20000; stroke-width:100000.000000; stroke-opacity:1; 
stroke-linecap:round; stroke-linejoin:round;fill-rule:evenodd;"
d="M 99314000.000000,105156000.000000
100330000.000000,110744000.000000
97028000.000000,110744000.000000
97409000.000000,112649000.000000
96520000.000000,112649000.000000
93726000.000000,108585000.000000
96901000.000000,108585000.000000
95123000.000000,105029000.000000
Z" /> 
</g>
<g style="fill:#C20000; fill-opacity:1.0; 
stroke:#C20000; stroke-width:10000.000000; stroke-opacity:1; 
stroke-linecap:round; stroke-linejoin:round;">
</g>
<g style="fill:#C20000; fill-opacity:0.0; 
stroke:#C20000; stroke-width:10000.000000; stroke-opacity:1; 
stroke-linecap:round; stroke-linejoin:round;">
<path d="M112627775 77787365
L113815305 78098410
" />
<path d="M113815305 78098410
L114948223 78595603
" />
<path d="M114948223 78595603
L116000035 79261587
" />
<path d="M116000035 79261587
L116944246 80079003
" />
<path d="M116944246 80079003
L117754362 81030495
" />
<path d="M117754362 81030495
L118403886 82098704
" />
<path d="M118403886 82098704
L118516418 82334073
" />
<path d="M118516418 82334073
L118700157 82736580
" />
<path d="M118700157 82736580
L119556361 82456269
" />
<path d="M119556361 82456269
L120290333 82281518
" />
<path d="M120290333 82281518
L121144120 82181724
" />
<path d="M121144120 82181724
L122029786 82160324
" />
<path d="M122029786 82160324
L122859396 82220752
" />
<path d="M122859396 82220752
L123339087 82308483
" />
<path d="M123339087 82308483
L124595291 82724555
" />
<path d="M124595291 82724555
L125753567 83327932
" />
<path d="M125753567 83327932
L126793327 84102296
" />
<path d="M126793327 84102296
L127693981 85031328
" />
<path d="M127693981 85031328
L128434940 86098710
" />
<path d="M128434940 86098710
L128667739 86531945
" />
<path d="M128667739 86531945
L128913184 87060745
" />
<path d="M128913184 87060745
L129139761 87611310
" />
<path d="M129139761 87611310
L129312711 88096618
" />
<path d="M129312711 88096618
L129366660 88281566
" />
<path d="M129366660 88281566
L129482492 88912891
" />
<path d="M129482492 88912891
L129546764 89658960
" />
<path d="M129546764 89658960
L129558151 90436900
" />
<path d="M129558151 90436900
L129515326 91163837
" />
<path d="M129515326 91163837
L129421973 91736811
" />
<path d="M129421973 91736811
L129338987 92094469
" />
<path d="M129338987 92094469
L129318440 92302955
" />
<path d="M129318440 92302955
L129369120 92427353
" />
<path d="M129369120 92427353
L129499815 92532746
" />
<path d="M129499815 92532746
L129532408 92554649
" />
<path d="M129532408 92554649
L129930682 92875868
" />
<path d="M129930682 92875868
L130385773 93328556
" />
<path d="M130385773 93328556
L130844279 93852777
" />
<path d="M130844279 93852777
L131252800 94388595
" />
<path d="M131252800 94388595
L131484956 94746138
" />
<path d="M131484956 94746138
L131892459 95503552
" />
<path d="M131892459 95503552
L132173503 96205112
" />
<path d="M132173503 96205112
L132346731 96922470
" />
<path d="M132346731 96922470
L132430786 97727277
" />
<path d="M132430786 97727277
L132446500 98441566
" />
<path d="M132446500 98441566
L132380738 99616081
" />
<path d="M132380738 99616081
L132178452 100654107
" />
<path d="M132178452 100654107
L131822679 101604867
" />
<path d="M131822679 101604867
L131296459 102517580
" />
<path d="M131296459 102517580
L130822562 103154069
" />
<path d="M130822562 103154069
L130131695 103907731
" />
<path d="M130131695 103907731
L129370949 104526849
" />
<path d="M129370949 104526849
L128489474 105047108
" />
<path d="M128489474 105047108
L127517934 105473060
" />
<path d="M127517934 105473060
L126707348 105785479
" />
<path d="M126707348 105785479
L111688217 105808183
" />
<path d="M111688217 105808183
L109561274 105811303
" />
<path d="M109561274 105811303
L107643685 105813814
" />
<path d="M107643685 105813814
L105923935 105815581
" />
<path d="M105923935 105815581
L104390509 105816469
" />
<path d="M104390509 105816469
L103031892 105816344
" />
<path d="M103031892 105816344
L101836568 105815071
" />
<path d="M101836568 105815071
L100793024 105812514
" />
<path d="M100793024 105812514
L99889743 105808538
" />
<path d="M99889743 105808538
L99115210 105803010
" />
<path d="M99115210 105803010
L98457911 105795794
" />
<path d="M98457911 105795794
L97906331 105786756
" />
<path d="M97906331 105786756
L97448954 105775760
" />
<path d="M97448954 105775760
L97074266 105762671
" />
<path d="M97074266 105762671
L96770751 105747355
" />
<path d="M96770751 105747355
L96526895 105729677
" />
<path d="M96526895 105729677
L96331182 105709502
" />
<path d="M96331182 105709502
L96172097 105686695
" />
<path d="M96172097 105686695
L96038125 105661121
" />
<path d="M96038125 105661121
L95917751 105632645
" />
<path d="M95917751 105632645
L95880807 105623053
" />
<path d="M95880807 105623053
L94684881 105198397
" />
<path d="M94684881 105198397
L93603129 104594732
" />
<path d="M93603129 104594732
L92650411 103830330
" />
<path d="M92650411 103830330
L91841589 102923464
" />
<path d="M91841589 102923464
L91191523 101892406
" />
<path d="M91191523 101892406
L90715076 100755430
" />
<path d="M90715076 100755430
L90427107 99530809
" />
<path d="M90427107 99530809
L90354537 98828087
" />
<path d="M90354537 98828087
L90355092 98802157
" />
<path d="M90355092 98802157
L91787231 98802157
" />
<path d="M91787231 98802157
L91948635 99849284
" />
<path d="M91948635 99849284
L92311596 100878716
" />
<path d="M92311596 100878716
L92880258 101869524
" />
<path d="M92880258 101869524
L93073575 102132860
" />
<path d="M93073575 102132860
L93829153 102935012
" />
<path d="M93829153 102935012
L94723524 103573754
" />
<path d="M94723524 103573754
L95734020 104036387
" />
<path d="M95734020 104036387
L96837970 104310207
" />
<path d="M96837970 104310207
L97000391 104332969
" />
<path d="M97000391 104332969
L97149818 104338034
" />
<path d="M97149818 104338034
L97506799 104342735
" />
<path d="M97506799 104342735
L98058019 104347046
" />
<path d="M98058019 104347046
L98790163 104350940
" />
<path d="M98790163 104350940
L99689915 104354390
" />
<path d="M99689915 104354390
L100743962 104357371
" />
<path d="M100743962 104357371
L101938987 104359855
" />
<path d="M101938987 104359855
L103261675 104361815
" />
<path d="M103261675 104361815
L104698712 104363227
" />
<path d="M104698712 104363227
L106236781 104364062
" />
<path d="M106236781 104364062
L107862569 104364294
" />
<path d="M107862569 104364294
L109562760 104363897
" />
<path d="M109562760 104363897
L111324039 104362845
" />
<path d="M111324039 104362845
L111798652 104362453
" />
<path d="M111798652 104362453
L126265608 104349826
" />
<path d="M126265608 104349826
L126983435 104103923
" />
<path d="M126983435 104103923
L127988980 103650721
" />
<path d="M127988980 103650721
L128895781 103025442
" />
<path d="M128895781 103025442
L129670639 102256813
" />
<path d="M129670639 102256813
L130280357 101373559
" />
<path d="M130280357 101373559
L130397393 101149816
" />
<path d="M130397393 101149816
L130819471 100060768
" />
<path d="M130819471 100060768
L131027407 98955365
" />
<path d="M131027407 98955365
L131021259 97851555
" />
<path d="M131021259 97851555
L130801082 96767282
" />
<path d="M130801082 96767282
L130380462 95746191
" />
<path d="M130380462 95746191
L130177445 95422001
" />
<path d="M130177445 95422001
L129883546 95032441
" />
<path d="M129883546 95032441
L129532935 94614223
" />
<path d="M129532935 94614223
L129159779 94204062
" />
<path d="M129159779 94204062
L128798248 93838672
" />
<path d="M128798248 93838672
L128482509 93554766
" />
<path d="M128482509 93554766
L128246732 93389058
" />
<path d="M128246732 93389058
L128161147 93361566
" />
<path d="M128161147 93361566
L127961108 93295979
" />
<path d="M127961108 93295979
L127764082 93168305
" />
<path d="M127764082 93168305
L127526347 92975044
" />
<path d="M127526347 92975044
L127746642 92286735
" />
<path d="M127746642 92286735
L127984993 91448579
" />
<path d="M127984993 91448579
L128115409 90733429
" />
<path d="M128115409 90733429
L128145598 90076118
" />
<path d="M128145598 90076118
L128085286 89424663
" />
<path d="M128085286 89424663
L127834813 88276086
" />
<path d="M127834813 88276086
L127443209 87271273
" />
<path d="M127443209 87271273
L126888822 86368225
" />
<path d="M126888822 86368225
L126150004 85524945
" />
<path d="M126150004 85524945
L126000839 85381050
" />
<path d="M126000839 85381050
L125062892 84637613
" />
<path d="M125062892 84637613
L124044214 84098955
" />
<path d="M124044214 84098955
L122949833 83767099
" />
<path d="M122949833 83767099
L121784776 83644068
" />
<path d="M121784776 83644068
L121682565 83643305
" />
<path d="M121682565 83643305
L120731551 83712207
" />
<path d="M120731551 83712207
L119826993 83931625
" />
<path d="M119826993 83931625
L118892556 84320622
" />
<path d="M118892556 84320622
L118814079 84359711
" />
<path d="M118814079 84359711
L118435939 84543818
" />
<path d="M118435939 84543818
L118131010 84680634
" />
<path d="M118131010 84680634
L117954914 84745486
" />
<path d="M117954914 84745486
L117939608 84747653
" />
<path d="M117939608 84747653
L117859455 84650272
" />
<path d="M117859455 84650272
L117736885 84390964
" />
<path d="M117736885 84390964
L117594196 84018977
" />
<path d="M117594196 84018977
L117545769 83877713
" />
<path d="M117545769 83877713
L117071281 82754426
" />
<path d="M117071281 82754426
L116456156 81773998
" />
<path d="M116456156 81773998
L115720981 80941557
" />
<path d="M115720981 80941557
L114886340 80262231
" />
<path d="M114886340 80262231
L113972821 79741145
" />
<path d="M113972821 79741145
L113001007 79383429
" />
<path d="M113001007 79383429
L111991487 79194209
" />
<path d="M111991487 79194209
L110964844 79178613
" />
<path d="M110964844 79178613
L109941666 79341767
" />
<path d="M109941666 79341767
L108942537 79688800
" />
<path d="M108942537 79688800
L107988044 80224839
" />
<path d="M107988044 80224839
L107098772 80955011
" />
<path d="M107098772 80955011
L106847449 81213049
" />
<path d="M106847449 81213049
L106230134 81967447
" />
<path d="M106230134 81967447
L105750571 82767640
" />
<path d="M105750571 82767640
L105364987 83689912
" />
<path d="M105364987 83689912
L105278557 83947217
" />
<path d="M105278557 83947217
L104987164 84850623
" />
<path d="M104987164 84850623
L104112855 84411029
" />
<path d="M104112855 84411029
L103235119 84019395
" />
<path d="M103235119 84019395
L102429012 83775138
" />
<path d="M102429012 83775138
L101620923 83659235
" />
<path d="M101620923 83659235
L101141695 83643305
" />
<path d="M101141695 83643305
L99994627 83740265
" />
<path d="M99994627 83740265
L98933446 84035024
" />
<path d="M98933446 84035024
L97944440 84533403
" />
<path d="M97944440 84533403
L97013896 85241221
" />
<path d="M97013896 85241221
L96718375 85520696
" />
<path d="M96718375 85520696
L95923437 86451498
" />
<path d="M95923437 86451498
L95325354 87461113
" />
<path d="M95325354 87461113
L94928833 88531731
" />
<path d="M94928833 88531731
L94738582 89645542
" />
<path d="M94738582 89645542
L94759308 90784735
" />
<path d="M94759308 90784735
L94995718 91931501
" />
<path d="M94995718 91931501
L95010923 91981131
" />
<path d="M95010923 91981131
L95137016 92395626
" />
<path d="M95137016 92395626
L95232990 92727348
" />
<path d="M95232990 92727348
L95283162 92921478
" />
<path d="M95283162 92921478
L95286995 92946050
" />
<path d="M95286995 92946050
L95202239 93046224
" />
<path d="M95202239 93046224
L94984036 93211998
" />
<path d="M94984036 93211998
L94819304 93319913
" />
<path d="M94819304 93319913
L93858439 94033671
" />
<path d="M93858439 94033671
L93074254 94855315
" />
<path d="M93074254 94855315
L92470894 95763916
" />
<path d="M92470894 95763916
L92052507 96738543
" />
<path d="M92052507 96738543
L91823237 97758267
" />
<path d="M91823237 97758267
L91787231 98802157
" />
<path d="M91787231 98802157
L90355092 98802157
" />
<path d="M90355092 98802157
L90380175 97631878
" />
<path d="M90380175 97631878
L90606075 96490320
" />
<path d="M90606075 96490320
L91040450 95359881
" />
<path d="M91040450 95359881
L91404899 94697960
" />
<path d="M91404899 94697960
L91859050 94032262
" />
<path d="M91859050 94032262
L92355635 93423460
" />
<path d="M92355635 93423460
L92847385 92932231
" />
<path d="M92847385 92932231
L93070389 92754174
" />
<path d="M93070389 92754174
L93341794 92543593
" />
<path d="M93341794 92543593
L93467026 92378055
" />
<path d="M93467026 92378055
L93486454 92184342
" />
<path d="M93486454 92184342
L93466179 92036348
" />
<path d="M93466179 92036348
L93353735 91337760
" />
<path d="M93353735 91337760
L93281327 90800202
" />
<path d="M93281327 90800202
L93245558 90368147
" />
<path d="M93245558 90368147
L93243033 89986067
" />
<path d="M93243033 89986067
L93270354 89598436
" />
<path d="M93270354 89598436
L93300732 89331449
" />
<path d="M93300732 89331449
L93570129 88004963
" />
<path d="M93570129 88004963
L94029280 86770272
" />
<path d="M94029280 86770272
L94664214 85643697
" />
<path d="M94664214 85643697
L95460958 84641561
" />
<path d="M95460958 84641561
L96405541 83780183
" />
<path d="M96405541 83780183
L97483991 83075885
" />
<path d="M97483991 83075885
L98682338 82544988
" />
<path d="M98682338 82544988
L99264304 82365029
" />
<path d="M99264304 82365029
L100087389 82213856
" />
<path d="M100087389 82213856
L101012765 82160031
" />
<path d="M101012765 82160031
L101955484 82201620
" />
<path d="M101955484 82201620
L102830598 82336690
" />
<path d="M102830598 82336690
L103271082 82456236
" />
<path d="M103271082 82456236
L104130469 82738602
" />
<path d="M104130469 82738602
L104416234 82169432
" />
<path d="M104416234 82169432
L105096034 81041768
" />
<path d="M105096034 81041768
L105923486 80053606
" />
<path d="M105923486 80053606
L106877420 79218534
" />
<path d="M106877420 79218534
L107936664 78550138
" />
<path d="M107936664 78550138
L109080047 78062003
" />
<path d="M109080047 78062003
L110286400 77767716
" />
<path d="M110286400 77767716
L111412130 77679826
" />
<path d="M111412130 77679826
L112627775 77787365
" />
</g>
<g style="fill:#C20000; fill-opacity:1.0; 
stroke:#C20000; stroke-width:1.000000; stroke-opacity:1; 
stroke-linecap:round; stroke-linejoin:round;">
<circle cx="112627775.000000" cy="77787365.000000" r="5000.000000" /> 
</g>
<g style="fill:#C20000; fill-opacity:1.0; 
stroke:#C20000; stroke-width:10000.000000; stroke-opacity:1; 
stroke-linecap:round; stroke-linejoin:round;">
<path style="fill:#C20000; fill-opacity:1.0; 
stroke:#C20000; stroke-width:10000.000000; stroke-opacity:1; 
stroke-linecap:round; stroke-linejoin:round;fill-rule:evenodd;"
d="M 90606075.000000,96490320.000000
91040450.000000,95359881.000000
91404899.000000,94697960.000000
91859050.000000,94032262.000000
92355635.000000,93423460.000000
92847385.000000,92932231.000000
93070389.000000,92754174.000000
93341794.000000,92543593.000000
93467026.000000,92378055.000000
93486454.000000,92184342.000000
93466179.000000,92036348.000000
93353735.000000,91337760.000000
93281327.000000,90800202.000000
93245558.000000,90368147.000000
93243033.000000,89986067.000000
93270354.000000,89598436.000000
93300732.000000,89331449.000000
93570129.000000,88004963.000000
94029280.000000,86770272.000000
94664214.000000,85643697.000000
95460958.000000,84641561.000000
96405541.000000,83780183.000000
97483991.000000,83075885.000000
98682338.000000,82544988.000000
99264304.000000,82365029.000000
100087389.000000,82213856.000000
101012765.000000,82160031.000000
101955484.000000,82201620.000000
102830598.000000,82336690.000000
103271082.000000,82456236.000000
104130469.000000,82738602.000000
104416234.000000,82169432.000000
105096034.000000,81041768.000000
105923486.000000,80053606.000000
106877420.000000,79218534.000000
107936664.000000,78550138.000000
109080047.000000,78062003.000000
110286400.000000,77767716.000000
111412130.000000,77679826.000000
112627775.000000,77787365.000000
113815305.000000,78098410.000000
114948223.000000,78595603.000000
116000035.000000,79261587.000000
116944246.000000,80079003.000000
117754362.000000,81030495.000000
118403886.000000,82098704.000000
118516418.000000,82334073.000000
118700157.000000,82736580.000000
119556361.000000,82456269.000000
120290333.000000,82281518.000000
121144120.000000,82181724.000000
122029786.000000,82160324.000000
122859396.000000,82220752.000000
123339087.000000,82308483.000000
124595291.000000,82724555.000000
125753567.000000,83327932.000000
126793327.000000,84102296.000000
127693981.000000,85031328.000000
128434940.000000,86098710.000000
128667739.000000,86531945.000000
128913184.000000,87060745.000000
129139761.000000,87611310.000000
129312711.000000,88096618.000000
129366660.000000,88281566.000000
129482492.000000,88912891.000000
129546764.000000,89658960.000000
129558151.000000,90436900.000000
129515326.000000,91163837.000000
129421973.000000,91736811.000000
129338987.000000,92094469.000000
129318440.000000,92302955.000000
129369120.000000,92427353.000000
129499815.000000,92532746.000000
129532408.000000,92554649.000000
129930682.000000,92875868.000000
130385773.000000,93328556.000000
130844279.000000,93852777.000000
131252800.000000,94388595.000000
131484956.000000,94746138.000000
131892459.000000,95503552.000000
132173503.000000,96205112.000000
132346731.000000,96922470.000000
132430786.000000,97727277.000000
132446500.000000,98441566.000000
132380738.000000,99616081.000000
132178452.000000,100654107.000000
131822679.000000,101604867.000000
131296459.000000,102517580.000000
130822562.000000,103154069.000000
130131695.000000,103907731.000000
129370949.000000,104526849.000000
128489474.000000,105047108.000000
127517934.000000,105473060.000000
126707348.000000,105785479.000000
111688217.000000,105808183.000000
109561274.000000,105811303.000000
107643685.000000,105813814.000000
105923935.000000,105815581.000000
104390509.000000,105816469.000000
103031892.000000,105816344.000000
101836568.000000,105815071.000000
100793024.000000,105812514.000000
99889743.000000,105808538.000000
99115210.000000,105803010.000000
98457911.000000,105795794.000000
97906331.000000,105786756.000000
97448954.000000,105775760.000000
97074266.000000,105762671.000000
96770751.000000,105747355.000000
96526895.000000,105729677.000000
96331182.000000,105709502.000000
96172097.000000,105686695.000000
96038125.000000,105661121.000000
95917751.000000,105632645.000000
95880807.000000,105623053.000000
94684881.000000,105198397.000000
93603129.000000,104594732.000000
92650411.000000,103830330.000000
91841589.000000,102923464.000000
91191523.000000,101892406.000000
90715076.000000,100755430.000000
90427107.000000,99530809.000000
90354537.000000,98828087.000000
90355092.000000,98802157.000000
91787231.000000,98802157.000000
91948635.000000,99849284.000000
92311596.000000,100878716.000000
92880258.000000,101869524.000000
93073575.000000,102132860.000000
93829153.000000,102935012.000000
94723524.000000,103573754.000000
95734020.000000,104036387.000000
96837970.000000,104310207.000000
97000391.000000,104332969.000000
97149818.000000,104338034.000000
97506799.000000,104342735.000000
98058019.000000,104347046.000000
98790163.000000,104350940.000000
99689915.000000,104354390.000000
100743962.000000,104357371.000000
101938987.000000,104359855.000000
103261675.000000,104361815.000000
104698712.000000,104363227.000000
106236781.000000,104364062.000000
107862569.000000,104364294.000000
109562760.000000,104363897.000000
111324039.000000,104362845.000000
111798652.000000,104362453.000000
126265608.000000,104349826.000000
126983435.000000,104103923.000000
127988980.000000,103650721.000000
128895781.000000,103025442.000000
129670639.000000,102256813.000000
130280357.000000,101373559.000000
130397393.000000,101149816.000000
130819471.000000,100060768.000000
131027407.000000,98955365.000000
131021259.000000,97851555.000000
130801082.000000,96767282.000000
130380462.000000,95746191.000000
130177445.000000,95422001.000000
129883546.000000,95032441.000000
129532935.000000,94614223.000000
129159779.000000,94204062.000000
128798248.000000,93838672.000000
128482509.000000,93554766.000000
128246732.000000,93389058.000000
128161147.000000,93361566.000000
127961108.000000,93295979.000000
127764082.000000,93168305.000000
127526347.000000,92975044.000000
127746642.000000,92286735.000000
127984993.000000,91448579.000000
128115409.000000,90733429.000000
128145598.000000,90076118.000000
128085286.000000,89424663.000000
127834813.000000,88276086.000000
127443209.000000,87271273.000000
126888822.000000,86368225.000000
126150004.000000,85524945.000000
126000839.000000,85381050.000000
125062892.000000,84637613.000000
124044214.000000,84098955.000000
122949833.000000,83767099.000000
121784776.000000,83644068.000000
121682565.000000,83643305.000000
120731551.000000,83712207.000000
119826993.000000,83931625.000000
118892556.000000,84320622.000000
118814079.000000,84359711.000000
118435939.000000,84543818.000000
118131010.000000,84680634.000000
117954914.000000,84745486.000000
117939608.000000,84747653.000000
117859455.000000,84650272.000000
117736885.000000,84390964.000000
117594196.000000,84018977.000000
117545769.000000,83877713.000000
117071281.000000,82754426.000000
116456156.000000,81773998.000000
115720981.000000,80941557.000000
114886340.000000,80262231.000000
113972821.000000,79741145.000000
113001007.000000,79383429.000000
111991487.000000,79194209.000000
110964844.000000,79178613.000000
109941666.000000,79341767.000000
108942537.000000,79688800.000000
107988044.000000,80224839.000000
107098772.000000,80955011.000000
106847449.000000,81213049.000000
106230134.000000,81967447.000000
105750571.000000,82767640.000000
105364987.000000,83689912.000000
105278557.000000,83947217.000000
104987164.000000,84850623.000000
104112855.000000,84411029.000000
103235119.000000,84019395.000000
102429012.000000,83775138.000000
101620923.000000,83659235.000000
101141695.000000,83643305.000000
99994627.000000,83740265.000000
98933446.000000,84035024.000000
97944440.000000,84533403.000000
97013896.000000,85241221.000000
96718375.000000,85520696.000000
95923437.000000,86451498.000000
95325354.000000,87461113.000000
94928833.000000,88531731.000000
94738582.000000,89645542.000000
94759308.000000,90784735.000000
94995718.000000,91931501.000000
95010923.000000,91981131.000000
95137016.000000,92395626.000000
95232990.000000,92727348.000000
95283162.000000,92921478.000000
95286995.000000,92946050.000000
95202239.000000,93046224.000000
94984036.000000,93211998.000000
94819304.000000,93319913.000000
93858439.000000,94033671.000000
93074254.000000,94855315.000000
92470894.000000,95763916.000000
92052507.000000,96738543.000000
91823237.000000,97758267.000000
91787231.000000,98802157.000000
90355092.000000,98802157.000000
90380175.000000,97631878.000000
Z" /> 
<g >
</g>
<g style="fill:#C20000; fill-opacity:1.0; 
stroke:#C20000; stroke-width:1.000000; stroke-opacity:1; 
stroke-linecap:round; stroke-linejoin:round;">
<circle cx="131698458.000000" cy="104376187.000000" r="1000000.000000" /> 
</g>
<g style="fill:#C20000; fill-opacity:1.0; 
stroke:#C20000; stroke-width:21200.000000; stroke-opacity:1; 
stroke-linecap:round; stroke-linejoin:round;">
</g>
<g style="fill:#C20000; fill-opacity:1.0; 
stroke:#C20000; stroke-width:1.000000; stroke-opacity:1; 
stroke-linecap:round; stroke-linejoin:round;">
<circle cx="130108700.000000" cy="106920332.000000" r="1000000.000000" /> 
</g>
<g style="fill:#C20000; fill-opacity:1.0; 
stroke:#C20000; stroke-width:21200.000000; stroke-opacity:1; 
stroke-linecap:round; stroke-linejoin:round;">
</g>
<g style="fill:#C20000; fill-opacity:1.0; 
stroke:#C20000; stroke-width:1.000000; stroke-opacity:1; 
stroke-linecap:round; stroke-linejoin:round;">
<circle cx="128518943.000000" cy="109464476.000000" r="1000000.000000" /> 
</g>
<g style="fill:#C20000; fill-opacity:1.0; 
stroke:#C20000; stroke-width:21200.000000; stroke-opacity:1; 
stroke-linecap:round; stroke-linejoin:round;">
</g>
<g >
</g>
<g style="fill:#C20000; fill-opacity:1.0; 
stroke:#C20000; stroke-width:21200.000000; stroke-opacity:1; 
stroke-linecap:round; stroke-linejoin:round;">
</g>
<g style="fill:#C20000; fill-opacity:1.0; 
stroke:#C20000; stroke-width:1.000000; stroke-opacity:1; 
stroke-linecap:round; stroke-linejoin:round;">
<circle cx="97500000.000000" cy="116440000.000000" r="900000.000000" /> 
</g>
<g style="fill:#C20000; fill-opacity:1.0; 
stroke:#C20000; stroke-width:21200.000000; stroke-opacity:1; 
stroke-linecap:round; stroke-linejoin:round;">
</g>
<g style="fill:#C20000; fill-opacity:1.0; 
stroke:#C20000; stroke-width:1.000000; stroke-opacity:1; 
stroke-linecap:round; stroke-linejoin:round;">
<path style="fill:#C20000; fill-opacity:1.0; 
stroke:#C20000; stroke-width:1.000000; stroke-opacity:1; 
stroke-linecap:round; stroke-linejoin:round;fill-rule:evenodd;"
d="M 96600001.000000,113000001.000000
98399999.000000,113000001.000000
98399999.000000,114799999.000000
96600001.000000,114799999.000000
Z" /> 
</g>
<g >
</g>
<g style="fill:#C20000; fill-opacity:1.0; 
stroke:#C20000; stroke-width:1.000000; stroke-opacity:1; 
stroke-linecap:round; stroke-linejoin:round;">
<circle cx="111800000.000000" cy="120440000.000000" r="900000.000000" /> 
</g>
<g style="fill:#C20000; fill-opacity:1.0; 
stroke:#C20000; stroke-width:21200.000000; stroke-opacity:1; 
stroke-linecap:round; stroke-linejoin:round;">
</g>
<g style="fill:#C20000; fill-opacity:1.0; 
stroke:#C20000; stroke-width:1.000000; stroke-opacity:1; 
stroke-linecap:round; stroke-linejoin:round;">
<path style="fill:#C20000; fill-opacity:1.0; 
stroke:#C20000; stroke-width:1.000000; stroke-opacity:1; 
stroke-linecap:round; stroke-linejoin:round;fill-rule:evenodd;"
d="M 110900001.000000,117000001.000000
112699999.000000,117000001.000000
112699999.000000,118799999.000000
110900001.000000,118799999.000000
Z" /> 
</g>
<g >
</g>
<g style="fill:#C20000; fill-opacity:1.0; 
stroke:#C20000; stroke-width:1.000000; stroke-opacity:1; 
stroke-linecap:round; stroke-linejoin:round;">
<circle cx="124500000.000000" cy="114640000.000000" r="900000.000000" /> 
</g>
<g style="fill:#C20000; fill-opacity:1.0; 
stroke:#C20000; stroke-width:21200.000000; stroke-opacity:1; 
stroke-linecap:round; stroke-linejoin:round;">
</g>
<g style="fill:#C20000; fill-opacity:1.0; 
stroke:#C20000; stroke-width:1.000000; stroke-opacity:1; 
stroke-linecap:round; stroke-linejoin:round;">
<path style="fill:#C20000; fill-opacity:1.0; 
stroke:#C20000; stroke-width:1.000000; stroke-opacity:1; 
stroke-linecap:round; stroke-linejoin:round;fill-rule:evenodd;"
d="M 123600001.000000,111200001.000000
125399999.000000,111200001.000000
125399999.000000,112999999.000000
123600001.000000,112999999.000000
Z" /> 
</g>
<g >
</g>
<g >
</g>
<g >
</g>
<g style="fill:#C20000; fill-opacity:1.0; 
stroke:#C20000; stroke-width:1.000000; stroke-opacity:1; 
stroke-linecap:round; stroke-linejoin:round;">
</g>
<g style="fill:#C20000; fill-opacity:1.0; 
stroke:#C20000; stroke-width:2500000.000000; stroke-opacity:1; 
stroke-linecap:round; stroke-linejoin:round;">
</g>
<g style="fill:#C20000; fill-opacity:0.0; 
stroke:#C20000; stroke-width:2500000.000000; stroke-opacity:1; 
stroke-linecap:round; stroke-linejoin:round;">
<path d="M101218000 94050000
L101218000 92550000
" />
<path d="M122300000 94050000
L122300000 92550000
" />
</g>
<g >
</g>
<g >
</g>
<g >
</g>
<g >
</g>
<g >
</g>
<g >
</g>
</g>
<g style="fill:#FFFFFF; fill-opacity:0.0; 
stroke:#FFFFFF; stroke-width:2500000.000000; stroke-opacity:1; 
stroke-linecap:round; stroke-linejoin:round;">
</g>
<g style="fill:#FFFFFF; fill-opacity:1.0; 
stroke:#FFFFFF; stroke-width:1.000000; stroke-opacity:1; 
stroke-linecap:round; stroke-linejoin:round;">
<circle cx="131698458.000000" cy="104376187.000000" r="500000.000000" /> 
</g>
<g style="fill:#FFFFFF; fill-opacity:1.0; 
stroke:#FFFFFF; stroke-width:21200.000000; stroke-opacity:1; 
stroke-linecap:round; stroke-linejoin:round;">
</g>
<g style="fill:#FFFFFF; fill-opacity:1.0; 
stroke:#FFFFFF; stroke-width:1.000000; stroke-opacity:1; 
stroke-linecap:round; stroke-linejoin:round;">
<circle cx="130108700.000000" cy="106920332.000000" r="500000.000000" /> 
</g>
<g style="fill:#FFFFFF; fill-opacity:1.0; 
stroke:#FFFFFF; stroke-width:21200.000000; stroke-opacity:1; 
stroke-linecap:round; stroke-linejoin:round;">
</g>
<g style="fill:#FFFFFF; fill-opacity:1.0; 
stroke:#FFFFFF; stroke-width:1.000000; stroke-opacity:1; 
stroke-linecap:round; stroke-linejoin:round;">
<circle cx="128518943.000000" cy="109464476.000000" r="500000.000000" /> 
</g>
<g style="fill:#FFFFFF; fill-opacity:1.0; 
stroke:#FFFFFF; stroke-width:21200.000000; stroke-opacity:1; 
stroke-linecap:round; stroke-linejoin:round;">
</g>
<g style="fill:#FFFFFF; fill-opacity:1.0; 
stroke:#FFFFFF; stroke-width:1.000000; stroke-opacity:1; 
stroke-linecap:round; stroke-linejoin:round;">
<circle cx="97500000.000000" cy="116440000.000000" r="450000.000000" /> 
</g>
<g style="fill:#FFFFFF; fill-opacity:1.0; 
stroke:#FFFFFF; stroke-width:21200.000000; stroke-opacity:1; 
stroke-linecap:round; stroke-linejoin:round;">
</g>
<g style="fill:#FFFFFF; fill-opacity:1.0; 
stroke:#FFFFFF; stroke-width:1.000000; stroke-opacity:1; 
stroke-linecap:round; stroke-linejoin:round;">
<circle cx="97500000.000000" cy="113900000.000000" r="450000.000000" /> 
</g>
<g style="fill:#FFFFFF; fill-opacity:1.0; 
stroke:#FFFFFF; stroke-width:21200.000000; stroke-opacity:1; 
stroke-linecap:round; stroke-linejoin:round;">
</g>
<g style="fill:#FFFFFF; fill-opacity:1.0; 
stroke:#FFFFFF; stroke-width:1.000000; stroke-opacity:1; 
stroke-linecap:round; stroke-linejoin:round;">
<circle cx="111800000.000000" cy="120440000.000000" r="450000.000000" /> 
</g>
<g style="fill:#FFFFFF; fill-opacity:1.0; 
stroke:#FFFFFF; stroke-width:21200.000000; stroke-opacity:1; 
stroke-linecap:round; stroke-linejoin:round;">
</g>
<g style="fill:#FFFFFF; fill-opacity:1.0; 
stroke:#FFFFFF; stroke-width:1.000000; stroke-opacity:1; 
stroke-linecap:round; stroke-linejoin:round;">
<circle cx="111800000.000000" cy="117900000.000000" r="450000.000000" /> 
</g>
<g style="fill:#FFFFFF; fill-opacity:1.0; 
stroke:#FFFFFF; stroke-width:21200.000000; stroke-opacity:1; 
stroke-linecap:round; stroke-linejoin:round;">
</g>
<g style="fill:#FFFFFF; fill-opacity:1.0; 
stroke:#FFFFFF; stroke-width:1.000000; stroke-opacity:1; 
stroke-linecap:round; stroke-linejoin:round;">
<circle cx="124500000.000000" cy="114640000.000000" r="450000.000000" /> 
</g>
<g style="fill:#FFFFFF; fill-opacity:1.0; 
stroke:#FFFFFF; stroke-width:21200.000000; stroke-opacity:1; 
stroke-linecap:round; stroke-linejoin:round;">
</g>
<g style="fill:#FFFFFF; fill-opacity:1.0; 
stroke:#FFFFFF; stroke-width:1.000000; stroke-opacity:1; 
stroke-linecap:round; stroke-linejoin:round;">
<circle cx="124500000.000000" cy="112100000.000000" r="450000.000000" /> 
</g>
<g style="fill:#FFFFFF; fill-opacity:1.0; 
stroke:#FFFFFF; stroke-width:21200.000000; stroke-opacity:1; 
stroke-linecap:round; stroke-linejoin:round;">
</g>
<g style="fill:#FFFFFF; fill-opacity:1.0; 
stroke:#FFFFFF; stroke-width:1.000000; stroke-opacity:1; 
stroke-linecap:round; stroke-linejoin:round;">
<circle cx="101218000.000000" cy="93300000.000000" r="825000.000000" /> 
</g>
<g style="fill:#FFFFFF; fill-opacity:1.0; 
stroke:#FFFFFF; stroke-width:21200.000000; stroke-opacity:1; 
stroke-linecap:round; stroke-linejoin:round;">
</g>
<g style="fill:#FFFFFF; fill-opacity:1.0; 
stroke:#FFFFFF; stroke-width:1.000000; stroke-opacity:1; 
stroke-linecap:round; stroke-linejoin:round;">
<circle cx="122300000.000000" cy="93300000.000000" r="825000.000000" /> 
</g>
<g style="fill:#FFFFFF; fill-opacity:1.0; 
stroke:#FFFFFF; stroke-width:21200.000000; stroke-opacity:1; 
stroke-linecap:round; stroke-linejoin:round;">
</g>
<g style="fill:#000000; fill-opacity:1.0; 
stroke:#000000; stroke-width:21200.000000; stroke-opacity:1; 
stroke-linecap:round; stroke-linejoin:round;">
</g>
<g style="fill:#C2C200; fill-opacity:1.0; 
stroke:#C2C200; stroke-width:21200.000000; stroke-opacity:1; 
stroke-linecap:round; stroke-linejoin:round;">
</g>
<g style="fill:#C2C200; fill-opacity:0.0; 
stroke:#C2C200; stroke-width:127000.000000; stroke-opacity:1; 
stroke-linecap:round; stroke-linejoin:round;">
<circle cx="111300000.000000" cy="100400000.000000" r="26212800.000000" /> 
<g >
</g>
<g >
</g>
<g >
</g>
<g >
</g>
<g >
</g>
<g >
</g>
<g >
</g>
<g >
</g>
<g >
</g>
<g >
</g>
<g >
</g>
<g >
</g>
<g >
</g>
</g> 
</svg>
