%TF.GenerationSoftware,KiCad,Pcbnew,(6.0.4)*%
%TF.CreationDate,2024-01-19T14:59:17-08:00*%
%TF.ProjectId,StormCloud,53746f72-6d43-46c6-9f75-642e6b696361,rev?*%
%TF.SameCoordinates,Original*%
%TF.FileFunction,Copper,L2,Bot*%
%TF.FilePolarity,Positive*%
%FSLAX46Y46*%
G04 Gerber Fmt 4.6, Leading zero omitted, Abs format (unit mm)*
G04 Created by KiCad (PCBNEW (6.0.4)) date 2024-01-19 14:59:17*
%MOMM*%
%LPD*%
G01*
G04 APERTURE LIST*
%TA.AperFunction,EtchedComponent*%
%ADD10C,0.010000*%
%TD*%
%TA.AperFunction,ComponentPad*%
%ADD11R,1.800000X1.800000*%
%TD*%
%TA.AperFunction,ComponentPad*%
%ADD12C,1.800000*%
%TD*%
%TA.AperFunction,ComponentPad*%
%ADD13O,2.500000X4.000000*%
%TD*%
%TA.AperFunction,SMDPad,CuDef*%
%ADD14C,17.272000*%
%TD*%
%TA.AperFunction,ComponentPad*%
%ADD15C,2.000000*%
%TD*%
%TA.AperFunction,Conductor*%
%ADD16C,0.508000*%
%TD*%
%TA.AperFunction,Conductor*%
%ADD17C,1.016000*%
%TD*%
G04 APERTURE END LIST*
%TO.C,G\u002A\u002A\u002A*%
G36*
X97717254Y-90952036D02*
G01*
X97532993Y-90930560D01*
X97394611Y-90895943D01*
X97291351Y-90845481D01*
X97212458Y-90776469D01*
X97147175Y-90686204D01*
X97118797Y-90628237D01*
X97076716Y-90458832D01*
X97069877Y-90333088D01*
X97386496Y-90333088D01*
X97439766Y-90434585D01*
X97468724Y-90457515D01*
X97552897Y-90492899D01*
X97681231Y-90517144D01*
X97862127Y-90531084D01*
X98103986Y-90535553D01*
X98415207Y-90531384D01*
X98499930Y-90529344D01*
X98699956Y-90523409D01*
X98839815Y-90515794D01*
X98932897Y-90504295D01*
X98992593Y-90486712D01*
X99032296Y-90460843D01*
X99065394Y-90424485D01*
X99111898Y-90336572D01*
X99107401Y-90219535D01*
X99030038Y-90117316D01*
X98981730Y-90099816D01*
X98863688Y-90082931D01*
X98696201Y-90071369D01*
X98495082Y-90065010D01*
X98276141Y-90063731D01*
X98055192Y-90067411D01*
X97848044Y-90075930D01*
X97670511Y-90089165D01*
X97538403Y-90106996D01*
X97467532Y-90129301D01*
X97466762Y-90129843D01*
X97396443Y-90221088D01*
X97386496Y-90333088D01*
X97069877Y-90333088D01*
X97066037Y-90262495D01*
X97087047Y-90070351D01*
X97140033Y-89913526D01*
X97159609Y-89878628D01*
X97220438Y-89793050D01*
X97295721Y-89728284D01*
X97396058Y-89681541D01*
X97532048Y-89650037D01*
X97714288Y-89630984D01*
X97953377Y-89621596D01*
X98259914Y-89619085D01*
X98457920Y-89619415D01*
X98671648Y-89621494D01*
X98828558Y-89626459D01*
X98941001Y-89635413D01*
X99021331Y-89649459D01*
X99081900Y-89669700D01*
X99135060Y-89697239D01*
X99238397Y-89767121D01*
X99351172Y-89889211D01*
X99415771Y-90045365D01*
X99443096Y-90255335D01*
X99438796Y-90458902D01*
X99391705Y-90637470D01*
X99293516Y-90773189D01*
X99137743Y-90879316D01*
X99087394Y-90903801D01*
X99021509Y-90928799D01*
X98944889Y-90946184D01*
X98844051Y-90957296D01*
X98705513Y-90963473D01*
X98515791Y-90966055D01*
X98261404Y-90966381D01*
X98103986Y-90964665D01*
X97958149Y-90963077D01*
X97717254Y-90952036D01*
G37*
D10*
X97717254Y-90952036D02*
X97532993Y-90930560D01*
X97394611Y-90895943D01*
X97291351Y-90845481D01*
X97212458Y-90776469D01*
X97147175Y-90686204D01*
X97118797Y-90628237D01*
X97076716Y-90458832D01*
X97069877Y-90333088D01*
X97386496Y-90333088D01*
X97439766Y-90434585D01*
X97468724Y-90457515D01*
X97552897Y-90492899D01*
X97681231Y-90517144D01*
X97862127Y-90531084D01*
X98103986Y-90535553D01*
X98415207Y-90531384D01*
X98499930Y-90529344D01*
X98699956Y-90523409D01*
X98839815Y-90515794D01*
X98932897Y-90504295D01*
X98992593Y-90486712D01*
X99032296Y-90460843D01*
X99065394Y-90424485D01*
X99111898Y-90336572D01*
X99107401Y-90219535D01*
X99030038Y-90117316D01*
X98981730Y-90099816D01*
X98863688Y-90082931D01*
X98696201Y-90071369D01*
X98495082Y-90065010D01*
X98276141Y-90063731D01*
X98055192Y-90067411D01*
X97848044Y-90075930D01*
X97670511Y-90089165D01*
X97538403Y-90106996D01*
X97467532Y-90129301D01*
X97466762Y-90129843D01*
X97396443Y-90221088D01*
X97386496Y-90333088D01*
X97069877Y-90333088D01*
X97066037Y-90262495D01*
X97087047Y-90070351D01*
X97140033Y-89913526D01*
X97159609Y-89878628D01*
X97220438Y-89793050D01*
X97295721Y-89728284D01*
X97396058Y-89681541D01*
X97532048Y-89650037D01*
X97714288Y-89630984D01*
X97953377Y-89621596D01*
X98259914Y-89619085D01*
X98457920Y-89619415D01*
X98671648Y-89621494D01*
X98828558Y-89626459D01*
X98941001Y-89635413D01*
X99021331Y-89649459D01*
X99081900Y-89669700D01*
X99135060Y-89697239D01*
X99238397Y-89767121D01*
X99351172Y-89889211D01*
X99415771Y-90045365D01*
X99443096Y-90255335D01*
X99438796Y-90458902D01*
X99391705Y-90637470D01*
X99293516Y-90773189D01*
X99137743Y-90879316D01*
X99087394Y-90903801D01*
X99021509Y-90928799D01*
X98944889Y-90946184D01*
X98844051Y-90957296D01*
X98705513Y-90963473D01*
X98515791Y-90966055D01*
X98261404Y-90966381D01*
X98103986Y-90964665D01*
X97958149Y-90963077D01*
X97717254Y-90952036D01*
G36*
X97380683Y-96203547D02*
G01*
X98123145Y-96203547D01*
X98123145Y-95773701D01*
X98474837Y-95773701D01*
X98474837Y-96203547D01*
X99100068Y-96203547D01*
X99100068Y-95656470D01*
X99412683Y-95656470D01*
X99412683Y-96633393D01*
X97068068Y-96633393D01*
X97068068Y-95656470D01*
X97380683Y-95656470D01*
X97380683Y-96203547D01*
G37*
X97380683Y-96203547D02*
X98123145Y-96203547D01*
X98123145Y-95773701D01*
X98474837Y-95773701D01*
X98474837Y-96203547D01*
X99100068Y-96203547D01*
X99100068Y-95656470D01*
X99412683Y-95656470D01*
X99412683Y-96633393D01*
X97068068Y-96633393D01*
X97068068Y-95656470D01*
X97380683Y-95656470D01*
X97380683Y-96203547D01*
G36*
X101615702Y-106047488D02*
G01*
X101769209Y-106059577D01*
X101874530Y-106082188D01*
X101904360Y-106094107D01*
X101938359Y-106114703D01*
X101911518Y-106131178D01*
X101815914Y-106153123D01*
X101693371Y-106171126D01*
X101496768Y-106180803D01*
X101301038Y-106173412D01*
X101143926Y-106149175D01*
X101034376Y-106120667D01*
X101132068Y-106082387D01*
X101157626Y-106074265D01*
X101280754Y-106054839D01*
X101443165Y-106045911D01*
X101615702Y-106047488D01*
G37*
X101615702Y-106047488D02*
X101769209Y-106059577D01*
X101874530Y-106082188D01*
X101904360Y-106094107D01*
X101938359Y-106114703D01*
X101911518Y-106131178D01*
X101815914Y-106153123D01*
X101693371Y-106171126D01*
X101496768Y-106180803D01*
X101301038Y-106173412D01*
X101143926Y-106149175D01*
X101034376Y-106120667D01*
X101132068Y-106082387D01*
X101157626Y-106074265D01*
X101280754Y-106054839D01*
X101443165Y-106045911D01*
X101615702Y-106047488D01*
G36*
X101336784Y-105055170D02*
G01*
X101319211Y-105129648D01*
X101279505Y-105240085D01*
X101244273Y-105317950D01*
X101172461Y-105450415D01*
X101089236Y-105584126D01*
X101006504Y-105701455D01*
X100936172Y-105784779D01*
X100890147Y-105816470D01*
X100886835Y-105813007D01*
X100893588Y-105762828D01*
X100920524Y-105670604D01*
X100959814Y-105559080D01*
X101003629Y-105450997D01*
X101044140Y-105369100D01*
X101080030Y-105315155D01*
X101150276Y-105223728D01*
X101227584Y-105132695D01*
X101294065Y-105062836D01*
X101331827Y-105034932D01*
X101336784Y-105055170D01*
G37*
X101336784Y-105055170D02*
X101319211Y-105129648D01*
X101279505Y-105240085D01*
X101244273Y-105317950D01*
X101172461Y-105450415D01*
X101089236Y-105584126D01*
X101006504Y-105701455D01*
X100936172Y-105784779D01*
X100890147Y-105816470D01*
X100886835Y-105813007D01*
X100893588Y-105762828D01*
X100920524Y-105670604D01*
X100959814Y-105559080D01*
X101003629Y-105450997D01*
X101044140Y-105369100D01*
X101080030Y-105315155D01*
X101150276Y-105223728D01*
X101227584Y-105132695D01*
X101294065Y-105062836D01*
X101331827Y-105034932D01*
X101336784Y-105055170D01*
G36*
X96693176Y-102890903D02*
G01*
X97107552Y-102893737D01*
X97322611Y-102895345D01*
X97692023Y-102898535D01*
X97995235Y-102902667D01*
X98240176Y-102908842D01*
X98434777Y-102918161D01*
X98586969Y-102931725D01*
X98704681Y-102950635D01*
X98795843Y-102975992D01*
X98868387Y-103008897D01*
X98930241Y-103050451D01*
X98989338Y-103101754D01*
X99053606Y-103163908D01*
X99055649Y-103165929D01*
X99130842Y-103259020D01*
X99232776Y-103411724D01*
X99355145Y-103613305D01*
X99491645Y-103853026D01*
X99635969Y-104120148D01*
X99781813Y-104403936D01*
X99784376Y-104409065D01*
X99854613Y-104561358D01*
X99891632Y-104666702D01*
X99895016Y-104719352D01*
X99864348Y-104713560D01*
X99799212Y-104643579D01*
X99793569Y-104636330D01*
X99733309Y-104552645D01*
X99642273Y-104420047D01*
X99530278Y-104253349D01*
X99407139Y-104067364D01*
X99282675Y-103876905D01*
X99166702Y-103696784D01*
X99069037Y-103541815D01*
X99005895Y-103451012D01*
X98898423Y-103325755D01*
X98797941Y-103236968D01*
X98655568Y-103139701D01*
X97138386Y-103143467D01*
X97060567Y-103143694D01*
X96728414Y-103145457D01*
X96422868Y-103148330D01*
X96152522Y-103152146D01*
X95925965Y-103156737D01*
X95751789Y-103161936D01*
X95638585Y-103167577D01*
X95594944Y-103173492D01*
X95595444Y-103194297D01*
X95634386Y-103258942D01*
X95708437Y-103345572D01*
X95756081Y-103398356D01*
X95831606Y-103496654D01*
X95871631Y-103569937D01*
X95910471Y-103622614D01*
X96002224Y-103671323D01*
X96159186Y-103722086D01*
X96287411Y-103760743D01*
X96626903Y-103891372D01*
X96934520Y-104050311D01*
X97187225Y-104226265D01*
X97309055Y-104316779D01*
X97474307Y-104418444D01*
X97623251Y-104490234D01*
X97713866Y-104526762D01*
X97800252Y-104574167D01*
X97844805Y-104628331D01*
X97867327Y-104706828D01*
X97870418Y-104721588D01*
X97903088Y-104805362D01*
X97944285Y-104839547D01*
X97978192Y-104847876D01*
X98043711Y-104896620D01*
X98062914Y-104929508D01*
X98043535Y-104966153D01*
X97960573Y-105007462D01*
X97830068Y-105061231D01*
X98044991Y-105197149D01*
X98149528Y-105259427D01*
X98296310Y-105337226D01*
X98416222Y-105390544D01*
X98478883Y-105416491D01*
X98555809Y-105472263D01*
X98584355Y-105548500D01*
X98586278Y-105585686D01*
X98560256Y-105650053D01*
X98475640Y-105698907D01*
X98463232Y-105704141D01*
X98390552Y-105739956D01*
X98367571Y-105761307D01*
X98377337Y-105764977D01*
X98448154Y-105783081D01*
X98575558Y-105812414D01*
X98745820Y-105849864D01*
X98945209Y-105892316D01*
X99000981Y-105904006D01*
X99245264Y-105955198D01*
X99424274Y-105993328D01*
X99547330Y-106021233D01*
X99623754Y-106041750D01*
X99662865Y-106057717D01*
X99673985Y-106071968D01*
X99666433Y-106087341D01*
X99649530Y-106106674D01*
X99594640Y-106140891D01*
X99485810Y-106183524D01*
X99348369Y-106223895D01*
X99171926Y-106273326D01*
X98806322Y-106400682D01*
X98413656Y-106564960D01*
X98014577Y-106756582D01*
X97629733Y-106965969D01*
X97279770Y-107183542D01*
X97184891Y-107248341D01*
X96990389Y-107387882D01*
X96807475Y-107527285D01*
X96646753Y-107657780D01*
X96518825Y-107770596D01*
X96434294Y-107856966D01*
X96403760Y-107908119D01*
X96400903Y-107920074D01*
X96361192Y-107987759D01*
X96284515Y-108089575D01*
X96183395Y-108208455D01*
X96120776Y-108279407D01*
X95984246Y-108440878D01*
X95851182Y-108606158D01*
X95731107Y-108762658D01*
X95633546Y-108897786D01*
X95568025Y-108998951D01*
X95544068Y-109053564D01*
X95544196Y-109054641D01*
X95570261Y-109067517D01*
X95645053Y-109078285D01*
X95773475Y-109087136D01*
X95960429Y-109094261D01*
X96210821Y-109099850D01*
X96529553Y-109104095D01*
X96921530Y-109107187D01*
X97193403Y-109108756D01*
X97502659Y-109110391D01*
X97783099Y-109111713D01*
X98024857Y-109112682D01*
X98218066Y-109113260D01*
X98352857Y-109113408D01*
X98419363Y-109113086D01*
X98478139Y-109110579D01*
X98638303Y-109083628D01*
X98776906Y-109020410D01*
X98905950Y-108911607D01*
X99037441Y-108747900D01*
X99183381Y-108519971D01*
X99274231Y-108371718D01*
X99393086Y-108186428D01*
X99515342Y-108003431D01*
X99633449Y-107833338D01*
X99739853Y-107686762D01*
X99827003Y-107574315D01*
X99887346Y-107506609D01*
X99913330Y-107494257D01*
X99913167Y-107499729D01*
X99890951Y-107560736D01*
X99838396Y-107676924D01*
X99760732Y-107837416D01*
X99663190Y-108031335D01*
X99550999Y-108247802D01*
X99540387Y-108267973D01*
X99382695Y-108560296D01*
X99248983Y-108789892D01*
X99132406Y-108965155D01*
X99026119Y-109094480D01*
X98923277Y-109186262D01*
X98817035Y-109248893D01*
X98700548Y-109290769D01*
X98695532Y-109292078D01*
X98598318Y-109306202D01*
X98429261Y-109318149D01*
X98187102Y-109327960D01*
X97870586Y-109335675D01*
X97478456Y-109341334D01*
X97009453Y-109344979D01*
X95485453Y-109352932D01*
X95301161Y-109244599D01*
X95237590Y-109203587D01*
X95113025Y-109105244D01*
X95021200Y-109010137D01*
X94997235Y-108975777D01*
X94929486Y-108869594D01*
X94833293Y-108712580D01*
X94714362Y-108514563D01*
X94578401Y-108285373D01*
X94431115Y-108034839D01*
X94278212Y-107772791D01*
X94125398Y-107509057D01*
X93978381Y-107253467D01*
X93842866Y-107015850D01*
X93724562Y-106806036D01*
X93629175Y-106633853D01*
X93562411Y-106509132D01*
X93529978Y-106441701D01*
X93528096Y-106436627D01*
X93485244Y-106237083D01*
X93484229Y-106015920D01*
X93525370Y-105816470D01*
X93554628Y-105750521D01*
X93621629Y-105620210D01*
X93718143Y-105442938D01*
X93838511Y-105228292D01*
X93977072Y-104985855D01*
X94128166Y-104725214D01*
X94286131Y-104455954D01*
X94445309Y-104187660D01*
X94600038Y-103929917D01*
X94744659Y-103692312D01*
X94873510Y-103484428D01*
X94980933Y-103315853D01*
X95061265Y-103196170D01*
X95108847Y-103134966D01*
X95133200Y-103111210D01*
X95194694Y-103054726D01*
X95256408Y-103008407D01*
X95326133Y-102971312D01*
X95411664Y-102942500D01*
X95520794Y-102921030D01*
X95661315Y-102905963D01*
X95841021Y-102896357D01*
X96067704Y-102891272D01*
X96349158Y-102889767D01*
X96693176Y-102890903D01*
G37*
X96693176Y-102890903D02*
X97107552Y-102893737D01*
X97322611Y-102895345D01*
X97692023Y-102898535D01*
X97995235Y-102902667D01*
X98240176Y-102908842D01*
X98434777Y-102918161D01*
X98586969Y-102931725D01*
X98704681Y-102950635D01*
X98795843Y-102975992D01*
X98868387Y-103008897D01*
X98930241Y-103050451D01*
X98989338Y-103101754D01*
X99053606Y-103163908D01*
X99055649Y-103165929D01*
X99130842Y-103259020D01*
X99232776Y-103411724D01*
X99355145Y-103613305D01*
X99491645Y-103853026D01*
X99635969Y-104120148D01*
X99781813Y-104403936D01*
X99784376Y-104409065D01*
X99854613Y-104561358D01*
X99891632Y-104666702D01*
X99895016Y-104719352D01*
X99864348Y-104713560D01*
X99799212Y-104643579D01*
X99793569Y-104636330D01*
X99733309Y-104552645D01*
X99642273Y-104420047D01*
X99530278Y-104253349D01*
X99407139Y-104067364D01*
X99282675Y-103876905D01*
X99166702Y-103696784D01*
X99069037Y-103541815D01*
X99005895Y-103451012D01*
X98898423Y-103325755D01*
X98797941Y-103236968D01*
X98655568Y-103139701D01*
X97138386Y-103143467D01*
X97060567Y-103143694D01*
X96728414Y-103145457D01*
X96422868Y-103148330D01*
X96152522Y-103152146D01*
X95925965Y-103156737D01*
X95751789Y-103161936D01*
X95638585Y-103167577D01*
X95594944Y-103173492D01*
X95595444Y-103194297D01*
X95634386Y-103258942D01*
X95708437Y-103345572D01*
X95756081Y-103398356D01*
X95831606Y-103496654D01*
X95871631Y-103569937D01*
X95910471Y-103622614D01*
X96002224Y-103671323D01*
X96159186Y-103722086D01*
X96287411Y-103760743D01*
X96626903Y-103891372D01*
X96934520Y-104050311D01*
X97187225Y-104226265D01*
X97309055Y-104316779D01*
X97474307Y-104418444D01*
X97623251Y-104490234D01*
X97713866Y-104526762D01*
X97800252Y-104574167D01*
X97844805Y-104628331D01*
X97867327Y-104706828D01*
X97870418Y-104721588D01*
X97903088Y-104805362D01*
X97944285Y-104839547D01*
X97978192Y-104847876D01*
X98043711Y-104896620D01*
X98062914Y-104929508D01*
X98043535Y-104966153D01*
X97960573Y-105007462D01*
X97830068Y-105061231D01*
X98044991Y-105197149D01*
X98149528Y-105259427D01*
X98296310Y-105337226D01*
X98416222Y-105390544D01*
X98478883Y-105416491D01*
X98555809Y-105472263D01*
X98584355Y-105548500D01*
X98586278Y-105585686D01*
X98560256Y-105650053D01*
X98475640Y-105698907D01*
X98463232Y-105704141D01*
X98390552Y-105739956D01*
X98367571Y-105761307D01*
X98377337Y-105764977D01*
X98448154Y-105783081D01*
X98575558Y-105812414D01*
X98745820Y-105849864D01*
X98945209Y-105892316D01*
X99000981Y-105904006D01*
X99245264Y-105955198D01*
X99424274Y-105993328D01*
X99547330Y-106021233D01*
X99623754Y-106041750D01*
X99662865Y-106057717D01*
X99673985Y-106071968D01*
X99666433Y-106087341D01*
X99649530Y-106106674D01*
X99594640Y-106140891D01*
X99485810Y-106183524D01*
X99348369Y-106223895D01*
X99171926Y-106273326D01*
X98806322Y-106400682D01*
X98413656Y-106564960D01*
X98014577Y-106756582D01*
X97629733Y-106965969D01*
X97279770Y-107183542D01*
X97184891Y-107248341D01*
X96990389Y-107387882D01*
X96807475Y-107527285D01*
X96646753Y-107657780D01*
X96518825Y-107770596D01*
X96434294Y-107856966D01*
X96403760Y-107908119D01*
X96400903Y-107920074D01*
X96361192Y-107987759D01*
X96284515Y-108089575D01*
X96183395Y-108208455D01*
X96120776Y-108279407D01*
X95984246Y-108440878D01*
X95851182Y-108606158D01*
X95731107Y-108762658D01*
X95633546Y-108897786D01*
X95568025Y-108998951D01*
X95544068Y-109053564D01*
X95544196Y-109054641D01*
X95570261Y-109067517D01*
X95645053Y-109078285D01*
X95773475Y-109087136D01*
X95960429Y-109094261D01*
X96210821Y-109099850D01*
X96529553Y-109104095D01*
X96921530Y-109107187D01*
X97193403Y-109108756D01*
X97502659Y-109110391D01*
X97783099Y-109111713D01*
X98024857Y-109112682D01*
X98218066Y-109113260D01*
X98352857Y-109113408D01*
X98419363Y-109113086D01*
X98478139Y-109110579D01*
X98638303Y-109083628D01*
X98776906Y-109020410D01*
X98905950Y-108911607D01*
X99037441Y-108747900D01*
X99183381Y-108519971D01*
X99274231Y-108371718D01*
X99393086Y-108186428D01*
X99515342Y-108003431D01*
X99633449Y-107833338D01*
X99739853Y-107686762D01*
X99827003Y-107574315D01*
X99887346Y-107506609D01*
X99913330Y-107494257D01*
X99913167Y-107499729D01*
X99890951Y-107560736D01*
X99838396Y-107676924D01*
X99760732Y-107837416D01*
X99663190Y-108031335D01*
X99550999Y-108247802D01*
X99540387Y-108267973D01*
X99382695Y-108560296D01*
X99248983Y-108789892D01*
X99132406Y-108965155D01*
X99026119Y-109094480D01*
X98923277Y-109186262D01*
X98817035Y-109248893D01*
X98700548Y-109290769D01*
X98695532Y-109292078D01*
X98598318Y-109306202D01*
X98429261Y-109318149D01*
X98187102Y-109327960D01*
X97870586Y-109335675D01*
X97478456Y-109341334D01*
X97009453Y-109344979D01*
X95485453Y-109352932D01*
X95301161Y-109244599D01*
X95237590Y-109203587D01*
X95113025Y-109105244D01*
X95021200Y-109010137D01*
X94997235Y-108975777D01*
X94929486Y-108869594D01*
X94833293Y-108712580D01*
X94714362Y-108514563D01*
X94578401Y-108285373D01*
X94431115Y-108034839D01*
X94278212Y-107772791D01*
X94125398Y-107509057D01*
X93978381Y-107253467D01*
X93842866Y-107015850D01*
X93724562Y-106806036D01*
X93629175Y-106633853D01*
X93562411Y-106509132D01*
X93529978Y-106441701D01*
X93528096Y-106436627D01*
X93485244Y-106237083D01*
X93484229Y-106015920D01*
X93525370Y-105816470D01*
X93554628Y-105750521D01*
X93621629Y-105620210D01*
X93718143Y-105442938D01*
X93838511Y-105228292D01*
X93977072Y-104985855D01*
X94128166Y-104725214D01*
X94286131Y-104455954D01*
X94445309Y-104187660D01*
X94600038Y-103929917D01*
X94744659Y-103692312D01*
X94873510Y-103484428D01*
X94980933Y-103315853D01*
X95061265Y-103196170D01*
X95108847Y-103134966D01*
X95133200Y-103111210D01*
X95194694Y-103054726D01*
X95256408Y-103008407D01*
X95326133Y-102971312D01*
X95411664Y-102942500D01*
X95520794Y-102921030D01*
X95661315Y-102905963D01*
X95841021Y-102896357D01*
X96067704Y-102891272D01*
X96349158Y-102889767D01*
X96693176Y-102890903D01*
G36*
X96345145Y-97747085D02*
G01*
X95954376Y-97766624D01*
X95563607Y-97786162D01*
X95964145Y-97958476D01*
X96035004Y-97989088D01*
X96186872Y-98057189D01*
X96283330Y-98107707D01*
X96336822Y-98149445D01*
X96359792Y-98191203D01*
X96364683Y-98241783D01*
X96364683Y-98352778D01*
X94723453Y-98352778D01*
X94723453Y-98081799D01*
X95160186Y-98070750D01*
X95596920Y-98059701D01*
X95160473Y-97883855D01*
X95046218Y-97837498D01*
X94898018Y-97774455D01*
X94803753Y-97727078D01*
X94751341Y-97687526D01*
X94728698Y-97647962D01*
X94723739Y-97600547D01*
X94723453Y-97493085D01*
X96369635Y-97493085D01*
X96345145Y-97747085D01*
G37*
X96345145Y-97747085D02*
X95954376Y-97766624D01*
X95563607Y-97786162D01*
X95964145Y-97958476D01*
X96035004Y-97989088D01*
X96186872Y-98057189D01*
X96283330Y-98107707D01*
X96336822Y-98149445D01*
X96359792Y-98191203D01*
X96364683Y-98241783D01*
X96364683Y-98352778D01*
X94723453Y-98352778D01*
X94723453Y-98081799D01*
X95160186Y-98070750D01*
X95596920Y-98059701D01*
X95160473Y-97883855D01*
X95046218Y-97837498D01*
X94898018Y-97774455D01*
X94803753Y-97727078D01*
X94751341Y-97687526D01*
X94728698Y-97647962D01*
X94723739Y-97600547D01*
X94723453Y-97493085D01*
X96369635Y-97493085D01*
X96345145Y-97747085D01*
G36*
X100740453Y-104915538D02*
G01*
X100755451Y-105013787D01*
X100765772Y-105143221D01*
X100770543Y-105289184D01*
X100768890Y-105437021D01*
X100759938Y-105572078D01*
X100742814Y-105679701D01*
X100727105Y-105730025D01*
X100700866Y-105750986D01*
X100674789Y-105694905D01*
X100649424Y-105562470D01*
X100646526Y-105536503D01*
X100643136Y-105414530D01*
X100648164Y-105260501D01*
X100659756Y-105101966D01*
X100676059Y-104966476D01*
X100695220Y-104881584D01*
X100699923Y-104871209D01*
X100721652Y-104863127D01*
X100740453Y-104915538D01*
G37*
X100740453Y-104915538D02*
X100755451Y-105013787D01*
X100765772Y-105143221D01*
X100770543Y-105289184D01*
X100768890Y-105437021D01*
X100759938Y-105572078D01*
X100742814Y-105679701D01*
X100727105Y-105730025D01*
X100700866Y-105750986D01*
X100674789Y-105694905D01*
X100649424Y-105562470D01*
X100646526Y-105536503D01*
X100643136Y-105414530D01*
X100648164Y-105260501D01*
X100659756Y-105101966D01*
X100676059Y-104966476D01*
X100695220Y-104881584D01*
X100699923Y-104871209D01*
X100721652Y-104863127D01*
X100740453Y-104915538D01*
G36*
X96357273Y-95334085D02*
G01*
X96345145Y-95480624D01*
X95671951Y-95491312D01*
X95558975Y-95493211D01*
X95342162Y-95498123D01*
X95187327Y-95504687D01*
X95083096Y-95514221D01*
X95018098Y-95528046D01*
X94980961Y-95547478D01*
X94960311Y-95573837D01*
X94943062Y-95630580D01*
X94975739Y-95719457D01*
X94984612Y-95730555D01*
X95015421Y-95754951D01*
X95065781Y-95772725D01*
X95147414Y-95785276D01*
X95272040Y-95794003D01*
X95451377Y-95800305D01*
X95697148Y-95805582D01*
X96364683Y-95817924D01*
X96364683Y-96086316D01*
X95682676Y-96086316D01*
X95667016Y-96086313D01*
X95386979Y-96084237D01*
X95173859Y-96076692D01*
X95016995Y-96061260D01*
X94905729Y-96035526D01*
X94829402Y-95997073D01*
X94777354Y-95943483D01*
X94738925Y-95872340D01*
X94721877Y-95829447D01*
X94688161Y-95633405D01*
X94727689Y-95426652D01*
X94732071Y-95414419D01*
X94768255Y-95338622D01*
X94820288Y-95281623D01*
X94898543Y-95240819D01*
X95013395Y-95213611D01*
X95175215Y-95197397D01*
X95394378Y-95189576D01*
X95681256Y-95187547D01*
X96369401Y-95187547D01*
X96357273Y-95334085D01*
G37*
X96357273Y-95334085D02*
X96345145Y-95480624D01*
X95671951Y-95491312D01*
X95558975Y-95493211D01*
X95342162Y-95498123D01*
X95187327Y-95504687D01*
X95083096Y-95514221D01*
X95018098Y-95528046D01*
X94980961Y-95547478D01*
X94960311Y-95573837D01*
X94943062Y-95630580D01*
X94975739Y-95719457D01*
X94984612Y-95730555D01*
X95015421Y-95754951D01*
X95065781Y-95772725D01*
X95147414Y-95785276D01*
X95272040Y-95794003D01*
X95451377Y-95800305D01*
X95697148Y-95805582D01*
X96364683Y-95817924D01*
X96364683Y-96086316D01*
X95682676Y-96086316D01*
X95667016Y-96086313D01*
X95386979Y-96084237D01*
X95173859Y-96076692D01*
X95016995Y-96061260D01*
X94905729Y-96035526D01*
X94829402Y-95997073D01*
X94777354Y-95943483D01*
X94738925Y-95872340D01*
X94721877Y-95829447D01*
X94688161Y-95633405D01*
X94727689Y-95426652D01*
X94732071Y-95414419D01*
X94768255Y-95338622D01*
X94820288Y-95281623D01*
X94898543Y-95240819D01*
X95013395Y-95213611D01*
X95175215Y-95197397D01*
X95394378Y-95189576D01*
X95681256Y-95187547D01*
X96369401Y-95187547D01*
X96357273Y-95334085D01*
G36*
X101111274Y-106303652D02*
G01*
X101223576Y-106344704D01*
X101359006Y-106408896D01*
X101496745Y-106486382D01*
X101615975Y-106567316D01*
X101676431Y-106613850D01*
X101755368Y-106674464D01*
X101793119Y-106703238D01*
X101793974Y-106703922D01*
X101788208Y-106736433D01*
X101747156Y-106737020D01*
X101655006Y-106706569D01*
X101531808Y-106652121D01*
X101396183Y-106582652D01*
X101266754Y-106507142D01*
X101162142Y-106434570D01*
X101102834Y-106384066D01*
X101047504Y-106324414D01*
X101042055Y-106295859D01*
X101042916Y-106295588D01*
X101111274Y-106303652D01*
G37*
X101111274Y-106303652D02*
X101223576Y-106344704D01*
X101359006Y-106408896D01*
X101496745Y-106486382D01*
X101615975Y-106567316D01*
X101676431Y-106613850D01*
X101755368Y-106674464D01*
X101793119Y-106703238D01*
X101793974Y-106703922D01*
X101788208Y-106736433D01*
X101747156Y-106737020D01*
X101655006Y-106706569D01*
X101531808Y-106652121D01*
X101396183Y-106582652D01*
X101266754Y-106507142D01*
X101162142Y-106434570D01*
X101102834Y-106384066D01*
X101047504Y-106324414D01*
X101042055Y-106295859D01*
X101042916Y-106295588D01*
X101111274Y-106303652D01*
G36*
X97380683Y-98978009D02*
G01*
X99412683Y-98978009D01*
X99412683Y-99407855D01*
X97068068Y-99407855D01*
X97068068Y-98430932D01*
X97380683Y-98430932D01*
X97380683Y-98978009D01*
G37*
X97380683Y-98978009D02*
X99412683Y-98978009D01*
X99412683Y-99407855D01*
X97068068Y-99407855D01*
X97068068Y-98430932D01*
X97380683Y-98430932D01*
X97380683Y-98978009D01*
G36*
X95321945Y-89643795D02*
G01*
X95345428Y-89658492D01*
X95430057Y-89724298D01*
X95544333Y-89823156D01*
X95670375Y-89939871D01*
X95771044Y-90032929D01*
X95893210Y-90129086D01*
X95982915Y-90170060D01*
X96049981Y-90159499D01*
X96104229Y-90101053D01*
X96115438Y-90078110D01*
X96110392Y-89998984D01*
X96048618Y-89937135D01*
X95946486Y-89912162D01*
X95886754Y-89906177D01*
X95864994Y-89871586D01*
X95877682Y-89785162D01*
X95893392Y-89714356D01*
X95919317Y-89653055D01*
X95968980Y-89639106D01*
X96068091Y-89654925D01*
X96109569Y-89664903D01*
X96247781Y-89742968D01*
X96334578Y-89876122D01*
X96364683Y-90057207D01*
X96348163Y-90185265D01*
X96272736Y-90330905D01*
X96144944Y-90425514D01*
X95974351Y-90459239D01*
X95881151Y-90455025D01*
X95777263Y-90431320D01*
X95678121Y-90377449D01*
X95565958Y-90283053D01*
X95423009Y-90137773D01*
X95308139Y-90020906D01*
X95224318Y-89951475D01*
X95157369Y-89921040D01*
X95090855Y-89918763D01*
X95056488Y-89923900D01*
X94993423Y-89955871D01*
X94977453Y-90029393D01*
X94980926Y-90068687D01*
X95018648Y-90127918D01*
X95114222Y-90171291D01*
X95137084Y-90179069D01*
X95214803Y-90213437D01*
X95241222Y-90239675D01*
X95234815Y-90280893D01*
X95231453Y-90366692D01*
X95231056Y-90393926D01*
X95218829Y-90443630D01*
X95173108Y-90457995D01*
X95072112Y-90448158D01*
X94965766Y-90423278D01*
X94815799Y-90337380D01*
X94721317Y-90205239D01*
X94713695Y-90184858D01*
X94692165Y-90028202D01*
X94722012Y-89868954D01*
X94795032Y-89732452D01*
X94903021Y-89644038D01*
X95008962Y-89611434D01*
X95175850Y-89604135D01*
X95321945Y-89643795D01*
G37*
X95321945Y-89643795D02*
X95345428Y-89658492D01*
X95430057Y-89724298D01*
X95544333Y-89823156D01*
X95670375Y-89939871D01*
X95771044Y-90032929D01*
X95893210Y-90129086D01*
X95982915Y-90170060D01*
X96049981Y-90159499D01*
X96104229Y-90101053D01*
X96115438Y-90078110D01*
X96110392Y-89998984D01*
X96048618Y-89937135D01*
X95946486Y-89912162D01*
X95886754Y-89906177D01*
X95864994Y-89871586D01*
X95877682Y-89785162D01*
X95893392Y-89714356D01*
X95919317Y-89653055D01*
X95968980Y-89639106D01*
X96068091Y-89654925D01*
X96109569Y-89664903D01*
X96247781Y-89742968D01*
X96334578Y-89876122D01*
X96364683Y-90057207D01*
X96348163Y-90185265D01*
X96272736Y-90330905D01*
X96144944Y-90425514D01*
X95974351Y-90459239D01*
X95881151Y-90455025D01*
X95777263Y-90431320D01*
X95678121Y-90377449D01*
X95565958Y-90283053D01*
X95423009Y-90137773D01*
X95308139Y-90020906D01*
X95224318Y-89951475D01*
X95157369Y-89921040D01*
X95090855Y-89918763D01*
X95056488Y-89923900D01*
X94993423Y-89955871D01*
X94977453Y-90029393D01*
X94980926Y-90068687D01*
X95018648Y-90127918D01*
X95114222Y-90171291D01*
X95137084Y-90179069D01*
X95214803Y-90213437D01*
X95241222Y-90239675D01*
X95234815Y-90280893D01*
X95231453Y-90366692D01*
X95231056Y-90393926D01*
X95218829Y-90443630D01*
X95173108Y-90457995D01*
X95072112Y-90448158D01*
X94965766Y-90423278D01*
X94815799Y-90337380D01*
X94721317Y-90205239D01*
X94713695Y-90184858D01*
X94692165Y-90028202D01*
X94722012Y-89868954D01*
X94795032Y-89732452D01*
X94903021Y-89644038D01*
X95008962Y-89611434D01*
X95175850Y-89604135D01*
X95321945Y-89643795D01*
G36*
X100137043Y-105084348D02*
G01*
X100220373Y-105171701D01*
X100255368Y-105213793D01*
X100339250Y-105334504D01*
X100419697Y-105472401D01*
X100486297Y-105607224D01*
X100528643Y-105718716D01*
X100536326Y-105786618D01*
X100533744Y-105791262D01*
X100499298Y-105780666D01*
X100438576Y-105720470D01*
X100362853Y-105625679D01*
X100283404Y-105511295D01*
X100211505Y-105392323D01*
X100158431Y-105283765D01*
X100121727Y-105190487D01*
X100089397Y-105090706D01*
X100093944Y-105056338D01*
X100137043Y-105084348D01*
G37*
X100137043Y-105084348D02*
X100220373Y-105171701D01*
X100255368Y-105213793D01*
X100339250Y-105334504D01*
X100419697Y-105472401D01*
X100486297Y-105607224D01*
X100528643Y-105718716D01*
X100536326Y-105786618D01*
X100533744Y-105791262D01*
X100499298Y-105780666D01*
X100438576Y-105720470D01*
X100362853Y-105625679D01*
X100283404Y-105511295D01*
X100211505Y-105392323D01*
X100158431Y-105283765D01*
X100121727Y-105190487D01*
X100089397Y-105090706D01*
X100093944Y-105056338D01*
X100137043Y-105084348D01*
G36*
X95566687Y-87606181D02*
G01*
X95591167Y-87753667D01*
X95620237Y-87977855D01*
X95620459Y-87979679D01*
X95642395Y-88193208D01*
X95648059Y-88368232D01*
X95636865Y-88542533D01*
X95608230Y-88753888D01*
X95590691Y-88863261D01*
X95565077Y-89009364D01*
X95544110Y-89112943D01*
X95531122Y-89156595D01*
X95526123Y-89151929D01*
X95510251Y-89092667D01*
X95489629Y-88979914D01*
X95467431Y-88829947D01*
X95458068Y-88761504D01*
X95436491Y-88612665D01*
X95418604Y-88501040D01*
X95407557Y-88446778D01*
X95400496Y-88423948D01*
X95394049Y-88382348D01*
X95394896Y-88322413D01*
X95404232Y-88229424D01*
X95423252Y-88088660D01*
X95453152Y-87885401D01*
X95472573Y-87759972D01*
X95499739Y-87612293D01*
X95523078Y-87536659D01*
X95544692Y-87534233D01*
X95566687Y-87606181D01*
G37*
X95566687Y-87606181D02*
X95591167Y-87753667D01*
X95620237Y-87977855D01*
X95620459Y-87979679D01*
X95642395Y-88193208D01*
X95648059Y-88368232D01*
X95636865Y-88542533D01*
X95608230Y-88753888D01*
X95590691Y-88863261D01*
X95565077Y-89009364D01*
X95544110Y-89112943D01*
X95531122Y-89156595D01*
X95526123Y-89151929D01*
X95510251Y-89092667D01*
X95489629Y-88979914D01*
X95467431Y-88829947D01*
X95458068Y-88761504D01*
X95436491Y-88612665D01*
X95418604Y-88501040D01*
X95407557Y-88446778D01*
X95400496Y-88423948D01*
X95394049Y-88382348D01*
X95394896Y-88322413D01*
X95404232Y-88229424D01*
X95423252Y-88088660D01*
X95453152Y-87885401D01*
X95472573Y-87759972D01*
X95499739Y-87612293D01*
X95523078Y-87536659D01*
X95544692Y-87534233D01*
X95566687Y-87606181D01*
G36*
X96357273Y-98772855D02*
G01*
X96345145Y-98919393D01*
X94723453Y-98940517D01*
X94723453Y-98626316D01*
X96369401Y-98626316D01*
X96357273Y-98772855D01*
G37*
X96357273Y-98772855D02*
X96345145Y-98919393D01*
X94723453Y-98940517D01*
X94723453Y-98626316D01*
X96369401Y-98626316D01*
X96357273Y-98772855D01*
G36*
X96364683Y-91318932D02*
G01*
X94723453Y-91318932D01*
X94723453Y-90967239D01*
X94723457Y-90936213D01*
X94724642Y-90780668D01*
X94730825Y-90685869D01*
X94746185Y-90636775D01*
X94774899Y-90618347D01*
X94821145Y-90615547D01*
X94860351Y-90617398D01*
X94899506Y-90637124D01*
X94915670Y-90694973D01*
X94918837Y-90810932D01*
X94918837Y-91006316D01*
X95465914Y-91006316D01*
X95465914Y-90850009D01*
X95465949Y-90836396D01*
X95472690Y-90742474D01*
X95500665Y-90702232D01*
X95563607Y-90693701D01*
X95572114Y-90693757D01*
X95630816Y-90704542D01*
X95655967Y-90749302D01*
X95661299Y-90850009D01*
X95661299Y-91006316D01*
X96130222Y-91006316D01*
X96130222Y-90810932D01*
X96131538Y-90714446D01*
X96143449Y-90646062D01*
X96178055Y-90619816D01*
X96247453Y-90615547D01*
X96364683Y-90615547D01*
X96364683Y-91318932D01*
G37*
X96364683Y-91318932D02*
X94723453Y-91318932D01*
X94723453Y-90967239D01*
X94723457Y-90936213D01*
X94724642Y-90780668D01*
X94730825Y-90685869D01*
X94746185Y-90636775D01*
X94774899Y-90618347D01*
X94821145Y-90615547D01*
X94860351Y-90617398D01*
X94899506Y-90637124D01*
X94915670Y-90694973D01*
X94918837Y-90810932D01*
X94918837Y-91006316D01*
X95465914Y-91006316D01*
X95465914Y-90850009D01*
X95465949Y-90836396D01*
X95472690Y-90742474D01*
X95500665Y-90702232D01*
X95563607Y-90693701D01*
X95572114Y-90693757D01*
X95630816Y-90704542D01*
X95655967Y-90749302D01*
X95661299Y-90850009D01*
X95661299Y-91006316D01*
X96130222Y-91006316D01*
X96130222Y-90810932D01*
X96131538Y-90714446D01*
X96143449Y-90646062D01*
X96178055Y-90619816D01*
X96247453Y-90615547D01*
X96364683Y-90615547D01*
X96364683Y-91318932D01*
G36*
X97380683Y-91709701D02*
G01*
X99412683Y-91709701D01*
X99412683Y-92139547D01*
X97068068Y-92139547D01*
X97068068Y-91162624D01*
X97380683Y-91162624D01*
X97380683Y-91709701D01*
G37*
X97380683Y-91709701D02*
X99412683Y-91709701D01*
X99412683Y-92139547D01*
X97068068Y-92139547D01*
X97068068Y-91162624D01*
X97380683Y-91162624D01*
X97380683Y-91709701D01*
G36*
X99674933Y-105479810D02*
G01*
X99775700Y-105516128D01*
X99906329Y-105578042D01*
X100050285Y-105656123D01*
X100191033Y-105740937D01*
X100312038Y-105823054D01*
X100396766Y-105893043D01*
X100428683Y-105941472D01*
X100409286Y-105946653D01*
X100335519Y-105930080D01*
X100225544Y-105891567D01*
X100145536Y-105859896D01*
X100040590Y-105815389D01*
X99963022Y-105773264D01*
X99883615Y-105716506D01*
X99773153Y-105628097D01*
X99705430Y-105571138D01*
X99639433Y-105509093D01*
X99619174Y-105479723D01*
X99620561Y-105478520D01*
X99674933Y-105479810D01*
G37*
X99674933Y-105479810D02*
X99775700Y-105516128D01*
X99906329Y-105578042D01*
X100050285Y-105656123D01*
X100191033Y-105740937D01*
X100312038Y-105823054D01*
X100396766Y-105893043D01*
X100428683Y-105941472D01*
X100409286Y-105946653D01*
X100335519Y-105930080D01*
X100225544Y-105891567D01*
X100145536Y-105859896D01*
X100040590Y-105815389D01*
X99963022Y-105773264D01*
X99883615Y-105716506D01*
X99773153Y-105628097D01*
X99705430Y-105571138D01*
X99639433Y-105509093D01*
X99619174Y-105479723D01*
X99620561Y-105478520D01*
X99674933Y-105479810D01*
G36*
X100537079Y-106444915D02*
G01*
X100517893Y-106530967D01*
X100467119Y-106653626D01*
X100395119Y-106794804D01*
X100312256Y-106936414D01*
X100228893Y-107060367D01*
X100155393Y-107148576D01*
X100102118Y-107182954D01*
X100087953Y-107171184D01*
X100096346Y-107115778D01*
X100126418Y-107036783D01*
X100164475Y-106930162D01*
X100178741Y-106895345D01*
X100230936Y-106798614D01*
X100301846Y-106687890D01*
X100379577Y-106579310D01*
X100452237Y-106489010D01*
X100507931Y-106433125D01*
X100534765Y-106427792D01*
X100537079Y-106444915D01*
G37*
X100537079Y-106444915D02*
X100517893Y-106530967D01*
X100467119Y-106653626D01*
X100395119Y-106794804D01*
X100312256Y-106936414D01*
X100228893Y-107060367D01*
X100155393Y-107148576D01*
X100102118Y-107182954D01*
X100087953Y-107171184D01*
X100096346Y-107115778D01*
X100126418Y-107036783D01*
X100164475Y-106930162D01*
X100178741Y-106895345D01*
X100230936Y-106798614D01*
X100301846Y-106687890D01*
X100379577Y-106579310D01*
X100452237Y-106489010D01*
X100507931Y-106433125D01*
X100534765Y-106427792D01*
X100537079Y-106444915D01*
G36*
X98844230Y-92502298D02*
G01*
X99027171Y-92532208D01*
X99211236Y-92603326D01*
X99336636Y-92717692D01*
X99411226Y-92883252D01*
X99442858Y-93107950D01*
X99437699Y-93323918D01*
X99390362Y-93498060D01*
X99293525Y-93629553D01*
X99140634Y-93731932D01*
X99100413Y-93751441D01*
X99032530Y-93778301D01*
X98956006Y-93797072D01*
X98856940Y-93809183D01*
X98721431Y-93816065D01*
X98535577Y-93819145D01*
X98285476Y-93819855D01*
X98166537Y-93819295D01*
X97920473Y-93814319D01*
X97710645Y-93804805D01*
X97551015Y-93791506D01*
X97455544Y-93775174D01*
X97436307Y-93769010D01*
X97265813Y-93675253D01*
X97136937Y-93533267D01*
X97067625Y-93362158D01*
X97057317Y-93273473D01*
X97065664Y-93118137D01*
X97102316Y-92980678D01*
X97160901Y-92881007D01*
X97235046Y-92839036D01*
X97240721Y-92828689D01*
X97185299Y-92808185D01*
X97143073Y-92792327D01*
X97095379Y-92739940D01*
X97075478Y-92636235D01*
X97063350Y-92491239D01*
X98279453Y-92491239D01*
X98279453Y-93155547D01*
X98142683Y-93155547D01*
X98132273Y-93155530D01*
X98046092Y-93148038D01*
X98011963Y-93110445D01*
X98005914Y-93018778D01*
X98005914Y-92882009D01*
X97820299Y-92882585D01*
X97782257Y-92883380D01*
X97596131Y-92912298D01*
X97465193Y-92979125D01*
X97395938Y-93078914D01*
X97394861Y-93206714D01*
X97404045Y-93234132D01*
X97447251Y-93291646D01*
X97525989Y-93334025D01*
X97648713Y-93362802D01*
X97823875Y-93379513D01*
X98059928Y-93385691D01*
X98365325Y-93382871D01*
X98532809Y-93379364D01*
X98721164Y-93373916D01*
X98852743Y-93366389D01*
X98940253Y-93354864D01*
X98996401Y-93337420D01*
X99033893Y-93312139D01*
X99065435Y-93277101D01*
X99108309Y-93206842D01*
X99120430Y-93098233D01*
X99067559Y-93007110D01*
X98957866Y-92944415D01*
X98799522Y-92921085D01*
X98631145Y-92921085D01*
X98631145Y-92480305D01*
X98844230Y-92502298D01*
G37*
X98844230Y-92502298D02*
X99027171Y-92532208D01*
X99211236Y-92603326D01*
X99336636Y-92717692D01*
X99411226Y-92883252D01*
X99442858Y-93107950D01*
X99437699Y-93323918D01*
X99390362Y-93498060D01*
X99293525Y-93629553D01*
X99140634Y-93731932D01*
X99100413Y-93751441D01*
X99032530Y-93778301D01*
X98956006Y-93797072D01*
X98856940Y-93809183D01*
X98721431Y-93816065D01*
X98535577Y-93819145D01*
X98285476Y-93819855D01*
X98166537Y-93819295D01*
X97920473Y-93814319D01*
X97710645Y-93804805D01*
X97551015Y-93791506D01*
X97455544Y-93775174D01*
X97436307Y-93769010D01*
X97265813Y-93675253D01*
X97136937Y-93533267D01*
X97067625Y-93362158D01*
X97057317Y-93273473D01*
X97065664Y-93118137D01*
X97102316Y-92980678D01*
X97160901Y-92881007D01*
X97235046Y-92839036D01*
X97240721Y-92828689D01*
X97185299Y-92808185D01*
X97143073Y-92792327D01*
X97095379Y-92739940D01*
X97075478Y-92636235D01*
X97063350Y-92491239D01*
X98279453Y-92491239D01*
X98279453Y-93155547D01*
X98142683Y-93155547D01*
X98132273Y-93155530D01*
X98046092Y-93148038D01*
X98011963Y-93110445D01*
X98005914Y-93018778D01*
X98005914Y-92882009D01*
X97820299Y-92882585D01*
X97782257Y-92883380D01*
X97596131Y-92912298D01*
X97465193Y-92979125D01*
X97395938Y-93078914D01*
X97394861Y-93206714D01*
X97404045Y-93234132D01*
X97447251Y-93291646D01*
X97525989Y-93334025D01*
X97648713Y-93362802D01*
X97823875Y-93379513D01*
X98059928Y-93385691D01*
X98365325Y-93382871D01*
X98532809Y-93379364D01*
X98721164Y-93373916D01*
X98852743Y-93366389D01*
X98940253Y-93354864D01*
X98996401Y-93337420D01*
X99033893Y-93312139D01*
X99065435Y-93277101D01*
X99108309Y-93206842D01*
X99120430Y-93098233D01*
X99067559Y-93007110D01*
X98957866Y-92944415D01*
X98799522Y-92921085D01*
X98631145Y-92921085D01*
X98631145Y-92480305D01*
X98844230Y-92502298D01*
G36*
X99412683Y-87647522D02*
G01*
X99414450Y-87705554D01*
X99414632Y-87754247D01*
X99403787Y-87790830D01*
X99372446Y-87818669D01*
X99311138Y-87841126D01*
X99210396Y-87861565D01*
X99060748Y-87883350D01*
X98852727Y-87909845D01*
X98576863Y-87944412D01*
X98500335Y-87954326D01*
X98321721Y-87979240D01*
X98183329Y-88001143D01*
X98097619Y-88017961D01*
X98077054Y-88027619D01*
X98104777Y-88033908D01*
X98200984Y-88052099D01*
X98350935Y-88078791D01*
X98540754Y-88111527D01*
X98756567Y-88147854D01*
X99393145Y-88253777D01*
X99404887Y-88413043D01*
X99416628Y-88572308D01*
X98732148Y-88683471D01*
X98533406Y-88716229D01*
X98340722Y-88749064D01*
X98189098Y-88776101D01*
X98090576Y-88795185D01*
X98057198Y-88804164D01*
X98076473Y-88808531D01*
X98159713Y-88821597D01*
X98294340Y-88840743D01*
X98464737Y-88863935D01*
X98655289Y-88889142D01*
X98850381Y-88914329D01*
X99034397Y-88937465D01*
X99191723Y-88956518D01*
X99306741Y-88969454D01*
X99363837Y-88974241D01*
X99375729Y-88977591D01*
X99403468Y-89037496D01*
X99412683Y-89172806D01*
X99411350Y-89276114D01*
X99400202Y-89339919D01*
X99368429Y-89358529D01*
X99305222Y-89349743D01*
X99249864Y-89340480D01*
X99124279Y-89321446D01*
X98943082Y-89294956D01*
X98717866Y-89262686D01*
X98460228Y-89226308D01*
X98181760Y-89187497D01*
X97928390Y-89152139D01*
X97675891Y-89116312D01*
X97457715Y-89084737D01*
X97284643Y-89058994D01*
X97167450Y-89040663D01*
X97116914Y-89031325D01*
X97107211Y-89025584D01*
X97078682Y-88960876D01*
X97068068Y-88843010D01*
X97066778Y-88790863D01*
X97067244Y-88742719D01*
X97078787Y-88705905D01*
X97110812Y-88676809D01*
X97172720Y-88651819D01*
X97273914Y-88627323D01*
X97423798Y-88599711D01*
X97631775Y-88565369D01*
X97907247Y-88520688D01*
X98570580Y-88412263D01*
X97946324Y-88304419D01*
X97818402Y-88282294D01*
X97604852Y-88245243D01*
X97418768Y-88212818D01*
X97276667Y-88187899D01*
X97195068Y-88173367D01*
X97152602Y-88164802D01*
X97095184Y-88139387D01*
X97072233Y-88084601D01*
X97068068Y-87976084D01*
X97068493Y-87925373D01*
X97071980Y-87836508D01*
X97077837Y-87800770D01*
X97083813Y-87799924D01*
X97149229Y-87790523D01*
X97278969Y-87771835D01*
X97463480Y-87745235D01*
X97693214Y-87712102D01*
X97958619Y-87673811D01*
X98250145Y-87631739D01*
X99412683Y-87463947D01*
X99412683Y-87647522D01*
G37*
X99412683Y-87647522D02*
X99414450Y-87705554D01*
X99414632Y-87754247D01*
X99403787Y-87790830D01*
X99372446Y-87818669D01*
X99311138Y-87841126D01*
X99210396Y-87861565D01*
X99060748Y-87883350D01*
X98852727Y-87909845D01*
X98576863Y-87944412D01*
X98500335Y-87954326D01*
X98321721Y-87979240D01*
X98183329Y-88001143D01*
X98097619Y-88017961D01*
X98077054Y-88027619D01*
X98104777Y-88033908D01*
X98200984Y-88052099D01*
X98350935Y-88078791D01*
X98540754Y-88111527D01*
X98756567Y-88147854D01*
X99393145Y-88253777D01*
X99404887Y-88413043D01*
X99416628Y-88572308D01*
X98732148Y-88683471D01*
X98533406Y-88716229D01*
X98340722Y-88749064D01*
X98189098Y-88776101D01*
X98090576Y-88795185D01*
X98057198Y-88804164D01*
X98076473Y-88808531D01*
X98159713Y-88821597D01*
X98294340Y-88840743D01*
X98464737Y-88863935D01*
X98655289Y-88889142D01*
X98850381Y-88914329D01*
X99034397Y-88937465D01*
X99191723Y-88956518D01*
X99306741Y-88969454D01*
X99363837Y-88974241D01*
X99375729Y-88977591D01*
X99403468Y-89037496D01*
X99412683Y-89172806D01*
X99411350Y-89276114D01*
X99400202Y-89339919D01*
X99368429Y-89358529D01*
X99305222Y-89349743D01*
X99249864Y-89340480D01*
X99124279Y-89321446D01*
X98943082Y-89294956D01*
X98717866Y-89262686D01*
X98460228Y-89226308D01*
X98181760Y-89187497D01*
X97928390Y-89152139D01*
X97675891Y-89116312D01*
X97457715Y-89084737D01*
X97284643Y-89058994D01*
X97167450Y-89040663D01*
X97116914Y-89031325D01*
X97107211Y-89025584D01*
X97078682Y-88960876D01*
X97068068Y-88843010D01*
X97066778Y-88790863D01*
X97067244Y-88742719D01*
X97078787Y-88705905D01*
X97110812Y-88676809D01*
X97172720Y-88651819D01*
X97273914Y-88627323D01*
X97423798Y-88599711D01*
X97631775Y-88565369D01*
X97907247Y-88520688D01*
X98570580Y-88412263D01*
X97946324Y-88304419D01*
X97818402Y-88282294D01*
X97604852Y-88245243D01*
X97418768Y-88212818D01*
X97276667Y-88187899D01*
X97195068Y-88173367D01*
X97152602Y-88164802D01*
X97095184Y-88139387D01*
X97072233Y-88084601D01*
X97068068Y-87976084D01*
X97068493Y-87925373D01*
X97071980Y-87836508D01*
X97077837Y-87800770D01*
X97083813Y-87799924D01*
X97149229Y-87790523D01*
X97278969Y-87771835D01*
X97463480Y-87745235D01*
X97693214Y-87712102D01*
X97958619Y-87673811D01*
X98250145Y-87631739D01*
X99412683Y-87463947D01*
X99412683Y-87647522D01*
G36*
X95541740Y-99434826D02*
G01*
X95564004Y-99509075D01*
X95589670Y-99656028D01*
X95620516Y-99878255D01*
X95627339Y-99932492D01*
X95647333Y-100158565D01*
X95646320Y-100355677D01*
X95624524Y-100562101D01*
X95601853Y-100718170D01*
X95574440Y-100890685D01*
X95552505Y-100990389D01*
X95533088Y-101020073D01*
X95513226Y-100982529D01*
X95489957Y-100880552D01*
X95460321Y-100716932D01*
X95433355Y-100551887D01*
X95415409Y-100398745D01*
X95410030Y-100254850D01*
X95417448Y-100098645D01*
X95437895Y-99908573D01*
X95471601Y-99663077D01*
X95477578Y-99622609D01*
X95500305Y-99494163D01*
X95521100Y-99430712D01*
X95541740Y-99434826D01*
G37*
X95541740Y-99434826D02*
X95564004Y-99509075D01*
X95589670Y-99656028D01*
X95620516Y-99878255D01*
X95627339Y-99932492D01*
X95647333Y-100158565D01*
X95646320Y-100355677D01*
X95624524Y-100562101D01*
X95601853Y-100718170D01*
X95574440Y-100890685D01*
X95552505Y-100990389D01*
X95533088Y-101020073D01*
X95513226Y-100982529D01*
X95489957Y-100880552D01*
X95460321Y-100716932D01*
X95433355Y-100551887D01*
X95415409Y-100398745D01*
X95410030Y-100254850D01*
X95417448Y-100098645D01*
X95437895Y-99908573D01*
X95471601Y-99663077D01*
X95477578Y-99622609D01*
X95500305Y-99494163D01*
X95521100Y-99430712D01*
X95541740Y-99434826D01*
G36*
X97711392Y-100945268D02*
G01*
X97489034Y-100988002D01*
X97312194Y-101020930D01*
X97191217Y-101042085D01*
X97136453Y-101049501D01*
X97133754Y-101049455D01*
X97092962Y-101033205D01*
X97073217Y-100975371D01*
X97068068Y-100857882D01*
X97070782Y-100754768D01*
X97089281Y-100686350D01*
X97139026Y-100645737D01*
X97235477Y-100620641D01*
X97394096Y-100598776D01*
X97615145Y-100571157D01*
X97615145Y-100506797D01*
X97927760Y-100506797D01*
X98093837Y-100481527D01*
X98188790Y-100466273D01*
X98349830Y-100438707D01*
X98513914Y-100409176D01*
X98767914Y-100362096D01*
X98455299Y-100311143D01*
X98426200Y-100306387D01*
X98264495Y-100279502D01*
X98125012Y-100255626D01*
X98035222Y-100239446D01*
X98021127Y-100236794D01*
X97957804Y-100233558D01*
X97932408Y-100268973D01*
X97927760Y-100362749D01*
X97927760Y-100506797D01*
X97615145Y-100506797D01*
X97615145Y-100159321D01*
X97394096Y-100131703D01*
X97240654Y-100110714D01*
X97141957Y-100085992D01*
X97090601Y-100046257D01*
X97071125Y-99979221D01*
X97068068Y-99872597D01*
X97069895Y-99806209D01*
X97080486Y-99715875D01*
X97097376Y-99679747D01*
X97103915Y-99680410D01*
X97171220Y-99691867D01*
X97302281Y-99716095D01*
X97487378Y-99751238D01*
X97716791Y-99795440D01*
X97980799Y-99846846D01*
X98269683Y-99903599D01*
X99412683Y-100129097D01*
X99412683Y-100603369D01*
X98308760Y-100826642D01*
X98251268Y-100838251D01*
X97968919Y-100894696D01*
X97927760Y-100902779D01*
X97711392Y-100945268D01*
G37*
X97711392Y-100945268D02*
X97489034Y-100988002D01*
X97312194Y-101020930D01*
X97191217Y-101042085D01*
X97136453Y-101049501D01*
X97133754Y-101049455D01*
X97092962Y-101033205D01*
X97073217Y-100975371D01*
X97068068Y-100857882D01*
X97070782Y-100754768D01*
X97089281Y-100686350D01*
X97139026Y-100645737D01*
X97235477Y-100620641D01*
X97394096Y-100598776D01*
X97615145Y-100571157D01*
X97615145Y-100506797D01*
X97927760Y-100506797D01*
X98093837Y-100481527D01*
X98188790Y-100466273D01*
X98349830Y-100438707D01*
X98513914Y-100409176D01*
X98767914Y-100362096D01*
X98455299Y-100311143D01*
X98426200Y-100306387D01*
X98264495Y-100279502D01*
X98125012Y-100255626D01*
X98035222Y-100239446D01*
X98021127Y-100236794D01*
X97957804Y-100233558D01*
X97932408Y-100268973D01*
X97927760Y-100362749D01*
X97927760Y-100506797D01*
X97615145Y-100506797D01*
X97615145Y-100159321D01*
X97394096Y-100131703D01*
X97240654Y-100110714D01*
X97141957Y-100085992D01*
X97090601Y-100046257D01*
X97071125Y-99979221D01*
X97068068Y-99872597D01*
X97069895Y-99806209D01*
X97080486Y-99715875D01*
X97097376Y-99679747D01*
X97103915Y-99680410D01*
X97171220Y-99691867D01*
X97302281Y-99716095D01*
X97487378Y-99751238D01*
X97716791Y-99795440D01*
X97980799Y-99846846D01*
X98269683Y-99903599D01*
X99412683Y-100129097D01*
X99412683Y-100603369D01*
X98308760Y-100826642D01*
X98251268Y-100838251D01*
X97968919Y-100894696D01*
X97927760Y-100902779D01*
X97711392Y-100945268D01*
G36*
X99412683Y-94521255D02*
G01*
X98798387Y-94532016D01*
X98184090Y-94542778D01*
X98788618Y-94800217D01*
X99393145Y-95057657D01*
X99405161Y-95220294D01*
X99417177Y-95382932D01*
X97063786Y-95382932D01*
X97075696Y-95197316D01*
X97087607Y-95011701D01*
X97712837Y-94992162D01*
X98338068Y-94972624D01*
X97712837Y-94716166D01*
X97087607Y-94459707D01*
X97075478Y-94315627D01*
X97063350Y-94171547D01*
X99412683Y-94171547D01*
X99412683Y-94521255D01*
G37*
X99412683Y-94521255D02*
X98798387Y-94532016D01*
X98184090Y-94542778D01*
X98788618Y-94800217D01*
X99393145Y-95057657D01*
X99405161Y-95220294D01*
X99417177Y-95382932D01*
X97063786Y-95382932D01*
X97075696Y-95197316D01*
X97087607Y-95011701D01*
X97712837Y-94992162D01*
X98338068Y-94972624D01*
X97712837Y-94716166D01*
X97087607Y-94459707D01*
X97075478Y-94315627D01*
X97063350Y-94171547D01*
X99412683Y-94171547D01*
X99412683Y-94521255D01*
G36*
X96364683Y-94015239D02*
G01*
X96249929Y-94015239D01*
X96186228Y-94010502D01*
X96140668Y-93976342D01*
X96122929Y-93888239D01*
X96110683Y-93761239D01*
X95417068Y-93750568D01*
X94723453Y-93739898D01*
X94723453Y-93429085D01*
X96130222Y-93429085D01*
X96130222Y-93311855D01*
X96133813Y-93249981D01*
X96164418Y-93204307D01*
X96247453Y-93194624D01*
X96364683Y-93194624D01*
X96364683Y-94015239D01*
G37*
X96364683Y-94015239D02*
X96249929Y-94015239D01*
X96186228Y-94010502D01*
X96140668Y-93976342D01*
X96122929Y-93888239D01*
X96110683Y-93761239D01*
X95417068Y-93750568D01*
X94723453Y-93739898D01*
X94723453Y-93429085D01*
X96130222Y-93429085D01*
X96130222Y-93311855D01*
X96133813Y-93249981D01*
X96164418Y-93204307D01*
X96247453Y-93194624D01*
X96364683Y-93194624D01*
X96364683Y-94015239D01*
G36*
X101795168Y-105494245D02*
G01*
X101785763Y-105515340D01*
X101722364Y-105576824D01*
X101613610Y-105656229D01*
X101476446Y-105743574D01*
X101327818Y-105828881D01*
X101184672Y-105902171D01*
X101063952Y-105953463D01*
X100982604Y-105972778D01*
X100976750Y-105969033D01*
X100999321Y-105932561D01*
X101062252Y-105869100D01*
X101150159Y-105793326D01*
X101247659Y-105719914D01*
X101327261Y-105670649D01*
X101446518Y-105608582D01*
X101571681Y-105552182D01*
X101684006Y-105509175D01*
X101764750Y-105487288D01*
X101795168Y-105494245D01*
G37*
X101795168Y-105494245D02*
X101785763Y-105515340D01*
X101722364Y-105576824D01*
X101613610Y-105656229D01*
X101476446Y-105743574D01*
X101327818Y-105828881D01*
X101184672Y-105902171D01*
X101063952Y-105953463D01*
X100982604Y-105972778D01*
X100976750Y-105969033D01*
X100999321Y-105932561D01*
X101062252Y-105869100D01*
X101150159Y-105793326D01*
X101247659Y-105719914D01*
X101327261Y-105670649D01*
X101446518Y-105608582D01*
X101571681Y-105552182D01*
X101684006Y-105509175D01*
X101764750Y-105487288D01*
X101795168Y-105494245D01*
G36*
X100908448Y-106412444D02*
G01*
X100966337Y-106470047D01*
X101039944Y-106568942D01*
X101120690Y-106694034D01*
X101199998Y-106830229D01*
X101269290Y-106962434D01*
X101319988Y-107075554D01*
X101343515Y-107154495D01*
X101331292Y-107184162D01*
X101322830Y-107182308D01*
X101267509Y-107137400D01*
X101190410Y-107045656D01*
X101104271Y-106924672D01*
X101021826Y-106792045D01*
X100955810Y-106665371D01*
X100897176Y-106532431D01*
X100867463Y-106450978D01*
X100865532Y-106412660D01*
X100887837Y-106403832D01*
X100908448Y-106412444D01*
G37*
X100908448Y-106412444D02*
X100966337Y-106470047D01*
X101039944Y-106568942D01*
X101120690Y-106694034D01*
X101199998Y-106830229D01*
X101269290Y-106962434D01*
X101319988Y-107075554D01*
X101343515Y-107154495D01*
X101331292Y-107184162D01*
X101322830Y-107182308D01*
X101267509Y-107137400D01*
X101190410Y-107045656D01*
X101104271Y-106924672D01*
X101021826Y-106792045D01*
X100955810Y-106665371D01*
X100897176Y-106532431D01*
X100867463Y-106450978D01*
X100865532Y-106412660D01*
X100887837Y-106403832D01*
X100908448Y-106412444D01*
G36*
X100732836Y-106482543D02*
G01*
X100751100Y-106569512D01*
X100764130Y-106695296D01*
X100771001Y-106844659D01*
X100770788Y-107002364D01*
X100762567Y-107153175D01*
X100745413Y-107281855D01*
X100714955Y-107438162D01*
X100686448Y-107281855D01*
X100681265Y-107253726D01*
X100659690Y-107141873D01*
X100643789Y-107066932D01*
X100639159Y-107018035D01*
X100640808Y-106907751D01*
X100649520Y-106770707D01*
X100663052Y-106633125D01*
X100679160Y-106521228D01*
X100695601Y-106461239D01*
X100710264Y-106449624D01*
X100732836Y-106482543D01*
G37*
X100732836Y-106482543D02*
X100751100Y-106569512D01*
X100764130Y-106695296D01*
X100771001Y-106844659D01*
X100770788Y-107002364D01*
X100762567Y-107153175D01*
X100745413Y-107281855D01*
X100714955Y-107438162D01*
X100686448Y-107281855D01*
X100681265Y-107253726D01*
X100659690Y-107141873D01*
X100643789Y-107066932D01*
X100639159Y-107018035D01*
X100640808Y-106907751D01*
X100649520Y-106770707D01*
X100663052Y-106633125D01*
X100679160Y-106521228D01*
X100695601Y-106461239D01*
X100710264Y-106449624D01*
X100732836Y-106482543D01*
G36*
X98183606Y-98196402D02*
G01*
X97897890Y-98195091D01*
X97640555Y-98192277D01*
X97421557Y-98188182D01*
X97250849Y-98183026D01*
X97138385Y-98177032D01*
X97094119Y-98170419D01*
X97084220Y-98144801D01*
X97072598Y-98057570D01*
X97068068Y-97935957D01*
X97068068Y-97727547D01*
X98123145Y-97727547D01*
X98435760Y-97727547D01*
X99100068Y-97727547D01*
X99100068Y-97576024D01*
X99086344Y-97458255D01*
X99032212Y-97374099D01*
X98926227Y-97330630D01*
X98757093Y-97319396D01*
X98642865Y-97325044D01*
X98546602Y-97348336D01*
X98489649Y-97395250D01*
X98451877Y-97484204D01*
X98435760Y-97598247D01*
X98435760Y-97727547D01*
X98123145Y-97727547D01*
X98123145Y-97528299D01*
X98123468Y-97503193D01*
X98157363Y-97283320D01*
X98242861Y-97104803D01*
X98374018Y-96980618D01*
X98478504Y-96936658D01*
X98657615Y-96905601D01*
X98854581Y-96905527D01*
X99039293Y-96935860D01*
X99181643Y-96996028D01*
X99247406Y-97044222D01*
X99318950Y-97117509D01*
X99366496Y-97208358D01*
X99394740Y-97331872D01*
X99408378Y-97503157D01*
X99412107Y-97737316D01*
X99412683Y-98196470D01*
X98266427Y-98196470D01*
X98183606Y-98196402D01*
G37*
X98183606Y-98196402D02*
X97897890Y-98195091D01*
X97640555Y-98192277D01*
X97421557Y-98188182D01*
X97250849Y-98183026D01*
X97138385Y-98177032D01*
X97094119Y-98170419D01*
X97084220Y-98144801D01*
X97072598Y-98057570D01*
X97068068Y-97935957D01*
X97068068Y-97727547D01*
X98123145Y-97727547D01*
X98435760Y-97727547D01*
X99100068Y-97727547D01*
X99100068Y-97576024D01*
X99086344Y-97458255D01*
X99032212Y-97374099D01*
X98926227Y-97330630D01*
X98757093Y-97319396D01*
X98642865Y-97325044D01*
X98546602Y-97348336D01*
X98489649Y-97395250D01*
X98451877Y-97484204D01*
X98435760Y-97598247D01*
X98435760Y-97727547D01*
X98123145Y-97727547D01*
X98123145Y-97528299D01*
X98123468Y-97503193D01*
X98157363Y-97283320D01*
X98242861Y-97104803D01*
X98374018Y-96980618D01*
X98478504Y-96936658D01*
X98657615Y-96905601D01*
X98854581Y-96905527D01*
X99039293Y-96935860D01*
X99181643Y-96996028D01*
X99247406Y-97044222D01*
X99318950Y-97117509D01*
X99366496Y-97208358D01*
X99394740Y-97331872D01*
X99408378Y-97503157D01*
X99412107Y-97737316D01*
X99412683Y-98196470D01*
X98266427Y-98196470D01*
X98183606Y-98196402D01*
G36*
X100428683Y-106281118D02*
G01*
X100421202Y-106300388D01*
X100361160Y-106360880D01*
X100255037Y-106439473D01*
X100119773Y-106526178D01*
X99972312Y-106611004D01*
X99829594Y-106683962D01*
X99708563Y-106735063D01*
X99626160Y-106754316D01*
X99619223Y-106753754D01*
X99614968Y-106730163D01*
X99662992Y-106678690D01*
X99750046Y-106608714D01*
X99862877Y-106529617D01*
X99988236Y-106450780D01*
X100112870Y-106381584D01*
X100223530Y-106331410D01*
X100311072Y-106300929D01*
X100395890Y-106278763D01*
X100428683Y-106281118D01*
G37*
X100428683Y-106281118D02*
X100421202Y-106300388D01*
X100361160Y-106360880D01*
X100255037Y-106439473D01*
X100119773Y-106526178D01*
X99972312Y-106611004D01*
X99829594Y-106683962D01*
X99708563Y-106735063D01*
X99626160Y-106754316D01*
X99619223Y-106753754D01*
X99614968Y-106730163D01*
X99662992Y-106678690D01*
X99750046Y-106608714D01*
X99862877Y-106529617D01*
X99988236Y-106450780D01*
X100112870Y-106381584D01*
X100223530Y-106331410D01*
X100311072Y-106300929D01*
X100395890Y-106278763D01*
X100428683Y-106281118D01*
G36*
X94723453Y-92725701D02*
G01*
X95094683Y-92725701D01*
X95143017Y-92725465D01*
X95330086Y-92717722D01*
X95439773Y-92699227D01*
X95472065Y-92670235D01*
X95434035Y-92637161D01*
X95666395Y-92637161D01*
X95666956Y-92688113D01*
X95693856Y-92714425D01*
X95764367Y-92724239D01*
X95895760Y-92725701D01*
X95937423Y-92725668D01*
X96051026Y-92722789D01*
X96108317Y-92709402D01*
X96126568Y-92677363D01*
X96123048Y-92618528D01*
X96103746Y-92551921D01*
X96026975Y-92467984D01*
X95914427Y-92433872D01*
X95788299Y-92460088D01*
X95716797Y-92510814D01*
X95668473Y-92618528D01*
X95666395Y-92637161D01*
X95434035Y-92637161D01*
X95426951Y-92631000D01*
X95304417Y-92581778D01*
X95104453Y-92522823D01*
X94742991Y-92426301D01*
X94730975Y-92263386D01*
X94728323Y-92222116D01*
X94726144Y-92135377D01*
X94730975Y-92101152D01*
X94750092Y-92105969D01*
X94830621Y-92128648D01*
X94958601Y-92165641D01*
X95117482Y-92212195D01*
X95491973Y-92322556D01*
X95598353Y-92231052D01*
X95709689Y-92167205D01*
X95868726Y-92136323D01*
X96034053Y-92150933D01*
X96180684Y-92208313D01*
X96283634Y-92305739D01*
X96290375Y-92318923D01*
X96316748Y-92411654D01*
X96339886Y-92551367D01*
X96355421Y-92713266D01*
X96375700Y-93038316D01*
X94723453Y-93038316D01*
X94723453Y-92725701D01*
G37*
X94723453Y-92725701D02*
X95094683Y-92725701D01*
X95143017Y-92725465D01*
X95330086Y-92717722D01*
X95439773Y-92699227D01*
X95472065Y-92670235D01*
X95434035Y-92637161D01*
X95666395Y-92637161D01*
X95666956Y-92688113D01*
X95693856Y-92714425D01*
X95764367Y-92724239D01*
X95895760Y-92725701D01*
X95937423Y-92725668D01*
X96051026Y-92722789D01*
X96108317Y-92709402D01*
X96126568Y-92677363D01*
X96123048Y-92618528D01*
X96103746Y-92551921D01*
X96026975Y-92467984D01*
X95914427Y-92433872D01*
X95788299Y-92460088D01*
X95716797Y-92510814D01*
X95668473Y-92618528D01*
X95666395Y-92637161D01*
X95434035Y-92637161D01*
X95426951Y-92631000D01*
X95304417Y-92581778D01*
X95104453Y-92522823D01*
X94742991Y-92426301D01*
X94730975Y-92263386D01*
X94728323Y-92222116D01*
X94726144Y-92135377D01*
X94730975Y-92101152D01*
X94750092Y-92105969D01*
X94830621Y-92128648D01*
X94958601Y-92165641D01*
X95117482Y-92212195D01*
X95491973Y-92322556D01*
X95598353Y-92231052D01*
X95709689Y-92167205D01*
X95868726Y-92136323D01*
X96034053Y-92150933D01*
X96180684Y-92208313D01*
X96283634Y-92305739D01*
X96290375Y-92318923D01*
X96316748Y-92411654D01*
X96339886Y-92551367D01*
X96355421Y-92713266D01*
X96375700Y-93038316D01*
X94723453Y-93038316D01*
X94723453Y-92725701D01*
G36*
X96357273Y-91739009D02*
G01*
X96345145Y-91885547D01*
X94723453Y-91906671D01*
X94723453Y-91592470D01*
X96369401Y-91592470D01*
X96357273Y-91739009D01*
G37*
X96357273Y-91739009D02*
X96345145Y-91885547D01*
X94723453Y-91906671D01*
X94723453Y-91592470D01*
X96369401Y-91592470D01*
X96357273Y-91739009D01*
G36*
X95195027Y-94105507D02*
G01*
X95322803Y-94154351D01*
X95463618Y-94254646D01*
X95632220Y-94413450D01*
X95747666Y-94525568D01*
X95874330Y-94627496D01*
X95970479Y-94670901D01*
X96044411Y-94658972D01*
X96104427Y-94594899D01*
X96115697Y-94571637D01*
X96110268Y-94492544D01*
X96048067Y-94430873D01*
X95945410Y-94406009D01*
X95937713Y-94405946D01*
X95873697Y-94391326D01*
X95872041Y-94344197D01*
X95883361Y-94305553D01*
X95895760Y-94207428D01*
X95898652Y-94183917D01*
X95944953Y-94138354D01*
X96039137Y-94140663D01*
X96170081Y-94191490D01*
X96270770Y-94261318D01*
X96342861Y-94377545D01*
X96364683Y-94542778D01*
X96340589Y-94725458D01*
X96264863Y-94852891D01*
X96133557Y-94927077D01*
X95942721Y-94951843D01*
X95903383Y-94951963D01*
X95817441Y-94947737D01*
X95748960Y-94928704D01*
X95679970Y-94884541D01*
X95592500Y-94804929D01*
X95468578Y-94679547D01*
X95381022Y-94592095D01*
X95259487Y-94483400D01*
X95168747Y-94424028D01*
X95098006Y-94406009D01*
X95087145Y-94406233D01*
X94997748Y-94434297D01*
X94961010Y-94495497D01*
X94974050Y-94570054D01*
X95033987Y-94638189D01*
X95137939Y-94680122D01*
X95193986Y-94693462D01*
X95236883Y-94732115D01*
X95237292Y-94816891D01*
X95229376Y-94876964D01*
X95206092Y-94950121D01*
X95154749Y-94969806D01*
X95052958Y-94952488D01*
X94970231Y-94926858D01*
X94817711Y-94832894D01*
X94719318Y-94699085D01*
X94693798Y-94607240D01*
X94702006Y-94448043D01*
X94763202Y-94297637D01*
X94866721Y-94178186D01*
X95001899Y-94111854D01*
X95065541Y-94101058D01*
X95195027Y-94105507D01*
G37*
X95195027Y-94105507D02*
X95322803Y-94154351D01*
X95463618Y-94254646D01*
X95632220Y-94413450D01*
X95747666Y-94525568D01*
X95874330Y-94627496D01*
X95970479Y-94670901D01*
X96044411Y-94658972D01*
X96104427Y-94594899D01*
X96115697Y-94571637D01*
X96110268Y-94492544D01*
X96048067Y-94430873D01*
X95945410Y-94406009D01*
X95937713Y-94405946D01*
X95873697Y-94391326D01*
X95872041Y-94344197D01*
X95883361Y-94305553D01*
X95895760Y-94207428D01*
X95898652Y-94183917D01*
X95944953Y-94138354D01*
X96039137Y-94140663D01*
X96170081Y-94191490D01*
X96270770Y-94261318D01*
X96342861Y-94377545D01*
X96364683Y-94542778D01*
X96340589Y-94725458D01*
X96264863Y-94852891D01*
X96133557Y-94927077D01*
X95942721Y-94951843D01*
X95903383Y-94951963D01*
X95817441Y-94947737D01*
X95748960Y-94928704D01*
X95679970Y-94884541D01*
X95592500Y-94804929D01*
X95468578Y-94679547D01*
X95381022Y-94592095D01*
X95259487Y-94483400D01*
X95168747Y-94424028D01*
X95098006Y-94406009D01*
X95087145Y-94406233D01*
X94997748Y-94434297D01*
X94961010Y-94495497D01*
X94974050Y-94570054D01*
X95033987Y-94638189D01*
X95137939Y-94680122D01*
X95193986Y-94693462D01*
X95236883Y-94732115D01*
X95237292Y-94816891D01*
X95229376Y-94876964D01*
X95206092Y-94950121D01*
X95154749Y-94969806D01*
X95052958Y-94952488D01*
X94970231Y-94926858D01*
X94817711Y-94832894D01*
X94719318Y-94699085D01*
X94693798Y-94607240D01*
X94702006Y-94448043D01*
X94763202Y-94297637D01*
X94866721Y-94178186D01*
X95001899Y-94111854D01*
X95065541Y-94101058D01*
X95195027Y-94105507D01*
G36*
X94723453Y-96928309D02*
G01*
X94724168Y-96906932D01*
X94957914Y-96906932D01*
X95544068Y-96906932D01*
X95623181Y-96906892D01*
X95826364Y-96905809D01*
X95966636Y-96902123D01*
X96055576Y-96894345D01*
X96104767Y-96880986D01*
X96125788Y-96860557D01*
X96130222Y-96831569D01*
X96128364Y-96795444D01*
X96105426Y-96727152D01*
X96047718Y-96680533D01*
X95944467Y-96651856D01*
X95784901Y-96637387D01*
X95558246Y-96633393D01*
X95396042Y-96635971D01*
X95228861Y-96644519D01*
X95101653Y-96657634D01*
X95033499Y-96673845D01*
X94987658Y-96716849D01*
X94957914Y-96810614D01*
X94957914Y-96906932D01*
X94724168Y-96906932D01*
X94729719Y-96741053D01*
X94756897Y-96583288D01*
X94814481Y-96470002D01*
X94911910Y-96394151D01*
X95058623Y-96348693D01*
X95264060Y-96326583D01*
X95537661Y-96320778D01*
X95719058Y-96323453D01*
X95893591Y-96331418D01*
X96029128Y-96343399D01*
X96106096Y-96358111D01*
X96202424Y-96414728D01*
X96281196Y-96521540D01*
X96331085Y-96683237D01*
X96356819Y-96910226D01*
X96374725Y-97219547D01*
X94723453Y-97219547D01*
X94723453Y-96928309D01*
G37*
X94723453Y-96928309D02*
X94724168Y-96906932D01*
X94957914Y-96906932D01*
X95544068Y-96906932D01*
X95623181Y-96906892D01*
X95826364Y-96905809D01*
X95966636Y-96902123D01*
X96055576Y-96894345D01*
X96104767Y-96880986D01*
X96125788Y-96860557D01*
X96130222Y-96831569D01*
X96128364Y-96795444D01*
X96105426Y-96727152D01*
X96047718Y-96680533D01*
X95944467Y-96651856D01*
X95784901Y-96637387D01*
X95558246Y-96633393D01*
X95396042Y-96635971D01*
X95228861Y-96644519D01*
X95101653Y-96657634D01*
X95033499Y-96673845D01*
X94987658Y-96716849D01*
X94957914Y-96810614D01*
X94957914Y-96906932D01*
X94724168Y-96906932D01*
X94729719Y-96741053D01*
X94756897Y-96583288D01*
X94814481Y-96470002D01*
X94911910Y-96394151D01*
X95058623Y-96348693D01*
X95264060Y-96326583D01*
X95537661Y-96320778D01*
X95719058Y-96323453D01*
X95893591Y-96331418D01*
X96029128Y-96343399D01*
X96106096Y-96358111D01*
X96202424Y-96414728D01*
X96281196Y-96521540D01*
X96331085Y-96683237D01*
X96356819Y-96910226D01*
X96374725Y-97219547D01*
X94723453Y-97219547D01*
X94723453Y-96928309D01*
%TO.C,*%
G36*
X93437868Y-89919986D02*
G01*
X93487868Y-89978986D01*
X93529868Y-90092986D01*
X93455868Y-90282986D01*
X93394868Y-90369986D01*
X93454868Y-90369986D01*
X93505868Y-90383986D01*
X93513868Y-90479986D01*
X93513868Y-90589986D01*
X92333868Y-90589986D01*
X92333868Y-90369986D01*
X93284868Y-90369986D01*
X93319868Y-90311986D01*
X93340868Y-90268986D01*
X93329868Y-90153986D01*
X93281868Y-90141986D01*
X93118868Y-90132986D01*
X92819868Y-90129986D01*
X92333868Y-90129986D01*
X92333868Y-89907986D01*
X93437868Y-89919986D01*
G37*
G36*
X92537868Y-98483986D02*
G01*
X92492868Y-98476986D01*
X92379868Y-98401986D01*
X92367868Y-98388986D01*
X92314868Y-98226986D01*
X92353054Y-98168986D01*
X92496868Y-98168986D01*
X92524868Y-98225986D01*
X92540868Y-98243986D01*
X92643868Y-98269986D01*
X92744868Y-98246986D01*
X92899868Y-98091986D01*
X92935868Y-98029986D01*
X92776868Y-98029986D01*
X92680868Y-98030986D01*
X92573868Y-98050986D01*
X92522868Y-98110986D01*
X92496868Y-98168986D01*
X92353054Y-98168986D01*
X92420868Y-98065986D01*
X92463868Y-98024986D01*
X92440868Y-98010986D01*
X92361868Y-97994986D01*
X92333868Y-97892986D01*
X92333868Y-97799986D01*
X92758868Y-97804986D01*
X92975868Y-97808986D01*
X93214868Y-97823986D01*
X93356868Y-97851986D01*
X93438868Y-97900986D01*
X93509868Y-98017986D01*
X93521868Y-98222986D01*
X93434868Y-98393986D01*
X93369868Y-98437986D01*
X93178868Y-98489986D01*
X93142868Y-98475986D01*
X93133868Y-98379986D01*
X93133868Y-98269986D01*
X93212868Y-98269986D01*
X93296868Y-98253986D01*
X93353868Y-98141986D01*
X93319868Y-98063986D01*
X93164868Y-98029986D01*
X93076868Y-98029986D01*
X93000868Y-98181986D01*
X92923868Y-98313986D01*
X92757868Y-98459986D01*
X92643868Y-98472986D01*
X92537868Y-98483986D01*
G37*
G36*
X93913868Y-91049986D02*
G01*
X93806868Y-91049986D01*
X93765868Y-91048986D01*
X93686868Y-91036986D01*
X93682868Y-91026986D01*
X93673868Y-90926986D01*
X93673868Y-90829986D01*
X93913868Y-90829986D01*
X93913868Y-91049986D01*
G37*
G36*
X93983868Y-97579986D02*
G01*
X92333868Y-97589986D01*
X92333868Y-97369986D01*
X93995868Y-97369986D01*
X93983868Y-97579986D01*
G37*
G36*
X92037868Y-94455986D02*
G01*
X91973868Y-94259986D01*
X91966868Y-94173986D01*
X91973143Y-94128986D01*
X92139868Y-94128986D01*
X92157868Y-94289986D01*
X92219868Y-94341986D01*
X92340868Y-94305986D01*
X92359868Y-94288986D01*
X92384868Y-94234986D01*
X92373868Y-94109986D01*
X92360868Y-94035986D01*
X92297868Y-93915986D01*
X92193868Y-93945986D01*
X92163868Y-93983986D01*
X92140868Y-94110986D01*
X92139868Y-94128986D01*
X91973143Y-94128986D01*
X92001868Y-93922986D01*
X92118868Y-93783986D01*
X92163868Y-93765986D01*
X92357868Y-93763986D01*
X92497868Y-93864986D01*
X92520868Y-93932986D01*
X92551868Y-94098986D01*
X92568868Y-94211986D01*
X92591868Y-94295986D01*
X92651868Y-94290986D01*
X92677868Y-94269986D01*
X92693868Y-94168986D01*
X92696206Y-94149986D01*
X92854868Y-94149986D01*
X92886868Y-94251986D01*
X92972868Y-94275986D01*
X93131868Y-94289986D01*
X93262868Y-94281986D01*
X93290868Y-94271986D01*
X93371868Y-94174986D01*
X93334868Y-94060986D01*
X93329868Y-94056986D01*
X93192868Y-94015986D01*
X93010868Y-94017986D01*
X92884868Y-94061986D01*
X92854868Y-94149986D01*
X92696206Y-94149986D01*
X92709868Y-94038986D01*
X92826868Y-93887986D01*
X92862868Y-93866986D01*
X92950868Y-93844986D01*
X93118868Y-93839986D01*
X93333868Y-93840986D01*
X93366868Y-93754986D01*
X93376868Y-93728986D01*
X93403868Y-93669986D01*
X93470868Y-93691986D01*
X93532868Y-93713986D01*
X93500868Y-93776986D01*
X93499868Y-93778986D01*
X93439868Y-93872986D01*
X93424868Y-93895986D01*
X93460868Y-93958986D01*
X93498868Y-94014986D01*
X93522868Y-94204986D01*
X93436868Y-94376986D01*
X93265868Y-94466986D01*
X93131868Y-94474986D01*
X93019868Y-94481986D01*
X92801868Y-94398986D01*
X92738868Y-94351986D01*
X92682868Y-94410986D01*
X92581868Y-94467986D01*
X92441868Y-94427986D01*
X92396868Y-94385986D01*
X92374868Y-94427986D01*
X92369868Y-94435986D01*
X92244868Y-94518986D01*
X92219868Y-94516986D01*
X92095868Y-94510986D01*
X92037868Y-94455986D01*
G37*
G36*
X92784868Y-99851986D02*
G01*
X92585868Y-99728986D01*
X92552868Y-99674986D01*
X92547106Y-99539986D01*
X92696868Y-99539986D01*
X92742868Y-99608986D01*
X92752868Y-99617986D01*
X92815868Y-99646986D01*
X92947868Y-99645986D01*
X93128868Y-99613986D01*
X93320868Y-99506986D01*
X93393868Y-99351986D01*
X93393868Y-99324986D01*
X93375868Y-99296986D01*
X93293868Y-99298986D01*
X93100868Y-99328986D01*
X92930868Y-99358986D01*
X92782868Y-99408986D01*
X92717868Y-99478986D01*
X92696868Y-99539986D01*
X92547106Y-99539986D01*
X92545868Y-99510986D01*
X92646868Y-99391986D01*
X92703868Y-99365986D01*
X92642868Y-99340986D01*
X92596868Y-99311986D01*
X92535868Y-99170986D01*
X92571868Y-98988986D01*
X92698868Y-98825986D01*
X92960868Y-98702986D01*
X93290868Y-98676986D01*
X93608868Y-98761986D01*
X93771868Y-98872986D01*
X93933868Y-99104986D01*
X93967868Y-99269986D01*
X93967868Y-99536986D01*
X93916868Y-99759986D01*
X93736868Y-100025986D01*
X93433868Y-100218986D01*
X93017868Y-100301986D01*
X92736868Y-100295986D01*
X92459868Y-100208986D01*
X92219868Y-100008986D01*
X92079868Y-99689986D01*
X92065868Y-99559986D01*
X92068868Y-99352986D01*
X92087868Y-99161986D01*
X92119868Y-99056986D01*
X92122868Y-99055986D01*
X92203868Y-99060986D01*
X92259868Y-99076986D01*
X92260868Y-99147986D01*
X92249868Y-99257986D01*
X92244868Y-99449986D01*
X92245868Y-99566986D01*
X92259868Y-99687986D01*
X92297868Y-99779986D01*
X92340868Y-99851986D01*
X92546868Y-100033986D01*
X92852868Y-100104986D01*
X93194868Y-100080986D01*
X93517868Y-99946986D01*
X93733868Y-99707986D01*
X93758868Y-99660986D01*
X93796868Y-99553986D01*
X93802868Y-99399986D01*
X93802868Y-99365986D01*
X93766868Y-99153986D01*
X93650868Y-98995986D01*
X93633868Y-98980986D01*
X93387868Y-98858986D01*
X93087868Y-98835986D01*
X92807868Y-98916986D01*
X92715868Y-98993986D01*
X92655868Y-99108986D01*
X92685868Y-99182986D01*
X92724868Y-99183986D01*
X92885868Y-99165986D01*
X93120868Y-99132986D01*
X93269868Y-99109986D01*
X93457868Y-99080986D01*
X93536868Y-99069986D01*
X93544868Y-99121986D01*
X93549868Y-99274986D01*
X93542868Y-99447986D01*
X93512868Y-99551986D01*
X93357868Y-99719986D01*
X93059868Y-99841986D01*
X92815868Y-99850986D01*
X92784868Y-99851986D01*
G37*
G36*
X91933868Y-96909986D02*
G01*
X92417868Y-96909986D01*
X92365868Y-96847986D01*
X92329274Y-96770986D01*
X92494868Y-96770986D01*
X92501868Y-96851986D01*
X92548868Y-96892986D01*
X92674868Y-96907986D01*
X92921868Y-96909986D01*
X93307868Y-96909986D01*
X93330868Y-96858986D01*
X93351868Y-96789986D01*
X93299868Y-96674986D01*
X93245868Y-96652986D01*
X93133868Y-96642986D01*
X92914868Y-96640986D01*
X92661868Y-96647986D01*
X92538868Y-96666986D01*
X92526868Y-96673986D01*
X92494868Y-96765986D01*
X92494868Y-96770986D01*
X92329274Y-96770986D01*
X92317868Y-96746986D01*
X92358868Y-96567986D01*
X92372868Y-96548986D01*
X92468868Y-96476986D01*
X92637868Y-96440986D01*
X92923868Y-96430986D01*
X92977868Y-96430986D01*
X93220868Y-96438986D01*
X93363868Y-96468986D01*
X93458868Y-96527986D01*
X93498868Y-96571986D01*
X93521868Y-96681986D01*
X93521868Y-96699986D01*
X93477868Y-96844986D01*
X93443868Y-96896986D01*
X93472868Y-96909986D01*
X93504868Y-96923986D01*
X93513868Y-97019986D01*
X93513868Y-97129986D01*
X91933868Y-97129986D01*
X91933868Y-96909986D01*
G37*
G36*
X93502868Y-91232986D02*
G01*
X93513868Y-91316986D01*
X93513868Y-91403986D01*
X93104868Y-91460986D01*
X92949868Y-91483986D01*
X92770868Y-91512986D01*
X92705868Y-91528986D01*
X92735868Y-91537986D01*
X92882868Y-91567986D01*
X93110868Y-91610986D01*
X93503868Y-91681986D01*
X93515868Y-91845986D01*
X93419868Y-91865986D01*
X93394868Y-91870986D01*
X93228868Y-91901986D01*
X92999868Y-91941986D01*
X92920868Y-91955986D01*
X92748868Y-91988986D01*
X92682868Y-92005986D01*
X92693868Y-92008986D01*
X92809868Y-92027986D01*
X93005868Y-92058986D01*
X93224868Y-92091986D01*
X93407868Y-92117986D01*
X93498868Y-92128986D01*
X93503868Y-92133986D01*
X93513868Y-92221986D01*
X93509868Y-92291986D01*
X93468868Y-92303986D01*
X93467868Y-92303986D01*
X93368868Y-92286986D01*
X93156868Y-92251986D01*
X92877868Y-92207986D01*
X92331868Y-92120986D01*
X92337868Y-92020986D01*
X92343868Y-91921986D01*
X92730868Y-91846986D01*
X92866868Y-91819986D01*
X93050868Y-91782986D01*
X93125868Y-91764986D01*
X93099868Y-91756986D01*
X92957868Y-91725986D01*
X92733868Y-91680986D01*
X92333868Y-91604986D01*
X92333868Y-91418986D01*
X92908868Y-91323986D01*
X92946868Y-91317986D01*
X93221868Y-91272986D01*
X93418868Y-91241986D01*
X93498868Y-91229986D01*
X93502868Y-91232986D01*
G37*
G36*
X93503868Y-91039986D02*
G01*
X92918868Y-91044986D01*
X92333868Y-91050986D01*
X92333868Y-90829986D01*
X93515868Y-90829986D01*
X93503868Y-91039986D01*
G37*
G36*
X92846868Y-89706986D02*
G01*
X92805868Y-89705986D01*
X92560868Y-89686986D01*
X92423868Y-89639986D01*
X92348868Y-89548986D01*
X92322868Y-89481986D01*
X92344087Y-89353986D01*
X92494868Y-89353986D01*
X92526868Y-89452986D01*
X92558868Y-89463986D01*
X92709868Y-89479986D01*
X92921868Y-89487986D01*
X93126868Y-89485986D01*
X93258868Y-89470986D01*
X93328868Y-89429986D01*
X93338868Y-89295986D01*
X93320868Y-89239986D01*
X92923868Y-89234986D01*
X92711868Y-89232986D01*
X92561868Y-89238986D01*
X92510868Y-89254986D01*
X92494868Y-89353986D01*
X92344087Y-89353986D01*
X92353868Y-89294986D01*
X92373868Y-89259986D01*
X92363868Y-89229986D01*
X92345868Y-89220986D01*
X92333868Y-89119986D01*
X92333868Y-89009986D01*
X93995868Y-89009986D01*
X93983868Y-89219986D01*
X93718868Y-89225986D01*
X93695868Y-89225986D01*
X93523868Y-89231986D01*
X93453868Y-89238986D01*
X93454868Y-89242986D01*
X93495868Y-89318986D01*
X93528868Y-89443986D01*
X93454868Y-89596986D01*
X93263868Y-89689986D01*
X93106868Y-89704986D01*
X92921868Y-89705986D01*
X92846868Y-89706986D01*
G37*
G36*
X93983868Y-93339986D02*
G01*
X93995868Y-93549986D01*
X92333868Y-93549986D01*
X92333868Y-93329986D01*
X93983868Y-93339986D01*
G37*
G36*
X93020868Y-94671986D02*
G01*
X93245868Y-94678986D01*
X93363868Y-94688986D01*
X93366868Y-94689986D01*
X93490868Y-94761986D01*
X93514868Y-94793986D01*
X93524868Y-94897986D01*
X93521868Y-94911986D01*
X93462868Y-95054986D01*
X93461868Y-95056986D01*
X93417868Y-95136986D01*
X93464868Y-95149986D01*
X93506868Y-95162986D01*
X93509868Y-95254986D01*
X93503868Y-95359986D01*
X92918868Y-95364986D01*
X92333868Y-95370986D01*
X92333868Y-95149986D01*
X93270868Y-95149986D01*
X93312868Y-95096986D01*
X93333868Y-95063986D01*
X93333868Y-94929986D01*
X93322868Y-94919986D01*
X93255868Y-94906986D01*
X93102868Y-94898986D01*
X92824868Y-94893986D01*
X92333868Y-94887986D01*
X92333868Y-94669986D01*
X92808868Y-94669986D01*
X93020868Y-94671986D01*
G37*
G36*
X92923868Y-96239986D02*
G01*
X92848868Y-96239986D01*
X92612868Y-96229986D01*
X92477868Y-96200986D01*
X92395868Y-96141986D01*
X92334868Y-96037986D01*
X92334433Y-96034986D01*
X93033868Y-96034986D01*
X93163868Y-96024986D01*
X93182868Y-96022986D01*
X93319868Y-95988986D01*
X93353868Y-95899986D01*
X93353868Y-95888986D01*
X93312868Y-95806986D01*
X93163868Y-95774986D01*
X93033868Y-95764986D01*
X93033868Y-96034986D01*
X92334433Y-96034986D01*
X92316868Y-95913986D01*
X92348868Y-95729986D01*
X92458868Y-95622986D01*
X92647868Y-95569986D01*
X92733868Y-95569986D01*
X92733868Y-95763986D01*
X92628868Y-95776986D01*
X92528868Y-95802986D01*
X92473868Y-95900986D01*
X92474868Y-95920986D01*
X92542868Y-95997986D01*
X92735868Y-96026986D01*
X92913868Y-96033986D01*
X92913868Y-95564986D01*
X93118868Y-95572986D01*
X93147868Y-95573986D01*
X93305868Y-95588986D01*
X93396868Y-95625986D01*
X93478868Y-95705986D01*
X93521868Y-95911986D01*
X93493868Y-96061986D01*
X93353868Y-96194986D01*
X93338868Y-96202986D01*
X93262868Y-96227986D01*
X93144868Y-96237986D01*
X93033868Y-96238986D01*
X92923868Y-96239986D01*
G37*
G36*
X92983868Y-93126986D02*
G01*
X92875868Y-93127986D01*
X92596868Y-93110986D01*
X92430868Y-93051986D01*
X92341868Y-92941986D01*
X92316868Y-92817986D01*
X92319524Y-92790986D01*
X92473868Y-92790986D01*
X92478868Y-92833986D01*
X92522868Y-92877986D01*
X92646868Y-92897986D01*
X92891868Y-92904986D01*
X93091868Y-92905986D01*
X93255868Y-92894986D01*
X93328868Y-92857986D01*
X93349868Y-92785986D01*
X93347868Y-92727986D01*
X93299868Y-92682986D01*
X93166868Y-92663986D01*
X92910868Y-92659986D01*
X92842868Y-92659986D01*
X92651868Y-92662986D01*
X92558868Y-92673986D01*
X92515868Y-92697986D01*
X92473868Y-92790986D01*
X92319524Y-92790986D01*
X92334868Y-92634986D01*
X92343868Y-92615986D01*
X92438868Y-92516986D01*
X92480868Y-92488986D01*
X92544868Y-92467986D01*
X92664868Y-92458986D01*
X92891868Y-92453986D01*
X93032868Y-92451986D01*
X93198868Y-92453986D01*
X93286868Y-92465986D01*
X93352868Y-92493986D01*
X93480868Y-92595986D01*
X93521868Y-92773986D01*
X93496868Y-92939986D01*
X93363868Y-93077986D01*
X93305868Y-93101986D01*
X93193868Y-93118986D01*
X93091868Y-93122986D01*
X92983868Y-93126986D01*
G37*
%TD*%
D11*
%TO.P,D1,1,K*%
%TO.N,GND*%
X101219991Y-112054005D03*
D12*
%TO.P,D1,2,A*%
%TO.N,/LED+*%
X101219991Y-114594005D03*
%TD*%
D11*
%TO.P,D2,1,K*%
%TO.N,GND*%
X113920000Y-118150000D03*
D12*
%TO.P,D2,2,A*%
%TO.N,/LED+*%
X113920000Y-120690000D03*
%TD*%
D11*
%TO.P,D3,1,K*%
%TO.N,GND*%
X123826000Y-112181000D03*
D12*
%TO.P,D3,2,A*%
%TO.N,/LED+*%
X123826000Y-114721000D03*
%TD*%
D13*
%TO.P,BT1,1,+*%
%TO.N,VCC*%
X125476000Y-93345000D03*
X104394000Y-93345000D03*
D14*
%TO.P,BT1,2,-*%
%TO.N,GND*%
X114935000Y-93345000D03*
%TD*%
D15*
%TO.P,SW1,1,A*%
%TO.N,unconnected-(SW1-Pad1)*%
X132905459Y-106336620D03*
%TO.P,SW1,2,B*%
%TO.N,VCC*%
X131543487Y-109009639D03*
%TO.P,SW1,3,C*%
%TO.N,/LED+*%
X130181516Y-111682659D03*
%TD*%
D16*
%TO.N,VCC*%
X125476000Y-101345000D02*
X125476000Y-93345000D01*
X104394000Y-101063000D02*
X108976000Y-105645000D01*
X125984000Y-92837000D02*
X125476000Y-93345000D01*
X131543487Y-109009639D02*
X129540000Y-107006152D01*
X104394000Y-93345000D02*
X104394000Y-101063000D01*
X127508000Y-92837000D02*
X125984000Y-92837000D01*
X108976000Y-105645000D02*
X121176000Y-105645000D01*
X129540000Y-94869000D02*
X127508000Y-92837000D01*
X121176000Y-105645000D02*
X125476000Y-101345000D01*
X129540000Y-107006152D02*
X129540000Y-94869000D01*
D17*
%TO.N,GND*%
X101219991Y-90088009D02*
X103678000Y-87630000D01*
X103678000Y-87630000D02*
X109220000Y-87630000D01*
D16*
X101220000Y-101010000D02*
X101220000Y-90088000D01*
X104648000Y-104438000D02*
X101220000Y-101010000D01*
X119889000Y-112181000D02*
X113920000Y-118150000D01*
D17*
X109220000Y-87630000D02*
X114935000Y-93345000D01*
D16*
X113578000Y-118150000D02*
X107482000Y-112054000D01*
X101220000Y-112054000D02*
X104648000Y-108626000D01*
X113920000Y-118150000D02*
X113578000Y-118150000D01*
X104648000Y-108626000D02*
X104648000Y-104438000D01*
X107482000Y-112054000D02*
X101220000Y-112054000D01*
X123826000Y-112181000D02*
X119889000Y-112181000D01*
%TO.N,/LED+*%
X123826000Y-114721000D02*
X127143175Y-114721000D01*
X104815000Y-114594000D02*
X110911000Y-120690000D01*
X101220000Y-114594000D02*
X104354000Y-114594000D01*
X123826000Y-114721000D02*
X123826000Y-119379000D01*
X101092000Y-115316000D02*
X101092000Y-114554000D01*
X110911000Y-120690000D02*
X113920000Y-120690000D01*
X127143175Y-114721000D02*
X130181516Y-111682659D01*
X104354000Y-114594000D02*
X104815000Y-114594000D01*
X119380000Y-123825000D02*
X109601000Y-123825000D01*
X123826000Y-119379000D02*
X119380000Y-123825000D01*
X109601000Y-123825000D02*
X101092000Y-115316000D01*
%TD*%
M02*
