%TF.GenerationSoftware,KiCad,Pcbnew,(6.0.5)*%
%TF.CreationDate,2022-07-23T18:44:09-07:00*%
%TF.ProjectId,StormCloud,53746f72-6d43-46c6-9f75-642e6b696361,rev?*%
%TF.SameCoordinates,Original*%
%TF.FileFunction,Legend,Bot*%
%TF.FilePolarity,Positive*%
%FSLAX46Y46*%
G04 Gerber Fmt 4.6, Leading zero omitted, Abs format (unit mm)*
G04 Created by KiCad (PCBNEW (6.0.5)) date 2022-07-23 18:44:09*
%MOMM*%
%LPD*%
G01*
G04 APERTURE LIST*
%ADD10C,0.150000*%
%ADD11C,0.254000*%
G04 APERTURE END LIST*
D10*
X98247095Y-118852904D02*
X98628047Y-118852904D01*
X98628047Y-118052904D01*
X97866142Y-118852904D02*
X97942333Y-118814809D01*
X97980428Y-118776714D01*
X98018523Y-118700523D01*
X98018523Y-118471952D01*
X97980428Y-118395761D01*
X97942333Y-118357666D01*
X97866142Y-118319571D01*
X97751857Y-118319571D01*
X97675666Y-118357666D01*
X97637571Y-118395761D01*
X97599476Y-118471952D01*
X97599476Y-118700523D01*
X97637571Y-118776714D01*
X97675666Y-118814809D01*
X97751857Y-118852904D01*
X97866142Y-118852904D01*
X97256619Y-118319571D02*
X97256619Y-118852904D01*
X97256619Y-118395761D02*
X97218523Y-118357666D01*
X97142333Y-118319571D01*
X97028047Y-118319571D01*
X96951857Y-118357666D01*
X96913761Y-118433857D01*
X96913761Y-118852904D01*
X96189952Y-118319571D02*
X96189952Y-118967190D01*
X96228047Y-119043380D01*
X96266142Y-119081476D01*
X96342333Y-119119571D01*
X96456619Y-119119571D01*
X96532809Y-119081476D01*
X96189952Y-118814809D02*
X96266142Y-118852904D01*
X96418523Y-118852904D01*
X96494714Y-118814809D01*
X96532809Y-118776714D01*
X96570904Y-118700523D01*
X96570904Y-118471952D01*
X96532809Y-118395761D01*
X96494714Y-118357666D01*
X96418523Y-118319571D01*
X96266142Y-118319571D01*
X96189952Y-118357666D01*
X125425095Y-117201904D02*
X125806047Y-117201904D01*
X125806047Y-116401904D01*
X125044142Y-117201904D02*
X125120333Y-117163809D01*
X125158428Y-117125714D01*
X125196523Y-117049523D01*
X125196523Y-116820952D01*
X125158428Y-116744761D01*
X125120333Y-116706666D01*
X125044142Y-116668571D01*
X124929857Y-116668571D01*
X124853666Y-116706666D01*
X124815571Y-116744761D01*
X124777476Y-116820952D01*
X124777476Y-117049523D01*
X124815571Y-117125714D01*
X124853666Y-117163809D01*
X124929857Y-117201904D01*
X125044142Y-117201904D01*
X124434619Y-116668571D02*
X124434619Y-117201904D01*
X124434619Y-116744761D02*
X124396523Y-116706666D01*
X124320333Y-116668571D01*
X124206047Y-116668571D01*
X124129857Y-116706666D01*
X124091761Y-116782857D01*
X124091761Y-117201904D01*
X123367952Y-116668571D02*
X123367952Y-117316190D01*
X123406047Y-117392380D01*
X123444142Y-117430476D01*
X123520333Y-117468571D01*
X123634619Y-117468571D01*
X123710809Y-117430476D01*
X123367952Y-117163809D02*
X123444142Y-117201904D01*
X123596523Y-117201904D01*
X123672714Y-117163809D01*
X123710809Y-117125714D01*
X123748904Y-117049523D01*
X123748904Y-116820952D01*
X123710809Y-116744761D01*
X123672714Y-116706666D01*
X123596523Y-116668571D01*
X123444142Y-116668571D01*
X123367952Y-116706666D01*
X98837571Y-112083809D02*
X98723285Y-112121904D01*
X98532809Y-112121904D01*
X98456619Y-112083809D01*
X98418523Y-112045714D01*
X98380428Y-111969523D01*
X98380428Y-111893333D01*
X98418523Y-111817142D01*
X98456619Y-111779047D01*
X98532809Y-111740952D01*
X98685190Y-111702857D01*
X98761380Y-111664761D01*
X98799476Y-111626666D01*
X98837571Y-111550476D01*
X98837571Y-111474285D01*
X98799476Y-111398095D01*
X98761380Y-111360000D01*
X98685190Y-111321904D01*
X98494714Y-111321904D01*
X98380428Y-111360000D01*
X98037571Y-112121904D02*
X98037571Y-111321904D01*
X97694714Y-112121904D02*
X97694714Y-111702857D01*
X97732809Y-111626666D01*
X97809000Y-111588571D01*
X97923285Y-111588571D01*
X97999476Y-111626666D01*
X98037571Y-111664761D01*
X97199476Y-112121904D02*
X97275666Y-112083809D01*
X97313761Y-112045714D01*
X97351857Y-111969523D01*
X97351857Y-111740952D01*
X97313761Y-111664761D01*
X97275666Y-111626666D01*
X97199476Y-111588571D01*
X97085190Y-111588571D01*
X97009000Y-111626666D01*
X96970904Y-111664761D01*
X96932809Y-111740952D01*
X96932809Y-111969523D01*
X96970904Y-112045714D01*
X97009000Y-112083809D01*
X97085190Y-112121904D01*
X97199476Y-112121904D01*
X96589952Y-112121904D02*
X96589952Y-111588571D01*
X96589952Y-111740952D02*
X96551857Y-111664761D01*
X96513761Y-111626666D01*
X96437571Y-111588571D01*
X96361380Y-111588571D01*
X96209000Y-111588571D02*
X95904238Y-111588571D01*
X96094714Y-111321904D02*
X96094714Y-112007619D01*
X96056619Y-112083809D01*
X95980428Y-112121904D01*
X95904238Y-112121904D01*
X132311688Y-113042261D02*
X132127702Y-112992963D01*
X132023384Y-113014310D01*
X131906742Y-113081653D01*
X131811447Y-113253314D01*
X131725174Y-113575290D01*
X131721871Y-113771600D01*
X131789215Y-113888242D01*
X131868883Y-113958888D01*
X132052869Y-114008187D01*
X132157186Y-113986840D01*
X132273829Y-113919497D01*
X132369124Y-113747836D01*
X132455397Y-113425860D01*
X132458700Y-113229550D01*
X132391356Y-113112907D01*
X132311688Y-113042261D01*
X131224932Y-113786342D02*
X131483751Y-112820417D01*
X130672975Y-113638446D01*
X130931794Y-112672520D01*
X112598095Y-122916904D02*
X112979047Y-122916904D01*
X112979047Y-122116904D01*
X112217142Y-122916904D02*
X112293333Y-122878809D01*
X112331428Y-122840714D01*
X112369523Y-122764523D01*
X112369523Y-122535952D01*
X112331428Y-122459761D01*
X112293333Y-122421666D01*
X112217142Y-122383571D01*
X112102857Y-122383571D01*
X112026666Y-122421666D01*
X111988571Y-122459761D01*
X111950476Y-122535952D01*
X111950476Y-122764523D01*
X111988571Y-122840714D01*
X112026666Y-122878809D01*
X112102857Y-122916904D01*
X112217142Y-122916904D01*
X111607619Y-122383571D02*
X111607619Y-122916904D01*
X111607619Y-122459761D02*
X111569523Y-122421666D01*
X111493333Y-122383571D01*
X111379047Y-122383571D01*
X111302857Y-122421666D01*
X111264761Y-122497857D01*
X111264761Y-122916904D01*
X110540952Y-122383571D02*
X110540952Y-123031190D01*
X110579047Y-123107380D01*
X110617142Y-123145476D01*
X110693333Y-123183571D01*
X110807619Y-123183571D01*
X110883809Y-123145476D01*
X110540952Y-122878809D02*
X110617142Y-122916904D01*
X110769523Y-122916904D01*
X110845714Y-122878809D01*
X110883809Y-122840714D01*
X110921904Y-122764523D01*
X110921904Y-122535952D01*
X110883809Y-122459761D01*
X110845714Y-122421666D01*
X110769523Y-122383571D01*
X110617142Y-122383571D01*
X110540952Y-122421666D01*
X113188571Y-115893809D02*
X113074285Y-115931904D01*
X112883809Y-115931904D01*
X112807619Y-115893809D01*
X112769523Y-115855714D01*
X112731428Y-115779523D01*
X112731428Y-115703333D01*
X112769523Y-115627142D01*
X112807619Y-115589047D01*
X112883809Y-115550952D01*
X113036190Y-115512857D01*
X113112380Y-115474761D01*
X113150476Y-115436666D01*
X113188571Y-115360476D01*
X113188571Y-115284285D01*
X113150476Y-115208095D01*
X113112380Y-115170000D01*
X113036190Y-115131904D01*
X112845714Y-115131904D01*
X112731428Y-115170000D01*
X112388571Y-115931904D02*
X112388571Y-115131904D01*
X112045714Y-115931904D02*
X112045714Y-115512857D01*
X112083809Y-115436666D01*
X112160000Y-115398571D01*
X112274285Y-115398571D01*
X112350476Y-115436666D01*
X112388571Y-115474761D01*
X111550476Y-115931904D02*
X111626666Y-115893809D01*
X111664761Y-115855714D01*
X111702857Y-115779523D01*
X111702857Y-115550952D01*
X111664761Y-115474761D01*
X111626666Y-115436666D01*
X111550476Y-115398571D01*
X111436190Y-115398571D01*
X111360000Y-115436666D01*
X111321904Y-115474761D01*
X111283809Y-115550952D01*
X111283809Y-115779523D01*
X111321904Y-115855714D01*
X111360000Y-115893809D01*
X111436190Y-115931904D01*
X111550476Y-115931904D01*
X110940952Y-115931904D02*
X110940952Y-115398571D01*
X110940952Y-115550952D02*
X110902857Y-115474761D01*
X110864761Y-115436666D01*
X110788571Y-115398571D01*
X110712380Y-115398571D01*
X110560000Y-115398571D02*
X110255238Y-115398571D01*
X110445714Y-115131904D02*
X110445714Y-115817619D01*
X110407619Y-115893809D01*
X110331428Y-115931904D01*
X110255238Y-115931904D01*
X136189663Y-99412534D02*
X136005677Y-99363236D01*
X135901360Y-99384583D01*
X135784717Y-99451926D01*
X135689422Y-99623587D01*
X135603149Y-99945563D01*
X135599846Y-100141873D01*
X135667190Y-100258516D01*
X135746858Y-100329161D01*
X135930844Y-100378460D01*
X136035162Y-100357113D01*
X136151804Y-100289770D01*
X136247099Y-100118109D01*
X136333372Y-99796133D01*
X136336675Y-99599823D01*
X136269331Y-99483180D01*
X136189663Y-99412534D01*
X134916504Y-99564381D02*
X135238480Y-99650654D01*
X135102908Y-100156615D02*
X135361727Y-99190690D01*
X134901762Y-99067442D01*
X134088568Y-99342536D02*
X134410543Y-99428809D01*
X134274971Y-99934770D02*
X134533790Y-98968845D01*
X134073826Y-98845597D01*
X125888571Y-110178809D02*
X125774285Y-110216904D01*
X125583809Y-110216904D01*
X125507619Y-110178809D01*
X125469523Y-110140714D01*
X125431428Y-110064523D01*
X125431428Y-109988333D01*
X125469523Y-109912142D01*
X125507619Y-109874047D01*
X125583809Y-109835952D01*
X125736190Y-109797857D01*
X125812380Y-109759761D01*
X125850476Y-109721666D01*
X125888571Y-109645476D01*
X125888571Y-109569285D01*
X125850476Y-109493095D01*
X125812380Y-109455000D01*
X125736190Y-109416904D01*
X125545714Y-109416904D01*
X125431428Y-109455000D01*
X125088571Y-110216904D02*
X125088571Y-109416904D01*
X124745714Y-110216904D02*
X124745714Y-109797857D01*
X124783809Y-109721666D01*
X124860000Y-109683571D01*
X124974285Y-109683571D01*
X125050476Y-109721666D01*
X125088571Y-109759761D01*
X124250476Y-110216904D02*
X124326666Y-110178809D01*
X124364761Y-110140714D01*
X124402857Y-110064523D01*
X124402857Y-109835952D01*
X124364761Y-109759761D01*
X124326666Y-109721666D01*
X124250476Y-109683571D01*
X124136190Y-109683571D01*
X124060000Y-109721666D01*
X124021904Y-109759761D01*
X123983809Y-109835952D01*
X123983809Y-110064523D01*
X124021904Y-110140714D01*
X124060000Y-110178809D01*
X124136190Y-110216904D01*
X124250476Y-110216904D01*
X123640952Y-110216904D02*
X123640952Y-109683571D01*
X123640952Y-109835952D02*
X123602857Y-109759761D01*
X123564761Y-109721666D01*
X123488571Y-109683571D01*
X123412380Y-109683571D01*
X123260000Y-109683571D02*
X122955238Y-109683571D01*
X123145714Y-109416904D02*
X123145714Y-110102619D01*
X123107619Y-110178809D01*
X123031428Y-110216904D01*
X122955238Y-110216904D01*
%TO.C,BT1*%
X123594714Y-103052571D02*
X123451857Y-103100190D01*
X123404238Y-103147809D01*
X123356619Y-103243047D01*
X123356619Y-103385904D01*
X123404238Y-103481142D01*
X123451857Y-103528761D01*
X123547095Y-103576380D01*
X123928047Y-103576380D01*
X123928047Y-102576380D01*
X123594714Y-102576380D01*
X123499476Y-102624000D01*
X123451857Y-102671619D01*
X123404238Y-102766857D01*
X123404238Y-102862095D01*
X123451857Y-102957333D01*
X123499476Y-103004952D01*
X123594714Y-103052571D01*
X123928047Y-103052571D01*
X123070904Y-102576380D02*
X122499476Y-102576380D01*
X122785190Y-103576380D02*
X122785190Y-102576380D01*
X121642333Y-103576380D02*
X122213761Y-103576380D01*
X121928047Y-103576380D02*
X121928047Y-102576380D01*
X122023285Y-102719238D01*
X122118523Y-102814476D01*
X122213761Y-102862095D01*
%TO.C,SW1*%
X131546062Y-101178858D02*
X131555084Y-101329173D01*
X131493460Y-101559155D01*
X131422814Y-101638823D01*
X131364493Y-101672495D01*
X131260176Y-101693842D01*
X131168183Y-101669193D01*
X131088514Y-101598547D01*
X131054843Y-101540225D01*
X131033496Y-101435908D01*
X131036798Y-101239597D01*
X131015451Y-101135280D01*
X130981779Y-101076958D01*
X130902111Y-101006312D01*
X130810118Y-100981663D01*
X130705800Y-101003010D01*
X130647479Y-101036682D01*
X130576833Y-101116350D01*
X130515210Y-101346332D01*
X130524232Y-101496646D01*
X130391963Y-101806297D02*
X131296265Y-102295098D01*
X130557019Y-102294214D01*
X131197667Y-102663070D01*
X130170118Y-102634233D01*
X130901874Y-103766985D02*
X131049770Y-103215028D01*
X130975822Y-103491007D02*
X130009896Y-103232188D01*
X130172535Y-103177169D01*
X130289178Y-103109825D01*
X130359823Y-103030157D01*
%TO.C,G2*%
G36*
X102410889Y-82115958D02*
G01*
X102381047Y-82307083D01*
X102327852Y-82439197D01*
X102310431Y-82463431D01*
X102270288Y-82495864D01*
X102220735Y-82472667D01*
X102135546Y-82386679D01*
X102072807Y-82317590D01*
X101948504Y-82175308D01*
X101823891Y-82027684D01*
X101738375Y-81929222D01*
X101660896Y-81851496D01*
X101623401Y-81829345D01*
X101603859Y-81880489D01*
X101582840Y-81983510D01*
X101517821Y-82342521D01*
X101431966Y-82670221D01*
X101334189Y-82909950D01*
X101225295Y-83059288D01*
X101222629Y-83061739D01*
X101139671Y-83163032D01*
X101064276Y-83291488D01*
X101056764Y-83306615D01*
X100985724Y-83410166D01*
X100914709Y-83463627D01*
X100873908Y-83474296D01*
X100812437Y-83489613D01*
X100773604Y-83486633D01*
X100690971Y-83428915D01*
X100621437Y-83328666D01*
X100590561Y-83217259D01*
X100589980Y-83194527D01*
X100595272Y-83100462D01*
X100630291Y-83083260D01*
X100714787Y-83128869D01*
X100766293Y-83153882D01*
X100866165Y-83152306D01*
X100969198Y-83074761D01*
X101087138Y-82914482D01*
X101154088Y-82792756D01*
X101217419Y-82605334D01*
X101255036Y-82364445D01*
X101256819Y-82346927D01*
X101273140Y-82176547D01*
X101284064Y-82044309D01*
X101287309Y-81977566D01*
X101270357Y-81851351D01*
X101222686Y-81655207D01*
X101158267Y-81462656D01*
X101090431Y-81318329D01*
X101053538Y-81253893D01*
X101404887Y-81253893D01*
X101440883Y-81384389D01*
X101442585Y-81387315D01*
X101506263Y-81462920D01*
X101619359Y-81571553D01*
X101758557Y-81690732D01*
X101777188Y-81705755D01*
X101908196Y-81807979D01*
X102008046Y-81880174D01*
X102056392Y-81907530D01*
X102061259Y-81905417D01*
X102070582Y-81848051D01*
X102061449Y-81731213D01*
X102037694Y-81580348D01*
X102003147Y-81420903D01*
X101961641Y-81278324D01*
X101932061Y-81204061D01*
X101859478Y-81069072D01*
X101780105Y-80963058D01*
X101709200Y-80904649D01*
X101662017Y-80912470D01*
X101624600Y-80946960D01*
X101530835Y-80992295D01*
X101483265Y-81019876D01*
X101421758Y-81120427D01*
X101404887Y-81253893D01*
X101053538Y-81253893D01*
X101040619Y-81231330D01*
X101026360Y-81175131D01*
X101062582Y-81160471D01*
X101092266Y-81154663D01*
X101121830Y-81098040D01*
X101087845Y-80997052D01*
X101067529Y-80936344D01*
X101036345Y-80809410D01*
X101002348Y-80646868D01*
X100997091Y-80620735D01*
X100948070Y-80416600D01*
X100881075Y-80178638D01*
X100808998Y-79953103D01*
X100782600Y-79874209D01*
X100732312Y-79706492D01*
X100702926Y-79581310D01*
X100700126Y-79521210D01*
X100708872Y-79510095D01*
X100794907Y-79478893D01*
X100927722Y-79490058D01*
X101080942Y-79536127D01*
X101228190Y-79609638D01*
X101343089Y-79703126D01*
X101381365Y-79754636D01*
X101413569Y-79860791D01*
X101377467Y-79937502D01*
X101278566Y-79962621D01*
X101273073Y-79962286D01*
X101211523Y-79964861D01*
X101179873Y-79996284D01*
X101169641Y-80078031D01*
X101172347Y-80231578D01*
X101174557Y-80288261D01*
X101194973Y-80514031D01*
X101231308Y-80648828D01*
X101283779Y-80693559D01*
X101292015Y-80692851D01*
X101327323Y-80654362D01*
X101350174Y-80619397D01*
X101434854Y-80567503D01*
X101548804Y-80524637D01*
X101656359Y-80506794D01*
X101708536Y-80515251D01*
X101747544Y-80553485D01*
X101754007Y-80573593D01*
X101813430Y-80600177D01*
X101824597Y-80601512D01*
X101905582Y-80650129D01*
X102002379Y-80748597D01*
X102091103Y-80869427D01*
X102147872Y-80985127D01*
X102180738Y-81057665D01*
X102258806Y-81160471D01*
X102324012Y-81266597D01*
X102373940Y-81441140D01*
X102405971Y-81657723D01*
X102416387Y-81848051D01*
X102418742Y-81891083D01*
X102410889Y-82115958D01*
G37*
G36*
X114244713Y-80506652D02*
G01*
X114400091Y-80593380D01*
X114516524Y-80738206D01*
X114593828Y-80852306D01*
X114692406Y-80949287D01*
X114797728Y-81023918D01*
X114686446Y-81108765D01*
X114628767Y-81159095D01*
X114598139Y-81218954D01*
X114595317Y-81312493D01*
X114614475Y-81468861D01*
X114629548Y-81590484D01*
X114642186Y-81745464D01*
X114642472Y-81847939D01*
X114642472Y-81877472D01*
X114669505Y-81999387D01*
X114726116Y-82137898D01*
X114750657Y-82187649D01*
X114810408Y-82345419D01*
X114807886Y-82437752D01*
X114743255Y-82467824D01*
X114706064Y-82472744D01*
X114696159Y-82498546D01*
X114704497Y-82523845D01*
X114674878Y-82591928D01*
X114644476Y-82623153D01*
X114589358Y-82654588D01*
X114583783Y-82653861D01*
X114528337Y-82610931D01*
X114459752Y-82522711D01*
X114396196Y-82418510D01*
X114355833Y-82327640D01*
X114356831Y-82279409D01*
X114378014Y-82245635D01*
X114370708Y-82160598D01*
X114343347Y-82111405D01*
X114266717Y-81998122D01*
X114156742Y-81846164D01*
X114027771Y-81674557D01*
X113894156Y-81502326D01*
X113770244Y-81348498D01*
X113670388Y-81232097D01*
X113654911Y-81215178D01*
X113605605Y-81172599D01*
X113578074Y-81197596D01*
X113552114Y-81302133D01*
X113535401Y-81498870D01*
X113562081Y-81711797D01*
X113628303Y-81884184D01*
X113631271Y-81889050D01*
X113705711Y-82055917D01*
X113723414Y-82203496D01*
X113681268Y-82306946D01*
X113647950Y-82331049D01*
X113545324Y-82337990D01*
X113431920Y-82277639D01*
X113326741Y-82163146D01*
X113248788Y-82007661D01*
X113187068Y-81857147D01*
X113074863Y-81637237D01*
X112940684Y-81410363D01*
X112804647Y-81212538D01*
X112719970Y-81101186D01*
X112719970Y-81221455D01*
X112708696Y-81306579D01*
X112673279Y-81370581D01*
X112661017Y-81385364D01*
X112636384Y-81472959D01*
X112626588Y-81604037D01*
X112625068Y-81659045D01*
X112609981Y-81776078D01*
X112583960Y-81834982D01*
X112574776Y-81844029D01*
X112539695Y-81922809D01*
X112510054Y-82046458D01*
X112508301Y-82056702D01*
X112477985Y-82174084D01*
X112422210Y-82232190D01*
X112311752Y-82262922D01*
X112245026Y-82273032D01*
X112147031Y-82264159D01*
X112081518Y-82205948D01*
X112040275Y-82153791D01*
X111944138Y-82043069D01*
X111828770Y-81917793D01*
X111747925Y-81825195D01*
X111677349Y-81724276D01*
X111657243Y-81663910D01*
X111683626Y-81616101D01*
X111749406Y-81601472D01*
X111850917Y-81661654D01*
X111994479Y-81799181D01*
X112103770Y-81907542D01*
X112189564Y-81965488D01*
X112246190Y-81955098D01*
X112278991Y-81870191D01*
X112293309Y-81704589D01*
X112294485Y-81452111D01*
X112294477Y-81351486D01*
X112311438Y-81094674D01*
X112355979Y-80919345D01*
X112430491Y-80818951D01*
X112537365Y-80786941D01*
X112555163Y-80790045D01*
X112648590Y-80842037D01*
X112781554Y-80948373D01*
X112937640Y-81096363D01*
X113242525Y-81405785D01*
X113219128Y-81169633D01*
X113211436Y-81043303D01*
X113225894Y-80934548D01*
X113273016Y-80867308D01*
X113293068Y-80850504D01*
X113393054Y-80786750D01*
X113481261Y-80783922D01*
X113578778Y-80847680D01*
X113706695Y-80983684D01*
X113806641Y-81099208D01*
X113945519Y-81258973D01*
X114058960Y-81388670D01*
X114097468Y-81432514D01*
X114211953Y-81563439D01*
X114304089Y-81669545D01*
X114400853Y-81781744D01*
X114398792Y-81669545D01*
X114386931Y-81564970D01*
X114343346Y-81375912D01*
X114277193Y-81163711D01*
X114198451Y-80963533D01*
X114182471Y-80926976D01*
X114138402Y-80814439D01*
X114120706Y-80748986D01*
X114094943Y-80697943D01*
X114023742Y-80620281D01*
X113926779Y-80532530D01*
X114053763Y-80498570D01*
X114079265Y-80492973D01*
X114244713Y-80506652D01*
G37*
G36*
X118437000Y-79843237D02*
G01*
X118539122Y-79917427D01*
X118638392Y-80017427D01*
X118718299Y-80130602D01*
X118762333Y-80244318D01*
X118770731Y-80283658D01*
X118845154Y-80453473D01*
X118979285Y-80564398D01*
X119186698Y-80628728D01*
X119283759Y-80647768D01*
X119375262Y-80678641D01*
X119412863Y-80726833D01*
X119420154Y-80810736D01*
X119413636Y-80880181D01*
X119372549Y-80937578D01*
X119279009Y-80947028D01*
X119116274Y-80914233D01*
X119068821Y-80903509D01*
X118974505Y-80902365D01*
X118929570Y-80952374D01*
X118928732Y-81065536D01*
X118966704Y-81253853D01*
X119008336Y-81406914D01*
X119048803Y-81522878D01*
X119078393Y-81572909D01*
X119098874Y-81594797D01*
X119116662Y-81675209D01*
X119123550Y-81724671D01*
X119163353Y-81790802D01*
X119190931Y-81829316D01*
X119209048Y-81943363D01*
X119201207Y-82099646D01*
X119171179Y-82270665D01*
X119122737Y-82428922D01*
X119059650Y-82546917D01*
X119055550Y-82551835D01*
X119013794Y-82574861D01*
X118945315Y-82567425D01*
X118837139Y-82524541D01*
X118676297Y-82441223D01*
X118449817Y-82312483D01*
X118355795Y-82255822D01*
X118129489Y-82092579D01*
X117994279Y-81943518D01*
X117949382Y-81807850D01*
X117949441Y-81800772D01*
X117962877Y-81738277D01*
X118007398Y-81732595D01*
X118093900Y-81787526D01*
X118233279Y-81906870D01*
X118329068Y-81986452D01*
X118442973Y-82063561D01*
X118518594Y-82093635D01*
X118559704Y-82100116D01*
X118629485Y-82145970D01*
X118632948Y-82151294D01*
X118674431Y-82170543D01*
X118709172Y-82109769D01*
X118733168Y-81981319D01*
X118742417Y-81797541D01*
X118738972Y-81705058D01*
X118719151Y-81521421D01*
X118686399Y-81324444D01*
X118646101Y-81140707D01*
X118603647Y-80996791D01*
X118564422Y-80919279D01*
X118535405Y-80905962D01*
X118432722Y-80882628D01*
X118288987Y-80862679D01*
X118256139Y-80858899D01*
X118057902Y-80819963D01*
X117903606Y-80762407D01*
X117809682Y-80694161D01*
X117792565Y-80623154D01*
X117796538Y-80614752D01*
X117846671Y-80578470D01*
X117955922Y-80559170D01*
X118141142Y-80553485D01*
X118150023Y-80553481D01*
X118307941Y-80551782D01*
X118419977Y-80547605D01*
X118462383Y-80541813D01*
X118449650Y-80496333D01*
X118416058Y-80385632D01*
X118369000Y-80234160D01*
X118324350Y-80083535D01*
X118289548Y-79948733D01*
X118276220Y-79872303D01*
X118290242Y-79822832D01*
X118348536Y-79807494D01*
X118437000Y-79843237D01*
G37*
G36*
X104313957Y-80547187D02*
G01*
X104369067Y-80574523D01*
X104493013Y-80626313D01*
X104574432Y-80646868D01*
X104630303Y-80655141D01*
X104754788Y-80707011D01*
X104880209Y-80788732D01*
X104977083Y-80879494D01*
X105015926Y-80958487D01*
X104993032Y-80998322D01*
X104899198Y-80997941D01*
X104810507Y-80979601D01*
X104674753Y-80951732D01*
X104567035Y-80929759D01*
X104620413Y-81244002D01*
X104652635Y-81406885D01*
X104692379Y-81562001D01*
X104728130Y-81659781D01*
X104769319Y-81796389D01*
X104780285Y-81982344D01*
X104758780Y-82167213D01*
X104706282Y-82307241D01*
X104647761Y-82372260D01*
X104569562Y-82398474D01*
X104471122Y-82371570D01*
X104345725Y-82286907D01*
X104186658Y-82139846D01*
X103987206Y-81925747D01*
X103740654Y-81639971D01*
X103693378Y-81584568D01*
X103554948Y-81434532D01*
X103464467Y-81360279D01*
X103419658Y-81359824D01*
X103418930Y-81361012D01*
X103398877Y-81436763D01*
X103387018Y-81563202D01*
X103383310Y-81711581D01*
X103387707Y-81853157D01*
X103400167Y-81959182D01*
X103420645Y-82000912D01*
X103430756Y-82002898D01*
X103457815Y-82053145D01*
X103453143Y-82139965D01*
X103417365Y-82221465D01*
X103365097Y-82243210D01*
X103255879Y-82219166D01*
X103118097Y-82146414D01*
X102973187Y-82034003D01*
X102892796Y-81947011D01*
X102874917Y-81882893D01*
X102938169Y-81860838D01*
X102958013Y-81850171D01*
X102988519Y-81770733D01*
X103005634Y-81632763D01*
X103009325Y-81459000D01*
X102999558Y-81272186D01*
X102976299Y-81095059D01*
X102939515Y-80950360D01*
X102938778Y-80948312D01*
X102887096Y-80789845D01*
X102876671Y-80699749D01*
X102910455Y-80661385D01*
X102991404Y-80658116D01*
X103016831Y-80660864D01*
X103069377Y-80673798D01*
X103126757Y-80703460D01*
X103198663Y-80758555D01*
X103294781Y-80847788D01*
X103424801Y-80979863D01*
X103598412Y-81163487D01*
X103825301Y-81407365D01*
X103920145Y-81509521D01*
X104073876Y-81673013D01*
X104179406Y-81779055D01*
X104246846Y-81835252D01*
X104286304Y-81849209D01*
X104307888Y-81828530D01*
X104321707Y-81780821D01*
X104350657Y-81581135D01*
X104334464Y-81306050D01*
X104250824Y-81010869D01*
X104096071Y-80677675D01*
X104051749Y-80557288D01*
X104075155Y-80491372D01*
X104164086Y-80487090D01*
X104313957Y-80547187D01*
G37*
G36*
X117715944Y-81564653D02*
G01*
X117727034Y-81732295D01*
X117724672Y-81862828D01*
X117709296Y-81928541D01*
X117681258Y-82001192D01*
X117669235Y-82117640D01*
X117653392Y-82234092D01*
X117613206Y-82318412D01*
X117611876Y-82319739D01*
X117559895Y-82361019D01*
X117504297Y-82365083D01*
X117421113Y-82326029D01*
X117286374Y-82237957D01*
X116997264Y-82004783D01*
X116734973Y-81709957D01*
X116545508Y-81393927D01*
X116501636Y-81303159D01*
X116450165Y-81207162D01*
X116438107Y-81186573D01*
X116342402Y-80960730D01*
X116340914Y-80942532D01*
X116782641Y-80942532D01*
X116833779Y-81000132D01*
X116858351Y-81025225D01*
X116825289Y-81069255D01*
X116801943Y-81100532D01*
X116799023Y-81203895D01*
X116839227Y-81350765D01*
X116915885Y-81520098D01*
X117022325Y-81690848D01*
X117101269Y-81796044D01*
X117193756Y-81897210D01*
X117254547Y-81919571D01*
X117292762Y-81864433D01*
X117317520Y-81733101D01*
X117324412Y-81677896D01*
X117346750Y-81499729D01*
X117365493Y-81351165D01*
X117366284Y-81344759D01*
X117366070Y-81235640D01*
X117323079Y-81144794D01*
X117220666Y-81036000D01*
X117074994Y-80925945D01*
X116918852Y-80880324D01*
X116814944Y-80897932D01*
X116782641Y-80942532D01*
X116340914Y-80942532D01*
X116324584Y-80742887D01*
X116338230Y-80646638D01*
X116375497Y-80591486D01*
X116455265Y-80582285D01*
X116537181Y-80574618D01*
X116602614Y-80539953D01*
X116646504Y-80521971D01*
X116758491Y-80525000D01*
X116908736Y-80550513D01*
X117070117Y-80592406D01*
X117215510Y-80644573D01*
X117317792Y-80700910D01*
X117404668Y-80783711D01*
X117548511Y-80996954D01*
X117655912Y-81263222D01*
X117672345Y-81344759D01*
X117715191Y-81557346D01*
X117715944Y-81564653D01*
G37*
G36*
X106982413Y-79487728D02*
G01*
X107076291Y-79544042D01*
X107211767Y-79642468D01*
X107370674Y-79769455D01*
X107534847Y-79911445D01*
X107550102Y-79925349D01*
X107683934Y-80066404D01*
X107749110Y-80176395D01*
X107742992Y-80247859D01*
X107662938Y-80273338D01*
X107605658Y-80304282D01*
X107545419Y-80390783D01*
X107529109Y-80438352D01*
X107524335Y-80515238D01*
X107542531Y-80623686D01*
X107587185Y-80782239D01*
X107661785Y-81009441D01*
X107718735Y-81182657D01*
X107781022Y-81385716D01*
X107826447Y-81549940D01*
X107847871Y-81650728D01*
X107866957Y-81764182D01*
X107894605Y-81860838D01*
X107899324Y-81872573D01*
X107912975Y-82033802D01*
X107856196Y-82246041D01*
X107823871Y-82314234D01*
X107763400Y-82365385D01*
X107675437Y-82347292D01*
X107541465Y-82260823D01*
X107464065Y-82208125D01*
X107303450Y-82110915D01*
X107134343Y-82019138D01*
X107081761Y-81991414D01*
X106922610Y-81882543D01*
X106853444Y-81780397D01*
X106840887Y-81704455D01*
X106848029Y-81647363D01*
X106849113Y-81646615D01*
X106902537Y-81659812D01*
X107012352Y-81709825D01*
X107156248Y-81786578D01*
X107168918Y-81793699D01*
X107309524Y-81866959D01*
X107413306Y-81910878D01*
X107458599Y-81916169D01*
X107471865Y-81882444D01*
X107489199Y-81725222D01*
X107471145Y-81499664D01*
X107419278Y-81218804D01*
X107335174Y-80895674D01*
X107272242Y-80677424D01*
X107212489Y-80462906D01*
X107166211Y-80288932D01*
X107140073Y-80179956D01*
X107091296Y-80023212D01*
X107018610Y-79870952D01*
X107006568Y-79849692D01*
X106959725Y-79733492D01*
X106932450Y-79612754D01*
X106929615Y-79517960D01*
X106956087Y-79479588D01*
X106982413Y-79487728D01*
G37*
G36*
X106510062Y-81564653D02*
G01*
X106521152Y-81732295D01*
X106518789Y-81862828D01*
X106503414Y-81928541D01*
X106475375Y-82001192D01*
X106463353Y-82117640D01*
X106447510Y-82234092D01*
X106407323Y-82318412D01*
X106405994Y-82319739D01*
X106354012Y-82361019D01*
X106298415Y-82365083D01*
X106215231Y-82326029D01*
X106080491Y-82237957D01*
X105791382Y-82004783D01*
X105529090Y-81709957D01*
X105339626Y-81393927D01*
X105295754Y-81303159D01*
X105244283Y-81207162D01*
X105232225Y-81186573D01*
X105136520Y-80960730D01*
X105135032Y-80942532D01*
X105576759Y-80942532D01*
X105627897Y-81000132D01*
X105652469Y-81025225D01*
X105619406Y-81069255D01*
X105596061Y-81100532D01*
X105593140Y-81203895D01*
X105633345Y-81350765D01*
X105710003Y-81520098D01*
X105816443Y-81690848D01*
X105895387Y-81796044D01*
X105987874Y-81897210D01*
X106048664Y-81919571D01*
X106086879Y-81864433D01*
X106111638Y-81733101D01*
X106118530Y-81677896D01*
X106140867Y-81499729D01*
X106159610Y-81351165D01*
X106160401Y-81344759D01*
X106160188Y-81235640D01*
X106117196Y-81144794D01*
X106014783Y-81036000D01*
X105869112Y-80925945D01*
X105712970Y-80880324D01*
X105609061Y-80897932D01*
X105576759Y-80942532D01*
X105135032Y-80942532D01*
X105118702Y-80742887D01*
X105132347Y-80646638D01*
X105169615Y-80591486D01*
X105249382Y-80582285D01*
X105331299Y-80574618D01*
X105396731Y-80539953D01*
X105440622Y-80521971D01*
X105552608Y-80525000D01*
X105702853Y-80550513D01*
X105864234Y-80592406D01*
X106009627Y-80644573D01*
X106111910Y-80700910D01*
X106198786Y-80783711D01*
X106342629Y-80996954D01*
X106450030Y-81263222D01*
X106466463Y-81344759D01*
X106509309Y-81557346D01*
X106510062Y-81564653D01*
G37*
G36*
X120093001Y-79527040D02*
G01*
X120144153Y-79540103D01*
X120215161Y-79574833D01*
X120316850Y-79638292D01*
X120460047Y-79737541D01*
X120655579Y-79879642D01*
X120914272Y-80071656D01*
X121027898Y-80156422D01*
X121297173Y-80357344D01*
X121502476Y-80511623D01*
X121651569Y-80626352D01*
X121752215Y-80708626D01*
X121812176Y-80765536D01*
X121839215Y-80804177D01*
X121841093Y-80831641D01*
X121825574Y-80855022D01*
X121800419Y-80881413D01*
X121785424Y-80896267D01*
X121725346Y-80931319D01*
X121628564Y-80953897D01*
X121476200Y-80967186D01*
X121249376Y-80974369D01*
X121108225Y-80977150D01*
X120873271Y-80982722D01*
X120709434Y-80989208D01*
X120601637Y-80998166D01*
X120534799Y-81011149D01*
X120493842Y-81029714D01*
X120463686Y-81055416D01*
X120429394Y-81084334D01*
X120364650Y-81113780D01*
X120318143Y-81124843D01*
X120246271Y-81201474D01*
X120203380Y-81329054D01*
X120192819Y-81481509D01*
X120217936Y-81632763D01*
X120282080Y-81756739D01*
X120352425Y-81822090D01*
X120536091Y-81926873D01*
X120780224Y-82015010D01*
X121064065Y-82079666D01*
X121366858Y-82114003D01*
X121471761Y-82118739D01*
X121549135Y-82110679D01*
X121571103Y-82073474D01*
X121559459Y-81993485D01*
X121549415Y-81927952D01*
X121567235Y-81873186D01*
X121643822Y-81861877D01*
X121725638Y-81875076D01*
X121847006Y-81936092D01*
X121933850Y-82025689D01*
X121957655Y-82120378D01*
X121916646Y-82194938D01*
X121824336Y-82270536D01*
X121776011Y-82288172D01*
X121623253Y-82309247D01*
X121418828Y-82311125D01*
X121189233Y-82294171D01*
X120960963Y-82258744D01*
X120782221Y-82213397D01*
X120523902Y-82120535D01*
X120278440Y-82004164D01*
X120065426Y-81875157D01*
X119904450Y-81744388D01*
X119815103Y-81622731D01*
X119788903Y-81553014D01*
X119756034Y-81357453D01*
X119804553Y-81192415D01*
X119938166Y-81040365D01*
X120006690Y-80985031D01*
X120107659Y-80915912D01*
X120167213Y-80891991D01*
X120174263Y-80892491D01*
X120257048Y-80879934D01*
X120377323Y-80847299D01*
X120393468Y-80842247D01*
X120520775Y-80807321D01*
X120610779Y-80790304D01*
X120659799Y-80786757D01*
X120964847Y-80763104D01*
X121186122Y-80741360D01*
X121331966Y-80718993D01*
X121410717Y-80693472D01*
X121430715Y-80662267D01*
X121400300Y-80622845D01*
X121327811Y-80572677D01*
X121168371Y-80473003D01*
X120958781Y-80340117D01*
X120779557Y-80224378D01*
X120647081Y-80136399D01*
X120577732Y-80086789D01*
X120530198Y-80060948D01*
X120422466Y-80039883D01*
X120396793Y-80041081D01*
X120340773Y-80073181D01*
X120332061Y-80168283D01*
X120335902Y-80247945D01*
X120326222Y-80368591D01*
X120281685Y-80412603D01*
X120190612Y-80384882D01*
X120041322Y-80290334D01*
X119999969Y-80261077D01*
X119909624Y-80180500D01*
X119871534Y-80091003D01*
X119863720Y-79950539D01*
X119870454Y-79847528D01*
X119913222Y-79683477D01*
X119986088Y-79569184D01*
X120078121Y-79526280D01*
X120093001Y-79527040D01*
G37*
G36*
X115579425Y-80536544D02*
G01*
X115729910Y-80595337D01*
X115888708Y-80683233D01*
X116031833Y-80785999D01*
X116135299Y-80889398D01*
X116175118Y-80979195D01*
X116166529Y-81038602D01*
X116120892Y-81060642D01*
X116011698Y-81046823D01*
X115925613Y-81034287D01*
X115861765Y-81046113D01*
X115842903Y-81099991D01*
X115840754Y-81171882D01*
X115858571Y-81321031D01*
X115906650Y-81400927D01*
X115910979Y-81404290D01*
X115934338Y-81476041D01*
X115928258Y-81598509D01*
X115924803Y-81622313D01*
X115920599Y-81732139D01*
X115938331Y-81788743D01*
X115971526Y-81836760D01*
X116012835Y-81947945D01*
X116047626Y-82083065D01*
X116066654Y-82205185D01*
X116060669Y-82277370D01*
X116030308Y-82310059D01*
X115939469Y-82316810D01*
X115808422Y-82241151D01*
X115801134Y-82235419D01*
X115748644Y-82181611D01*
X115705577Y-82104038D01*
X115666065Y-81985562D01*
X115624237Y-81809044D01*
X115574224Y-81557346D01*
X115561286Y-81499646D01*
X115469768Y-81274099D01*
X115330623Y-81090820D01*
X115159888Y-80966848D01*
X114973597Y-80919220D01*
X114901968Y-80896718D01*
X114802910Y-80837381D01*
X114717403Y-80766515D01*
X114681000Y-80709593D01*
X114701102Y-80645796D01*
X114783039Y-80609599D01*
X114916005Y-80626547D01*
X115086930Y-80694435D01*
X115282743Y-80811059D01*
X115510504Y-80967731D01*
X115448518Y-80761768D01*
X115431332Y-80697683D01*
X115413677Y-80587021D01*
X115423350Y-80533050D01*
X115461242Y-80521092D01*
X115579425Y-80536544D01*
G37*
G36*
X109205406Y-79729148D02*
G01*
X109390313Y-79840082D01*
X109595354Y-79999015D01*
X109810547Y-80199917D01*
X110025908Y-80436758D01*
X110149284Y-80588294D01*
X110276579Y-80766733D01*
X110371476Y-80941357D01*
X110450545Y-81144025D01*
X110530358Y-81406597D01*
X110558673Y-81507809D01*
X110589970Y-81638714D01*
X110595156Y-81728039D01*
X110573970Y-81806854D01*
X110526148Y-81906231D01*
X110446159Y-82024642D01*
X110260480Y-82168383D01*
X110011882Y-82248645D01*
X109991485Y-82252043D01*
X109838485Y-82271919D01*
X109752056Y-82267480D01*
X109710610Y-82237960D01*
X109709104Y-82235783D01*
X109644433Y-82196708D01*
X109532762Y-82162275D01*
X109372009Y-82110846D01*
X109147580Y-82006114D01*
X108903318Y-81866592D01*
X108660437Y-81706406D01*
X108440150Y-81539679D01*
X108263671Y-81380536D01*
X108152213Y-81243099D01*
X108139982Y-81221516D01*
X108101903Y-81110518D01*
X108135797Y-81055838D01*
X108238292Y-81059087D01*
X108406016Y-81121876D01*
X108496876Y-81164604D01*
X108604012Y-81215890D01*
X108653661Y-81240963D01*
X108647142Y-81270125D01*
X108595367Y-81338876D01*
X108551440Y-81394991D01*
X108553705Y-81447458D01*
X108622890Y-81519192D01*
X108771460Y-81629077D01*
X108976285Y-81740885D01*
X109206464Y-81838727D01*
X109440931Y-81915758D01*
X109658618Y-81965130D01*
X109838456Y-81979998D01*
X109959379Y-81953515D01*
X110098859Y-81857335D01*
X110195723Y-81737461D01*
X110245677Y-81578836D01*
X110251946Y-81533947D01*
X110242153Y-81301483D01*
X110178427Y-81038175D01*
X110071486Y-80771939D01*
X109932052Y-80530690D01*
X109770845Y-80342345D01*
X109639699Y-80229133D01*
X109463291Y-80097772D01*
X109325733Y-80022832D01*
X109238274Y-80011305D01*
X109196428Y-80062450D01*
X109173397Y-80165333D01*
X109178054Y-80273132D01*
X109213762Y-80340674D01*
X109232290Y-80362198D01*
X109279486Y-80453901D01*
X109330919Y-80586462D01*
X109355161Y-80659575D01*
X109381087Y-80763698D01*
X109373227Y-80826308D01*
X109331662Y-80878227D01*
X109307911Y-80899428D01*
X109259932Y-80915893D01*
X109201409Y-80879611D01*
X109108787Y-80780226D01*
X109008385Y-80631763D01*
X108914188Y-80407782D01*
X108855463Y-80163572D01*
X108839339Y-79930569D01*
X108872944Y-79740209D01*
X108935926Y-79675406D01*
X109050617Y-79672246D01*
X109205406Y-79729148D01*
G37*
%TO.C,G1*%
G36*
X113920834Y-77725408D02*
G01*
X113927135Y-77934918D01*
X113927044Y-77938182D01*
X113920308Y-78083349D01*
X113910276Y-78195190D01*
X113899082Y-78249729D01*
X113875914Y-78264742D01*
X113806324Y-78246613D01*
X113713537Y-78182691D01*
X113613779Y-78085209D01*
X113523278Y-77966402D01*
X113503588Y-77936912D01*
X113408653Y-77818937D01*
X113310917Y-77727892D01*
X113226701Y-77677102D01*
X113172324Y-77679889D01*
X113162551Y-77725641D01*
X113150841Y-77836119D01*
X113138717Y-77994638D01*
X113127652Y-78184564D01*
X113119581Y-78399282D01*
X113121098Y-78598719D01*
X113135787Y-78756114D01*
X113164744Y-78892400D01*
X113228745Y-79092479D01*
X113357271Y-79361382D01*
X113517477Y-79560209D01*
X113712126Y-79693000D01*
X113743621Y-79709315D01*
X113848461Y-79789092D01*
X113905872Y-79876337D01*
X113901916Y-79952025D01*
X113899741Y-79955555D01*
X113881504Y-79978393D01*
X113853012Y-79978597D01*
X113794218Y-79950165D01*
X113685079Y-79887093D01*
X113514865Y-79769646D01*
X113283927Y-79532260D01*
X113107487Y-79239168D01*
X112988409Y-78895602D01*
X112929557Y-78506795D01*
X112927643Y-78480428D01*
X112897809Y-78210724D01*
X112847933Y-77895609D01*
X112782489Y-77563763D01*
X112778412Y-77543899D01*
X112755054Y-77378904D01*
X112745520Y-77217195D01*
X112745327Y-77197818D01*
X112733834Y-77121401D01*
X113041037Y-77121401D01*
X113116502Y-77222301D01*
X113170537Y-77292982D01*
X113182392Y-77356599D01*
X113186695Y-77385042D01*
X113245348Y-77453313D01*
X113357808Y-77537265D01*
X113553834Y-77664222D01*
X113579400Y-77547820D01*
X113585318Y-77490592D01*
X113567512Y-77340282D01*
X113517432Y-77182790D01*
X113445861Y-77057693D01*
X113392701Y-77016293D01*
X113282544Y-76976851D01*
X113165981Y-76966507D01*
X113080800Y-76992055D01*
X113044323Y-77034119D01*
X113041037Y-77121401D01*
X112733834Y-77121401D01*
X112724541Y-77059611D01*
X112664240Y-76971429D01*
X112616302Y-76920253D01*
X112583371Y-76846489D01*
X112599548Y-76796582D01*
X112664772Y-76791034D01*
X112721185Y-76792786D01*
X112788122Y-76734814D01*
X112815187Y-76702316D01*
X112914624Y-76660676D01*
X113051636Y-76656302D01*
X113203070Y-76688322D01*
X113345768Y-76755862D01*
X113439464Y-76818418D01*
X113584345Y-76929626D01*
X113684874Y-77039430D01*
X113760074Y-77171144D01*
X113828966Y-77348080D01*
X113873060Y-77490592D01*
X113884271Y-77526828D01*
X113920834Y-77725408D01*
G37*
G36*
X110461107Y-76500123D02*
G01*
X110566437Y-76555031D01*
X110723300Y-76655367D01*
X110852818Y-76743606D01*
X110992186Y-76846336D01*
X111074576Y-76921626D01*
X111108057Y-76977300D01*
X111100701Y-77021179D01*
X111068804Y-77051638D01*
X110988202Y-77055759D01*
X110897368Y-76997801D01*
X110858011Y-76963968D01*
X110817588Y-76956967D01*
X110799949Y-77009847D01*
X110803706Y-77129023D01*
X110827472Y-77320904D01*
X110841523Y-77422479D01*
X110869677Y-77687998D01*
X110874274Y-77879797D01*
X110855252Y-78000979D01*
X110812546Y-78054644D01*
X110786119Y-78061112D01*
X110684063Y-78041740D01*
X110548150Y-77961211D01*
X110374944Y-77817167D01*
X110161010Y-77607247D01*
X110036027Y-77479509D01*
X109924802Y-77369058D01*
X109845825Y-77294295D01*
X109811005Y-77266800D01*
X109797012Y-77288259D01*
X109779389Y-77368322D01*
X109764947Y-77482739D01*
X109756136Y-77604836D01*
X109755406Y-77707936D01*
X109765208Y-77765365D01*
X109781779Y-77803155D01*
X109802004Y-77894667D01*
X109811714Y-77966859D01*
X109834854Y-78069090D01*
X109875757Y-78200615D01*
X109940938Y-78384400D01*
X109979269Y-78490851D01*
X110046341Y-78682215D01*
X110103846Y-78851760D01*
X110156835Y-79001494D01*
X110239880Y-79211200D01*
X110329162Y-79415792D01*
X110414087Y-79591254D01*
X110484060Y-79713572D01*
X110487730Y-79719140D01*
X110528895Y-79806921D01*
X110530354Y-79868222D01*
X110523749Y-79877969D01*
X110468876Y-79905674D01*
X110398230Y-79860200D01*
X110310030Y-79739779D01*
X110202492Y-79542640D01*
X110168625Y-79473576D01*
X110088149Y-79300268D01*
X110021729Y-79144944D01*
X109981145Y-79034640D01*
X109966226Y-78986539D01*
X109921245Y-78847351D01*
X109862963Y-78671603D01*
X109800187Y-78486000D01*
X109771661Y-78401791D01*
X109705758Y-78202316D01*
X109646450Y-78016710D01*
X109603856Y-77876400D01*
X109602866Y-77872960D01*
X109508771Y-77543675D01*
X109436060Y-77283163D01*
X109382435Y-77082531D01*
X109345600Y-76932887D01*
X109323257Y-76825340D01*
X109313109Y-76750998D01*
X109311395Y-76712476D01*
X109322604Y-76622162D01*
X109352425Y-76585609D01*
X109392720Y-76616559D01*
X109404270Y-76629927D01*
X109455295Y-76635882D01*
X109458836Y-76634193D01*
X109521882Y-76639794D01*
X109615047Y-76676902D01*
X109638418Y-76689659D01*
X109716619Y-76759612D01*
X109738160Y-76858127D01*
X109742118Y-76896360D01*
X109769400Y-76962703D01*
X109830773Y-77045083D01*
X109935729Y-77155448D01*
X110093760Y-77305747D01*
X110449360Y-77635806D01*
X110463224Y-77461463D01*
X110463249Y-77461136D01*
X110462432Y-77320673D01*
X110445925Y-77135923D01*
X110418140Y-76938271D01*
X110383485Y-76759103D01*
X110346371Y-76629806D01*
X110332426Y-76569629D01*
X110365518Y-76496766D01*
X110395342Y-76485337D01*
X110461107Y-76500123D01*
G37*
G36*
X118180696Y-77072640D02*
G01*
X118227337Y-77097881D01*
X118272771Y-77104240D01*
X118286947Y-77104973D01*
X118383717Y-77138989D01*
X118480716Y-77209930D01*
X118560174Y-77298614D01*
X118604315Y-77385854D01*
X118595368Y-77452466D01*
X118549948Y-77485366D01*
X118471493Y-77467716D01*
X118463917Y-77463768D01*
X118405658Y-77449055D01*
X118403508Y-77489928D01*
X118457862Y-77583043D01*
X118529635Y-77648567D01*
X118623978Y-77647748D01*
X118636518Y-77644625D01*
X118688136Y-77637126D01*
X118713284Y-77659111D01*
X118719169Y-77727797D01*
X118712997Y-77860401D01*
X118706135Y-77939128D01*
X118676607Y-78065678D01*
X118629835Y-78115469D01*
X118568203Y-78087202D01*
X118494091Y-77979583D01*
X118476772Y-77948476D01*
X118425138Y-77868012D01*
X118392717Y-77835760D01*
X118372638Y-77812824D01*
X118329730Y-77732541D01*
X118277078Y-77614470D01*
X118239866Y-77529219D01*
X118182009Y-77432235D01*
X118108777Y-77371581D01*
X117995279Y-77321370D01*
X117932547Y-77296057D01*
X117820353Y-77242396D01*
X117752572Y-77198293D01*
X117736666Y-77185890D01*
X117647960Y-77142710D01*
X117529052Y-77104826D01*
X117505691Y-77099025D01*
X117351450Y-77059661D01*
X117211205Y-77022472D01*
X117187191Y-77015972D01*
X117093789Y-76992012D01*
X117047299Y-76982320D01*
X117046046Y-76983743D01*
X117039678Y-77035481D01*
X117034193Y-77150562D01*
X117030138Y-77313894D01*
X117028066Y-77510382D01*
X117027771Y-77565305D01*
X117024677Y-77772610D01*
X117017329Y-77916887D01*
X117003833Y-78013109D01*
X116982297Y-78076246D01*
X116950827Y-78121271D01*
X116915102Y-78158907D01*
X116875349Y-78178081D01*
X116827550Y-78150690D01*
X116747552Y-78070729D01*
X116708446Y-78025224D01*
X116638138Y-77913402D01*
X116593565Y-77801430D01*
X116582103Y-77711254D01*
X116611128Y-77664824D01*
X116617361Y-77659495D01*
X116639806Y-77595541D01*
X116660597Y-77476428D01*
X116675906Y-77322386D01*
X116698412Y-76994039D01*
X116565022Y-76947539D01*
X116429944Y-76914999D01*
X116285296Y-76900851D01*
X116267192Y-76900495D01*
X116134588Y-76869230D01*
X116006880Y-76776872D01*
X115997733Y-76767905D01*
X117116366Y-76767905D01*
X117140778Y-76839444D01*
X117141596Y-76840163D01*
X117193743Y-76860541D01*
X117301878Y-76891037D01*
X117443719Y-76925335D01*
X117594830Y-76959576D01*
X117729704Y-76990471D01*
X117814865Y-77010366D01*
X117872734Y-77019175D01*
X117887495Y-76992493D01*
X117863065Y-76909628D01*
X117812883Y-76807143D01*
X117741640Y-76715806D01*
X117690654Y-76655121D01*
X117660262Y-76579781D01*
X117659043Y-76570667D01*
X117625845Y-76492939D01*
X117560666Y-76385813D01*
X117481238Y-76274473D01*
X117405294Y-76184105D01*
X117350563Y-76139894D01*
X117338751Y-76140743D01*
X117304142Y-76190134D01*
X117276506Y-76293659D01*
X117269899Y-76326830D01*
X117230524Y-76447487D01*
X117181142Y-76529785D01*
X117156353Y-76564506D01*
X117123270Y-76663124D01*
X117116366Y-76767905D01*
X115997733Y-76767905D01*
X115945565Y-76716764D01*
X115887077Y-76639741D01*
X115888127Y-76586226D01*
X115944665Y-76540860D01*
X116005475Y-76524165D01*
X116121520Y-76557089D01*
X116212935Y-76593844D01*
X116305656Y-76611525D01*
X116345227Y-76612605D01*
X116458664Y-76620368D01*
X116596160Y-76633288D01*
X116693786Y-76640918D01*
X116783565Y-76634688D01*
X116812862Y-76605772D01*
X116824310Y-76497722D01*
X116851907Y-76312929D01*
X116891544Y-76088240D01*
X116907882Y-75999082D01*
X116931147Y-75864399D01*
X116945210Y-75772728D01*
X116948214Y-75752104D01*
X116985292Y-75653047D01*
X117055888Y-75626553D01*
X117166809Y-75669450D01*
X117173910Y-75673624D01*
X117270433Y-75748706D01*
X117332046Y-75827592D01*
X117356523Y-75871645D01*
X117421379Y-75977450D01*
X117516612Y-76127533D01*
X117633993Y-76308955D01*
X117765293Y-76508779D01*
X117824420Y-76597876D01*
X117954710Y-76791134D01*
X118052265Y-76928515D01*
X118103517Y-76992493D01*
X118124966Y-77019268D01*
X118180696Y-77072640D01*
G37*
G36*
X115484281Y-76572576D02*
G01*
X115630853Y-76677430D01*
X115692841Y-76727630D01*
X115817673Y-76821509D01*
X115919178Y-76889392D01*
X115927677Y-76894547D01*
X116005421Y-76956938D01*
X116037360Y-77011402D01*
X116025085Y-77043490D01*
X115968777Y-77062489D01*
X115895808Y-77044453D01*
X115838711Y-76992480D01*
X115820098Y-76967007D01*
X115770707Y-76953709D01*
X115728992Y-77004065D01*
X115708736Y-77106034D01*
X115711230Y-77187440D01*
X115732907Y-77358577D01*
X115770974Y-77557651D01*
X115819440Y-77754844D01*
X115872315Y-77920337D01*
X115948272Y-78120240D01*
X115862960Y-78120240D01*
X115840677Y-78117071D01*
X115753976Y-78076152D01*
X115658528Y-78005389D01*
X115581405Y-77926998D01*
X115549680Y-77863191D01*
X115541180Y-77841054D01*
X115494515Y-77761667D01*
X115416262Y-77642969D01*
X115316844Y-77501168D01*
X115182617Y-77324772D01*
X115037055Y-77160760D01*
X114916879Y-77058325D01*
X114827707Y-77022960D01*
X114813055Y-77033288D01*
X114800369Y-77105719D01*
X114807794Y-77235613D01*
X114835065Y-77409040D01*
X114873152Y-77631225D01*
X114890792Y-77823812D01*
X114880913Y-77961872D01*
X114843670Y-78057063D01*
X114776989Y-78158830D01*
X114584215Y-78027775D01*
X114501621Y-77971017D01*
X114413459Y-77908695D01*
X114371120Y-77876335D01*
X114324336Y-77845247D01*
X114239309Y-77798491D01*
X114233746Y-77795548D01*
X114145429Y-77731001D01*
X114069335Y-77648507D01*
X114022874Y-77570556D01*
X114023455Y-77519639D01*
X114043901Y-77513403D01*
X114122771Y-77525594D01*
X114230209Y-77560899D01*
X114337989Y-77609237D01*
X114417886Y-77660525D01*
X114443789Y-77679410D01*
X114497866Y-77679196D01*
X114527338Y-77605451D01*
X114531998Y-77461123D01*
X114511640Y-77249156D01*
X114466058Y-76972497D01*
X114459491Y-76936731D01*
X114436683Y-76788297D01*
X114426246Y-76675090D01*
X114430415Y-76619255D01*
X114450211Y-76606699D01*
X114526959Y-76619785D01*
X114643429Y-76674752D01*
X114786622Y-76762645D01*
X114943539Y-76874509D01*
X115101183Y-77001386D01*
X115246556Y-77134320D01*
X115366659Y-77264357D01*
X115454382Y-77371065D01*
X115514010Y-77437939D01*
X115539369Y-77448408D01*
X115540304Y-77405393D01*
X115526663Y-77311816D01*
X115512790Y-77242824D01*
X115465038Y-77081487D01*
X115403288Y-76925736D01*
X115351919Y-76803793D01*
X115311894Y-76653878D01*
X115322288Y-76563543D01*
X115380588Y-76535528D01*
X115484281Y-76572576D01*
G37*
G36*
X111820630Y-76561174D02*
G01*
X111951611Y-76612347D01*
X112089829Y-76688852D01*
X112214406Y-76778299D01*
X112304462Y-76868298D01*
X112339120Y-76946457D01*
X112331645Y-76998165D01*
X112291922Y-77017348D01*
X112196880Y-77005321D01*
X112121952Y-76994409D01*
X112066378Y-77004702D01*
X112049961Y-77051598D01*
X112048090Y-77114171D01*
X112063598Y-77243991D01*
X112105446Y-77313532D01*
X112109214Y-77316460D01*
X112129546Y-77378912D01*
X112124254Y-77485508D01*
X112121247Y-77506227D01*
X112117587Y-77601819D01*
X112133022Y-77651088D01*
X112161915Y-77692882D01*
X112197869Y-77789657D01*
X112228152Y-77907266D01*
X112244713Y-78013559D01*
X112239505Y-78076389D01*
X112213078Y-78104841D01*
X112134012Y-78110717D01*
X112019949Y-78044864D01*
X112013605Y-78039874D01*
X111967918Y-77993040D01*
X111930433Y-77925521D01*
X111896041Y-77822399D01*
X111859634Y-77668758D01*
X111816103Y-77449680D01*
X111804841Y-77399458D01*
X111725184Y-77203141D01*
X111604073Y-77043616D01*
X111455464Y-76935711D01*
X111293317Y-76894255D01*
X111230971Y-76874669D01*
X111144751Y-76823022D01*
X111070326Y-76761341D01*
X111038640Y-76711796D01*
X111056137Y-76656266D01*
X111127455Y-76624761D01*
X111243189Y-76639512D01*
X111391962Y-76698602D01*
X111562397Y-76800111D01*
X111760641Y-76936479D01*
X111706688Y-76757209D01*
X111691730Y-76701429D01*
X111676363Y-76605109D01*
X111684782Y-76558132D01*
X111717764Y-76547724D01*
X111820630Y-76561174D01*
G37*
D11*
%TO.C,BT1*%
X105536000Y-104476000D02*
X99186000Y-98888000D01*
X117982000Y-104476000D02*
X105536000Y-104476000D01*
X124078000Y-83394000D02*
X99186000Y-83394000D01*
X99186000Y-83394000D02*
X99186000Y-98888000D01*
X117982000Y-104476000D02*
X124078000Y-98888000D01*
X124078000Y-83394000D02*
X124078000Y-98888000D01*
D10*
%TO.C,SW1*%
X135099149Y-108929839D02*
X134503865Y-111151469D01*
X132286450Y-101653939D02*
X130060607Y-109960901D01*
X136729709Y-102844506D02*
X136160307Y-104969543D01*
%TD*%
M02*
