%TF.GenerationSoftware,KiCad,Pcbnew,(6.0.5)*%
%TF.CreationDate,2022-07-23T18:44:09-07:00*%
%TF.ProjectId,StormCloud,53746f72-6d43-46c6-9f75-642e6b696361,rev?*%
%TF.SameCoordinates,Original*%
%TF.FileFunction,Soldermask,Bot*%
%TF.FilePolarity,Negative*%
%FSLAX46Y46*%
G04 Gerber Fmt 4.6, Leading zero omitted, Abs format (unit mm)*
G04 Created by KiCad (PCBNEW (6.0.5)) date 2022-07-23 18:44:09*
%MOMM*%
%LPD*%
G01*
G04 APERTURE LIST*
G04 Aperture macros list*
%AMRoundRect*
0 Rectangle with rounded corners*
0 $1 Rounding radius*
0 $2 $3 $4 $5 $6 $7 $8 $9 X,Y pos of 4 corners*
0 Add a 4 corners polygon primitive as box body*
4,1,4,$2,$3,$4,$5,$6,$7,$8,$9,$2,$3,0*
0 Add four circle primitives for the rounded corners*
1,1,$1+$1,$2,$3*
1,1,$1+$1,$4,$5*
1,1,$1+$1,$6,$7*
1,1,$1+$1,$8,$9*
0 Add four rect primitives between the rounded corners*
20,1,$1+$1,$2,$3,$4,$5,0*
20,1,$1+$1,$4,$5,$6,$7,0*
20,1,$1+$1,$6,$7,$8,$9,0*
20,1,$1+$1,$8,$9,$2,$3,0*%
%AMHorizOval*
0 Thick line with rounded ends*
0 $1 width*
0 $2 $3 position (X,Y) of the first rounded end (center of the circle)*
0 $4 $5 position (X,Y) of the second rounded end (center of the circle)*
0 Add line between two ends*
20,1,$1,$2,$3,$4,$5,0*
0 Add two circle primitives to create the rounded ends*
1,1,$1,$2,$3*
1,1,$1,$4,$5*%
G04 Aperture macros list end*
%ADD10C,0.200000*%
%ADD11C,0.010000*%
%ADD12RoundRect,0.050000X-0.900000X0.900000X-0.900000X-0.900000X0.900000X-0.900000X0.900000X0.900000X0*%
%ADD13C,1.900000*%
%ADD14O,2.600000X4.100000*%
%ADD15C,17.372000*%
%ADD16HorizOval,2.000000X-0.772741X0.207055X0.772741X-0.207055X0*%
%ADD17RoundRect,0.050000X-1.039175X0.951376X-1.375640X-0.304328X1.039175X-0.951376X1.375640X0.304328X0*%
%ADD18HorizOval,1.400000X-0.579555X0.155291X0.579555X-0.155291X0*%
G04 APERTURE END LIST*
D10*
X89939809Y-99662666D02*
X89987428Y-99710285D01*
X90035047Y-99805523D01*
X90035047Y-99900761D01*
X89987428Y-99996000D01*
X89939809Y-100043619D01*
X89844571Y-100091238D01*
X89749333Y-100091238D01*
X89654095Y-100043619D01*
X89606476Y-99996000D01*
X89558857Y-99900761D01*
X89558857Y-99805523D01*
X89606476Y-99710285D01*
X89654095Y-99662666D01*
X90035047Y-99662666D02*
X89654095Y-99662666D01*
X89606476Y-99615047D01*
X89606476Y-99567428D01*
X89654095Y-99472190D01*
X89749333Y-99424571D01*
X89987428Y-99424571D01*
X90130285Y-99519809D01*
X90225523Y-99662666D01*
X90273142Y-99853142D01*
X90225523Y-100043619D01*
X90130285Y-100186476D01*
X89987428Y-100281714D01*
X89796952Y-100329333D01*
X89606476Y-100281714D01*
X89463619Y-100186476D01*
X89368380Y-100043619D01*
X89320761Y-99853142D01*
X89368380Y-99662666D01*
X89463619Y-99519809D01*
X89463619Y-98567428D02*
X89987428Y-98567428D01*
X90082666Y-98615047D01*
X90130285Y-98710285D01*
X90130285Y-98900761D01*
X90082666Y-98996000D01*
X89511238Y-98567428D02*
X89463619Y-98662666D01*
X89463619Y-98900761D01*
X89511238Y-98996000D01*
X89606476Y-99043619D01*
X89701714Y-99043619D01*
X89796952Y-98996000D01*
X89844571Y-98900761D01*
X89844571Y-98662666D01*
X89892190Y-98567428D01*
X89463619Y-97948380D02*
X89511238Y-98043619D01*
X89606476Y-98091238D01*
X90463619Y-98091238D01*
X90130285Y-97567428D02*
X89130285Y-97567428D01*
X90082666Y-97567428D02*
X90130285Y-97472190D01*
X90130285Y-97281714D01*
X90082666Y-97186476D01*
X90035047Y-97138857D01*
X89939809Y-97091238D01*
X89654095Y-97091238D01*
X89558857Y-97138857D01*
X89511238Y-97186476D01*
X89463619Y-97281714D01*
X89463619Y-97472190D01*
X89511238Y-97567428D01*
X89511238Y-96281714D02*
X89463619Y-96376952D01*
X89463619Y-96567428D01*
X89511238Y-96662666D01*
X89606476Y-96710285D01*
X89987428Y-96710285D01*
X90082666Y-96662666D01*
X90130285Y-96567428D01*
X90130285Y-96376952D01*
X90082666Y-96281714D01*
X89987428Y-96234095D01*
X89892190Y-96234095D01*
X89796952Y-96710285D01*
X90130285Y-95805523D02*
X89463619Y-95805523D01*
X90035047Y-95805523D02*
X90082666Y-95757904D01*
X90130285Y-95662666D01*
X90130285Y-95519809D01*
X90082666Y-95424571D01*
X89987428Y-95376952D01*
X89463619Y-95376952D01*
X90130285Y-94472190D02*
X89320761Y-94472190D01*
X89225523Y-94519809D01*
X89177904Y-94567428D01*
X89130285Y-94662666D01*
X89130285Y-94805523D01*
X89177904Y-94900761D01*
X89511238Y-94472190D02*
X89463619Y-94567428D01*
X89463619Y-94757904D01*
X89511238Y-94853142D01*
X89558857Y-94900761D01*
X89654095Y-94948380D01*
X89939809Y-94948380D01*
X90035047Y-94900761D01*
X90082666Y-94853142D01*
X90130285Y-94757904D01*
X90130285Y-94567428D01*
X90082666Y-94472190D01*
X89463619Y-93853142D02*
X89511238Y-93948380D01*
X89606476Y-93996000D01*
X90463619Y-93996000D01*
X89463619Y-93329333D02*
X89511238Y-93424571D01*
X89558857Y-93472190D01*
X89654095Y-93519809D01*
X89939809Y-93519809D01*
X90035047Y-93472190D01*
X90082666Y-93424571D01*
X90130285Y-93329333D01*
X90130285Y-93186476D01*
X90082666Y-93091238D01*
X90035047Y-93043619D01*
X89939809Y-92996000D01*
X89654095Y-92996000D01*
X89558857Y-93043619D01*
X89511238Y-93091238D01*
X89463619Y-93186476D01*
X89463619Y-93329333D01*
X90130285Y-92662666D02*
X89463619Y-92472190D01*
X89939809Y-92281714D01*
X89463619Y-92091238D01*
X90130285Y-91900761D01*
X89463619Y-91519809D02*
X90130285Y-91519809D01*
X90463619Y-91519809D02*
X90416000Y-91567428D01*
X90368380Y-91519809D01*
X90416000Y-91472190D01*
X90463619Y-91519809D01*
X90368380Y-91519809D01*
X90130285Y-91043619D02*
X89463619Y-91043619D01*
X90035047Y-91043619D02*
X90082666Y-90996000D01*
X90130285Y-90900761D01*
X90130285Y-90757904D01*
X90082666Y-90662666D01*
X89987428Y-90615047D01*
X89463619Y-90615047D01*
X89463619Y-89710285D02*
X90463619Y-89710285D01*
X89511238Y-89710285D02*
X89463619Y-89805523D01*
X89463619Y-89996000D01*
X89511238Y-90091238D01*
X89558857Y-90138857D01*
X89654095Y-90186476D01*
X89939809Y-90186476D01*
X90035047Y-90138857D01*
X90082666Y-90091238D01*
X90130285Y-89996000D01*
X90130285Y-89805523D01*
X90082666Y-89710285D01*
%TO.C,G\u002A\u002A\u002A*%
G36*
X94541263Y-90907027D02*
G01*
X94357002Y-90885551D01*
X94218620Y-90850934D01*
X94115360Y-90800472D01*
X94036467Y-90731460D01*
X93971184Y-90641195D01*
X93942806Y-90583228D01*
X93900725Y-90413823D01*
X93893886Y-90288079D01*
X94210505Y-90288079D01*
X94263775Y-90389576D01*
X94292733Y-90412506D01*
X94376906Y-90447890D01*
X94505240Y-90472135D01*
X94686136Y-90486075D01*
X94927995Y-90490544D01*
X95239216Y-90486375D01*
X95323939Y-90484335D01*
X95523965Y-90478400D01*
X95663824Y-90470785D01*
X95756906Y-90459286D01*
X95816602Y-90441703D01*
X95856305Y-90415834D01*
X95889403Y-90379476D01*
X95935907Y-90291563D01*
X95931410Y-90174526D01*
X95854047Y-90072307D01*
X95805739Y-90054807D01*
X95687697Y-90037922D01*
X95520210Y-90026360D01*
X95319091Y-90020001D01*
X95100150Y-90018722D01*
X94879201Y-90022402D01*
X94672053Y-90030921D01*
X94494520Y-90044156D01*
X94362412Y-90061987D01*
X94291541Y-90084292D01*
X94290771Y-90084834D01*
X94220452Y-90176079D01*
X94210505Y-90288079D01*
X93893886Y-90288079D01*
X93890046Y-90217486D01*
X93911056Y-90025342D01*
X93964042Y-89868517D01*
X93983618Y-89833619D01*
X94044447Y-89748041D01*
X94119730Y-89683275D01*
X94220067Y-89636532D01*
X94356057Y-89605028D01*
X94538297Y-89585975D01*
X94777386Y-89576587D01*
X95083923Y-89574076D01*
X95281929Y-89574406D01*
X95495657Y-89576485D01*
X95652567Y-89581450D01*
X95765010Y-89590404D01*
X95845340Y-89604450D01*
X95905909Y-89624691D01*
X95959069Y-89652230D01*
X96062406Y-89722112D01*
X96175181Y-89844202D01*
X96239780Y-90000356D01*
X96267105Y-90210326D01*
X96262805Y-90413893D01*
X96215714Y-90592461D01*
X96117525Y-90728180D01*
X95961752Y-90834307D01*
X95911403Y-90858792D01*
X95845518Y-90883790D01*
X95768898Y-90901175D01*
X95668060Y-90912287D01*
X95529522Y-90918464D01*
X95339800Y-90921046D01*
X95085413Y-90921372D01*
X94927995Y-90919656D01*
X94782158Y-90918068D01*
X94541263Y-90907027D01*
G37*
D11*
X94541263Y-90907027D02*
X94357002Y-90885551D01*
X94218620Y-90850934D01*
X94115360Y-90800472D01*
X94036467Y-90731460D01*
X93971184Y-90641195D01*
X93942806Y-90583228D01*
X93900725Y-90413823D01*
X93893886Y-90288079D01*
X94210505Y-90288079D01*
X94263775Y-90389576D01*
X94292733Y-90412506D01*
X94376906Y-90447890D01*
X94505240Y-90472135D01*
X94686136Y-90486075D01*
X94927995Y-90490544D01*
X95239216Y-90486375D01*
X95323939Y-90484335D01*
X95523965Y-90478400D01*
X95663824Y-90470785D01*
X95756906Y-90459286D01*
X95816602Y-90441703D01*
X95856305Y-90415834D01*
X95889403Y-90379476D01*
X95935907Y-90291563D01*
X95931410Y-90174526D01*
X95854047Y-90072307D01*
X95805739Y-90054807D01*
X95687697Y-90037922D01*
X95520210Y-90026360D01*
X95319091Y-90020001D01*
X95100150Y-90018722D01*
X94879201Y-90022402D01*
X94672053Y-90030921D01*
X94494520Y-90044156D01*
X94362412Y-90061987D01*
X94291541Y-90084292D01*
X94290771Y-90084834D01*
X94220452Y-90176079D01*
X94210505Y-90288079D01*
X93893886Y-90288079D01*
X93890046Y-90217486D01*
X93911056Y-90025342D01*
X93964042Y-89868517D01*
X93983618Y-89833619D01*
X94044447Y-89748041D01*
X94119730Y-89683275D01*
X94220067Y-89636532D01*
X94356057Y-89605028D01*
X94538297Y-89585975D01*
X94777386Y-89576587D01*
X95083923Y-89574076D01*
X95281929Y-89574406D01*
X95495657Y-89576485D01*
X95652567Y-89581450D01*
X95765010Y-89590404D01*
X95845340Y-89604450D01*
X95905909Y-89624691D01*
X95959069Y-89652230D01*
X96062406Y-89722112D01*
X96175181Y-89844202D01*
X96239780Y-90000356D01*
X96267105Y-90210326D01*
X96262805Y-90413893D01*
X96215714Y-90592461D01*
X96117525Y-90728180D01*
X95961752Y-90834307D01*
X95911403Y-90858792D01*
X95845518Y-90883790D01*
X95768898Y-90901175D01*
X95668060Y-90912287D01*
X95529522Y-90918464D01*
X95339800Y-90921046D01*
X95085413Y-90921372D01*
X94927995Y-90919656D01*
X94782158Y-90918068D01*
X94541263Y-90907027D01*
G36*
X94204692Y-96158538D02*
G01*
X94947154Y-96158538D01*
X94947154Y-95728692D01*
X95298846Y-95728692D01*
X95298846Y-96158538D01*
X95924077Y-96158538D01*
X95924077Y-95611461D01*
X96236692Y-95611461D01*
X96236692Y-96588384D01*
X93892077Y-96588384D01*
X93892077Y-95611461D01*
X94204692Y-95611461D01*
X94204692Y-96158538D01*
G37*
X94204692Y-96158538D02*
X94947154Y-96158538D01*
X94947154Y-95728692D01*
X95298846Y-95728692D01*
X95298846Y-96158538D01*
X95924077Y-96158538D01*
X95924077Y-95611461D01*
X96236692Y-95611461D01*
X96236692Y-96588384D01*
X93892077Y-96588384D01*
X93892077Y-95611461D01*
X94204692Y-95611461D01*
X94204692Y-96158538D01*
G36*
X98439711Y-106002479D02*
G01*
X98593218Y-106014568D01*
X98698539Y-106037179D01*
X98728369Y-106049098D01*
X98762368Y-106069694D01*
X98735527Y-106086169D01*
X98639923Y-106108114D01*
X98517380Y-106126117D01*
X98320777Y-106135794D01*
X98125047Y-106128403D01*
X97967935Y-106104166D01*
X97858385Y-106075658D01*
X97956077Y-106037378D01*
X97981635Y-106029256D01*
X98104763Y-106009830D01*
X98267174Y-106000902D01*
X98439711Y-106002479D01*
G37*
X98439711Y-106002479D02*
X98593218Y-106014568D01*
X98698539Y-106037179D01*
X98728369Y-106049098D01*
X98762368Y-106069694D01*
X98735527Y-106086169D01*
X98639923Y-106108114D01*
X98517380Y-106126117D01*
X98320777Y-106135794D01*
X98125047Y-106128403D01*
X97967935Y-106104166D01*
X97858385Y-106075658D01*
X97956077Y-106037378D01*
X97981635Y-106029256D01*
X98104763Y-106009830D01*
X98267174Y-106000902D01*
X98439711Y-106002479D01*
G36*
X98160793Y-105010161D02*
G01*
X98143220Y-105084639D01*
X98103514Y-105195076D01*
X98068282Y-105272941D01*
X97996470Y-105405406D01*
X97913245Y-105539117D01*
X97830513Y-105656446D01*
X97760181Y-105739770D01*
X97714156Y-105771461D01*
X97710844Y-105767998D01*
X97717597Y-105717819D01*
X97744533Y-105625595D01*
X97783823Y-105514071D01*
X97827638Y-105405988D01*
X97868149Y-105324091D01*
X97904039Y-105270146D01*
X97974285Y-105178719D01*
X98051593Y-105087686D01*
X98118074Y-105017827D01*
X98155836Y-104989923D01*
X98160793Y-105010161D01*
G37*
X98160793Y-105010161D02*
X98143220Y-105084639D01*
X98103514Y-105195076D01*
X98068282Y-105272941D01*
X97996470Y-105405406D01*
X97913245Y-105539117D01*
X97830513Y-105656446D01*
X97760181Y-105739770D01*
X97714156Y-105771461D01*
X97710844Y-105767998D01*
X97717597Y-105717819D01*
X97744533Y-105625595D01*
X97783823Y-105514071D01*
X97827638Y-105405988D01*
X97868149Y-105324091D01*
X97904039Y-105270146D01*
X97974285Y-105178719D01*
X98051593Y-105087686D01*
X98118074Y-105017827D01*
X98155836Y-104989923D01*
X98160793Y-105010161D01*
G36*
X93517185Y-102845894D02*
G01*
X93931561Y-102848728D01*
X94146620Y-102850336D01*
X94516032Y-102853526D01*
X94819244Y-102857658D01*
X95064185Y-102863833D01*
X95258786Y-102873152D01*
X95410978Y-102886716D01*
X95528690Y-102905626D01*
X95619852Y-102930983D01*
X95692396Y-102963888D01*
X95754250Y-103005442D01*
X95813347Y-103056745D01*
X95877615Y-103118899D01*
X95879658Y-103120920D01*
X95954851Y-103214011D01*
X96056785Y-103366715D01*
X96179154Y-103568296D01*
X96315654Y-103808017D01*
X96459978Y-104075139D01*
X96605822Y-104358927D01*
X96608385Y-104364056D01*
X96678622Y-104516349D01*
X96715641Y-104621693D01*
X96719025Y-104674343D01*
X96688357Y-104668551D01*
X96623221Y-104598570D01*
X96617578Y-104591321D01*
X96557318Y-104507636D01*
X96466282Y-104375038D01*
X96354287Y-104208340D01*
X96231148Y-104022355D01*
X96106684Y-103831896D01*
X95990711Y-103651775D01*
X95893046Y-103496806D01*
X95829904Y-103406003D01*
X95722432Y-103280746D01*
X95621950Y-103191959D01*
X95479577Y-103094692D01*
X93962395Y-103098458D01*
X93884576Y-103098685D01*
X93552423Y-103100448D01*
X93246877Y-103103321D01*
X92976531Y-103107137D01*
X92749974Y-103111728D01*
X92575798Y-103116927D01*
X92462594Y-103122568D01*
X92418953Y-103128483D01*
X92419453Y-103149288D01*
X92458395Y-103213933D01*
X92532446Y-103300563D01*
X92580090Y-103353347D01*
X92655615Y-103451645D01*
X92695640Y-103524928D01*
X92734480Y-103577605D01*
X92826233Y-103626314D01*
X92983195Y-103677077D01*
X93111420Y-103715734D01*
X93450912Y-103846363D01*
X93758529Y-104005302D01*
X94011234Y-104181256D01*
X94133064Y-104271770D01*
X94298316Y-104373435D01*
X94447260Y-104445225D01*
X94537875Y-104481753D01*
X94624261Y-104529158D01*
X94668814Y-104583322D01*
X94691336Y-104661819D01*
X94694427Y-104676579D01*
X94727097Y-104760353D01*
X94768294Y-104794538D01*
X94802201Y-104802867D01*
X94867720Y-104851611D01*
X94886923Y-104884499D01*
X94867544Y-104921144D01*
X94784582Y-104962453D01*
X94654077Y-105016222D01*
X94869000Y-105152140D01*
X94973537Y-105214418D01*
X95120319Y-105292217D01*
X95240231Y-105345535D01*
X95302892Y-105371482D01*
X95379818Y-105427254D01*
X95408364Y-105503491D01*
X95410287Y-105540677D01*
X95384265Y-105605044D01*
X95299649Y-105653898D01*
X95287241Y-105659132D01*
X95214561Y-105694947D01*
X95191580Y-105716298D01*
X95201346Y-105719968D01*
X95272163Y-105738072D01*
X95399567Y-105767405D01*
X95569829Y-105804855D01*
X95769218Y-105847307D01*
X95824990Y-105858997D01*
X96069273Y-105910189D01*
X96248283Y-105948319D01*
X96371339Y-105976224D01*
X96447763Y-105996741D01*
X96486874Y-106012708D01*
X96497994Y-106026959D01*
X96490442Y-106042332D01*
X96473539Y-106061665D01*
X96418649Y-106095882D01*
X96309819Y-106138515D01*
X96172378Y-106178886D01*
X95995935Y-106228317D01*
X95630331Y-106355673D01*
X95237665Y-106519951D01*
X94838586Y-106711573D01*
X94453742Y-106920960D01*
X94103779Y-107138533D01*
X94008900Y-107203332D01*
X93814398Y-107342873D01*
X93631484Y-107482276D01*
X93470762Y-107612771D01*
X93342834Y-107725587D01*
X93258303Y-107811957D01*
X93227769Y-107863110D01*
X93224912Y-107875065D01*
X93185201Y-107942750D01*
X93108524Y-108044566D01*
X93007404Y-108163446D01*
X92944785Y-108234398D01*
X92808255Y-108395869D01*
X92675191Y-108561149D01*
X92555116Y-108717649D01*
X92457555Y-108852777D01*
X92392034Y-108953942D01*
X92368077Y-109008555D01*
X92368205Y-109009632D01*
X92394270Y-109022508D01*
X92469062Y-109033276D01*
X92597484Y-109042127D01*
X92784438Y-109049252D01*
X93034830Y-109054841D01*
X93353562Y-109059086D01*
X93745539Y-109062178D01*
X94017412Y-109063747D01*
X94326668Y-109065382D01*
X94607108Y-109066704D01*
X94848866Y-109067673D01*
X95042075Y-109068251D01*
X95176866Y-109068399D01*
X95243372Y-109068077D01*
X95302148Y-109065570D01*
X95462312Y-109038619D01*
X95600915Y-108975401D01*
X95729959Y-108866598D01*
X95861450Y-108702891D01*
X96007390Y-108474962D01*
X96098240Y-108326709D01*
X96217095Y-108141419D01*
X96339351Y-107958422D01*
X96457458Y-107788329D01*
X96563862Y-107641753D01*
X96651012Y-107529306D01*
X96711355Y-107461600D01*
X96737339Y-107449248D01*
X96737176Y-107454720D01*
X96714960Y-107515727D01*
X96662405Y-107631915D01*
X96584741Y-107792407D01*
X96487199Y-107986326D01*
X96375008Y-108202793D01*
X96364396Y-108222964D01*
X96206704Y-108515287D01*
X96072992Y-108744883D01*
X95956415Y-108920146D01*
X95850128Y-109049471D01*
X95747286Y-109141253D01*
X95641044Y-109203884D01*
X95524557Y-109245760D01*
X95519541Y-109247069D01*
X95422327Y-109261193D01*
X95253270Y-109273140D01*
X95011111Y-109282951D01*
X94694595Y-109290666D01*
X94302465Y-109296325D01*
X93833462Y-109299970D01*
X92309462Y-109307923D01*
X92125170Y-109199590D01*
X92061599Y-109158578D01*
X91937034Y-109060235D01*
X91845209Y-108965128D01*
X91821244Y-108930768D01*
X91753495Y-108824585D01*
X91657302Y-108667571D01*
X91538371Y-108469554D01*
X91402410Y-108240364D01*
X91255124Y-107989830D01*
X91102221Y-107727782D01*
X90949407Y-107464048D01*
X90802390Y-107208458D01*
X90666875Y-106970841D01*
X90548571Y-106761027D01*
X90453184Y-106588844D01*
X90386420Y-106464123D01*
X90353987Y-106396692D01*
X90352105Y-106391618D01*
X90309253Y-106192074D01*
X90308238Y-105970911D01*
X90349379Y-105771461D01*
X90378637Y-105705512D01*
X90445638Y-105575201D01*
X90542152Y-105397929D01*
X90662520Y-105183283D01*
X90801081Y-104940846D01*
X90952175Y-104680205D01*
X91110140Y-104410945D01*
X91269318Y-104142651D01*
X91424047Y-103884908D01*
X91568668Y-103647303D01*
X91697519Y-103439419D01*
X91804942Y-103270844D01*
X91885274Y-103151161D01*
X91932856Y-103089957D01*
X91957209Y-103066201D01*
X92018703Y-103009717D01*
X92080417Y-102963398D01*
X92150142Y-102926303D01*
X92235673Y-102897491D01*
X92344803Y-102876021D01*
X92485324Y-102860954D01*
X92665030Y-102851348D01*
X92891713Y-102846263D01*
X93173167Y-102844758D01*
X93517185Y-102845894D01*
G37*
X93517185Y-102845894D02*
X93931561Y-102848728D01*
X94146620Y-102850336D01*
X94516032Y-102853526D01*
X94819244Y-102857658D01*
X95064185Y-102863833D01*
X95258786Y-102873152D01*
X95410978Y-102886716D01*
X95528690Y-102905626D01*
X95619852Y-102930983D01*
X95692396Y-102963888D01*
X95754250Y-103005442D01*
X95813347Y-103056745D01*
X95877615Y-103118899D01*
X95879658Y-103120920D01*
X95954851Y-103214011D01*
X96056785Y-103366715D01*
X96179154Y-103568296D01*
X96315654Y-103808017D01*
X96459978Y-104075139D01*
X96605822Y-104358927D01*
X96608385Y-104364056D01*
X96678622Y-104516349D01*
X96715641Y-104621693D01*
X96719025Y-104674343D01*
X96688357Y-104668551D01*
X96623221Y-104598570D01*
X96617578Y-104591321D01*
X96557318Y-104507636D01*
X96466282Y-104375038D01*
X96354287Y-104208340D01*
X96231148Y-104022355D01*
X96106684Y-103831896D01*
X95990711Y-103651775D01*
X95893046Y-103496806D01*
X95829904Y-103406003D01*
X95722432Y-103280746D01*
X95621950Y-103191959D01*
X95479577Y-103094692D01*
X93962395Y-103098458D01*
X93884576Y-103098685D01*
X93552423Y-103100448D01*
X93246877Y-103103321D01*
X92976531Y-103107137D01*
X92749974Y-103111728D01*
X92575798Y-103116927D01*
X92462594Y-103122568D01*
X92418953Y-103128483D01*
X92419453Y-103149288D01*
X92458395Y-103213933D01*
X92532446Y-103300563D01*
X92580090Y-103353347D01*
X92655615Y-103451645D01*
X92695640Y-103524928D01*
X92734480Y-103577605D01*
X92826233Y-103626314D01*
X92983195Y-103677077D01*
X93111420Y-103715734D01*
X93450912Y-103846363D01*
X93758529Y-104005302D01*
X94011234Y-104181256D01*
X94133064Y-104271770D01*
X94298316Y-104373435D01*
X94447260Y-104445225D01*
X94537875Y-104481753D01*
X94624261Y-104529158D01*
X94668814Y-104583322D01*
X94691336Y-104661819D01*
X94694427Y-104676579D01*
X94727097Y-104760353D01*
X94768294Y-104794538D01*
X94802201Y-104802867D01*
X94867720Y-104851611D01*
X94886923Y-104884499D01*
X94867544Y-104921144D01*
X94784582Y-104962453D01*
X94654077Y-105016222D01*
X94869000Y-105152140D01*
X94973537Y-105214418D01*
X95120319Y-105292217D01*
X95240231Y-105345535D01*
X95302892Y-105371482D01*
X95379818Y-105427254D01*
X95408364Y-105503491D01*
X95410287Y-105540677D01*
X95384265Y-105605044D01*
X95299649Y-105653898D01*
X95287241Y-105659132D01*
X95214561Y-105694947D01*
X95191580Y-105716298D01*
X95201346Y-105719968D01*
X95272163Y-105738072D01*
X95399567Y-105767405D01*
X95569829Y-105804855D01*
X95769218Y-105847307D01*
X95824990Y-105858997D01*
X96069273Y-105910189D01*
X96248283Y-105948319D01*
X96371339Y-105976224D01*
X96447763Y-105996741D01*
X96486874Y-106012708D01*
X96497994Y-106026959D01*
X96490442Y-106042332D01*
X96473539Y-106061665D01*
X96418649Y-106095882D01*
X96309819Y-106138515D01*
X96172378Y-106178886D01*
X95995935Y-106228317D01*
X95630331Y-106355673D01*
X95237665Y-106519951D01*
X94838586Y-106711573D01*
X94453742Y-106920960D01*
X94103779Y-107138533D01*
X94008900Y-107203332D01*
X93814398Y-107342873D01*
X93631484Y-107482276D01*
X93470762Y-107612771D01*
X93342834Y-107725587D01*
X93258303Y-107811957D01*
X93227769Y-107863110D01*
X93224912Y-107875065D01*
X93185201Y-107942750D01*
X93108524Y-108044566D01*
X93007404Y-108163446D01*
X92944785Y-108234398D01*
X92808255Y-108395869D01*
X92675191Y-108561149D01*
X92555116Y-108717649D01*
X92457555Y-108852777D01*
X92392034Y-108953942D01*
X92368077Y-109008555D01*
X92368205Y-109009632D01*
X92394270Y-109022508D01*
X92469062Y-109033276D01*
X92597484Y-109042127D01*
X92784438Y-109049252D01*
X93034830Y-109054841D01*
X93353562Y-109059086D01*
X93745539Y-109062178D01*
X94017412Y-109063747D01*
X94326668Y-109065382D01*
X94607108Y-109066704D01*
X94848866Y-109067673D01*
X95042075Y-109068251D01*
X95176866Y-109068399D01*
X95243372Y-109068077D01*
X95302148Y-109065570D01*
X95462312Y-109038619D01*
X95600915Y-108975401D01*
X95729959Y-108866598D01*
X95861450Y-108702891D01*
X96007390Y-108474962D01*
X96098240Y-108326709D01*
X96217095Y-108141419D01*
X96339351Y-107958422D01*
X96457458Y-107788329D01*
X96563862Y-107641753D01*
X96651012Y-107529306D01*
X96711355Y-107461600D01*
X96737339Y-107449248D01*
X96737176Y-107454720D01*
X96714960Y-107515727D01*
X96662405Y-107631915D01*
X96584741Y-107792407D01*
X96487199Y-107986326D01*
X96375008Y-108202793D01*
X96364396Y-108222964D01*
X96206704Y-108515287D01*
X96072992Y-108744883D01*
X95956415Y-108920146D01*
X95850128Y-109049471D01*
X95747286Y-109141253D01*
X95641044Y-109203884D01*
X95524557Y-109245760D01*
X95519541Y-109247069D01*
X95422327Y-109261193D01*
X95253270Y-109273140D01*
X95011111Y-109282951D01*
X94694595Y-109290666D01*
X94302465Y-109296325D01*
X93833462Y-109299970D01*
X92309462Y-109307923D01*
X92125170Y-109199590D01*
X92061599Y-109158578D01*
X91937034Y-109060235D01*
X91845209Y-108965128D01*
X91821244Y-108930768D01*
X91753495Y-108824585D01*
X91657302Y-108667571D01*
X91538371Y-108469554D01*
X91402410Y-108240364D01*
X91255124Y-107989830D01*
X91102221Y-107727782D01*
X90949407Y-107464048D01*
X90802390Y-107208458D01*
X90666875Y-106970841D01*
X90548571Y-106761027D01*
X90453184Y-106588844D01*
X90386420Y-106464123D01*
X90353987Y-106396692D01*
X90352105Y-106391618D01*
X90309253Y-106192074D01*
X90308238Y-105970911D01*
X90349379Y-105771461D01*
X90378637Y-105705512D01*
X90445638Y-105575201D01*
X90542152Y-105397929D01*
X90662520Y-105183283D01*
X90801081Y-104940846D01*
X90952175Y-104680205D01*
X91110140Y-104410945D01*
X91269318Y-104142651D01*
X91424047Y-103884908D01*
X91568668Y-103647303D01*
X91697519Y-103439419D01*
X91804942Y-103270844D01*
X91885274Y-103151161D01*
X91932856Y-103089957D01*
X91957209Y-103066201D01*
X92018703Y-103009717D01*
X92080417Y-102963398D01*
X92150142Y-102926303D01*
X92235673Y-102897491D01*
X92344803Y-102876021D01*
X92485324Y-102860954D01*
X92665030Y-102851348D01*
X92891713Y-102846263D01*
X93173167Y-102844758D01*
X93517185Y-102845894D01*
G36*
X93169154Y-97702076D02*
G01*
X92778385Y-97721615D01*
X92387616Y-97741153D01*
X92788154Y-97913467D01*
X92859013Y-97944079D01*
X93010881Y-98012180D01*
X93107339Y-98062698D01*
X93160831Y-98104436D01*
X93183801Y-98146194D01*
X93188692Y-98196774D01*
X93188692Y-98307769D01*
X91547462Y-98307769D01*
X91547462Y-98036790D01*
X91984195Y-98025741D01*
X92420929Y-98014692D01*
X91984482Y-97838846D01*
X91870227Y-97792489D01*
X91722027Y-97729446D01*
X91627762Y-97682069D01*
X91575350Y-97642517D01*
X91552707Y-97602953D01*
X91547748Y-97555538D01*
X91547462Y-97448076D01*
X93193644Y-97448076D01*
X93169154Y-97702076D01*
G37*
X93169154Y-97702076D02*
X92778385Y-97721615D01*
X92387616Y-97741153D01*
X92788154Y-97913467D01*
X92859013Y-97944079D01*
X93010881Y-98012180D01*
X93107339Y-98062698D01*
X93160831Y-98104436D01*
X93183801Y-98146194D01*
X93188692Y-98196774D01*
X93188692Y-98307769D01*
X91547462Y-98307769D01*
X91547462Y-98036790D01*
X91984195Y-98025741D01*
X92420929Y-98014692D01*
X91984482Y-97838846D01*
X91870227Y-97792489D01*
X91722027Y-97729446D01*
X91627762Y-97682069D01*
X91575350Y-97642517D01*
X91552707Y-97602953D01*
X91547748Y-97555538D01*
X91547462Y-97448076D01*
X93193644Y-97448076D01*
X93169154Y-97702076D01*
G36*
X97564462Y-104870529D02*
G01*
X97579460Y-104968778D01*
X97589781Y-105098212D01*
X97594552Y-105244175D01*
X97592899Y-105392012D01*
X97583947Y-105527069D01*
X97566823Y-105634692D01*
X97551114Y-105685016D01*
X97524875Y-105705977D01*
X97498798Y-105649896D01*
X97473433Y-105517461D01*
X97470535Y-105491494D01*
X97467145Y-105369521D01*
X97472173Y-105215492D01*
X97483765Y-105056957D01*
X97500068Y-104921467D01*
X97519229Y-104836575D01*
X97523932Y-104826200D01*
X97545661Y-104818118D01*
X97564462Y-104870529D01*
G37*
X97564462Y-104870529D02*
X97579460Y-104968778D01*
X97589781Y-105098212D01*
X97594552Y-105244175D01*
X97592899Y-105392012D01*
X97583947Y-105527069D01*
X97566823Y-105634692D01*
X97551114Y-105685016D01*
X97524875Y-105705977D01*
X97498798Y-105649896D01*
X97473433Y-105517461D01*
X97470535Y-105491494D01*
X97467145Y-105369521D01*
X97472173Y-105215492D01*
X97483765Y-105056957D01*
X97500068Y-104921467D01*
X97519229Y-104836575D01*
X97523932Y-104826200D01*
X97545661Y-104818118D01*
X97564462Y-104870529D01*
G36*
X93181282Y-95289076D02*
G01*
X93169154Y-95435615D01*
X92495960Y-95446303D01*
X92382984Y-95448202D01*
X92166171Y-95453114D01*
X92011336Y-95459678D01*
X91907105Y-95469212D01*
X91842107Y-95483037D01*
X91804970Y-95502469D01*
X91784320Y-95528828D01*
X91767071Y-95585571D01*
X91799748Y-95674448D01*
X91808621Y-95685546D01*
X91839430Y-95709942D01*
X91889790Y-95727716D01*
X91971423Y-95740267D01*
X92096049Y-95748994D01*
X92275386Y-95755296D01*
X92521157Y-95760573D01*
X93188692Y-95772915D01*
X93188692Y-96041307D01*
X92506685Y-96041307D01*
X92491025Y-96041304D01*
X92210988Y-96039228D01*
X91997868Y-96031683D01*
X91841004Y-96016251D01*
X91729738Y-95990517D01*
X91653411Y-95952064D01*
X91601363Y-95898474D01*
X91562934Y-95827331D01*
X91545886Y-95784438D01*
X91512170Y-95588396D01*
X91551698Y-95381643D01*
X91556080Y-95369410D01*
X91592264Y-95293613D01*
X91644297Y-95236614D01*
X91722552Y-95195810D01*
X91837404Y-95168602D01*
X91999224Y-95152388D01*
X92218387Y-95144567D01*
X92505265Y-95142538D01*
X93193410Y-95142538D01*
X93181282Y-95289076D01*
G37*
X93181282Y-95289076D02*
X93169154Y-95435615D01*
X92495960Y-95446303D01*
X92382984Y-95448202D01*
X92166171Y-95453114D01*
X92011336Y-95459678D01*
X91907105Y-95469212D01*
X91842107Y-95483037D01*
X91804970Y-95502469D01*
X91784320Y-95528828D01*
X91767071Y-95585571D01*
X91799748Y-95674448D01*
X91808621Y-95685546D01*
X91839430Y-95709942D01*
X91889790Y-95727716D01*
X91971423Y-95740267D01*
X92096049Y-95748994D01*
X92275386Y-95755296D01*
X92521157Y-95760573D01*
X93188692Y-95772915D01*
X93188692Y-96041307D01*
X92506685Y-96041307D01*
X92491025Y-96041304D01*
X92210988Y-96039228D01*
X91997868Y-96031683D01*
X91841004Y-96016251D01*
X91729738Y-95990517D01*
X91653411Y-95952064D01*
X91601363Y-95898474D01*
X91562934Y-95827331D01*
X91545886Y-95784438D01*
X91512170Y-95588396D01*
X91551698Y-95381643D01*
X91556080Y-95369410D01*
X91592264Y-95293613D01*
X91644297Y-95236614D01*
X91722552Y-95195810D01*
X91837404Y-95168602D01*
X91999224Y-95152388D01*
X92218387Y-95144567D01*
X92505265Y-95142538D01*
X93193410Y-95142538D01*
X93181282Y-95289076D01*
G36*
X97935283Y-106258643D02*
G01*
X98047585Y-106299695D01*
X98183015Y-106363887D01*
X98320754Y-106441373D01*
X98439984Y-106522307D01*
X98500440Y-106568841D01*
X98579377Y-106629455D01*
X98617128Y-106658229D01*
X98617983Y-106658913D01*
X98612217Y-106691424D01*
X98571165Y-106692011D01*
X98479015Y-106661560D01*
X98355817Y-106607112D01*
X98220192Y-106537643D01*
X98090763Y-106462133D01*
X97986151Y-106389561D01*
X97926843Y-106339057D01*
X97871513Y-106279405D01*
X97866064Y-106250850D01*
X97866925Y-106250579D01*
X97935283Y-106258643D01*
G37*
X97935283Y-106258643D02*
X98047585Y-106299695D01*
X98183015Y-106363887D01*
X98320754Y-106441373D01*
X98439984Y-106522307D01*
X98500440Y-106568841D01*
X98579377Y-106629455D01*
X98617128Y-106658229D01*
X98617983Y-106658913D01*
X98612217Y-106691424D01*
X98571165Y-106692011D01*
X98479015Y-106661560D01*
X98355817Y-106607112D01*
X98220192Y-106537643D01*
X98090763Y-106462133D01*
X97986151Y-106389561D01*
X97926843Y-106339057D01*
X97871513Y-106279405D01*
X97866064Y-106250850D01*
X97866925Y-106250579D01*
X97935283Y-106258643D01*
G36*
X94204692Y-98933000D02*
G01*
X96236692Y-98933000D01*
X96236692Y-99362846D01*
X93892077Y-99362846D01*
X93892077Y-98385923D01*
X94204692Y-98385923D01*
X94204692Y-98933000D01*
G37*
X94204692Y-98933000D02*
X96236692Y-98933000D01*
X96236692Y-99362846D01*
X93892077Y-99362846D01*
X93892077Y-98385923D01*
X94204692Y-98385923D01*
X94204692Y-98933000D01*
G36*
X92145954Y-89598786D02*
G01*
X92169437Y-89613483D01*
X92254066Y-89679289D01*
X92368342Y-89778147D01*
X92494384Y-89894862D01*
X92595053Y-89987920D01*
X92717219Y-90084077D01*
X92806924Y-90125051D01*
X92873990Y-90114490D01*
X92928238Y-90056044D01*
X92939447Y-90033101D01*
X92934401Y-89953975D01*
X92872627Y-89892126D01*
X92770495Y-89867153D01*
X92710763Y-89861168D01*
X92689003Y-89826577D01*
X92701691Y-89740153D01*
X92717401Y-89669347D01*
X92743326Y-89608046D01*
X92792989Y-89594097D01*
X92892100Y-89609916D01*
X92933578Y-89619894D01*
X93071790Y-89697959D01*
X93158587Y-89831113D01*
X93188692Y-90012198D01*
X93172172Y-90140256D01*
X93096745Y-90285896D01*
X92968953Y-90380505D01*
X92798360Y-90414230D01*
X92705160Y-90410016D01*
X92601272Y-90386311D01*
X92502130Y-90332440D01*
X92389967Y-90238044D01*
X92247018Y-90092764D01*
X92132148Y-89975897D01*
X92048327Y-89906466D01*
X91981378Y-89876031D01*
X91914864Y-89873754D01*
X91880497Y-89878891D01*
X91817432Y-89910862D01*
X91801462Y-89984384D01*
X91804935Y-90023678D01*
X91842657Y-90082909D01*
X91938231Y-90126282D01*
X91961093Y-90134060D01*
X92038812Y-90168428D01*
X92065231Y-90194666D01*
X92058824Y-90235884D01*
X92055462Y-90321683D01*
X92055065Y-90348917D01*
X92042838Y-90398621D01*
X91997117Y-90412986D01*
X91896121Y-90403149D01*
X91789775Y-90378269D01*
X91639808Y-90292371D01*
X91545326Y-90160230D01*
X91537704Y-90139849D01*
X91516174Y-89983193D01*
X91546021Y-89823945D01*
X91619041Y-89687443D01*
X91727030Y-89599029D01*
X91832971Y-89566425D01*
X91999859Y-89559126D01*
X92145954Y-89598786D01*
G37*
X92145954Y-89598786D02*
X92169437Y-89613483D01*
X92254066Y-89679289D01*
X92368342Y-89778147D01*
X92494384Y-89894862D01*
X92595053Y-89987920D01*
X92717219Y-90084077D01*
X92806924Y-90125051D01*
X92873990Y-90114490D01*
X92928238Y-90056044D01*
X92939447Y-90033101D01*
X92934401Y-89953975D01*
X92872627Y-89892126D01*
X92770495Y-89867153D01*
X92710763Y-89861168D01*
X92689003Y-89826577D01*
X92701691Y-89740153D01*
X92717401Y-89669347D01*
X92743326Y-89608046D01*
X92792989Y-89594097D01*
X92892100Y-89609916D01*
X92933578Y-89619894D01*
X93071790Y-89697959D01*
X93158587Y-89831113D01*
X93188692Y-90012198D01*
X93172172Y-90140256D01*
X93096745Y-90285896D01*
X92968953Y-90380505D01*
X92798360Y-90414230D01*
X92705160Y-90410016D01*
X92601272Y-90386311D01*
X92502130Y-90332440D01*
X92389967Y-90238044D01*
X92247018Y-90092764D01*
X92132148Y-89975897D01*
X92048327Y-89906466D01*
X91981378Y-89876031D01*
X91914864Y-89873754D01*
X91880497Y-89878891D01*
X91817432Y-89910862D01*
X91801462Y-89984384D01*
X91804935Y-90023678D01*
X91842657Y-90082909D01*
X91938231Y-90126282D01*
X91961093Y-90134060D01*
X92038812Y-90168428D01*
X92065231Y-90194666D01*
X92058824Y-90235884D01*
X92055462Y-90321683D01*
X92055065Y-90348917D01*
X92042838Y-90398621D01*
X91997117Y-90412986D01*
X91896121Y-90403149D01*
X91789775Y-90378269D01*
X91639808Y-90292371D01*
X91545326Y-90160230D01*
X91537704Y-90139849D01*
X91516174Y-89983193D01*
X91546021Y-89823945D01*
X91619041Y-89687443D01*
X91727030Y-89599029D01*
X91832971Y-89566425D01*
X91999859Y-89559126D01*
X92145954Y-89598786D01*
G36*
X96961052Y-105039339D02*
G01*
X97044382Y-105126692D01*
X97079377Y-105168784D01*
X97163259Y-105289495D01*
X97243706Y-105427392D01*
X97310306Y-105562215D01*
X97352652Y-105673707D01*
X97360335Y-105741609D01*
X97357753Y-105746253D01*
X97323307Y-105735657D01*
X97262585Y-105675461D01*
X97186862Y-105580670D01*
X97107413Y-105466286D01*
X97035514Y-105347314D01*
X96982440Y-105238756D01*
X96945736Y-105145478D01*
X96913406Y-105045697D01*
X96917953Y-105011329D01*
X96961052Y-105039339D01*
G37*
X96961052Y-105039339D02*
X97044382Y-105126692D01*
X97079377Y-105168784D01*
X97163259Y-105289495D01*
X97243706Y-105427392D01*
X97310306Y-105562215D01*
X97352652Y-105673707D01*
X97360335Y-105741609D01*
X97357753Y-105746253D01*
X97323307Y-105735657D01*
X97262585Y-105675461D01*
X97186862Y-105580670D01*
X97107413Y-105466286D01*
X97035514Y-105347314D01*
X96982440Y-105238756D01*
X96945736Y-105145478D01*
X96913406Y-105045697D01*
X96917953Y-105011329D01*
X96961052Y-105039339D01*
G36*
X92390696Y-87561172D02*
G01*
X92415176Y-87708658D01*
X92444246Y-87932846D01*
X92444468Y-87934670D01*
X92466404Y-88148199D01*
X92472068Y-88323223D01*
X92460874Y-88497524D01*
X92432239Y-88708879D01*
X92414700Y-88818252D01*
X92389086Y-88964355D01*
X92368119Y-89067934D01*
X92355131Y-89111586D01*
X92350132Y-89106920D01*
X92334260Y-89047658D01*
X92313638Y-88934905D01*
X92291440Y-88784938D01*
X92282077Y-88716495D01*
X92260500Y-88567656D01*
X92242613Y-88456031D01*
X92231566Y-88401769D01*
X92224505Y-88378939D01*
X92218058Y-88337339D01*
X92218905Y-88277404D01*
X92228241Y-88184415D01*
X92247261Y-88043651D01*
X92277161Y-87840392D01*
X92296582Y-87714963D01*
X92323748Y-87567284D01*
X92347087Y-87491650D01*
X92368701Y-87489224D01*
X92390696Y-87561172D01*
G37*
X92390696Y-87561172D02*
X92415176Y-87708658D01*
X92444246Y-87932846D01*
X92444468Y-87934670D01*
X92466404Y-88148199D01*
X92472068Y-88323223D01*
X92460874Y-88497524D01*
X92432239Y-88708879D01*
X92414700Y-88818252D01*
X92389086Y-88964355D01*
X92368119Y-89067934D01*
X92355131Y-89111586D01*
X92350132Y-89106920D01*
X92334260Y-89047658D01*
X92313638Y-88934905D01*
X92291440Y-88784938D01*
X92282077Y-88716495D01*
X92260500Y-88567656D01*
X92242613Y-88456031D01*
X92231566Y-88401769D01*
X92224505Y-88378939D01*
X92218058Y-88337339D01*
X92218905Y-88277404D01*
X92228241Y-88184415D01*
X92247261Y-88043651D01*
X92277161Y-87840392D01*
X92296582Y-87714963D01*
X92323748Y-87567284D01*
X92347087Y-87491650D01*
X92368701Y-87489224D01*
X92390696Y-87561172D01*
G36*
X93181282Y-98727846D02*
G01*
X93169154Y-98874384D01*
X91547462Y-98895508D01*
X91547462Y-98581307D01*
X93193410Y-98581307D01*
X93181282Y-98727846D01*
G37*
X93181282Y-98727846D02*
X93169154Y-98874384D01*
X91547462Y-98895508D01*
X91547462Y-98581307D01*
X93193410Y-98581307D01*
X93181282Y-98727846D01*
G36*
X93188692Y-91273923D02*
G01*
X91547462Y-91273923D01*
X91547462Y-90922230D01*
X91547466Y-90891204D01*
X91548651Y-90735659D01*
X91554834Y-90640860D01*
X91570194Y-90591766D01*
X91598908Y-90573338D01*
X91645154Y-90570538D01*
X91684360Y-90572389D01*
X91723515Y-90592115D01*
X91739679Y-90649964D01*
X91742846Y-90765923D01*
X91742846Y-90961307D01*
X92289923Y-90961307D01*
X92289923Y-90805000D01*
X92289958Y-90791387D01*
X92296699Y-90697465D01*
X92324674Y-90657223D01*
X92387616Y-90648692D01*
X92396123Y-90648748D01*
X92454825Y-90659533D01*
X92479976Y-90704293D01*
X92485308Y-90805000D01*
X92485308Y-90961307D01*
X92954231Y-90961307D01*
X92954231Y-90765923D01*
X92955547Y-90669437D01*
X92967458Y-90601053D01*
X93002064Y-90574807D01*
X93071462Y-90570538D01*
X93188692Y-90570538D01*
X93188692Y-91273923D01*
G37*
X93188692Y-91273923D02*
X91547462Y-91273923D01*
X91547462Y-90922230D01*
X91547466Y-90891204D01*
X91548651Y-90735659D01*
X91554834Y-90640860D01*
X91570194Y-90591766D01*
X91598908Y-90573338D01*
X91645154Y-90570538D01*
X91684360Y-90572389D01*
X91723515Y-90592115D01*
X91739679Y-90649964D01*
X91742846Y-90765923D01*
X91742846Y-90961307D01*
X92289923Y-90961307D01*
X92289923Y-90805000D01*
X92289958Y-90791387D01*
X92296699Y-90697465D01*
X92324674Y-90657223D01*
X92387616Y-90648692D01*
X92396123Y-90648748D01*
X92454825Y-90659533D01*
X92479976Y-90704293D01*
X92485308Y-90805000D01*
X92485308Y-90961307D01*
X92954231Y-90961307D01*
X92954231Y-90765923D01*
X92955547Y-90669437D01*
X92967458Y-90601053D01*
X93002064Y-90574807D01*
X93071462Y-90570538D01*
X93188692Y-90570538D01*
X93188692Y-91273923D01*
G36*
X94204692Y-91664692D02*
G01*
X96236692Y-91664692D01*
X96236692Y-92094538D01*
X93892077Y-92094538D01*
X93892077Y-91117615D01*
X94204692Y-91117615D01*
X94204692Y-91664692D01*
G37*
X94204692Y-91664692D02*
X96236692Y-91664692D01*
X96236692Y-92094538D01*
X93892077Y-92094538D01*
X93892077Y-91117615D01*
X94204692Y-91117615D01*
X94204692Y-91664692D01*
G36*
X96498942Y-105434801D02*
G01*
X96599709Y-105471119D01*
X96730338Y-105533033D01*
X96874294Y-105611114D01*
X97015042Y-105695928D01*
X97136047Y-105778045D01*
X97220775Y-105848034D01*
X97252692Y-105896463D01*
X97233295Y-105901644D01*
X97159528Y-105885071D01*
X97049553Y-105846558D01*
X96969545Y-105814887D01*
X96864599Y-105770380D01*
X96787031Y-105728255D01*
X96707624Y-105671497D01*
X96597162Y-105583088D01*
X96529439Y-105526129D01*
X96463442Y-105464084D01*
X96443183Y-105434714D01*
X96444570Y-105433511D01*
X96498942Y-105434801D01*
G37*
X96498942Y-105434801D02*
X96599709Y-105471119D01*
X96730338Y-105533033D01*
X96874294Y-105611114D01*
X97015042Y-105695928D01*
X97136047Y-105778045D01*
X97220775Y-105848034D01*
X97252692Y-105896463D01*
X97233295Y-105901644D01*
X97159528Y-105885071D01*
X97049553Y-105846558D01*
X96969545Y-105814887D01*
X96864599Y-105770380D01*
X96787031Y-105728255D01*
X96707624Y-105671497D01*
X96597162Y-105583088D01*
X96529439Y-105526129D01*
X96463442Y-105464084D01*
X96443183Y-105434714D01*
X96444570Y-105433511D01*
X96498942Y-105434801D01*
G36*
X97361088Y-106399906D02*
G01*
X97341902Y-106485958D01*
X97291128Y-106608617D01*
X97219128Y-106749795D01*
X97136265Y-106891405D01*
X97052902Y-107015358D01*
X96979402Y-107103567D01*
X96926127Y-107137945D01*
X96911962Y-107126175D01*
X96920355Y-107070769D01*
X96950427Y-106991774D01*
X96988484Y-106885153D01*
X97002750Y-106850336D01*
X97054945Y-106753605D01*
X97125855Y-106642881D01*
X97203586Y-106534301D01*
X97276246Y-106444001D01*
X97331940Y-106388116D01*
X97358774Y-106382783D01*
X97361088Y-106399906D01*
G37*
X97361088Y-106399906D02*
X97341902Y-106485958D01*
X97291128Y-106608617D01*
X97219128Y-106749795D01*
X97136265Y-106891405D01*
X97052902Y-107015358D01*
X96979402Y-107103567D01*
X96926127Y-107137945D01*
X96911962Y-107126175D01*
X96920355Y-107070769D01*
X96950427Y-106991774D01*
X96988484Y-106885153D01*
X97002750Y-106850336D01*
X97054945Y-106753605D01*
X97125855Y-106642881D01*
X97203586Y-106534301D01*
X97276246Y-106444001D01*
X97331940Y-106388116D01*
X97358774Y-106382783D01*
X97361088Y-106399906D01*
G36*
X95668239Y-92457289D02*
G01*
X95851180Y-92487199D01*
X96035245Y-92558317D01*
X96160645Y-92672683D01*
X96235235Y-92838243D01*
X96266867Y-93062941D01*
X96261708Y-93278909D01*
X96214371Y-93453051D01*
X96117534Y-93584544D01*
X95964643Y-93686923D01*
X95924422Y-93706432D01*
X95856539Y-93733292D01*
X95780015Y-93752063D01*
X95680949Y-93764174D01*
X95545440Y-93771056D01*
X95359586Y-93774136D01*
X95109485Y-93774846D01*
X94990546Y-93774286D01*
X94744482Y-93769310D01*
X94534654Y-93759796D01*
X94375024Y-93746497D01*
X94279553Y-93730165D01*
X94260316Y-93724001D01*
X94089822Y-93630244D01*
X93960946Y-93488258D01*
X93891634Y-93317149D01*
X93881326Y-93228464D01*
X93889673Y-93073128D01*
X93926325Y-92935669D01*
X93984910Y-92835998D01*
X94059055Y-92794027D01*
X94064730Y-92783680D01*
X94009308Y-92763176D01*
X93967082Y-92747318D01*
X93919388Y-92694931D01*
X93899487Y-92591226D01*
X93887359Y-92446230D01*
X95103462Y-92446230D01*
X95103462Y-93110538D01*
X94966692Y-93110538D01*
X94956282Y-93110521D01*
X94870101Y-93103029D01*
X94835972Y-93065436D01*
X94829923Y-92973769D01*
X94829923Y-92837000D01*
X94644308Y-92837576D01*
X94606266Y-92838371D01*
X94420140Y-92867289D01*
X94289202Y-92934116D01*
X94219947Y-93033905D01*
X94218870Y-93161705D01*
X94228054Y-93189123D01*
X94271260Y-93246637D01*
X94349998Y-93289016D01*
X94472722Y-93317793D01*
X94647884Y-93334504D01*
X94883937Y-93340682D01*
X95189334Y-93337862D01*
X95356818Y-93334355D01*
X95545173Y-93328907D01*
X95676752Y-93321380D01*
X95764262Y-93309855D01*
X95820410Y-93292411D01*
X95857902Y-93267130D01*
X95889444Y-93232092D01*
X95932318Y-93161833D01*
X95944439Y-93053224D01*
X95891568Y-92962101D01*
X95781875Y-92899406D01*
X95623531Y-92876076D01*
X95455154Y-92876076D01*
X95455154Y-92435296D01*
X95668239Y-92457289D01*
G37*
X95668239Y-92457289D02*
X95851180Y-92487199D01*
X96035245Y-92558317D01*
X96160645Y-92672683D01*
X96235235Y-92838243D01*
X96266867Y-93062941D01*
X96261708Y-93278909D01*
X96214371Y-93453051D01*
X96117534Y-93584544D01*
X95964643Y-93686923D01*
X95924422Y-93706432D01*
X95856539Y-93733292D01*
X95780015Y-93752063D01*
X95680949Y-93764174D01*
X95545440Y-93771056D01*
X95359586Y-93774136D01*
X95109485Y-93774846D01*
X94990546Y-93774286D01*
X94744482Y-93769310D01*
X94534654Y-93759796D01*
X94375024Y-93746497D01*
X94279553Y-93730165D01*
X94260316Y-93724001D01*
X94089822Y-93630244D01*
X93960946Y-93488258D01*
X93891634Y-93317149D01*
X93881326Y-93228464D01*
X93889673Y-93073128D01*
X93926325Y-92935669D01*
X93984910Y-92835998D01*
X94059055Y-92794027D01*
X94064730Y-92783680D01*
X94009308Y-92763176D01*
X93967082Y-92747318D01*
X93919388Y-92694931D01*
X93899487Y-92591226D01*
X93887359Y-92446230D01*
X95103462Y-92446230D01*
X95103462Y-93110538D01*
X94966692Y-93110538D01*
X94956282Y-93110521D01*
X94870101Y-93103029D01*
X94835972Y-93065436D01*
X94829923Y-92973769D01*
X94829923Y-92837000D01*
X94644308Y-92837576D01*
X94606266Y-92838371D01*
X94420140Y-92867289D01*
X94289202Y-92934116D01*
X94219947Y-93033905D01*
X94218870Y-93161705D01*
X94228054Y-93189123D01*
X94271260Y-93246637D01*
X94349998Y-93289016D01*
X94472722Y-93317793D01*
X94647884Y-93334504D01*
X94883937Y-93340682D01*
X95189334Y-93337862D01*
X95356818Y-93334355D01*
X95545173Y-93328907D01*
X95676752Y-93321380D01*
X95764262Y-93309855D01*
X95820410Y-93292411D01*
X95857902Y-93267130D01*
X95889444Y-93232092D01*
X95932318Y-93161833D01*
X95944439Y-93053224D01*
X95891568Y-92962101D01*
X95781875Y-92899406D01*
X95623531Y-92876076D01*
X95455154Y-92876076D01*
X95455154Y-92435296D01*
X95668239Y-92457289D01*
G36*
X96236692Y-87602513D02*
G01*
X96238459Y-87660545D01*
X96238641Y-87709238D01*
X96227796Y-87745821D01*
X96196455Y-87773660D01*
X96135147Y-87796117D01*
X96034405Y-87816556D01*
X95884757Y-87838341D01*
X95676736Y-87864836D01*
X95400872Y-87899403D01*
X95324344Y-87909317D01*
X95145730Y-87934231D01*
X95007338Y-87956134D01*
X94921628Y-87972952D01*
X94901063Y-87982610D01*
X94928786Y-87988899D01*
X95024993Y-88007090D01*
X95174944Y-88033782D01*
X95364763Y-88066518D01*
X95580576Y-88102845D01*
X96217154Y-88208768D01*
X96228896Y-88368034D01*
X96240637Y-88527299D01*
X95556157Y-88638462D01*
X95357415Y-88671220D01*
X95164731Y-88704055D01*
X95013107Y-88731092D01*
X94914585Y-88750176D01*
X94881207Y-88759155D01*
X94900482Y-88763522D01*
X94983722Y-88776588D01*
X95118349Y-88795734D01*
X95288746Y-88818926D01*
X95479298Y-88844133D01*
X95674390Y-88869320D01*
X95858406Y-88892456D01*
X96015732Y-88911509D01*
X96130750Y-88924445D01*
X96187846Y-88929232D01*
X96199738Y-88932582D01*
X96227477Y-88992487D01*
X96236692Y-89127797D01*
X96235359Y-89231105D01*
X96224211Y-89294910D01*
X96192438Y-89313520D01*
X96129231Y-89304734D01*
X96073873Y-89295471D01*
X95948288Y-89276437D01*
X95767091Y-89249947D01*
X95541875Y-89217677D01*
X95284237Y-89181299D01*
X95005769Y-89142488D01*
X94752399Y-89107130D01*
X94499900Y-89071303D01*
X94281724Y-89039728D01*
X94108652Y-89013985D01*
X93991459Y-88995654D01*
X93940923Y-88986316D01*
X93931220Y-88980575D01*
X93902691Y-88915867D01*
X93892077Y-88798001D01*
X93890787Y-88745854D01*
X93891253Y-88697710D01*
X93902796Y-88660896D01*
X93934821Y-88631800D01*
X93996729Y-88606810D01*
X94097923Y-88582314D01*
X94247807Y-88554702D01*
X94455784Y-88520360D01*
X94731256Y-88475679D01*
X95394589Y-88367254D01*
X94770333Y-88259410D01*
X94642411Y-88237285D01*
X94428861Y-88200234D01*
X94242777Y-88167809D01*
X94100676Y-88142890D01*
X94019077Y-88128358D01*
X93976611Y-88119793D01*
X93919193Y-88094378D01*
X93896242Y-88039592D01*
X93892077Y-87931075D01*
X93892502Y-87880364D01*
X93895989Y-87791499D01*
X93901846Y-87755761D01*
X93907822Y-87754915D01*
X93973238Y-87745514D01*
X94102978Y-87726826D01*
X94287489Y-87700226D01*
X94517223Y-87667093D01*
X94782628Y-87628802D01*
X95074154Y-87586730D01*
X96236692Y-87418938D01*
X96236692Y-87602513D01*
G37*
X96236692Y-87602513D02*
X96238459Y-87660545D01*
X96238641Y-87709238D01*
X96227796Y-87745821D01*
X96196455Y-87773660D01*
X96135147Y-87796117D01*
X96034405Y-87816556D01*
X95884757Y-87838341D01*
X95676736Y-87864836D01*
X95400872Y-87899403D01*
X95324344Y-87909317D01*
X95145730Y-87934231D01*
X95007338Y-87956134D01*
X94921628Y-87972952D01*
X94901063Y-87982610D01*
X94928786Y-87988899D01*
X95024993Y-88007090D01*
X95174944Y-88033782D01*
X95364763Y-88066518D01*
X95580576Y-88102845D01*
X96217154Y-88208768D01*
X96228896Y-88368034D01*
X96240637Y-88527299D01*
X95556157Y-88638462D01*
X95357415Y-88671220D01*
X95164731Y-88704055D01*
X95013107Y-88731092D01*
X94914585Y-88750176D01*
X94881207Y-88759155D01*
X94900482Y-88763522D01*
X94983722Y-88776588D01*
X95118349Y-88795734D01*
X95288746Y-88818926D01*
X95479298Y-88844133D01*
X95674390Y-88869320D01*
X95858406Y-88892456D01*
X96015732Y-88911509D01*
X96130750Y-88924445D01*
X96187846Y-88929232D01*
X96199738Y-88932582D01*
X96227477Y-88992487D01*
X96236692Y-89127797D01*
X96235359Y-89231105D01*
X96224211Y-89294910D01*
X96192438Y-89313520D01*
X96129231Y-89304734D01*
X96073873Y-89295471D01*
X95948288Y-89276437D01*
X95767091Y-89249947D01*
X95541875Y-89217677D01*
X95284237Y-89181299D01*
X95005769Y-89142488D01*
X94752399Y-89107130D01*
X94499900Y-89071303D01*
X94281724Y-89039728D01*
X94108652Y-89013985D01*
X93991459Y-88995654D01*
X93940923Y-88986316D01*
X93931220Y-88980575D01*
X93902691Y-88915867D01*
X93892077Y-88798001D01*
X93890787Y-88745854D01*
X93891253Y-88697710D01*
X93902796Y-88660896D01*
X93934821Y-88631800D01*
X93996729Y-88606810D01*
X94097923Y-88582314D01*
X94247807Y-88554702D01*
X94455784Y-88520360D01*
X94731256Y-88475679D01*
X95394589Y-88367254D01*
X94770333Y-88259410D01*
X94642411Y-88237285D01*
X94428861Y-88200234D01*
X94242777Y-88167809D01*
X94100676Y-88142890D01*
X94019077Y-88128358D01*
X93976611Y-88119793D01*
X93919193Y-88094378D01*
X93896242Y-88039592D01*
X93892077Y-87931075D01*
X93892502Y-87880364D01*
X93895989Y-87791499D01*
X93901846Y-87755761D01*
X93907822Y-87754915D01*
X93973238Y-87745514D01*
X94102978Y-87726826D01*
X94287489Y-87700226D01*
X94517223Y-87667093D01*
X94782628Y-87628802D01*
X95074154Y-87586730D01*
X96236692Y-87418938D01*
X96236692Y-87602513D01*
G36*
X92365749Y-99389817D02*
G01*
X92388013Y-99464066D01*
X92413679Y-99611019D01*
X92444525Y-99833246D01*
X92451348Y-99887483D01*
X92471342Y-100113556D01*
X92470329Y-100310668D01*
X92448533Y-100517092D01*
X92425862Y-100673161D01*
X92398449Y-100845676D01*
X92376514Y-100945380D01*
X92357097Y-100975064D01*
X92337235Y-100937520D01*
X92313966Y-100835543D01*
X92284330Y-100671923D01*
X92257364Y-100506878D01*
X92239418Y-100353736D01*
X92234039Y-100209841D01*
X92241457Y-100053636D01*
X92261904Y-99863564D01*
X92295610Y-99618068D01*
X92301587Y-99577600D01*
X92324314Y-99449154D01*
X92345109Y-99385703D01*
X92365749Y-99389817D01*
G37*
X92365749Y-99389817D02*
X92388013Y-99464066D01*
X92413679Y-99611019D01*
X92444525Y-99833246D01*
X92451348Y-99887483D01*
X92471342Y-100113556D01*
X92470329Y-100310668D01*
X92448533Y-100517092D01*
X92425862Y-100673161D01*
X92398449Y-100845676D01*
X92376514Y-100945380D01*
X92357097Y-100975064D01*
X92337235Y-100937520D01*
X92313966Y-100835543D01*
X92284330Y-100671923D01*
X92257364Y-100506878D01*
X92239418Y-100353736D01*
X92234039Y-100209841D01*
X92241457Y-100053636D01*
X92261904Y-99863564D01*
X92295610Y-99618068D01*
X92301587Y-99577600D01*
X92324314Y-99449154D01*
X92345109Y-99385703D01*
X92365749Y-99389817D01*
G36*
X94535401Y-100900259D02*
G01*
X94313043Y-100942993D01*
X94136203Y-100975921D01*
X94015226Y-100997076D01*
X93960462Y-101004492D01*
X93957763Y-101004446D01*
X93916971Y-100988196D01*
X93897226Y-100930362D01*
X93892077Y-100812873D01*
X93894791Y-100709759D01*
X93913290Y-100641341D01*
X93963035Y-100600728D01*
X94059486Y-100575632D01*
X94218105Y-100553767D01*
X94439154Y-100526148D01*
X94439154Y-100461788D01*
X94751769Y-100461788D01*
X94917846Y-100436518D01*
X95012799Y-100421264D01*
X95173839Y-100393698D01*
X95337923Y-100364167D01*
X95591923Y-100317087D01*
X95279308Y-100266134D01*
X95250209Y-100261378D01*
X95088504Y-100234493D01*
X94949021Y-100210617D01*
X94859231Y-100194437D01*
X94845136Y-100191785D01*
X94781813Y-100188549D01*
X94756417Y-100223964D01*
X94751769Y-100317740D01*
X94751769Y-100461788D01*
X94439154Y-100461788D01*
X94439154Y-100114312D01*
X94218105Y-100086694D01*
X94064663Y-100065705D01*
X93965966Y-100040983D01*
X93914610Y-100001248D01*
X93895134Y-99934212D01*
X93892077Y-99827588D01*
X93893904Y-99761200D01*
X93904495Y-99670866D01*
X93921385Y-99634738D01*
X93927924Y-99635401D01*
X93995229Y-99646858D01*
X94126290Y-99671086D01*
X94311387Y-99706229D01*
X94540800Y-99750431D01*
X94804808Y-99801837D01*
X95093692Y-99858590D01*
X96236692Y-100084088D01*
X96236692Y-100558360D01*
X95132769Y-100781633D01*
X95075277Y-100793242D01*
X94792928Y-100849687D01*
X94751769Y-100857770D01*
X94535401Y-100900259D01*
G37*
X94535401Y-100900259D02*
X94313043Y-100942993D01*
X94136203Y-100975921D01*
X94015226Y-100997076D01*
X93960462Y-101004492D01*
X93957763Y-101004446D01*
X93916971Y-100988196D01*
X93897226Y-100930362D01*
X93892077Y-100812873D01*
X93894791Y-100709759D01*
X93913290Y-100641341D01*
X93963035Y-100600728D01*
X94059486Y-100575632D01*
X94218105Y-100553767D01*
X94439154Y-100526148D01*
X94439154Y-100461788D01*
X94751769Y-100461788D01*
X94917846Y-100436518D01*
X95012799Y-100421264D01*
X95173839Y-100393698D01*
X95337923Y-100364167D01*
X95591923Y-100317087D01*
X95279308Y-100266134D01*
X95250209Y-100261378D01*
X95088504Y-100234493D01*
X94949021Y-100210617D01*
X94859231Y-100194437D01*
X94845136Y-100191785D01*
X94781813Y-100188549D01*
X94756417Y-100223964D01*
X94751769Y-100317740D01*
X94751769Y-100461788D01*
X94439154Y-100461788D01*
X94439154Y-100114312D01*
X94218105Y-100086694D01*
X94064663Y-100065705D01*
X93965966Y-100040983D01*
X93914610Y-100001248D01*
X93895134Y-99934212D01*
X93892077Y-99827588D01*
X93893904Y-99761200D01*
X93904495Y-99670866D01*
X93921385Y-99634738D01*
X93927924Y-99635401D01*
X93995229Y-99646858D01*
X94126290Y-99671086D01*
X94311387Y-99706229D01*
X94540800Y-99750431D01*
X94804808Y-99801837D01*
X95093692Y-99858590D01*
X96236692Y-100084088D01*
X96236692Y-100558360D01*
X95132769Y-100781633D01*
X95075277Y-100793242D01*
X94792928Y-100849687D01*
X94751769Y-100857770D01*
X94535401Y-100900259D01*
G36*
X96236692Y-94476246D02*
G01*
X95622396Y-94487007D01*
X95008099Y-94497769D01*
X95612627Y-94755208D01*
X96217154Y-95012648D01*
X96229170Y-95175285D01*
X96241186Y-95337923D01*
X93887795Y-95337923D01*
X93899705Y-95152307D01*
X93911616Y-94966692D01*
X94536846Y-94947153D01*
X95162077Y-94927615D01*
X94536846Y-94671157D01*
X93911616Y-94414698D01*
X93899487Y-94270618D01*
X93887359Y-94126538D01*
X96236692Y-94126538D01*
X96236692Y-94476246D01*
G37*
X96236692Y-94476246D02*
X95622396Y-94487007D01*
X95008099Y-94497769D01*
X95612627Y-94755208D01*
X96217154Y-95012648D01*
X96229170Y-95175285D01*
X96241186Y-95337923D01*
X93887795Y-95337923D01*
X93899705Y-95152307D01*
X93911616Y-94966692D01*
X94536846Y-94947153D01*
X95162077Y-94927615D01*
X94536846Y-94671157D01*
X93911616Y-94414698D01*
X93899487Y-94270618D01*
X93887359Y-94126538D01*
X96236692Y-94126538D01*
X96236692Y-94476246D01*
G36*
X93188692Y-93970230D02*
G01*
X93073938Y-93970230D01*
X93010237Y-93965493D01*
X92964677Y-93931333D01*
X92946938Y-93843230D01*
X92934692Y-93716230D01*
X92241077Y-93705559D01*
X91547462Y-93694889D01*
X91547462Y-93384076D01*
X92954231Y-93384076D01*
X92954231Y-93266846D01*
X92957822Y-93204972D01*
X92988427Y-93159298D01*
X93071462Y-93149615D01*
X93188692Y-93149615D01*
X93188692Y-93970230D01*
G37*
X93188692Y-93970230D02*
X93073938Y-93970230D01*
X93010237Y-93965493D01*
X92964677Y-93931333D01*
X92946938Y-93843230D01*
X92934692Y-93716230D01*
X92241077Y-93705559D01*
X91547462Y-93694889D01*
X91547462Y-93384076D01*
X92954231Y-93384076D01*
X92954231Y-93266846D01*
X92957822Y-93204972D01*
X92988427Y-93159298D01*
X93071462Y-93149615D01*
X93188692Y-93149615D01*
X93188692Y-93970230D01*
G36*
X98619177Y-105449236D02*
G01*
X98609772Y-105470331D01*
X98546373Y-105531815D01*
X98437619Y-105611220D01*
X98300455Y-105698565D01*
X98151827Y-105783872D01*
X98008681Y-105857162D01*
X97887961Y-105908454D01*
X97806613Y-105927769D01*
X97800759Y-105924024D01*
X97823330Y-105887552D01*
X97886261Y-105824091D01*
X97974168Y-105748317D01*
X98071668Y-105674905D01*
X98151270Y-105625640D01*
X98270527Y-105563573D01*
X98395690Y-105507173D01*
X98508015Y-105464166D01*
X98588759Y-105442279D01*
X98619177Y-105449236D01*
G37*
X98619177Y-105449236D02*
X98609772Y-105470331D01*
X98546373Y-105531815D01*
X98437619Y-105611220D01*
X98300455Y-105698565D01*
X98151827Y-105783872D01*
X98008681Y-105857162D01*
X97887961Y-105908454D01*
X97806613Y-105927769D01*
X97800759Y-105924024D01*
X97823330Y-105887552D01*
X97886261Y-105824091D01*
X97974168Y-105748317D01*
X98071668Y-105674905D01*
X98151270Y-105625640D01*
X98270527Y-105563573D01*
X98395690Y-105507173D01*
X98508015Y-105464166D01*
X98588759Y-105442279D01*
X98619177Y-105449236D01*
G36*
X97732457Y-106367435D02*
G01*
X97790346Y-106425038D01*
X97863953Y-106523933D01*
X97944699Y-106649025D01*
X98024007Y-106785220D01*
X98093299Y-106917425D01*
X98143997Y-107030545D01*
X98167524Y-107109486D01*
X98155301Y-107139153D01*
X98146839Y-107137299D01*
X98091518Y-107092391D01*
X98014419Y-107000647D01*
X97928280Y-106879663D01*
X97845835Y-106747036D01*
X97779819Y-106620362D01*
X97721185Y-106487422D01*
X97691472Y-106405969D01*
X97689541Y-106367651D01*
X97711846Y-106358823D01*
X97732457Y-106367435D01*
G37*
X97732457Y-106367435D02*
X97790346Y-106425038D01*
X97863953Y-106523933D01*
X97944699Y-106649025D01*
X98024007Y-106785220D01*
X98093299Y-106917425D01*
X98143997Y-107030545D01*
X98167524Y-107109486D01*
X98155301Y-107139153D01*
X98146839Y-107137299D01*
X98091518Y-107092391D01*
X98014419Y-107000647D01*
X97928280Y-106879663D01*
X97845835Y-106747036D01*
X97779819Y-106620362D01*
X97721185Y-106487422D01*
X97691472Y-106405969D01*
X97689541Y-106367651D01*
X97711846Y-106358823D01*
X97732457Y-106367435D01*
G36*
X97556845Y-106437534D02*
G01*
X97575109Y-106524503D01*
X97588139Y-106650287D01*
X97595010Y-106799650D01*
X97594797Y-106957355D01*
X97586576Y-107108166D01*
X97569422Y-107236846D01*
X97538964Y-107393153D01*
X97510457Y-107236846D01*
X97505274Y-107208717D01*
X97483699Y-107096864D01*
X97467798Y-107021923D01*
X97463168Y-106973026D01*
X97464817Y-106862742D01*
X97473529Y-106725698D01*
X97487061Y-106588116D01*
X97503169Y-106476219D01*
X97519610Y-106416230D01*
X97534273Y-106404615D01*
X97556845Y-106437534D01*
G37*
X97556845Y-106437534D02*
X97575109Y-106524503D01*
X97588139Y-106650287D01*
X97595010Y-106799650D01*
X97594797Y-106957355D01*
X97586576Y-107108166D01*
X97569422Y-107236846D01*
X97538964Y-107393153D01*
X97510457Y-107236846D01*
X97505274Y-107208717D01*
X97483699Y-107096864D01*
X97467798Y-107021923D01*
X97463168Y-106973026D01*
X97464817Y-106862742D01*
X97473529Y-106725698D01*
X97487061Y-106588116D01*
X97503169Y-106476219D01*
X97519610Y-106416230D01*
X97534273Y-106404615D01*
X97556845Y-106437534D01*
G36*
X95007615Y-98151393D02*
G01*
X94721899Y-98150082D01*
X94464564Y-98147268D01*
X94245566Y-98143173D01*
X94074858Y-98138017D01*
X93962394Y-98132023D01*
X93918128Y-98125410D01*
X93908229Y-98099792D01*
X93896607Y-98012561D01*
X93892077Y-97890948D01*
X93892077Y-97682538D01*
X94947154Y-97682538D01*
X95259769Y-97682538D01*
X95924077Y-97682538D01*
X95924077Y-97531015D01*
X95910353Y-97413246D01*
X95856221Y-97329090D01*
X95750236Y-97285621D01*
X95581102Y-97274387D01*
X95466874Y-97280035D01*
X95370611Y-97303327D01*
X95313658Y-97350241D01*
X95275886Y-97439195D01*
X95259769Y-97553238D01*
X95259769Y-97682538D01*
X94947154Y-97682538D01*
X94947154Y-97483290D01*
X94947477Y-97458184D01*
X94981372Y-97238311D01*
X95066870Y-97059794D01*
X95198027Y-96935609D01*
X95302513Y-96891649D01*
X95481624Y-96860592D01*
X95678590Y-96860518D01*
X95863302Y-96890851D01*
X96005652Y-96951019D01*
X96071415Y-96999213D01*
X96142959Y-97072500D01*
X96190505Y-97163349D01*
X96218749Y-97286863D01*
X96232387Y-97458148D01*
X96236116Y-97692307D01*
X96236692Y-98151461D01*
X95090436Y-98151461D01*
X95007615Y-98151393D01*
G37*
X95007615Y-98151393D02*
X94721899Y-98150082D01*
X94464564Y-98147268D01*
X94245566Y-98143173D01*
X94074858Y-98138017D01*
X93962394Y-98132023D01*
X93918128Y-98125410D01*
X93908229Y-98099792D01*
X93896607Y-98012561D01*
X93892077Y-97890948D01*
X93892077Y-97682538D01*
X94947154Y-97682538D01*
X95259769Y-97682538D01*
X95924077Y-97682538D01*
X95924077Y-97531015D01*
X95910353Y-97413246D01*
X95856221Y-97329090D01*
X95750236Y-97285621D01*
X95581102Y-97274387D01*
X95466874Y-97280035D01*
X95370611Y-97303327D01*
X95313658Y-97350241D01*
X95275886Y-97439195D01*
X95259769Y-97553238D01*
X95259769Y-97682538D01*
X94947154Y-97682538D01*
X94947154Y-97483290D01*
X94947477Y-97458184D01*
X94981372Y-97238311D01*
X95066870Y-97059794D01*
X95198027Y-96935609D01*
X95302513Y-96891649D01*
X95481624Y-96860592D01*
X95678590Y-96860518D01*
X95863302Y-96890851D01*
X96005652Y-96951019D01*
X96071415Y-96999213D01*
X96142959Y-97072500D01*
X96190505Y-97163349D01*
X96218749Y-97286863D01*
X96232387Y-97458148D01*
X96236116Y-97692307D01*
X96236692Y-98151461D01*
X95090436Y-98151461D01*
X95007615Y-98151393D01*
G36*
X97252692Y-106236109D02*
G01*
X97245211Y-106255379D01*
X97185169Y-106315871D01*
X97079046Y-106394464D01*
X96943782Y-106481169D01*
X96796321Y-106565995D01*
X96653603Y-106638953D01*
X96532572Y-106690054D01*
X96450169Y-106709307D01*
X96443232Y-106708745D01*
X96438977Y-106685154D01*
X96487001Y-106633681D01*
X96574055Y-106563705D01*
X96686886Y-106484608D01*
X96812245Y-106405771D01*
X96936879Y-106336575D01*
X97047539Y-106286401D01*
X97135081Y-106255920D01*
X97219899Y-106233754D01*
X97252692Y-106236109D01*
G37*
X97252692Y-106236109D02*
X97245211Y-106255379D01*
X97185169Y-106315871D01*
X97079046Y-106394464D01*
X96943782Y-106481169D01*
X96796321Y-106565995D01*
X96653603Y-106638953D01*
X96532572Y-106690054D01*
X96450169Y-106709307D01*
X96443232Y-106708745D01*
X96438977Y-106685154D01*
X96487001Y-106633681D01*
X96574055Y-106563705D01*
X96686886Y-106484608D01*
X96812245Y-106405771D01*
X96936879Y-106336575D01*
X97047539Y-106286401D01*
X97135081Y-106255920D01*
X97219899Y-106233754D01*
X97252692Y-106236109D01*
G36*
X91547462Y-92680692D02*
G01*
X91918692Y-92680692D01*
X91967026Y-92680456D01*
X92154095Y-92672713D01*
X92263782Y-92654218D01*
X92296074Y-92625226D01*
X92258044Y-92592152D01*
X92490404Y-92592152D01*
X92490965Y-92643104D01*
X92517865Y-92669416D01*
X92588376Y-92679230D01*
X92719769Y-92680692D01*
X92761432Y-92680659D01*
X92875035Y-92677780D01*
X92932326Y-92664393D01*
X92950577Y-92632354D01*
X92947057Y-92573519D01*
X92927755Y-92506912D01*
X92850984Y-92422975D01*
X92738436Y-92388863D01*
X92612308Y-92415079D01*
X92540806Y-92465805D01*
X92492482Y-92573519D01*
X92490404Y-92592152D01*
X92258044Y-92592152D01*
X92250960Y-92585991D01*
X92128426Y-92536769D01*
X91928462Y-92477814D01*
X91567000Y-92381292D01*
X91554984Y-92218377D01*
X91552332Y-92177107D01*
X91550153Y-92090368D01*
X91554984Y-92056143D01*
X91574101Y-92060960D01*
X91654630Y-92083639D01*
X91782610Y-92120632D01*
X91941491Y-92167186D01*
X92315982Y-92277547D01*
X92422362Y-92186043D01*
X92533698Y-92122196D01*
X92692735Y-92091314D01*
X92858062Y-92105924D01*
X93004693Y-92163304D01*
X93107643Y-92260730D01*
X93114384Y-92273914D01*
X93140757Y-92366645D01*
X93163895Y-92506358D01*
X93179430Y-92668257D01*
X93199709Y-92993307D01*
X91547462Y-92993307D01*
X91547462Y-92680692D01*
G37*
X91547462Y-92680692D02*
X91918692Y-92680692D01*
X91967026Y-92680456D01*
X92154095Y-92672713D01*
X92263782Y-92654218D01*
X92296074Y-92625226D01*
X92258044Y-92592152D01*
X92490404Y-92592152D01*
X92490965Y-92643104D01*
X92517865Y-92669416D01*
X92588376Y-92679230D01*
X92719769Y-92680692D01*
X92761432Y-92680659D01*
X92875035Y-92677780D01*
X92932326Y-92664393D01*
X92950577Y-92632354D01*
X92947057Y-92573519D01*
X92927755Y-92506912D01*
X92850984Y-92422975D01*
X92738436Y-92388863D01*
X92612308Y-92415079D01*
X92540806Y-92465805D01*
X92492482Y-92573519D01*
X92490404Y-92592152D01*
X92258044Y-92592152D01*
X92250960Y-92585991D01*
X92128426Y-92536769D01*
X91928462Y-92477814D01*
X91567000Y-92381292D01*
X91554984Y-92218377D01*
X91552332Y-92177107D01*
X91550153Y-92090368D01*
X91554984Y-92056143D01*
X91574101Y-92060960D01*
X91654630Y-92083639D01*
X91782610Y-92120632D01*
X91941491Y-92167186D01*
X92315982Y-92277547D01*
X92422362Y-92186043D01*
X92533698Y-92122196D01*
X92692735Y-92091314D01*
X92858062Y-92105924D01*
X93004693Y-92163304D01*
X93107643Y-92260730D01*
X93114384Y-92273914D01*
X93140757Y-92366645D01*
X93163895Y-92506358D01*
X93179430Y-92668257D01*
X93199709Y-92993307D01*
X91547462Y-92993307D01*
X91547462Y-92680692D01*
G36*
X93181282Y-91694000D02*
G01*
X93169154Y-91840538D01*
X91547462Y-91861662D01*
X91547462Y-91547461D01*
X93193410Y-91547461D01*
X93181282Y-91694000D01*
G37*
X93181282Y-91694000D02*
X93169154Y-91840538D01*
X91547462Y-91861662D01*
X91547462Y-91547461D01*
X93193410Y-91547461D01*
X93181282Y-91694000D01*
G36*
X92019036Y-94060498D02*
G01*
X92146812Y-94109342D01*
X92287627Y-94209637D01*
X92456229Y-94368441D01*
X92571675Y-94480559D01*
X92698339Y-94582487D01*
X92794488Y-94625892D01*
X92868420Y-94613963D01*
X92928436Y-94549890D01*
X92939706Y-94526628D01*
X92934277Y-94447535D01*
X92872076Y-94385864D01*
X92769419Y-94361000D01*
X92761722Y-94360937D01*
X92697706Y-94346317D01*
X92696050Y-94299188D01*
X92707370Y-94260544D01*
X92719769Y-94162419D01*
X92722661Y-94138908D01*
X92768962Y-94093345D01*
X92863146Y-94095654D01*
X92994090Y-94146481D01*
X93094779Y-94216309D01*
X93166870Y-94332536D01*
X93188692Y-94497769D01*
X93164598Y-94680449D01*
X93088872Y-94807882D01*
X92957566Y-94882068D01*
X92766730Y-94906834D01*
X92727392Y-94906954D01*
X92641450Y-94902728D01*
X92572969Y-94883695D01*
X92503979Y-94839532D01*
X92416509Y-94759920D01*
X92292587Y-94634538D01*
X92205031Y-94547086D01*
X92083496Y-94438391D01*
X91992756Y-94379019D01*
X91922015Y-94361000D01*
X91911154Y-94361224D01*
X91821757Y-94389288D01*
X91785019Y-94450488D01*
X91798059Y-94525045D01*
X91857996Y-94593180D01*
X91961948Y-94635113D01*
X92017995Y-94648453D01*
X92060892Y-94687106D01*
X92061301Y-94771882D01*
X92053385Y-94831955D01*
X92030101Y-94905112D01*
X91978758Y-94924797D01*
X91876967Y-94907479D01*
X91794240Y-94881849D01*
X91641720Y-94787885D01*
X91543327Y-94654076D01*
X91517807Y-94562231D01*
X91526015Y-94403034D01*
X91587211Y-94252628D01*
X91690730Y-94133177D01*
X91825908Y-94066845D01*
X91889550Y-94056049D01*
X92019036Y-94060498D01*
G37*
X92019036Y-94060498D02*
X92146812Y-94109342D01*
X92287627Y-94209637D01*
X92456229Y-94368441D01*
X92571675Y-94480559D01*
X92698339Y-94582487D01*
X92794488Y-94625892D01*
X92868420Y-94613963D01*
X92928436Y-94549890D01*
X92939706Y-94526628D01*
X92934277Y-94447535D01*
X92872076Y-94385864D01*
X92769419Y-94361000D01*
X92761722Y-94360937D01*
X92697706Y-94346317D01*
X92696050Y-94299188D01*
X92707370Y-94260544D01*
X92719769Y-94162419D01*
X92722661Y-94138908D01*
X92768962Y-94093345D01*
X92863146Y-94095654D01*
X92994090Y-94146481D01*
X93094779Y-94216309D01*
X93166870Y-94332536D01*
X93188692Y-94497769D01*
X93164598Y-94680449D01*
X93088872Y-94807882D01*
X92957566Y-94882068D01*
X92766730Y-94906834D01*
X92727392Y-94906954D01*
X92641450Y-94902728D01*
X92572969Y-94883695D01*
X92503979Y-94839532D01*
X92416509Y-94759920D01*
X92292587Y-94634538D01*
X92205031Y-94547086D01*
X92083496Y-94438391D01*
X91992756Y-94379019D01*
X91922015Y-94361000D01*
X91911154Y-94361224D01*
X91821757Y-94389288D01*
X91785019Y-94450488D01*
X91798059Y-94525045D01*
X91857996Y-94593180D01*
X91961948Y-94635113D01*
X92017995Y-94648453D01*
X92060892Y-94687106D01*
X92061301Y-94771882D01*
X92053385Y-94831955D01*
X92030101Y-94905112D01*
X91978758Y-94924797D01*
X91876967Y-94907479D01*
X91794240Y-94881849D01*
X91641720Y-94787885D01*
X91543327Y-94654076D01*
X91517807Y-94562231D01*
X91526015Y-94403034D01*
X91587211Y-94252628D01*
X91690730Y-94133177D01*
X91825908Y-94066845D01*
X91889550Y-94056049D01*
X92019036Y-94060498D01*
G36*
X91547462Y-96883300D02*
G01*
X91548177Y-96861923D01*
X91781923Y-96861923D01*
X92368077Y-96861923D01*
X92447190Y-96861883D01*
X92650373Y-96860800D01*
X92790645Y-96857114D01*
X92879585Y-96849336D01*
X92928776Y-96835977D01*
X92949797Y-96815548D01*
X92954231Y-96786560D01*
X92952373Y-96750435D01*
X92929435Y-96682143D01*
X92871727Y-96635524D01*
X92768476Y-96606847D01*
X92608910Y-96592378D01*
X92382255Y-96588384D01*
X92220051Y-96590962D01*
X92052870Y-96599510D01*
X91925662Y-96612625D01*
X91857508Y-96628836D01*
X91811667Y-96671840D01*
X91781923Y-96765605D01*
X91781923Y-96861923D01*
X91548177Y-96861923D01*
X91553728Y-96696044D01*
X91580906Y-96538279D01*
X91638490Y-96424993D01*
X91735919Y-96349142D01*
X91882632Y-96303684D01*
X92088069Y-96281574D01*
X92361670Y-96275769D01*
X92543067Y-96278444D01*
X92717600Y-96286409D01*
X92853137Y-96298390D01*
X92930105Y-96313102D01*
X93026433Y-96369719D01*
X93105205Y-96476531D01*
X93155094Y-96638228D01*
X93180828Y-96865217D01*
X93198734Y-97174538D01*
X91547462Y-97174538D01*
X91547462Y-96883300D01*
G37*
X91547462Y-96883300D02*
X91548177Y-96861923D01*
X91781923Y-96861923D01*
X92368077Y-96861923D01*
X92447190Y-96861883D01*
X92650373Y-96860800D01*
X92790645Y-96857114D01*
X92879585Y-96849336D01*
X92928776Y-96835977D01*
X92949797Y-96815548D01*
X92954231Y-96786560D01*
X92952373Y-96750435D01*
X92929435Y-96682143D01*
X92871727Y-96635524D01*
X92768476Y-96606847D01*
X92608910Y-96592378D01*
X92382255Y-96588384D01*
X92220051Y-96590962D01*
X92052870Y-96599510D01*
X91925662Y-96612625D01*
X91857508Y-96628836D01*
X91811667Y-96671840D01*
X91781923Y-96765605D01*
X91781923Y-96861923D01*
X91548177Y-96861923D01*
X91553728Y-96696044D01*
X91580906Y-96538279D01*
X91638490Y-96424993D01*
X91735919Y-96349142D01*
X91882632Y-96303684D01*
X92088069Y-96281574D01*
X92361670Y-96275769D01*
X92543067Y-96278444D01*
X92717600Y-96286409D01*
X92853137Y-96298390D01*
X92930105Y-96313102D01*
X93026433Y-96369719D01*
X93105205Y-96476531D01*
X93155094Y-96638228D01*
X93180828Y-96865217D01*
X93198734Y-97174538D01*
X91547462Y-97174538D01*
X91547462Y-96883300D01*
%TD*%
D12*
%TO.C,D1*%
X97500000Y-113900000D03*
D13*
X97500000Y-116440000D03*
%TD*%
D12*
%TO.C,D2*%
X111800000Y-117900000D03*
D13*
X111800000Y-120440000D03*
%TD*%
D12*
%TO.C,D3*%
X124500000Y-112100000D03*
D13*
X124500000Y-114640000D03*
%TD*%
D14*
%TO.C,BT1*%
X122300000Y-93300000D03*
X101218000Y-93300000D03*
D15*
X111759000Y-93300000D03*
%TD*%
D16*
%TO.C,SW1*%
X132334000Y-110363000D03*
X134456316Y-102442408D03*
D17*
X133912796Y-104470852D03*
D18*
X133395158Y-106402704D03*
X132877520Y-108334555D03*
%TD*%
M02*
