%TF.GenerationSoftware,KiCad,Pcbnew,(6.0.4)*%
%TF.CreationDate,2024-01-19T16:18:43-08:00*%
%TF.ProjectId,StormCloud,53746f72-6d43-46c6-9f75-642e6b696361,rev?*%
%TF.SameCoordinates,Original*%
%TF.FileFunction,Copper,L1,Top*%
%TF.FilePolarity,Positive*%
%FSLAX46Y46*%
G04 Gerber Fmt 4.6, Leading zero omitted, Abs format (unit mm)*
G04 Created by KiCad (PCBNEW (6.0.4)) date 2024-01-19 16:18:43*
%MOMM*%
%LPD*%
G01*
G04 APERTURE LIST*
%TA.AperFunction,NonConductor*%
%ADD10C,1.016000*%
%TD*%
%TA.AperFunction,NonConductor*%
%ADD11C,0.100000*%
%TD*%
%TA.AperFunction,ComponentPad*%
%ADD12R,1.800000X1.800000*%
%TD*%
%TA.AperFunction,ComponentPad*%
%ADD13C,1.800000*%
%TD*%
%TA.AperFunction,ComponentPad*%
%ADD14O,2.500000X4.000000*%
%TD*%
%TA.AperFunction,ComponentPad*%
%ADD15C,2.000000*%
%TD*%
G04 APERTURE END LIST*
D10*
X129554955Y-93517000D02*
G75*
G03*
X129554955Y-93517000I-4204955J0D01*
G01*
D11*
G36*
X127001000Y-109519000D02*
G01*
X123953000Y-109519000D01*
X124334000Y-110662000D01*
X123629867Y-110662000D01*
X120778000Y-107995000D01*
X123572000Y-107995000D01*
X121794000Y-105074000D01*
X125731000Y-105074000D01*
X127001000Y-109519000D01*
G37*
X127001000Y-109519000D02*
X123953000Y-109519000D01*
X124334000Y-110662000D01*
X123629867Y-110662000D01*
X120778000Y-107995000D01*
X123572000Y-107995000D01*
X121794000Y-105074000D01*
X125731000Y-105074000D01*
X127001000Y-109519000D01*
D10*
X108345955Y-93517000D02*
G75*
G03*
X108345955Y-93517000I-4204955J0D01*
G01*
D11*
G36*
X117035032Y-112967780D02*
G01*
X113860032Y-112967780D01*
X114495032Y-116523780D01*
X113352032Y-116523780D01*
X108526032Y-110808780D01*
X112336032Y-110808780D01*
X109796032Y-104966780D01*
X115003032Y-104966780D01*
X117035032Y-112967780D01*
G37*
X117035032Y-112967780D02*
X113860032Y-112967780D01*
X114495032Y-116523780D01*
X113352032Y-116523780D01*
X108526032Y-110808780D01*
X112336032Y-110808780D01*
X109796032Y-104966780D01*
X115003032Y-104966780D01*
X117035032Y-112967780D01*
G36*
X103583714Y-104668414D02*
G01*
X104649000Y-108630000D01*
X101347000Y-108630000D01*
X101728000Y-110535000D01*
X100839000Y-110535000D01*
X98045000Y-106471000D01*
X101220000Y-106471000D01*
X99392714Y-104541414D01*
X103583714Y-104668414D01*
G37*
X103583714Y-104668414D02*
X104649000Y-108630000D01*
X101347000Y-108630000D01*
X101728000Y-110535000D01*
X100839000Y-110535000D01*
X98045000Y-106471000D01*
X101220000Y-106471000D01*
X99392714Y-104541414D01*
X103583714Y-104668414D01*
%TO.C,*%
G36*
X93896500Y-97836500D02*
G01*
X93918500Y-97402500D01*
X93961500Y-97047500D01*
X94021500Y-96711500D01*
X94370500Y-95520500D01*
X94932500Y-94380500D01*
X95169500Y-94011500D01*
X95797500Y-93205500D01*
X96476500Y-92524500D01*
X96666500Y-92366500D01*
X96857500Y-92201500D01*
X96930500Y-92123500D01*
X96969500Y-92003500D01*
X96966500Y-91787500D01*
X96920500Y-91418500D01*
X96879500Y-91161500D01*
X96822500Y-90793500D01*
X96793500Y-90504500D01*
X96781500Y-90178500D01*
X96779500Y-89856500D01*
X96778500Y-89151500D01*
X96923500Y-88449500D01*
X97025500Y-87986500D01*
X97124500Y-87626500D01*
X97258500Y-87236500D01*
X97297500Y-87129500D01*
X97888500Y-85863500D01*
X98669500Y-84740500D01*
X99630500Y-83773500D01*
X100393500Y-83202500D01*
X100784500Y-82955500D01*
X101143500Y-82761500D01*
X101535500Y-82580500D01*
X102096500Y-82342500D01*
X102556500Y-82184500D01*
X103025500Y-82070500D01*
X103183500Y-82038500D01*
X103426500Y-81996500D01*
X103643500Y-81971500D01*
X103913500Y-81959500D01*
X104316500Y-81954500D01*
X104986500Y-81954500D01*
X105312500Y-81963500D01*
X105562500Y-81984500D01*
X105819500Y-82020500D01*
X105823500Y-82021500D01*
X106159500Y-82080500D01*
X106455500Y-82149500D01*
X106815500Y-82256500D01*
X107089500Y-82343500D01*
X107367500Y-82431500D01*
X107523500Y-82475500D01*
X107531500Y-82476500D01*
X107602500Y-82383500D01*
X107701500Y-82201500D01*
X107843500Y-81941500D01*
X108053500Y-81579500D01*
X108189500Y-81353500D01*
X109019500Y-80213500D01*
X109999500Y-79254500D01*
X111115500Y-78486500D01*
X111901500Y-78098500D01*
X112317500Y-77931500D01*
X112679500Y-77813500D01*
X113083500Y-77709500D01*
X113524500Y-77609500D01*
X113877500Y-77552500D01*
X114240500Y-77517500D01*
X114597500Y-77493500D01*
X114879500Y-77492500D01*
X115217500Y-77514500D01*
X115385500Y-77528500D01*
X115807500Y-77572500D01*
X116142500Y-77629500D01*
X116543500Y-77726500D01*
X116579500Y-77735500D01*
X117854500Y-78189500D01*
X119033500Y-78851500D01*
X120086500Y-79702500D01*
X120988500Y-80720500D01*
X121410500Y-81346500D01*
X121629500Y-81720500D01*
X121812500Y-82057500D01*
X121875500Y-82183500D01*
X121984500Y-82398500D01*
X122040500Y-82476500D01*
X122163500Y-82442500D01*
X122417500Y-82359500D01*
X122430500Y-82355500D01*
X123345500Y-82108500D01*
X124124500Y-81979500D01*
X124482500Y-81949500D01*
X124866500Y-81939500D01*
X125324500Y-81945500D01*
X125857500Y-81965500D01*
X126257500Y-82005500D01*
X126631500Y-82085500D01*
X127085500Y-82222500D01*
X127231500Y-82269500D01*
X128504500Y-82807500D01*
X129638500Y-83540500D01*
X130525500Y-84343500D01*
X131030500Y-84929500D01*
X131502500Y-85574500D01*
X131814500Y-86082500D01*
X132037500Y-86535500D01*
X132278500Y-87091500D01*
X132449500Y-87531500D01*
X132689500Y-88482500D01*
X132787500Y-89612500D01*
X132784500Y-90214500D01*
X132761500Y-90611500D01*
X132722500Y-91020500D01*
X132677500Y-91361500D01*
X132635500Y-91554500D01*
X132630500Y-91565500D01*
X132602500Y-91684500D01*
X132585500Y-91787500D01*
X132570500Y-91992500D01*
X132591500Y-92058500D01*
X132703500Y-92176500D01*
X132920500Y-92362500D01*
X132929500Y-92369500D01*
X133608500Y-93006500D01*
X134269500Y-93786500D01*
X134595500Y-94245500D01*
X134894500Y-94762500D01*
X134921500Y-94812500D01*
X135271500Y-95575500D01*
X135501500Y-96348500D01*
X135624500Y-97192500D01*
X135650500Y-98170500D01*
X135632500Y-98691500D01*
X135460500Y-99942500D01*
X135065500Y-101112500D01*
X134445500Y-102212500D01*
X133654500Y-103187500D01*
X133060500Y-103754500D01*
X132403500Y-104238500D01*
X131629500Y-104673500D01*
X130686500Y-105092500D01*
X130405500Y-105202500D01*
X129959500Y-105375500D01*
X115768500Y-105381500D01*
X113937500Y-105382500D01*
X112169500Y-105383500D01*
X104810500Y-105383500D01*
X103741500Y-105382500D01*
X102842500Y-105382500D01*
X102128500Y-105381500D01*
X101615500Y-105380500D01*
X101317500Y-105379500D01*
X101248500Y-105378500D01*
X100667500Y-105354500D01*
X100144500Y-105321500D01*
X99751500Y-105285500D01*
X99613500Y-105265500D01*
X99373500Y-105201500D01*
X99010500Y-105085500D01*
X98791500Y-105009500D01*
X97576500Y-104454500D01*
X96506500Y-103712500D01*
X95596500Y-102798500D01*
X94859500Y-101723500D01*
X94479500Y-100945500D01*
X94321500Y-100551500D01*
X94212500Y-100217500D01*
X94108500Y-99803500D01*
X94094500Y-99745500D01*
X93968500Y-99140500D01*
X93904500Y-98640500D01*
X93894500Y-98285500D01*
X95327500Y-98285500D01*
X95341500Y-98561500D01*
X95385500Y-98894500D01*
X95398500Y-98973500D01*
X95610500Y-99871500D01*
X95975500Y-100727500D01*
X96117500Y-100987500D01*
X96343500Y-101373500D01*
X96529500Y-101647500D01*
X96746500Y-101907500D01*
X96973500Y-102153500D01*
X97833500Y-102897500D01*
X98835500Y-103451500D01*
X99768500Y-103767500D01*
X100318500Y-103909500D01*
X101218500Y-103929500D01*
X101456500Y-103931500D01*
X101917500Y-103934500D01*
X102586500Y-103936500D01*
X103445500Y-103937500D01*
X104479500Y-103939500D01*
X105672500Y-103940500D01*
X107005500Y-103941500D01*
X108465500Y-103942500D01*
X113431500Y-103942500D01*
X115228500Y-103941500D01*
X115828500Y-103941500D01*
X129539500Y-103933500D01*
X129899500Y-103810500D01*
X130247500Y-103678500D01*
X130654500Y-103508500D01*
X130739500Y-103471500D01*
X131761500Y-102882500D01*
X132653500Y-102102500D01*
X133282500Y-101315500D01*
X133470500Y-101022500D01*
X133604500Y-100771500D01*
X133741500Y-100449500D01*
X133802500Y-100295500D01*
X133953500Y-99887500D01*
X134049500Y-99565500D01*
X134130500Y-99192500D01*
X134131500Y-99187500D01*
X134194500Y-98840500D01*
X134224500Y-98571500D01*
X134233500Y-98248500D01*
X134234500Y-98076500D01*
X134230500Y-97701500D01*
X134211500Y-97435500D01*
X134164500Y-97148500D01*
X134127500Y-96960500D01*
X134039500Y-96563500D01*
X133937500Y-96238500D01*
X133811500Y-95915500D01*
X133654500Y-95556500D01*
X133510500Y-95267500D01*
X133471500Y-95200500D01*
X133160500Y-94773500D01*
X132732500Y-94265500D01*
X132252500Y-93752500D01*
X132239500Y-93739500D01*
X131893500Y-93399500D01*
X131653500Y-93193500D01*
X131463500Y-93075500D01*
X131331500Y-93023500D01*
X131128500Y-92922500D01*
X130911500Y-92775500D01*
X130793500Y-92658500D01*
X130815500Y-92528500D01*
X130884500Y-92295500D01*
X131172500Y-91312500D01*
X131333500Y-90483500D01*
X131374500Y-89764500D01*
X131354500Y-89451500D01*
X131307500Y-89127500D01*
X131230500Y-88711500D01*
X131200500Y-88566500D01*
X130844500Y-87402500D01*
X130301500Y-86370500D01*
X129555500Y-85443500D01*
X128767500Y-84734500D01*
X128388500Y-84452500D01*
X128018500Y-84226500D01*
X127822500Y-84120500D01*
X127441500Y-83929500D01*
X127109500Y-83797500D01*
X126779500Y-83691500D01*
X126407500Y-83584500D01*
X126108500Y-83521500D01*
X125738500Y-83473500D01*
X125654500Y-83463500D01*
X125265500Y-83425500D01*
X124980500Y-83414500D01*
X124666500Y-83427500D01*
X124559500Y-83434500D01*
X124039500Y-83486500D01*
X123559500Y-83581500D01*
X123054500Y-83738500D01*
X122456500Y-83978500D01*
X121909500Y-84222500D01*
X121587500Y-84364500D01*
X121362500Y-84452500D01*
X121311500Y-84466500D01*
X121214500Y-84421500D01*
X121105500Y-84238500D01*
X120984500Y-83946500D01*
X120700500Y-83240500D01*
X120460500Y-82702500D01*
X120235500Y-82271500D01*
X120086500Y-82022500D01*
X119324500Y-81022500D01*
X118422500Y-80211500D01*
X117773500Y-79790500D01*
X116724500Y-79309500D01*
X115628500Y-79043500D01*
X114913500Y-78979500D01*
X114560500Y-78971500D01*
X114280500Y-78987500D01*
X113922500Y-79037500D01*
X113908500Y-79039500D01*
X112744500Y-79337500D01*
X111670500Y-79857500D01*
X110923500Y-80392500D01*
X110544500Y-80718500D01*
X110251500Y-81011500D01*
X109937500Y-81380500D01*
X109899500Y-81426500D01*
X109313500Y-82309500D01*
X108814500Y-83401500D01*
X108600500Y-84016500D01*
X108504500Y-84319500D01*
X108440500Y-84514500D01*
X108432500Y-84534500D01*
X108404500Y-84607500D01*
X107871500Y-84341500D01*
X107131500Y-83987500D01*
X106529500Y-83740500D01*
X105999500Y-83578500D01*
X105478500Y-83476500D01*
X105420500Y-83468500D01*
X105041500Y-83423500D01*
X104717500Y-83410500D01*
X104338500Y-83426500D01*
X104008500Y-83453500D01*
X102852500Y-83666500D01*
X101793500Y-84097500D01*
X101008500Y-84600500D01*
X100649500Y-84876500D01*
X100404500Y-85082500D01*
X100192500Y-85293500D01*
X99935500Y-85583500D01*
X99857500Y-85674500D01*
X99557500Y-86033500D01*
X99340500Y-86333500D01*
X99122500Y-86686500D01*
X99120500Y-86689500D01*
X98652500Y-87644500D01*
X98368500Y-88629500D01*
X98349500Y-88731500D01*
X98294500Y-89057500D01*
X98267500Y-89314500D01*
X98260500Y-89623500D01*
X98262500Y-89871500D01*
X98268500Y-90258500D01*
X98286500Y-90525500D01*
X98329500Y-90792500D01*
X98383500Y-91056500D01*
X98489500Y-91520500D01*
X98609500Y-91982500D01*
X98638500Y-92083500D01*
X98723500Y-92394500D01*
X98767500Y-92595500D01*
X98768500Y-92621500D01*
X98660500Y-92755500D01*
X98563500Y-92831500D01*
X98060500Y-93202500D01*
X97708500Y-93467500D01*
X97461500Y-93662500D01*
X97278500Y-93820500D01*
X97114500Y-93979500D01*
X96980500Y-94118500D01*
X96242500Y-95049500D01*
X95713500Y-96081500D01*
X95460500Y-96913500D01*
X95387500Y-97283500D01*
X95351500Y-97617500D01*
X95336500Y-97918500D01*
X95327500Y-98285500D01*
X93894500Y-98285500D01*
X93889500Y-98122500D01*
X93896500Y-97836500D01*
G37*
G36*
X104551500Y-84610500D02*
G01*
X104833500Y-84782500D01*
X105260500Y-85046500D01*
X105802500Y-85385500D01*
X106432500Y-85779500D01*
X107120500Y-86211500D01*
X107838500Y-86662500D01*
X108556500Y-87116500D01*
X109247500Y-87552500D01*
X109881500Y-87954500D01*
X110429500Y-88303500D01*
X110863500Y-88581500D01*
X111154500Y-88770500D01*
X111273500Y-88852500D01*
X111274500Y-88853500D01*
X111207500Y-88951500D01*
X111022500Y-89177500D01*
X110763500Y-89483500D01*
X110472500Y-89819500D01*
X110194500Y-90135500D01*
X109970500Y-90381500D01*
X109845500Y-90507500D01*
X109833500Y-90515500D01*
X109727500Y-90453500D01*
X109441500Y-90277500D01*
X108997500Y-90001500D01*
X108418500Y-89639500D01*
X107726500Y-89205500D01*
X106943500Y-88714500D01*
X106093500Y-88179500D01*
X106026500Y-88137500D01*
X104896500Y-87424500D01*
X103969500Y-86836500D01*
X103243500Y-86372500D01*
X102718500Y-86033500D01*
X102392500Y-85815500D01*
X102264500Y-85720500D01*
X102262500Y-85716500D01*
X102362500Y-85647500D01*
X102622500Y-85498500D01*
X102985500Y-85297500D01*
X103397500Y-85075500D01*
X103803500Y-84860500D01*
X104149500Y-84682500D01*
X104380500Y-84571500D01*
X104442500Y-84548500D01*
X104551500Y-84610500D01*
G37*
G36*
X125606500Y-84541500D02*
G01*
X125844500Y-84668500D01*
X126218500Y-84865500D01*
X126651500Y-85094500D01*
X126697500Y-85118500D01*
X127167500Y-85372500D01*
X127432500Y-85528500D01*
X127507500Y-85594500D01*
X127408500Y-85663500D01*
X127134500Y-85843500D01*
X126711500Y-86115500D01*
X126166500Y-86464500D01*
X125527500Y-86872500D01*
X124820500Y-87321500D01*
X124074500Y-87795500D01*
X123315500Y-88276500D01*
X122570500Y-88747500D01*
X121867500Y-89190500D01*
X121233500Y-89589500D01*
X120695500Y-89926500D01*
X120280500Y-90185500D01*
X120015500Y-90347500D01*
X119928500Y-90396500D01*
X119846500Y-90312500D01*
X119643500Y-90088500D01*
X119356500Y-89763500D01*
X119203500Y-89587500D01*
X118891500Y-89225500D01*
X118650500Y-88938500D01*
X118515500Y-88768500D01*
X118499500Y-88741500D01*
X118596500Y-88671500D01*
X118874500Y-88489500D01*
X119308500Y-88208500D01*
X119874500Y-87845500D01*
X120550500Y-87415500D01*
X121312500Y-86932500D01*
X121916500Y-86551500D01*
X125334500Y-84396500D01*
X125606500Y-84541500D01*
G37*
G36*
X118462500Y-99010500D02*
G01*
X118445500Y-99316500D01*
X118288500Y-100096500D01*
X117929500Y-100786500D01*
X117399500Y-101355500D01*
X116729500Y-101768500D01*
X115951500Y-101995500D01*
X115874500Y-102005500D01*
X115607500Y-102030500D01*
X115372500Y-102020500D01*
X115240500Y-102005500D01*
X114463500Y-101800500D01*
X113780500Y-101394500D01*
X113229500Y-100823500D01*
X112852500Y-100118500D01*
X112802500Y-99967500D01*
X112728500Y-99646500D01*
X112681500Y-99308500D01*
X112677500Y-99073500D01*
X112679500Y-99062500D01*
X112771500Y-98907500D01*
X112852500Y-98826500D01*
X118278500Y-98826500D01*
X118462500Y-99010500D01*
G37*
%TD*%
D12*
%TO.P,D1,1,K*%
%TO.N,GND*%
X101219991Y-112054005D03*
D13*
%TO.P,D1,2,A*%
%TO.N,/LED+*%
X101219991Y-114594005D03*
%TD*%
D12*
%TO.P,D2,1,K*%
%TO.N,GND*%
X113920000Y-118150000D03*
D13*
%TO.P,D2,2,A*%
%TO.N,/LED+*%
X113920000Y-120690000D03*
%TD*%
D12*
%TO.P,D3,1,K*%
%TO.N,GND*%
X123826000Y-112181000D03*
D13*
%TO.P,D3,2,A*%
%TO.N,/LED+*%
X123826000Y-114721000D03*
%TD*%
D14*
%TO.P,BT1,1,+*%
%TO.N,VCC*%
X125476000Y-93345000D03*
X104394000Y-93345000D03*
%TD*%
D15*
%TO.P,SW1,1,A*%
%TO.N,unconnected-(SW1-Pad1)*%
X132905459Y-106336620D03*
%TO.P,SW1,2,B*%
%TO.N,VCC*%
X131543487Y-109009639D03*
%TO.P,SW1,3,C*%
%TO.N,/LED+*%
X130181516Y-111682659D03*
%TD*%
M02*
