%TF.GenerationSoftware,KiCad,Pcbnew,(6.0.4)*%
%TF.CreationDate,2024-01-19T16:18:43-08:00*%
%TF.ProjectId,StormCloud,53746f72-6d43-46c6-9f75-642e6b696361,rev?*%
%TF.SameCoordinates,Original*%
%TF.FileFunction,Other,Comment*%
%FSLAX46Y46*%
G04 Gerber Fmt 4.6, Leading zero omitted, Abs format (unit mm)*
G04 Created by KiCad (PCBNEW (6.0.4)) date 2024-01-19 16:18:43*
%MOMM*%
%LPD*%
G01*
G04 APERTURE LIST*
%ADD10C,0.200000*%
G04 APERTURE END LIST*
D10*
X162499428Y-74015000D02*
X163928000Y-74015000D01*
X162213714Y-74872142D02*
X163213714Y-71872142D01*
X164213714Y-74872142D01*
X165213714Y-72872142D02*
X165213714Y-74872142D01*
X165213714Y-73157857D02*
X165356571Y-73015000D01*
X165642285Y-72872142D01*
X166070857Y-72872142D01*
X166356571Y-73015000D01*
X166499428Y-73300714D01*
X166499428Y-74872142D01*
X169213714Y-72872142D02*
X169213714Y-75300714D01*
X169070857Y-75586428D01*
X168928000Y-75729285D01*
X168642285Y-75872142D01*
X168213714Y-75872142D01*
X167928000Y-75729285D01*
X169213714Y-74729285D02*
X168928000Y-74872142D01*
X168356571Y-74872142D01*
X168070857Y-74729285D01*
X167928000Y-74586428D01*
X167785142Y-74300714D01*
X167785142Y-73443571D01*
X167928000Y-73157857D01*
X168070857Y-73015000D01*
X168356571Y-72872142D01*
X168928000Y-72872142D01*
X169213714Y-73015000D01*
X170642285Y-74872142D02*
X170642285Y-72872142D01*
X170642285Y-73443571D02*
X170785142Y-73157857D01*
X170928000Y-73015000D01*
X171213714Y-72872142D01*
X171499428Y-72872142D01*
X172213714Y-72872142D02*
X172928000Y-74872142D01*
X173642285Y-72872142D02*
X172928000Y-74872142D01*
X172642285Y-75586428D01*
X172499428Y-75729285D01*
X172213714Y-75872142D01*
X176928000Y-74729285D02*
X177356571Y-74872142D01*
X178070857Y-74872142D01*
X178356571Y-74729285D01*
X178499428Y-74586428D01*
X178642285Y-74300714D01*
X178642285Y-74015000D01*
X178499428Y-73729285D01*
X178356571Y-73586428D01*
X178070857Y-73443571D01*
X177499428Y-73300714D01*
X177213714Y-73157857D01*
X177070857Y-73015000D01*
X176928000Y-72729285D01*
X176928000Y-72443571D01*
X177070857Y-72157857D01*
X177213714Y-72015000D01*
X177499428Y-71872142D01*
X178213714Y-71872142D01*
X178642285Y-72015000D01*
X179499428Y-72872142D02*
X180642285Y-72872142D01*
X179928000Y-71872142D02*
X179928000Y-74443571D01*
X180070857Y-74729285D01*
X180356571Y-74872142D01*
X180642285Y-74872142D01*
X182070857Y-74872142D02*
X181785142Y-74729285D01*
X181642285Y-74586428D01*
X181499428Y-74300714D01*
X181499428Y-73443571D01*
X181642285Y-73157857D01*
X181785142Y-73015000D01*
X182070857Y-72872142D01*
X182499428Y-72872142D01*
X182785142Y-73015000D01*
X182928000Y-73157857D01*
X183070857Y-73443571D01*
X183070857Y-74300714D01*
X182928000Y-74586428D01*
X182785142Y-74729285D01*
X182499428Y-74872142D01*
X182070857Y-74872142D01*
X184356571Y-74872142D02*
X184356571Y-72872142D01*
X184356571Y-73443571D02*
X184499428Y-73157857D01*
X184642285Y-73015000D01*
X184928000Y-72872142D01*
X185213714Y-72872142D01*
X186213714Y-74872142D02*
X186213714Y-72872142D01*
X186213714Y-73157857D02*
X186356571Y-73015000D01*
X186642285Y-72872142D01*
X187070857Y-72872142D01*
X187356571Y-73015000D01*
X187499428Y-73300714D01*
X187499428Y-74872142D01*
X187499428Y-73300714D02*
X187642285Y-73015000D01*
X187928000Y-72872142D01*
X188356571Y-72872142D01*
X188642285Y-73015000D01*
X188785142Y-73300714D01*
X188785142Y-74872142D01*
X194213714Y-74586428D02*
X194070857Y-74729285D01*
X193642285Y-74872142D01*
X193356571Y-74872142D01*
X192928000Y-74729285D01*
X192642285Y-74443571D01*
X192499428Y-74157857D01*
X192356571Y-73586428D01*
X192356571Y-73157857D01*
X192499428Y-72586428D01*
X192642285Y-72300714D01*
X192928000Y-72015000D01*
X193356571Y-71872142D01*
X193642285Y-71872142D01*
X194070857Y-72015000D01*
X194213714Y-72157857D01*
X195928000Y-74872142D02*
X195642285Y-74729285D01*
X195499428Y-74443571D01*
X195499428Y-71872142D01*
X197499428Y-74872142D02*
X197213714Y-74729285D01*
X197070857Y-74586428D01*
X196928000Y-74300714D01*
X196928000Y-73443571D01*
X197070857Y-73157857D01*
X197213714Y-73015000D01*
X197499428Y-72872142D01*
X197928000Y-72872142D01*
X198213714Y-73015000D01*
X198356571Y-73157857D01*
X198499428Y-73443571D01*
X198499428Y-74300714D01*
X198356571Y-74586428D01*
X198213714Y-74729285D01*
X197928000Y-74872142D01*
X197499428Y-74872142D01*
X201070857Y-72872142D02*
X201070857Y-74872142D01*
X199785142Y-72872142D02*
X199785142Y-74443571D01*
X199928000Y-74729285D01*
X200213714Y-74872142D01*
X200642285Y-74872142D01*
X200928000Y-74729285D01*
X201070857Y-74586428D01*
X203785142Y-74872142D02*
X203785142Y-71872142D01*
X203785142Y-74729285D02*
X203499428Y-74872142D01*
X202928000Y-74872142D01*
X202642285Y-74729285D01*
X202499428Y-74586428D01*
X202356571Y-74300714D01*
X202356571Y-73443571D01*
X202499428Y-73157857D01*
X202642285Y-73015000D01*
X202928000Y-72872142D01*
X203499428Y-72872142D01*
X203785142Y-73015000D01*
X164356571Y-79702142D02*
X163356571Y-78273571D01*
X162642285Y-79702142D02*
X162642285Y-76702142D01*
X163785142Y-76702142D01*
X164070857Y-76845000D01*
X164213714Y-76987857D01*
X164356571Y-77273571D01*
X164356571Y-77702142D01*
X164213714Y-77987857D01*
X164070857Y-78130714D01*
X163785142Y-78273571D01*
X162642285Y-78273571D01*
X166785142Y-79559285D02*
X166499428Y-79702142D01*
X165928000Y-79702142D01*
X165642285Y-79559285D01*
X165499428Y-79273571D01*
X165499428Y-78130714D01*
X165642285Y-77845000D01*
X165928000Y-77702142D01*
X166499428Y-77702142D01*
X166785142Y-77845000D01*
X166928000Y-78130714D01*
X166928000Y-78416428D01*
X165499428Y-78702142D01*
X167928000Y-77702142D02*
X168642285Y-79702142D01*
X169356571Y-77702142D01*
X172499428Y-76702142D02*
X174356571Y-76702142D01*
X173356571Y-77845000D01*
X173785142Y-77845000D01*
X174070857Y-77987857D01*
X174213714Y-78130714D01*
X174356571Y-78416428D01*
X174356571Y-79130714D01*
X174213714Y-79416428D01*
X174070857Y-79559285D01*
X173785142Y-79702142D01*
X172928000Y-79702142D01*
X172642285Y-79559285D01*
X172499428Y-79416428D01*
X175642285Y-79416428D02*
X175785142Y-79559285D01*
X175642285Y-79702142D01*
X175499428Y-79559285D01*
X175642285Y-79416428D01*
X175642285Y-79702142D01*
X177642285Y-76702142D02*
X177928000Y-76702142D01*
X178213714Y-76845000D01*
X178356571Y-76987857D01*
X178499428Y-77273571D01*
X178642285Y-77845000D01*
X178642285Y-78559285D01*
X178499428Y-79130714D01*
X178356571Y-79416428D01*
X178213714Y-79559285D01*
X177928000Y-79702142D01*
X177642285Y-79702142D01*
X177356571Y-79559285D01*
X177213714Y-79416428D01*
X177070857Y-79130714D01*
X176928000Y-78559285D01*
X176928000Y-77845000D01*
X177070857Y-77273571D01*
X177213714Y-76987857D01*
X177356571Y-76845000D01*
X177642285Y-76702142D01*
X162642285Y-89362142D02*
X162642285Y-86362142D01*
X163785142Y-86362142D01*
X164070857Y-86505000D01*
X164213714Y-86647857D01*
X164356571Y-86933571D01*
X164356571Y-87362142D01*
X164213714Y-87647857D01*
X164070857Y-87790714D01*
X163785142Y-87933571D01*
X162642285Y-87933571D01*
X167356571Y-89076428D02*
X167213714Y-89219285D01*
X166785142Y-89362142D01*
X166499428Y-89362142D01*
X166070857Y-89219285D01*
X165785142Y-88933571D01*
X165642285Y-88647857D01*
X165499428Y-88076428D01*
X165499428Y-87647857D01*
X165642285Y-87076428D01*
X165785142Y-86790714D01*
X166070857Y-86505000D01*
X166499428Y-86362142D01*
X166785142Y-86362142D01*
X167213714Y-86505000D01*
X167356571Y-86647857D01*
X169642285Y-87790714D02*
X170070857Y-87933571D01*
X170213714Y-88076428D01*
X170356571Y-88362142D01*
X170356571Y-88790714D01*
X170213714Y-89076428D01*
X170070857Y-89219285D01*
X169785142Y-89362142D01*
X168642285Y-89362142D01*
X168642285Y-86362142D01*
X169642285Y-86362142D01*
X169928000Y-86505000D01*
X170070857Y-86647857D01*
X170213714Y-86933571D01*
X170213714Y-87219285D01*
X170070857Y-87505000D01*
X169928000Y-87647857D01*
X169642285Y-87790714D01*
X168642285Y-87790714D01*
X173785142Y-89219285D02*
X174213714Y-89362142D01*
X174928000Y-89362142D01*
X175213714Y-89219285D01*
X175356571Y-89076428D01*
X175499428Y-88790714D01*
X175499428Y-88505000D01*
X175356571Y-88219285D01*
X175213714Y-88076428D01*
X174928000Y-87933571D01*
X174356571Y-87790714D01*
X174070857Y-87647857D01*
X173928000Y-87505000D01*
X173785142Y-87219285D01*
X173785142Y-86933571D01*
X173928000Y-86647857D01*
X174070857Y-86505000D01*
X174356571Y-86362142D01*
X175070857Y-86362142D01*
X175499428Y-86505000D01*
X176785142Y-87362142D02*
X176785142Y-90362142D01*
X176785142Y-87505000D02*
X177070857Y-87362142D01*
X177642285Y-87362142D01*
X177928000Y-87505000D01*
X178070857Y-87647857D01*
X178213714Y-87933571D01*
X178213714Y-88790714D01*
X178070857Y-89076428D01*
X177928000Y-89219285D01*
X177642285Y-89362142D01*
X177070857Y-89362142D01*
X176785142Y-89219285D01*
X180642285Y-89219285D02*
X180356571Y-89362142D01*
X179785142Y-89362142D01*
X179499428Y-89219285D01*
X179356571Y-88933571D01*
X179356571Y-87790714D01*
X179499428Y-87505000D01*
X179785142Y-87362142D01*
X180356571Y-87362142D01*
X180642285Y-87505000D01*
X180785142Y-87790714D01*
X180785142Y-88076428D01*
X179356571Y-88362142D01*
X183356571Y-89219285D02*
X183070857Y-89362142D01*
X182499428Y-89362142D01*
X182213714Y-89219285D01*
X182070857Y-89076428D01*
X181928000Y-88790714D01*
X181928000Y-87933571D01*
X182070857Y-87647857D01*
X182213714Y-87505000D01*
X182499428Y-87362142D01*
X183070857Y-87362142D01*
X183356571Y-87505000D01*
X184642285Y-89362142D02*
X184642285Y-87362142D01*
X184642285Y-86362142D02*
X184499428Y-86505000D01*
X184642285Y-86647857D01*
X184785142Y-86505000D01*
X184642285Y-86362142D01*
X184642285Y-86647857D01*
X185642285Y-87362142D02*
X186785142Y-87362142D01*
X186070857Y-89362142D02*
X186070857Y-86790714D01*
X186213714Y-86505000D01*
X186499428Y-86362142D01*
X186785142Y-86362142D01*
X187785142Y-89362142D02*
X187785142Y-87362142D01*
X187785142Y-86362142D02*
X187642285Y-86505000D01*
X187785142Y-86647857D01*
X187928000Y-86505000D01*
X187785142Y-86362142D01*
X187785142Y-86647857D01*
X190499428Y-89219285D02*
X190213714Y-89362142D01*
X189642285Y-89362142D01*
X189356571Y-89219285D01*
X189213714Y-89076428D01*
X189070857Y-88790714D01*
X189070857Y-87933571D01*
X189213714Y-87647857D01*
X189356571Y-87505000D01*
X189642285Y-87362142D01*
X190213714Y-87362142D01*
X190499428Y-87505000D01*
X193070857Y-89362142D02*
X193070857Y-87790714D01*
X192928000Y-87505000D01*
X192642285Y-87362142D01*
X192070857Y-87362142D01*
X191785142Y-87505000D01*
X193070857Y-89219285D02*
X192785142Y-89362142D01*
X192070857Y-89362142D01*
X191785142Y-89219285D01*
X191642285Y-88933571D01*
X191642285Y-88647857D01*
X191785142Y-88362142D01*
X192070857Y-88219285D01*
X192785142Y-88219285D01*
X193070857Y-88076428D01*
X194070857Y-87362142D02*
X195213714Y-87362142D01*
X194499428Y-86362142D02*
X194499428Y-88933571D01*
X194642285Y-89219285D01*
X194928000Y-89362142D01*
X195213714Y-89362142D01*
X196213714Y-89362142D02*
X196213714Y-87362142D01*
X196213714Y-86362142D02*
X196070857Y-86505000D01*
X196213714Y-86647857D01*
X196356571Y-86505000D01*
X196213714Y-86362142D01*
X196213714Y-86647857D01*
X198070857Y-89362142D02*
X197785142Y-89219285D01*
X197642285Y-89076428D01*
X197499428Y-88790714D01*
X197499428Y-87933571D01*
X197642285Y-87647857D01*
X197785142Y-87505000D01*
X198070857Y-87362142D01*
X198499428Y-87362142D01*
X198785142Y-87505000D01*
X198928000Y-87647857D01*
X199070857Y-87933571D01*
X199070857Y-88790714D01*
X198928000Y-89076428D01*
X198785142Y-89219285D01*
X198499428Y-89362142D01*
X198070857Y-89362142D01*
X200356571Y-87362142D02*
X200356571Y-89362142D01*
X200356571Y-87647857D02*
X200499428Y-87505000D01*
X200785142Y-87362142D01*
X201213714Y-87362142D01*
X201499428Y-87505000D01*
X201642285Y-87790714D01*
X201642285Y-89362142D01*
X202928000Y-89219285D02*
X203213714Y-89362142D01*
X203785142Y-89362142D01*
X204070857Y-89219285D01*
X204213714Y-88933571D01*
X204213714Y-88790714D01*
X204070857Y-88505000D01*
X203785142Y-88362142D01*
X203356571Y-88362142D01*
X203070857Y-88219285D01*
X202928000Y-87933571D01*
X202928000Y-87790714D01*
X203070857Y-87505000D01*
X203356571Y-87362142D01*
X203785142Y-87362142D01*
X204070857Y-87505000D01*
X205499428Y-89076428D02*
X205642285Y-89219285D01*
X205499428Y-89362142D01*
X205356571Y-89219285D01*
X205499428Y-89076428D01*
X205499428Y-89362142D01*
X205499428Y-87505000D02*
X205642285Y-87647857D01*
X205499428Y-87790714D01*
X205356571Y-87647857D01*
X205499428Y-87505000D01*
X205499428Y-87790714D01*
X164213714Y-94192142D02*
X162499428Y-94192142D01*
X163356571Y-94192142D02*
X163356571Y-91192142D01*
X163070857Y-91620714D01*
X162785142Y-91906428D01*
X162499428Y-92049285D01*
X165499428Y-93906428D02*
X165642285Y-94049285D01*
X165499428Y-94192142D01*
X165356571Y-94049285D01*
X165499428Y-93906428D01*
X165499428Y-94192142D01*
X170785142Y-94192142D02*
X169070857Y-94192142D01*
X169928000Y-94192142D02*
X169928000Y-91192142D01*
X169642285Y-91620714D01*
X169356571Y-91906428D01*
X169070857Y-92049285D01*
X174785142Y-94192142D02*
X174499428Y-94049285D01*
X174356571Y-93906428D01*
X174213714Y-93620714D01*
X174213714Y-92763571D01*
X174356571Y-92477857D01*
X174499428Y-92335000D01*
X174785142Y-92192142D01*
X175213714Y-92192142D01*
X175499428Y-92335000D01*
X175642285Y-92477857D01*
X175785142Y-92763571D01*
X175785142Y-93620714D01*
X175642285Y-93906428D01*
X175499428Y-94049285D01*
X175213714Y-94192142D01*
X174785142Y-94192142D01*
X176785142Y-92192142D02*
X178356571Y-92192142D01*
X176785142Y-94192142D01*
X178356571Y-94192142D01*
X183499428Y-93906428D02*
X183356571Y-94049285D01*
X182928000Y-94192142D01*
X182642285Y-94192142D01*
X182213714Y-94049285D01*
X181928000Y-93763571D01*
X181785142Y-93477857D01*
X181642285Y-92906428D01*
X181642285Y-92477857D01*
X181785142Y-91906428D01*
X181928000Y-91620714D01*
X182213714Y-91335000D01*
X182642285Y-91192142D01*
X182928000Y-91192142D01*
X183356571Y-91335000D01*
X183499428Y-91477857D01*
X186070857Y-92192142D02*
X186070857Y-94192142D01*
X184785142Y-92192142D02*
X184785142Y-93763571D01*
X184928000Y-94049285D01*
X185213714Y-94192142D01*
X185642285Y-94192142D01*
X185928000Y-94049285D01*
X186070857Y-93906428D01*
X187642285Y-94049285D02*
X187642285Y-94192142D01*
X187499428Y-94477857D01*
X187356571Y-94620714D01*
X192213714Y-92620714D02*
X191213714Y-92620714D01*
X191213714Y-94192142D02*
X191213714Y-91192142D01*
X192642285Y-91192142D01*
X195499428Y-94192142D02*
X194499428Y-92763571D01*
X193785142Y-94192142D02*
X193785142Y-91192142D01*
X194928000Y-91192142D01*
X195213714Y-91335000D01*
X195356571Y-91477857D01*
X195499428Y-91763571D01*
X195499428Y-92192142D01*
X195356571Y-92477857D01*
X195213714Y-92620714D01*
X194928000Y-92763571D01*
X193785142Y-92763571D01*
X196785142Y-93049285D02*
X199070857Y-93049285D01*
X201785142Y-92192142D02*
X201785142Y-94192142D01*
X201070857Y-91049285D02*
X200356571Y-93192142D01*
X202213714Y-93192142D01*
X162499428Y-96307857D02*
X162642285Y-96165000D01*
X162928000Y-96022142D01*
X163642285Y-96022142D01*
X163928000Y-96165000D01*
X164070857Y-96307857D01*
X164213714Y-96593571D01*
X164213714Y-96879285D01*
X164070857Y-97307857D01*
X162356571Y-99022142D01*
X164213714Y-99022142D01*
X165499428Y-98736428D02*
X165642285Y-98879285D01*
X165499428Y-99022142D01*
X165356571Y-98879285D01*
X165499428Y-98736428D01*
X165499428Y-99022142D01*
X169070857Y-96307857D02*
X169213714Y-96165000D01*
X169499428Y-96022142D01*
X170213714Y-96022142D01*
X170499428Y-96165000D01*
X170642285Y-96307857D01*
X170785142Y-96593571D01*
X170785142Y-96879285D01*
X170642285Y-97307857D01*
X168928000Y-99022142D01*
X170785142Y-99022142D01*
X174785142Y-99022142D02*
X174499428Y-98879285D01*
X174356571Y-98593571D01*
X174356571Y-96022142D01*
X177213714Y-99022142D02*
X177213714Y-97450714D01*
X177070857Y-97165000D01*
X176785142Y-97022142D01*
X176213714Y-97022142D01*
X175928000Y-97165000D01*
X177213714Y-98879285D02*
X176928000Y-99022142D01*
X176213714Y-99022142D01*
X175928000Y-98879285D01*
X175785142Y-98593571D01*
X175785142Y-98307857D01*
X175928000Y-98022142D01*
X176213714Y-97879285D01*
X176928000Y-97879285D01*
X177213714Y-97736428D01*
X178356571Y-97022142D02*
X179070857Y-99022142D01*
X179785142Y-97022142D02*
X179070857Y-99022142D01*
X178785142Y-99736428D01*
X178642285Y-99879285D01*
X178356571Y-100022142D01*
X182070857Y-98879285D02*
X181785142Y-99022142D01*
X181213714Y-99022142D01*
X180928000Y-98879285D01*
X180785142Y-98593571D01*
X180785142Y-97450714D01*
X180928000Y-97165000D01*
X181213714Y-97022142D01*
X181785142Y-97022142D01*
X182070857Y-97165000D01*
X182213714Y-97450714D01*
X182213714Y-97736428D01*
X180785142Y-98022142D01*
X183499428Y-99022142D02*
X183499428Y-97022142D01*
X183499428Y-97593571D02*
X183642285Y-97307857D01*
X183785142Y-97165000D01*
X184070857Y-97022142D01*
X184356571Y-97022142D01*
X185213714Y-98879285D02*
X185499428Y-99022142D01*
X186070857Y-99022142D01*
X186356571Y-98879285D01*
X186499428Y-98593571D01*
X186499428Y-98450714D01*
X186356571Y-98165000D01*
X186070857Y-98022142D01*
X185642285Y-98022142D01*
X185356571Y-97879285D01*
X185213714Y-97593571D01*
X185213714Y-97450714D01*
X185356571Y-97165000D01*
X185642285Y-97022142D01*
X186070857Y-97022142D01*
X186356571Y-97165000D01*
X162356571Y-100852142D02*
X164213714Y-100852142D01*
X163213714Y-101995000D01*
X163642285Y-101995000D01*
X163928000Y-102137857D01*
X164070857Y-102280714D01*
X164213714Y-102566428D01*
X164213714Y-103280714D01*
X164070857Y-103566428D01*
X163928000Y-103709285D01*
X163642285Y-103852142D01*
X162785142Y-103852142D01*
X162499428Y-103709285D01*
X162356571Y-103566428D01*
X165499428Y-103566428D02*
X165642285Y-103709285D01*
X165499428Y-103852142D01*
X165356571Y-103709285D01*
X165499428Y-103566428D01*
X165499428Y-103852142D01*
X169785142Y-100852142D02*
X170070857Y-100852142D01*
X170356571Y-100995000D01*
X170499428Y-101137857D01*
X170642285Y-101423571D01*
X170785142Y-101995000D01*
X170785142Y-102709285D01*
X170642285Y-103280714D01*
X170499428Y-103566428D01*
X170356571Y-103709285D01*
X170070857Y-103852142D01*
X169785142Y-103852142D01*
X169499428Y-103709285D01*
X169356571Y-103566428D01*
X169213714Y-103280714D01*
X169070857Y-102709285D01*
X169070857Y-101995000D01*
X169213714Y-101423571D01*
X169356571Y-101137857D01*
X169499428Y-100995000D01*
X169785142Y-100852142D01*
X172070857Y-103566428D02*
X172213714Y-103709285D01*
X172070857Y-103852142D01*
X171928000Y-103709285D01*
X172070857Y-103566428D01*
X172070857Y-103852142D01*
X174070857Y-100852142D02*
X174356571Y-100852142D01*
X174642285Y-100995000D01*
X174785142Y-101137857D01*
X174928000Y-101423571D01*
X175070857Y-101995000D01*
X175070857Y-102709285D01*
X174928000Y-103280714D01*
X174785142Y-103566428D01*
X174642285Y-103709285D01*
X174356571Y-103852142D01*
X174070857Y-103852142D01*
X173785142Y-103709285D01*
X173642285Y-103566428D01*
X173499428Y-103280714D01*
X173356571Y-102709285D01*
X173356571Y-101995000D01*
X173499428Y-101423571D01*
X173642285Y-101137857D01*
X173785142Y-100995000D01*
X174070857Y-100852142D01*
X177642285Y-100852142D02*
X177070857Y-100852142D01*
X176785142Y-100995000D01*
X176642285Y-101137857D01*
X176356571Y-101566428D01*
X176213714Y-102137857D01*
X176213714Y-103280714D01*
X176356571Y-103566428D01*
X176499428Y-103709285D01*
X176785142Y-103852142D01*
X177356571Y-103852142D01*
X177642285Y-103709285D01*
X177785142Y-103566428D01*
X177928000Y-103280714D01*
X177928000Y-102566428D01*
X177785142Y-102280714D01*
X177642285Y-102137857D01*
X177356571Y-101995000D01*
X176785142Y-101995000D01*
X176499428Y-102137857D01*
X176356571Y-102280714D01*
X176213714Y-102566428D01*
X178928000Y-100852142D02*
X180785142Y-100852142D01*
X179785142Y-101995000D01*
X180213714Y-101995000D01*
X180499428Y-102137857D01*
X180642285Y-102280714D01*
X180785142Y-102566428D01*
X180785142Y-103280714D01*
X180642285Y-103566428D01*
X180499428Y-103709285D01*
X180213714Y-103852142D01*
X179356571Y-103852142D01*
X179070857Y-103709285D01*
X178928000Y-103566428D01*
X184356571Y-103852142D02*
X184356571Y-101852142D01*
X184356571Y-100852142D02*
X184213714Y-100995000D01*
X184356571Y-101137857D01*
X184499428Y-100995000D01*
X184356571Y-100852142D01*
X184356571Y-101137857D01*
X185785142Y-101852142D02*
X185785142Y-103852142D01*
X185785142Y-102137857D02*
X185928000Y-101995000D01*
X186213714Y-101852142D01*
X186642285Y-101852142D01*
X186928000Y-101995000D01*
X187070857Y-102280714D01*
X187070857Y-103852142D01*
X189785142Y-103709285D02*
X189499428Y-103852142D01*
X188928000Y-103852142D01*
X188642285Y-103709285D01*
X188499428Y-103566428D01*
X188356571Y-103280714D01*
X188356571Y-102423571D01*
X188499428Y-102137857D01*
X188642285Y-101995000D01*
X188928000Y-101852142D01*
X189499428Y-101852142D01*
X189785142Y-101995000D01*
X191070857Y-103852142D02*
X191070857Y-100852142D01*
X192356571Y-103852142D02*
X192356571Y-102280714D01*
X192213714Y-101995000D01*
X191928000Y-101852142D01*
X191499428Y-101852142D01*
X191213714Y-101995000D01*
X191070857Y-102137857D01*
X198213714Y-100709285D02*
X195642285Y-104566428D01*
X203070857Y-103852142D02*
X201356571Y-103852142D01*
X202213714Y-103852142D02*
X202213714Y-100852142D01*
X201928000Y-101280714D01*
X201642285Y-101566428D01*
X201356571Y-101709285D01*
X204356571Y-103566428D02*
X204499428Y-103709285D01*
X204356571Y-103852142D01*
X204213714Y-103709285D01*
X204356571Y-103566428D01*
X204356571Y-103852142D01*
X207070857Y-100852142D02*
X206499428Y-100852142D01*
X206213714Y-100995000D01*
X206070857Y-101137857D01*
X205785142Y-101566428D01*
X205642285Y-102137857D01*
X205642285Y-103280714D01*
X205785142Y-103566428D01*
X205928000Y-103709285D01*
X206213714Y-103852142D01*
X206785142Y-103852142D01*
X207070857Y-103709285D01*
X207213714Y-103566428D01*
X207356571Y-103280714D01*
X207356571Y-102566428D01*
X207213714Y-102280714D01*
X207070857Y-102137857D01*
X206785142Y-101995000D01*
X206213714Y-101995000D01*
X205928000Y-102137857D01*
X205785142Y-102280714D01*
X205642285Y-102566428D01*
X208642285Y-103852142D02*
X208642285Y-101852142D01*
X208642285Y-102137857D02*
X208785142Y-101995000D01*
X209070857Y-101852142D01*
X209499428Y-101852142D01*
X209785142Y-101995000D01*
X209928000Y-102280714D01*
X209928000Y-103852142D01*
X209928000Y-102280714D02*
X210070857Y-101995000D01*
X210356571Y-101852142D01*
X210785142Y-101852142D01*
X211070857Y-101995000D01*
X211213714Y-102280714D01*
X211213714Y-103852142D01*
X212642285Y-103852142D02*
X212642285Y-101852142D01*
X212642285Y-102137857D02*
X212785142Y-101995000D01*
X213070857Y-101852142D01*
X213499428Y-101852142D01*
X213785142Y-101995000D01*
X213928000Y-102280714D01*
X213928000Y-103852142D01*
X213928000Y-102280714D02*
X214070857Y-101995000D01*
X214356571Y-101852142D01*
X214785142Y-101852142D01*
X215070857Y-101995000D01*
X215213714Y-102280714D01*
X215213714Y-103852142D01*
X218499428Y-101852142D02*
X219642285Y-101852142D01*
X218928000Y-100852142D02*
X218928000Y-103423571D01*
X219070857Y-103709285D01*
X219356571Y-103852142D01*
X219642285Y-103852142D01*
X220642285Y-103852142D02*
X220642285Y-100852142D01*
X221928000Y-103852142D02*
X221928000Y-102280714D01*
X221785142Y-101995000D01*
X221499428Y-101852142D01*
X221070857Y-101852142D01*
X220785142Y-101995000D01*
X220642285Y-102137857D01*
X223356571Y-103852142D02*
X223356571Y-101852142D01*
X223356571Y-100852142D02*
X223213714Y-100995000D01*
X223356571Y-101137857D01*
X223499428Y-100995000D01*
X223356571Y-100852142D01*
X223356571Y-101137857D01*
X226070857Y-103709285D02*
X225785142Y-103852142D01*
X225213714Y-103852142D01*
X224928000Y-103709285D01*
X224785142Y-103566428D01*
X224642285Y-103280714D01*
X224642285Y-102423571D01*
X224785142Y-102137857D01*
X224928000Y-101995000D01*
X225213714Y-101852142D01*
X225785142Y-101852142D01*
X226070857Y-101995000D01*
X227356571Y-103852142D02*
X227356571Y-100852142D01*
X227642285Y-102709285D02*
X228499428Y-103852142D01*
X228499428Y-101852142D02*
X227356571Y-102995000D01*
X163928000Y-106682142D02*
X163928000Y-108682142D01*
X163213714Y-105539285D02*
X162499428Y-107682142D01*
X164356571Y-107682142D01*
X165499428Y-108396428D02*
X165642285Y-108539285D01*
X165499428Y-108682142D01*
X165356571Y-108539285D01*
X165499428Y-108396428D01*
X165499428Y-108682142D01*
X169070857Y-108539285D02*
X169499428Y-108682142D01*
X170213714Y-108682142D01*
X170499428Y-108539285D01*
X170642285Y-108396428D01*
X170785142Y-108110714D01*
X170785142Y-107825000D01*
X170642285Y-107539285D01*
X170499428Y-107396428D01*
X170213714Y-107253571D01*
X169642285Y-107110714D01*
X169356571Y-106967857D01*
X169213714Y-106825000D01*
X169070857Y-106539285D01*
X169070857Y-106253571D01*
X169213714Y-105967857D01*
X169356571Y-105825000D01*
X169642285Y-105682142D01*
X170356571Y-105682142D01*
X170785142Y-105825000D01*
X172499428Y-108682142D02*
X172213714Y-108539285D01*
X172070857Y-108396428D01*
X171928000Y-108110714D01*
X171928000Y-107253571D01*
X172070857Y-106967857D01*
X172213714Y-106825000D01*
X172499428Y-106682142D01*
X172928000Y-106682142D01*
X173213714Y-106825000D01*
X173356571Y-106967857D01*
X173499428Y-107253571D01*
X173499428Y-108110714D01*
X173356571Y-108396428D01*
X173213714Y-108539285D01*
X172928000Y-108682142D01*
X172499428Y-108682142D01*
X175213714Y-108682142D02*
X174928000Y-108539285D01*
X174785142Y-108253571D01*
X174785142Y-105682142D01*
X177642285Y-108682142D02*
X177642285Y-105682142D01*
X177642285Y-108539285D02*
X177356571Y-108682142D01*
X176785142Y-108682142D01*
X176499428Y-108539285D01*
X176356571Y-108396428D01*
X176213714Y-108110714D01*
X176213714Y-107253571D01*
X176356571Y-106967857D01*
X176499428Y-106825000D01*
X176785142Y-106682142D01*
X177356571Y-106682142D01*
X177642285Y-106825000D01*
X180213714Y-108539285D02*
X179928000Y-108682142D01*
X179356571Y-108682142D01*
X179070857Y-108539285D01*
X178928000Y-108253571D01*
X178928000Y-107110714D01*
X179070857Y-106825000D01*
X179356571Y-106682142D01*
X179928000Y-106682142D01*
X180213714Y-106825000D01*
X180356571Y-107110714D01*
X180356571Y-107396428D01*
X178928000Y-107682142D01*
X181642285Y-108682142D02*
X181642285Y-106682142D01*
X181642285Y-107253571D02*
X181785142Y-106967857D01*
X181928000Y-106825000D01*
X182213714Y-106682142D01*
X182499428Y-106682142D01*
X183499428Y-108682142D02*
X183499428Y-106682142D01*
X183499428Y-106967857D02*
X183642285Y-106825000D01*
X183928000Y-106682142D01*
X184356571Y-106682142D01*
X184642285Y-106825000D01*
X184785142Y-107110714D01*
X184785142Y-108682142D01*
X184785142Y-107110714D02*
X184928000Y-106825000D01*
X185213714Y-106682142D01*
X185642285Y-106682142D01*
X185928000Y-106825000D01*
X186070857Y-107110714D01*
X186070857Y-108682142D01*
X188785142Y-108682142D02*
X188785142Y-107110714D01*
X188642285Y-106825000D01*
X188356571Y-106682142D01*
X187785142Y-106682142D01*
X187499428Y-106825000D01*
X188785142Y-108539285D02*
X188499428Y-108682142D01*
X187785142Y-108682142D01*
X187499428Y-108539285D01*
X187356571Y-108253571D01*
X187356571Y-107967857D01*
X187499428Y-107682142D01*
X187785142Y-107539285D01*
X188499428Y-107539285D01*
X188785142Y-107396428D01*
X190070857Y-108539285D02*
X190356571Y-108682142D01*
X190928000Y-108682142D01*
X191213714Y-108539285D01*
X191356571Y-108253571D01*
X191356571Y-108110714D01*
X191213714Y-107825000D01*
X190928000Y-107682142D01*
X190499428Y-107682142D01*
X190213714Y-107539285D01*
X190070857Y-107253571D01*
X190070857Y-107110714D01*
X190213714Y-106825000D01*
X190499428Y-106682142D01*
X190928000Y-106682142D01*
X191213714Y-106825000D01*
X192642285Y-108682142D02*
X192642285Y-105682142D01*
X192928000Y-107539285D02*
X193785142Y-108682142D01*
X193785142Y-106682142D02*
X192642285Y-107825000D01*
X195070857Y-108396428D02*
X195213714Y-108539285D01*
X195070857Y-108682142D01*
X194928000Y-108539285D01*
X195070857Y-108396428D01*
X195070857Y-108682142D01*
X195070857Y-106825000D02*
X195213714Y-106967857D01*
X195070857Y-107110714D01*
X194928000Y-106967857D01*
X195070857Y-106825000D01*
X195070857Y-107110714D01*
X198785142Y-108682142D02*
X198785142Y-105682142D01*
X199785142Y-107825000D01*
X200785142Y-105682142D01*
X200785142Y-108682142D01*
X203499428Y-108682142D02*
X203499428Y-107110714D01*
X203356571Y-106825000D01*
X203070857Y-106682142D01*
X202499428Y-106682142D01*
X202213714Y-106825000D01*
X203499428Y-108539285D02*
X203213714Y-108682142D01*
X202499428Y-108682142D01*
X202213714Y-108539285D01*
X202070857Y-108253571D01*
X202070857Y-107967857D01*
X202213714Y-107682142D01*
X202499428Y-107539285D01*
X203213714Y-107539285D01*
X203499428Y-107396428D01*
X204499428Y-106682142D02*
X205642285Y-106682142D01*
X204928000Y-105682142D02*
X204928000Y-108253571D01*
X205070857Y-108539285D01*
X205356571Y-108682142D01*
X205642285Y-108682142D01*
X206213714Y-106682142D02*
X207356571Y-106682142D01*
X206642285Y-105682142D02*
X206642285Y-108253571D01*
X206785142Y-108539285D01*
X207070857Y-108682142D01*
X207356571Y-108682142D01*
X209499428Y-108539285D02*
X209213714Y-108682142D01*
X208642285Y-108682142D01*
X208356571Y-108539285D01*
X208213714Y-108253571D01*
X208213714Y-107110714D01*
X208356571Y-106825000D01*
X208642285Y-106682142D01*
X209213714Y-106682142D01*
X209499428Y-106825000D01*
X209642285Y-107110714D01*
X209642285Y-107396428D01*
X208213714Y-107682142D01*
X214213714Y-107110714D02*
X214642285Y-107253571D01*
X214785142Y-107396428D01*
X214928000Y-107682142D01*
X214928000Y-108110714D01*
X214785142Y-108396428D01*
X214642285Y-108539285D01*
X214356571Y-108682142D01*
X213213714Y-108682142D01*
X213213714Y-105682142D01*
X214213714Y-105682142D01*
X214499428Y-105825000D01*
X214642285Y-105967857D01*
X214785142Y-106253571D01*
X214785142Y-106539285D01*
X214642285Y-106825000D01*
X214499428Y-106967857D01*
X214213714Y-107110714D01*
X213213714Y-107110714D01*
X216642285Y-108682142D02*
X216356571Y-108539285D01*
X216213714Y-108253571D01*
X216213714Y-105682142D01*
X219070857Y-108682142D02*
X219070857Y-107110714D01*
X218928000Y-106825000D01*
X218642285Y-106682142D01*
X218070857Y-106682142D01*
X217785142Y-106825000D01*
X219070857Y-108539285D02*
X218785142Y-108682142D01*
X218070857Y-108682142D01*
X217785142Y-108539285D01*
X217642285Y-108253571D01*
X217642285Y-107967857D01*
X217785142Y-107682142D01*
X218070857Y-107539285D01*
X218785142Y-107539285D01*
X219070857Y-107396428D01*
X221785142Y-108539285D02*
X221499428Y-108682142D01*
X220928000Y-108682142D01*
X220642285Y-108539285D01*
X220499428Y-108396428D01*
X220356571Y-108110714D01*
X220356571Y-107253571D01*
X220499428Y-106967857D01*
X220642285Y-106825000D01*
X220928000Y-106682142D01*
X221499428Y-106682142D01*
X221785142Y-106825000D01*
X223070857Y-108682142D02*
X223070857Y-105682142D01*
X223356571Y-107539285D02*
X224213714Y-108682142D01*
X224213714Y-106682142D02*
X223070857Y-107825000D01*
X225642285Y-108539285D02*
X225642285Y-108682142D01*
X225499428Y-108967857D01*
X225356571Y-109110714D01*
X229213714Y-108682142D02*
X229213714Y-105682142D01*
X229213714Y-106825000D02*
X229499428Y-106682142D01*
X230070857Y-106682142D01*
X230356571Y-106825000D01*
X230499428Y-106967857D01*
X230642285Y-107253571D01*
X230642285Y-108110714D01*
X230499428Y-108396428D01*
X230356571Y-108539285D01*
X230070857Y-108682142D01*
X229499428Y-108682142D01*
X229213714Y-108539285D01*
X232356571Y-108682142D02*
X232070857Y-108539285D01*
X231928000Y-108396428D01*
X231785142Y-108110714D01*
X231785142Y-107253571D01*
X231928000Y-106967857D01*
X232070857Y-106825000D01*
X232356571Y-106682142D01*
X232785142Y-106682142D01*
X233070857Y-106825000D01*
X233213714Y-106967857D01*
X233356571Y-107253571D01*
X233356571Y-108110714D01*
X233213714Y-108396428D01*
X233070857Y-108539285D01*
X232785142Y-108682142D01*
X232356571Y-108682142D01*
X234213714Y-106682142D02*
X235356571Y-106682142D01*
X234642285Y-105682142D02*
X234642285Y-108253571D01*
X234785142Y-108539285D01*
X235070857Y-108682142D01*
X235356571Y-108682142D01*
X236356571Y-108682142D02*
X236356571Y-105682142D01*
X237642285Y-108682142D02*
X237642285Y-107110714D01*
X237499428Y-106825000D01*
X237213714Y-106682142D01*
X236785142Y-106682142D01*
X236499428Y-106825000D01*
X236356571Y-106967857D01*
X241213714Y-108539285D02*
X241499428Y-108682142D01*
X242070857Y-108682142D01*
X242356571Y-108539285D01*
X242499428Y-108253571D01*
X242499428Y-108110714D01*
X242356571Y-107825000D01*
X242070857Y-107682142D01*
X241642285Y-107682142D01*
X241356571Y-107539285D01*
X241213714Y-107253571D01*
X241213714Y-107110714D01*
X241356571Y-106825000D01*
X241642285Y-106682142D01*
X242070857Y-106682142D01*
X242356571Y-106825000D01*
X243785142Y-108682142D02*
X243785142Y-106682142D01*
X243785142Y-105682142D02*
X243642285Y-105825000D01*
X243785142Y-105967857D01*
X243928000Y-105825000D01*
X243785142Y-105682142D01*
X243785142Y-105967857D01*
X246499428Y-108682142D02*
X246499428Y-105682142D01*
X246499428Y-108539285D02*
X246213714Y-108682142D01*
X245642285Y-108682142D01*
X245356571Y-108539285D01*
X245213714Y-108396428D01*
X245070857Y-108110714D01*
X245070857Y-107253571D01*
X245213714Y-106967857D01*
X245356571Y-106825000D01*
X245642285Y-106682142D01*
X246213714Y-106682142D01*
X246499428Y-106825000D01*
X249070857Y-108539285D02*
X248785142Y-108682142D01*
X248213714Y-108682142D01*
X247928000Y-108539285D01*
X247785142Y-108253571D01*
X247785142Y-107110714D01*
X247928000Y-106825000D01*
X248213714Y-106682142D01*
X248785142Y-106682142D01*
X249070857Y-106825000D01*
X249213714Y-107110714D01*
X249213714Y-107396428D01*
X247785142Y-107682142D01*
X250356571Y-108539285D02*
X250642285Y-108682142D01*
X251213714Y-108682142D01*
X251499428Y-108539285D01*
X251642285Y-108253571D01*
X251642285Y-108110714D01*
X251499428Y-107825000D01*
X251213714Y-107682142D01*
X250785142Y-107682142D01*
X250499428Y-107539285D01*
X250356571Y-107253571D01*
X250356571Y-107110714D01*
X250499428Y-106825000D01*
X250785142Y-106682142D01*
X251213714Y-106682142D01*
X251499428Y-106825000D01*
X164070857Y-110512142D02*
X162642285Y-110512142D01*
X162499428Y-111940714D01*
X162642285Y-111797857D01*
X162928000Y-111655000D01*
X163642285Y-111655000D01*
X163928000Y-111797857D01*
X164070857Y-111940714D01*
X164213714Y-112226428D01*
X164213714Y-112940714D01*
X164070857Y-113226428D01*
X163928000Y-113369285D01*
X163642285Y-113512142D01*
X162928000Y-113512142D01*
X162642285Y-113369285D01*
X162499428Y-113226428D01*
X165499428Y-113226428D02*
X165642285Y-113369285D01*
X165499428Y-113512142D01*
X165356571Y-113369285D01*
X165499428Y-113226428D01*
X165499428Y-113512142D01*
X169070857Y-113369285D02*
X169499428Y-113512142D01*
X170213714Y-113512142D01*
X170499428Y-113369285D01*
X170642285Y-113226428D01*
X170785142Y-112940714D01*
X170785142Y-112655000D01*
X170642285Y-112369285D01*
X170499428Y-112226428D01*
X170213714Y-112083571D01*
X169642285Y-111940714D01*
X169356571Y-111797857D01*
X169213714Y-111655000D01*
X169070857Y-111369285D01*
X169070857Y-111083571D01*
X169213714Y-110797857D01*
X169356571Y-110655000D01*
X169642285Y-110512142D01*
X170356571Y-110512142D01*
X170785142Y-110655000D01*
X172070857Y-113512142D02*
X172070857Y-111512142D01*
X172070857Y-110512142D02*
X171928000Y-110655000D01*
X172070857Y-110797857D01*
X172213714Y-110655000D01*
X172070857Y-110512142D01*
X172070857Y-110797857D01*
X173928000Y-113512142D02*
X173642285Y-113369285D01*
X173499428Y-113083571D01*
X173499428Y-110512142D01*
X175070857Y-113512142D02*
X175070857Y-110512142D01*
X175356571Y-112369285D02*
X176213714Y-113512142D01*
X176213714Y-111512142D02*
X175070857Y-112655000D01*
X177356571Y-113369285D02*
X177642285Y-113512142D01*
X178213714Y-113512142D01*
X178499428Y-113369285D01*
X178642285Y-113083571D01*
X178642285Y-112940714D01*
X178499428Y-112655000D01*
X178213714Y-112512142D01*
X177785142Y-112512142D01*
X177499428Y-112369285D01*
X177356571Y-112083571D01*
X177356571Y-111940714D01*
X177499428Y-111655000D01*
X177785142Y-111512142D01*
X178213714Y-111512142D01*
X178499428Y-111655000D01*
X181213714Y-113369285D02*
X180928000Y-113512142D01*
X180356571Y-113512142D01*
X180070857Y-113369285D01*
X179928000Y-113226428D01*
X179785142Y-112940714D01*
X179785142Y-112083571D01*
X179928000Y-111797857D01*
X180070857Y-111655000D01*
X180356571Y-111512142D01*
X180928000Y-111512142D01*
X181213714Y-111655000D01*
X182499428Y-113512142D02*
X182499428Y-111512142D01*
X182499428Y-112083571D02*
X182642285Y-111797857D01*
X182785142Y-111655000D01*
X183070857Y-111512142D01*
X183356571Y-111512142D01*
X185499428Y-113369285D02*
X185213714Y-113512142D01*
X184642285Y-113512142D01*
X184356571Y-113369285D01*
X184213714Y-113083571D01*
X184213714Y-111940714D01*
X184356571Y-111655000D01*
X184642285Y-111512142D01*
X185213714Y-111512142D01*
X185499428Y-111655000D01*
X185642285Y-111940714D01*
X185642285Y-112226428D01*
X184213714Y-112512142D01*
X188070857Y-113369285D02*
X187785142Y-113512142D01*
X187213714Y-113512142D01*
X186928000Y-113369285D01*
X186785142Y-113083571D01*
X186785142Y-111940714D01*
X186928000Y-111655000D01*
X187213714Y-111512142D01*
X187785142Y-111512142D01*
X188070857Y-111655000D01*
X188213714Y-111940714D01*
X188213714Y-112226428D01*
X186785142Y-112512142D01*
X189499428Y-111512142D02*
X189499428Y-113512142D01*
X189499428Y-111797857D02*
X189642285Y-111655000D01*
X189928000Y-111512142D01*
X190356571Y-111512142D01*
X190642285Y-111655000D01*
X190785142Y-111940714D01*
X190785142Y-113512142D01*
X192213714Y-113226428D02*
X192356571Y-113369285D01*
X192213714Y-113512142D01*
X192070857Y-113369285D01*
X192213714Y-113226428D01*
X192213714Y-113512142D01*
X192213714Y-111655000D02*
X192356571Y-111797857D01*
X192213714Y-111940714D01*
X192070857Y-111797857D01*
X192213714Y-111655000D01*
X192213714Y-111940714D01*
X195642285Y-110512142D02*
X196356571Y-113512142D01*
X196928000Y-111369285D01*
X197499428Y-113512142D01*
X198213714Y-110512142D01*
X199356571Y-113512142D02*
X199356571Y-110512142D01*
X200642285Y-113512142D02*
X200642285Y-111940714D01*
X200499428Y-111655000D01*
X200213714Y-111512142D01*
X199785142Y-111512142D01*
X199499428Y-111655000D01*
X199356571Y-111797857D01*
X202070857Y-113512142D02*
X202070857Y-111512142D01*
X202070857Y-110512142D02*
X201928000Y-110655000D01*
X202070857Y-110797857D01*
X202213714Y-110655000D01*
X202070857Y-110512142D01*
X202070857Y-110797857D01*
X203070857Y-111512142D02*
X204213714Y-111512142D01*
X203499428Y-110512142D02*
X203499428Y-113083571D01*
X203642285Y-113369285D01*
X203928000Y-113512142D01*
X204213714Y-113512142D01*
X206356571Y-113369285D02*
X206070857Y-113512142D01*
X205499428Y-113512142D01*
X205213714Y-113369285D01*
X205070857Y-113083571D01*
X205070857Y-111940714D01*
X205213714Y-111655000D01*
X205499428Y-111512142D01*
X206070857Y-111512142D01*
X206356571Y-111655000D01*
X206499428Y-111940714D01*
X206499428Y-112226428D01*
X205070857Y-112512142D01*
X207928000Y-113369285D02*
X207928000Y-113512142D01*
X207785142Y-113797857D01*
X207642285Y-113940714D01*
X211499428Y-113512142D02*
X211499428Y-110512142D01*
X211499428Y-111655000D02*
X211785142Y-111512142D01*
X212356571Y-111512142D01*
X212642285Y-111655000D01*
X212785142Y-111797857D01*
X212928000Y-112083571D01*
X212928000Y-112940714D01*
X212785142Y-113226428D01*
X212642285Y-113369285D01*
X212356571Y-113512142D01*
X211785142Y-113512142D01*
X211499428Y-113369285D01*
X214642285Y-113512142D02*
X214356571Y-113369285D01*
X214213714Y-113226428D01*
X214070857Y-112940714D01*
X214070857Y-112083571D01*
X214213714Y-111797857D01*
X214356571Y-111655000D01*
X214642285Y-111512142D01*
X215070857Y-111512142D01*
X215356571Y-111655000D01*
X215499428Y-111797857D01*
X215642285Y-112083571D01*
X215642285Y-112940714D01*
X215499428Y-113226428D01*
X215356571Y-113369285D01*
X215070857Y-113512142D01*
X214642285Y-113512142D01*
X216499428Y-111512142D02*
X217642285Y-111512142D01*
X216928000Y-110512142D02*
X216928000Y-113083571D01*
X217070857Y-113369285D01*
X217356571Y-113512142D01*
X217642285Y-113512142D01*
X218642285Y-113512142D02*
X218642285Y-110512142D01*
X219928000Y-113512142D02*
X219928000Y-111940714D01*
X219785142Y-111655000D01*
X219499428Y-111512142D01*
X219070857Y-111512142D01*
X218785142Y-111655000D01*
X218642285Y-111797857D01*
X223499428Y-113369285D02*
X223785142Y-113512142D01*
X224356571Y-113512142D01*
X224642285Y-113369285D01*
X224785142Y-113083571D01*
X224785142Y-112940714D01*
X224642285Y-112655000D01*
X224356571Y-112512142D01*
X223928000Y-112512142D01*
X223642285Y-112369285D01*
X223499428Y-112083571D01*
X223499428Y-111940714D01*
X223642285Y-111655000D01*
X223928000Y-111512142D01*
X224356571Y-111512142D01*
X224642285Y-111655000D01*
X226070857Y-113512142D02*
X226070857Y-111512142D01*
X226070857Y-110512142D02*
X225928000Y-110655000D01*
X226070857Y-110797857D01*
X226213714Y-110655000D01*
X226070857Y-110512142D01*
X226070857Y-110797857D01*
X228785142Y-113512142D02*
X228785142Y-110512142D01*
X228785142Y-113369285D02*
X228499428Y-113512142D01*
X227928000Y-113512142D01*
X227642285Y-113369285D01*
X227499428Y-113226428D01*
X227356571Y-112940714D01*
X227356571Y-112083571D01*
X227499428Y-111797857D01*
X227642285Y-111655000D01*
X227928000Y-111512142D01*
X228499428Y-111512142D01*
X228785142Y-111655000D01*
X231356571Y-113369285D02*
X231070857Y-113512142D01*
X230499428Y-113512142D01*
X230213714Y-113369285D01*
X230070857Y-113083571D01*
X230070857Y-111940714D01*
X230213714Y-111655000D01*
X230499428Y-111512142D01*
X231070857Y-111512142D01*
X231356571Y-111655000D01*
X231499428Y-111940714D01*
X231499428Y-112226428D01*
X230070857Y-112512142D01*
X232642285Y-113369285D02*
X232928000Y-113512142D01*
X233499428Y-113512142D01*
X233785142Y-113369285D01*
X233928000Y-113083571D01*
X233928000Y-112940714D01*
X233785142Y-112655000D01*
X233499428Y-112512142D01*
X233070857Y-112512142D01*
X232785142Y-112369285D01*
X232642285Y-112083571D01*
X232642285Y-111940714D01*
X232785142Y-111655000D01*
X233070857Y-111512142D01*
X233499428Y-111512142D01*
X233785142Y-111655000D01*
X163928000Y-115342142D02*
X163356571Y-115342142D01*
X163070857Y-115485000D01*
X162928000Y-115627857D01*
X162642285Y-116056428D01*
X162499428Y-116627857D01*
X162499428Y-117770714D01*
X162642285Y-118056428D01*
X162785142Y-118199285D01*
X163070857Y-118342142D01*
X163642285Y-118342142D01*
X163928000Y-118199285D01*
X164070857Y-118056428D01*
X164213714Y-117770714D01*
X164213714Y-117056428D01*
X164070857Y-116770714D01*
X163928000Y-116627857D01*
X163642285Y-116485000D01*
X163070857Y-116485000D01*
X162785142Y-116627857D01*
X162642285Y-116770714D01*
X162499428Y-117056428D01*
X165499428Y-118056428D02*
X165642285Y-118199285D01*
X165499428Y-118342142D01*
X165356571Y-118199285D01*
X165499428Y-118056428D01*
X165499428Y-118342142D01*
X170213714Y-116770714D02*
X169213714Y-116770714D01*
X169213714Y-118342142D02*
X169213714Y-115342142D01*
X170642285Y-115342142D01*
X171785142Y-118342142D02*
X171785142Y-116342142D01*
X171785142Y-115342142D02*
X171642285Y-115485000D01*
X171785142Y-115627857D01*
X171928000Y-115485000D01*
X171785142Y-115342142D01*
X171785142Y-115627857D01*
X173213714Y-116342142D02*
X173213714Y-118342142D01*
X173213714Y-116627857D02*
X173356571Y-116485000D01*
X173642285Y-116342142D01*
X174070857Y-116342142D01*
X174356571Y-116485000D01*
X174499428Y-116770714D01*
X174499428Y-118342142D01*
X175928000Y-118342142D02*
X175928000Y-116342142D01*
X175928000Y-115342142D02*
X175785142Y-115485000D01*
X175928000Y-115627857D01*
X176070857Y-115485000D01*
X175928000Y-115342142D01*
X175928000Y-115627857D01*
X177213714Y-118199285D02*
X177499428Y-118342142D01*
X178070857Y-118342142D01*
X178356571Y-118199285D01*
X178499428Y-117913571D01*
X178499428Y-117770714D01*
X178356571Y-117485000D01*
X178070857Y-117342142D01*
X177642285Y-117342142D01*
X177356571Y-117199285D01*
X177213714Y-116913571D01*
X177213714Y-116770714D01*
X177356571Y-116485000D01*
X177642285Y-116342142D01*
X178070857Y-116342142D01*
X178356571Y-116485000D01*
X179785142Y-118342142D02*
X179785142Y-115342142D01*
X181070857Y-118342142D02*
X181070857Y-116770714D01*
X180928000Y-116485000D01*
X180642285Y-116342142D01*
X180213714Y-116342142D01*
X179928000Y-116485000D01*
X179785142Y-116627857D01*
X182499428Y-118056428D02*
X182642285Y-118199285D01*
X182499428Y-118342142D01*
X182356571Y-118199285D01*
X182499428Y-118056428D01*
X182499428Y-118342142D01*
X182499428Y-116485000D02*
X182642285Y-116627857D01*
X182499428Y-116770714D01*
X182356571Y-116627857D01*
X182499428Y-116485000D01*
X182499428Y-116770714D01*
X186213714Y-116770714D02*
X187213714Y-116770714D01*
X187642285Y-118342142D02*
X186213714Y-118342142D01*
X186213714Y-115342142D01*
X187642285Y-115342142D01*
X188928000Y-118342142D02*
X188928000Y-115342142D01*
X190642285Y-118342142D01*
X190642285Y-115342142D01*
X192070857Y-118342142D02*
X192070857Y-115342142D01*
X195070857Y-115485000D02*
X194785142Y-115342142D01*
X194356571Y-115342142D01*
X193928000Y-115485000D01*
X193642285Y-115770714D01*
X193499428Y-116056428D01*
X193356571Y-116627857D01*
X193356571Y-117056428D01*
X193499428Y-117627857D01*
X193642285Y-117913571D01*
X193928000Y-118199285D01*
X194356571Y-118342142D01*
X194642285Y-118342142D01*
X195070857Y-118199285D01*
X195213714Y-118056428D01*
X195213714Y-117056428D01*
X194642285Y-117056428D01*
M02*
