%TF.GenerationSoftware,KiCad,Pcbnew,(6.0.4)*%
%TF.CreationDate,2024-01-19T15:42:12-08:00*%
%TF.ProjectId,StormCloud,53746f72-6d43-46c6-9f75-642e6b696361,rev?*%
%TF.SameCoordinates,Original*%
%TF.FileFunction,Soldermask,Bot*%
%TF.FilePolarity,Negative*%
%FSLAX46Y46*%
G04 Gerber Fmt 4.6, Leading zero omitted, Abs format (unit mm)*
G04 Created by KiCad (PCBNEW (6.0.4)) date 2024-01-19 15:42:12*
%MOMM*%
%LPD*%
G01*
G04 APERTURE LIST*
G04 Aperture macros list*
%AMRoundRect*
0 Rectangle with rounded corners*
0 $1 Rounding radius*
0 $2 $3 $4 $5 $6 $7 $8 $9 X,Y pos of 4 corners*
0 Add a 4 corners polygon primitive as box body*
4,1,4,$2,$3,$4,$5,$6,$7,$8,$9,$2,$3,0*
0 Add four circle primitives for the rounded corners*
1,1,$1+$1,$2,$3*
1,1,$1+$1,$4,$5*
1,1,$1+$1,$6,$7*
1,1,$1+$1,$8,$9*
0 Add four rect primitives between the rounded corners*
20,1,$1+$1,$2,$3,$4,$5,0*
20,1,$1+$1,$4,$5,$6,$7,0*
20,1,$1+$1,$6,$7,$8,$9,0*
20,1,$1+$1,$8,$9,$2,$3,0*%
G04 Aperture macros list end*
%ADD10C,0.010000*%
%ADD11RoundRect,0.050000X-0.900000X0.900000X-0.900000X-0.900000X0.900000X-0.900000X0.900000X0.900000X0*%
%ADD12C,1.900000*%
%ADD13C,1.117600*%
%ADD14O,2.600000X4.100000*%
%ADD15C,17.372000*%
%ADD16C,2.100000*%
G04 APERTURE END LIST*
%TO.C,*%
G36*
X93504009Y-91040006D02*
G01*
X92919009Y-91045006D01*
X92334009Y-91051006D01*
X92334009Y-90830006D01*
X93516009Y-90830006D01*
X93504009Y-91040006D01*
G37*
G36*
X93984009Y-93340006D02*
G01*
X93996009Y-93550006D01*
X92334009Y-93550006D01*
X92334009Y-93330006D01*
X93984009Y-93340006D01*
G37*
G36*
X93021009Y-94672006D02*
G01*
X93246009Y-94679006D01*
X93364009Y-94689006D01*
X93367009Y-94690006D01*
X93491009Y-94762006D01*
X93515009Y-94794006D01*
X93525009Y-94898006D01*
X93522009Y-94912006D01*
X93463009Y-95055006D01*
X93462009Y-95057006D01*
X93418009Y-95137006D01*
X93465009Y-95150006D01*
X93507009Y-95163006D01*
X93510009Y-95255006D01*
X93504009Y-95360006D01*
X92919009Y-95365006D01*
X92334009Y-95371006D01*
X92334009Y-95150006D01*
X93271009Y-95150006D01*
X93313009Y-95097006D01*
X93334009Y-95064006D01*
X93334009Y-94930006D01*
X93323009Y-94920006D01*
X93256009Y-94907006D01*
X93103009Y-94899006D01*
X92825009Y-94894006D01*
X92334009Y-94888006D01*
X92334009Y-94670006D01*
X92809009Y-94670006D01*
X93021009Y-94672006D01*
G37*
G36*
X93914009Y-91050006D02*
G01*
X93807009Y-91050006D01*
X93766009Y-91049006D01*
X93687009Y-91037006D01*
X93683009Y-91027006D01*
X93674009Y-90927006D01*
X93674009Y-90830006D01*
X93914009Y-90830006D01*
X93914009Y-91050006D01*
G37*
G36*
X92847009Y-89707006D02*
G01*
X92806009Y-89706006D01*
X92561009Y-89687006D01*
X92424009Y-89640006D01*
X92349009Y-89549006D01*
X92323009Y-89482006D01*
X92344228Y-89354006D01*
X92495009Y-89354006D01*
X92527009Y-89453006D01*
X92559009Y-89464006D01*
X92710009Y-89480006D01*
X92922009Y-89488006D01*
X93127009Y-89486006D01*
X93259009Y-89471006D01*
X93329009Y-89430006D01*
X93339009Y-89296006D01*
X93321009Y-89240006D01*
X92924009Y-89235006D01*
X92712009Y-89233006D01*
X92562009Y-89239006D01*
X92511009Y-89255006D01*
X92495009Y-89354006D01*
X92344228Y-89354006D01*
X92354009Y-89295006D01*
X92374009Y-89260006D01*
X92364009Y-89230006D01*
X92346009Y-89221006D01*
X92334009Y-89120006D01*
X92334009Y-89010006D01*
X93996009Y-89010006D01*
X93984009Y-89220006D01*
X93719009Y-89226006D01*
X93696009Y-89226006D01*
X93524009Y-89232006D01*
X93454009Y-89239006D01*
X93455009Y-89243006D01*
X93496009Y-89319006D01*
X93529009Y-89444006D01*
X93455009Y-89597006D01*
X93264009Y-89690006D01*
X93107009Y-89705006D01*
X92922009Y-89706006D01*
X92847009Y-89707006D01*
G37*
G36*
X92984009Y-93127006D02*
G01*
X92876009Y-93128006D01*
X92597009Y-93111006D01*
X92431009Y-93052006D01*
X92342009Y-92942006D01*
X92317009Y-92818006D01*
X92319665Y-92791006D01*
X92474009Y-92791006D01*
X92479009Y-92834006D01*
X92523009Y-92878006D01*
X92647009Y-92898006D01*
X92892009Y-92905006D01*
X93092009Y-92906006D01*
X93256009Y-92895006D01*
X93329009Y-92858006D01*
X93350009Y-92786006D01*
X93348009Y-92728006D01*
X93300009Y-92683006D01*
X93167009Y-92664006D01*
X92911009Y-92660006D01*
X92843009Y-92660006D01*
X92652009Y-92663006D01*
X92559009Y-92674006D01*
X92516009Y-92698006D01*
X92474009Y-92791006D01*
X92319665Y-92791006D01*
X92335009Y-92635006D01*
X92344009Y-92616006D01*
X92439009Y-92517006D01*
X92481009Y-92489006D01*
X92545009Y-92468006D01*
X92665009Y-92459006D01*
X92892009Y-92454006D01*
X93033009Y-92452006D01*
X93199009Y-92454006D01*
X93287009Y-92466006D01*
X93353009Y-92494006D01*
X93481009Y-92596006D01*
X93522009Y-92774006D01*
X93497009Y-92940006D01*
X93364009Y-93078006D01*
X93306009Y-93102006D01*
X93194009Y-93119006D01*
X93092009Y-93123006D01*
X92984009Y-93127006D01*
G37*
G36*
X92785009Y-99852006D02*
G01*
X92586009Y-99729006D01*
X92553009Y-99675006D01*
X92547247Y-99540006D01*
X92697009Y-99540006D01*
X92743009Y-99609006D01*
X92753009Y-99618006D01*
X92816009Y-99647006D01*
X92948009Y-99646006D01*
X93129009Y-99614006D01*
X93321009Y-99507006D01*
X93394009Y-99352006D01*
X93394009Y-99325006D01*
X93376009Y-99297006D01*
X93294009Y-99299006D01*
X93101009Y-99329006D01*
X92931009Y-99359006D01*
X92783009Y-99409006D01*
X92718009Y-99479006D01*
X92697009Y-99540006D01*
X92547247Y-99540006D01*
X92546009Y-99511006D01*
X92647009Y-99392006D01*
X92704009Y-99366006D01*
X92643009Y-99341006D01*
X92597009Y-99312006D01*
X92536009Y-99171006D01*
X92572009Y-98989006D01*
X92699009Y-98826006D01*
X92961009Y-98703006D01*
X93291009Y-98677006D01*
X93609009Y-98762006D01*
X93772009Y-98873006D01*
X93934009Y-99105006D01*
X93968009Y-99270006D01*
X93968009Y-99537006D01*
X93917009Y-99760006D01*
X93737009Y-100026006D01*
X93434009Y-100219006D01*
X93018009Y-100302006D01*
X92737009Y-100296006D01*
X92460009Y-100209006D01*
X92220009Y-100009006D01*
X92080009Y-99690006D01*
X92066009Y-99560006D01*
X92069009Y-99353006D01*
X92088009Y-99162006D01*
X92120009Y-99057006D01*
X92123009Y-99056006D01*
X92204009Y-99061006D01*
X92260009Y-99077006D01*
X92261009Y-99148006D01*
X92250009Y-99258006D01*
X92245009Y-99450006D01*
X92246009Y-99567006D01*
X92260009Y-99688006D01*
X92298009Y-99780006D01*
X92341009Y-99852006D01*
X92547009Y-100034006D01*
X92853009Y-100105006D01*
X93195009Y-100081006D01*
X93518009Y-99947006D01*
X93734009Y-99708006D01*
X93759009Y-99661006D01*
X93797009Y-99554006D01*
X93803009Y-99400006D01*
X93803009Y-99366006D01*
X93767009Y-99154006D01*
X93651009Y-98996006D01*
X93634009Y-98981006D01*
X93388009Y-98859006D01*
X93088009Y-98836006D01*
X92808009Y-98917006D01*
X92716009Y-98994006D01*
X92656009Y-99109006D01*
X92686009Y-99183006D01*
X92725009Y-99184006D01*
X92886009Y-99166006D01*
X93121009Y-99133006D01*
X93270009Y-99110006D01*
X93458009Y-99081006D01*
X93537009Y-99070006D01*
X93545009Y-99122006D01*
X93550009Y-99275006D01*
X93543009Y-99448006D01*
X93513009Y-99552006D01*
X93358009Y-99720006D01*
X93060009Y-99842006D01*
X92816009Y-99851006D01*
X92785009Y-99852006D01*
G37*
G36*
X92924009Y-96240006D02*
G01*
X92849009Y-96240006D01*
X92613009Y-96230006D01*
X92478009Y-96201006D01*
X92396009Y-96142006D01*
X92335009Y-96038006D01*
X92334574Y-96035006D01*
X93034009Y-96035006D01*
X93164009Y-96025006D01*
X93183009Y-96023006D01*
X93320009Y-95989006D01*
X93354009Y-95900006D01*
X93354009Y-95889006D01*
X93313009Y-95807006D01*
X93164009Y-95775006D01*
X93034009Y-95765006D01*
X93034009Y-96035006D01*
X92334574Y-96035006D01*
X92317009Y-95914006D01*
X92349009Y-95730006D01*
X92459009Y-95623006D01*
X92648009Y-95570006D01*
X92734009Y-95570006D01*
X92734009Y-95764006D01*
X92629009Y-95777006D01*
X92529009Y-95803006D01*
X92474009Y-95901006D01*
X92475009Y-95921006D01*
X92543009Y-95998006D01*
X92736009Y-96027006D01*
X92914009Y-96034006D01*
X92914009Y-95565006D01*
X93119009Y-95573006D01*
X93148009Y-95574006D01*
X93306009Y-95589006D01*
X93397009Y-95626006D01*
X93479009Y-95706006D01*
X93522009Y-95912006D01*
X93494009Y-96062006D01*
X93354009Y-96195006D01*
X93339009Y-96203006D01*
X93263009Y-96228006D01*
X93145009Y-96238006D01*
X93034009Y-96239006D01*
X92924009Y-96240006D01*
G37*
G36*
X93984009Y-97580006D02*
G01*
X92334009Y-97590006D01*
X92334009Y-97370006D01*
X93996009Y-97370006D01*
X93984009Y-97580006D01*
G37*
G36*
X92538009Y-98484006D02*
G01*
X92493009Y-98477006D01*
X92380009Y-98402006D01*
X92368009Y-98389006D01*
X92315009Y-98227006D01*
X92353195Y-98169006D01*
X92497009Y-98169006D01*
X92525009Y-98226006D01*
X92541009Y-98244006D01*
X92644009Y-98270006D01*
X92745009Y-98247006D01*
X92900009Y-98092006D01*
X92936009Y-98030006D01*
X92777009Y-98030006D01*
X92681009Y-98031006D01*
X92574009Y-98051006D01*
X92523009Y-98111006D01*
X92497009Y-98169006D01*
X92353195Y-98169006D01*
X92421009Y-98066006D01*
X92464009Y-98025006D01*
X92441009Y-98011006D01*
X92362009Y-97995006D01*
X92334009Y-97893006D01*
X92334009Y-97800006D01*
X92759009Y-97805006D01*
X92976009Y-97809006D01*
X93215009Y-97824006D01*
X93357009Y-97852006D01*
X93439009Y-97901006D01*
X93510009Y-98018006D01*
X93522009Y-98223006D01*
X93435009Y-98394006D01*
X93370009Y-98438006D01*
X93179009Y-98490006D01*
X93143009Y-98476006D01*
X93134009Y-98380006D01*
X93134009Y-98270006D01*
X93213009Y-98270006D01*
X93297009Y-98254006D01*
X93354009Y-98142006D01*
X93320009Y-98064006D01*
X93165009Y-98030006D01*
X93077009Y-98030006D01*
X93001009Y-98182006D01*
X92924009Y-98314006D01*
X92758009Y-98460006D01*
X92644009Y-98473006D01*
X92538009Y-98484006D01*
G37*
G36*
X92038009Y-94456006D02*
G01*
X91974009Y-94260006D01*
X91967009Y-94174006D01*
X91973284Y-94129006D01*
X92140009Y-94129006D01*
X92158009Y-94290006D01*
X92220009Y-94342006D01*
X92341009Y-94306006D01*
X92360009Y-94289006D01*
X92385009Y-94235006D01*
X92374009Y-94110006D01*
X92361009Y-94036006D01*
X92298009Y-93916006D01*
X92194009Y-93946006D01*
X92164009Y-93984006D01*
X92141009Y-94111006D01*
X92140009Y-94129006D01*
X91973284Y-94129006D01*
X92002009Y-93923006D01*
X92119009Y-93784006D01*
X92164009Y-93766006D01*
X92358009Y-93764006D01*
X92498009Y-93865006D01*
X92521009Y-93933006D01*
X92552009Y-94099006D01*
X92569009Y-94212006D01*
X92592009Y-94296006D01*
X92652009Y-94291006D01*
X92678009Y-94270006D01*
X92694009Y-94169006D01*
X92696347Y-94150006D01*
X92855009Y-94150006D01*
X92887009Y-94252006D01*
X92973009Y-94276006D01*
X93132009Y-94290006D01*
X93263009Y-94282006D01*
X93291009Y-94272006D01*
X93372009Y-94175006D01*
X93335009Y-94061006D01*
X93330009Y-94057006D01*
X93193009Y-94016006D01*
X93011009Y-94018006D01*
X92885009Y-94062006D01*
X92855009Y-94150006D01*
X92696347Y-94150006D01*
X92710009Y-94039006D01*
X92827009Y-93888006D01*
X92863009Y-93867006D01*
X92951009Y-93845006D01*
X93119009Y-93840006D01*
X93334009Y-93841006D01*
X93367009Y-93755006D01*
X93377009Y-93729006D01*
X93404009Y-93670006D01*
X93471009Y-93692006D01*
X93533009Y-93714006D01*
X93501009Y-93777006D01*
X93500009Y-93779006D01*
X93440009Y-93873006D01*
X93425009Y-93896006D01*
X93461009Y-93959006D01*
X93499009Y-94015006D01*
X93523009Y-94205006D01*
X93437009Y-94377006D01*
X93266009Y-94467006D01*
X93132009Y-94475006D01*
X93020009Y-94482006D01*
X92802009Y-94399006D01*
X92739009Y-94352006D01*
X92683009Y-94411006D01*
X92582009Y-94468006D01*
X92442009Y-94428006D01*
X92397009Y-94386006D01*
X92375009Y-94428006D01*
X92370009Y-94436006D01*
X92245009Y-94519006D01*
X92220009Y-94517006D01*
X92096009Y-94511006D01*
X92038009Y-94456006D01*
G37*
G36*
X91934009Y-96910006D02*
G01*
X92418009Y-96910006D01*
X92366009Y-96848006D01*
X92329415Y-96771006D01*
X92495009Y-96771006D01*
X92502009Y-96852006D01*
X92549009Y-96893006D01*
X92675009Y-96908006D01*
X92922009Y-96910006D01*
X93308009Y-96910006D01*
X93331009Y-96859006D01*
X93352009Y-96790006D01*
X93300009Y-96675006D01*
X93246009Y-96653006D01*
X93134009Y-96643006D01*
X92915009Y-96641006D01*
X92662009Y-96648006D01*
X92539009Y-96667006D01*
X92527009Y-96674006D01*
X92495009Y-96766006D01*
X92495009Y-96771006D01*
X92329415Y-96771006D01*
X92318009Y-96747006D01*
X92359009Y-96568006D01*
X92373009Y-96549006D01*
X92469009Y-96477006D01*
X92638009Y-96441006D01*
X92924009Y-96431006D01*
X92978009Y-96431006D01*
X93221009Y-96439006D01*
X93364009Y-96469006D01*
X93459009Y-96528006D01*
X93499009Y-96572006D01*
X93522009Y-96682006D01*
X93522009Y-96700006D01*
X93478009Y-96845006D01*
X93444009Y-96897006D01*
X93473009Y-96910006D01*
X93505009Y-96924006D01*
X93514009Y-97020006D01*
X93514009Y-97130006D01*
X91934009Y-97130006D01*
X91934009Y-96910006D01*
G37*
G36*
X93438009Y-89920006D02*
G01*
X93488009Y-89979006D01*
X93530009Y-90093006D01*
X93456009Y-90283006D01*
X93395009Y-90370006D01*
X93455009Y-90370006D01*
X93506009Y-90384006D01*
X93514009Y-90480006D01*
X93514009Y-90590006D01*
X92334009Y-90590006D01*
X92334009Y-90370006D01*
X93285009Y-90370006D01*
X93320009Y-90312006D01*
X93341009Y-90269006D01*
X93330009Y-90154006D01*
X93282009Y-90142006D01*
X93119009Y-90133006D01*
X92820009Y-90130006D01*
X92334009Y-90130006D01*
X92334009Y-89908006D01*
X93438009Y-89920006D01*
G37*
G36*
X93503009Y-91233006D02*
G01*
X93514009Y-91317006D01*
X93514009Y-91404006D01*
X93105009Y-91461006D01*
X92950009Y-91484006D01*
X92771009Y-91513006D01*
X92706009Y-91529006D01*
X92736009Y-91538006D01*
X92883009Y-91568006D01*
X93111009Y-91611006D01*
X93504009Y-91682006D01*
X93516009Y-91846006D01*
X93420009Y-91866006D01*
X93395009Y-91871006D01*
X93229009Y-91902006D01*
X93000009Y-91942006D01*
X92921009Y-91956006D01*
X92749009Y-91989006D01*
X92683009Y-92006006D01*
X92694009Y-92009006D01*
X92810009Y-92028006D01*
X93006009Y-92059006D01*
X93225009Y-92092006D01*
X93408009Y-92118006D01*
X93499009Y-92129006D01*
X93504009Y-92134006D01*
X93514009Y-92222006D01*
X93510009Y-92292006D01*
X93469009Y-92304006D01*
X93468009Y-92304006D01*
X93369009Y-92287006D01*
X93157009Y-92252006D01*
X92878009Y-92208006D01*
X92332009Y-92121006D01*
X92338009Y-92021006D01*
X92344009Y-91922006D01*
X92731009Y-91847006D01*
X92867009Y-91820006D01*
X93051009Y-91783006D01*
X93126009Y-91765006D01*
X93100009Y-91757006D01*
X92958009Y-91726006D01*
X92734009Y-91681006D01*
X92334009Y-91605006D01*
X92334009Y-91419006D01*
X92909009Y-91324006D01*
X92947009Y-91318006D01*
X93222009Y-91273006D01*
X93419009Y-91242006D01*
X93499009Y-91230006D01*
X93503009Y-91233006D01*
G37*
%TO.C,G\u002A\u002A\u002A*%
G36*
X95541740Y-99434826D02*
G01*
X95564004Y-99509075D01*
X95589670Y-99656028D01*
X95620516Y-99878255D01*
X95627339Y-99932492D01*
X95647333Y-100158565D01*
X95646320Y-100355677D01*
X95624524Y-100562101D01*
X95601853Y-100718170D01*
X95574440Y-100890685D01*
X95552505Y-100990389D01*
X95533088Y-101020073D01*
X95513226Y-100982529D01*
X95489957Y-100880552D01*
X95460321Y-100716932D01*
X95433355Y-100551887D01*
X95415409Y-100398745D01*
X95410030Y-100254850D01*
X95417448Y-100098645D01*
X95437895Y-99908573D01*
X95471601Y-99663077D01*
X95477578Y-99622609D01*
X95500305Y-99494163D01*
X95521100Y-99430712D01*
X95541740Y-99434826D01*
G37*
D10*
X95541740Y-99434826D02*
X95564004Y-99509075D01*
X95589670Y-99656028D01*
X95620516Y-99878255D01*
X95627339Y-99932492D01*
X95647333Y-100158565D01*
X95646320Y-100355677D01*
X95624524Y-100562101D01*
X95601853Y-100718170D01*
X95574440Y-100890685D01*
X95552505Y-100990389D01*
X95533088Y-101020073D01*
X95513226Y-100982529D01*
X95489957Y-100880552D01*
X95460321Y-100716932D01*
X95433355Y-100551887D01*
X95415409Y-100398745D01*
X95410030Y-100254850D01*
X95417448Y-100098645D01*
X95437895Y-99908573D01*
X95471601Y-99663077D01*
X95477578Y-99622609D01*
X95500305Y-99494163D01*
X95521100Y-99430712D01*
X95541740Y-99434826D01*
G36*
X100537079Y-106444915D02*
G01*
X100517893Y-106530967D01*
X100467119Y-106653626D01*
X100395119Y-106794804D01*
X100312256Y-106936414D01*
X100228893Y-107060367D01*
X100155393Y-107148576D01*
X100102118Y-107182954D01*
X100087953Y-107171184D01*
X100096346Y-107115778D01*
X100126418Y-107036783D01*
X100164475Y-106930162D01*
X100178741Y-106895345D01*
X100230936Y-106798614D01*
X100301846Y-106687890D01*
X100379577Y-106579310D01*
X100452237Y-106489010D01*
X100507931Y-106433125D01*
X100534765Y-106427792D01*
X100537079Y-106444915D01*
G37*
X100537079Y-106444915D02*
X100517893Y-106530967D01*
X100467119Y-106653626D01*
X100395119Y-106794804D01*
X100312256Y-106936414D01*
X100228893Y-107060367D01*
X100155393Y-107148576D01*
X100102118Y-107182954D01*
X100087953Y-107171184D01*
X100096346Y-107115778D01*
X100126418Y-107036783D01*
X100164475Y-106930162D01*
X100178741Y-106895345D01*
X100230936Y-106798614D01*
X100301846Y-106687890D01*
X100379577Y-106579310D01*
X100452237Y-106489010D01*
X100507931Y-106433125D01*
X100534765Y-106427792D01*
X100537079Y-106444915D01*
G36*
X100137043Y-105084348D02*
G01*
X100220373Y-105171701D01*
X100255368Y-105213793D01*
X100339250Y-105334504D01*
X100419697Y-105472401D01*
X100486297Y-105607224D01*
X100528643Y-105718716D01*
X100536326Y-105786618D01*
X100533744Y-105791262D01*
X100499298Y-105780666D01*
X100438576Y-105720470D01*
X100362853Y-105625679D01*
X100283404Y-105511295D01*
X100211505Y-105392323D01*
X100158431Y-105283765D01*
X100121727Y-105190487D01*
X100089397Y-105090706D01*
X100093944Y-105056338D01*
X100137043Y-105084348D01*
G37*
X100137043Y-105084348D02*
X100220373Y-105171701D01*
X100255368Y-105213793D01*
X100339250Y-105334504D01*
X100419697Y-105472401D01*
X100486297Y-105607224D01*
X100528643Y-105718716D01*
X100536326Y-105786618D01*
X100533744Y-105791262D01*
X100499298Y-105780666D01*
X100438576Y-105720470D01*
X100362853Y-105625679D01*
X100283404Y-105511295D01*
X100211505Y-105392323D01*
X100158431Y-105283765D01*
X100121727Y-105190487D01*
X100089397Y-105090706D01*
X100093944Y-105056338D01*
X100137043Y-105084348D01*
G36*
X101795168Y-105494245D02*
G01*
X101785763Y-105515340D01*
X101722364Y-105576824D01*
X101613610Y-105656229D01*
X101476446Y-105743574D01*
X101327818Y-105828881D01*
X101184672Y-105902171D01*
X101063952Y-105953463D01*
X100982604Y-105972778D01*
X100976750Y-105969033D01*
X100999321Y-105932561D01*
X101062252Y-105869100D01*
X101150159Y-105793326D01*
X101247659Y-105719914D01*
X101327261Y-105670649D01*
X101446518Y-105608582D01*
X101571681Y-105552182D01*
X101684006Y-105509175D01*
X101764750Y-105487288D01*
X101795168Y-105494245D01*
G37*
X101795168Y-105494245D02*
X101785763Y-105515340D01*
X101722364Y-105576824D01*
X101613610Y-105656229D01*
X101476446Y-105743574D01*
X101327818Y-105828881D01*
X101184672Y-105902171D01*
X101063952Y-105953463D01*
X100982604Y-105972778D01*
X100976750Y-105969033D01*
X100999321Y-105932561D01*
X101062252Y-105869100D01*
X101150159Y-105793326D01*
X101247659Y-105719914D01*
X101327261Y-105670649D01*
X101446518Y-105608582D01*
X101571681Y-105552182D01*
X101684006Y-105509175D01*
X101764750Y-105487288D01*
X101795168Y-105494245D01*
G36*
X97717254Y-90952036D02*
G01*
X97532993Y-90930560D01*
X97394611Y-90895943D01*
X97291351Y-90845481D01*
X97212458Y-90776469D01*
X97147175Y-90686204D01*
X97118797Y-90628237D01*
X97076716Y-90458832D01*
X97069877Y-90333088D01*
X97386496Y-90333088D01*
X97439766Y-90434585D01*
X97468724Y-90457515D01*
X97552897Y-90492899D01*
X97681231Y-90517144D01*
X97862127Y-90531084D01*
X98103986Y-90535553D01*
X98415207Y-90531384D01*
X98499930Y-90529344D01*
X98699956Y-90523409D01*
X98839815Y-90515794D01*
X98932897Y-90504295D01*
X98992593Y-90486712D01*
X99032296Y-90460843D01*
X99065394Y-90424485D01*
X99111898Y-90336572D01*
X99107401Y-90219535D01*
X99030038Y-90117316D01*
X98981730Y-90099816D01*
X98863688Y-90082931D01*
X98696201Y-90071369D01*
X98495082Y-90065010D01*
X98276141Y-90063731D01*
X98055192Y-90067411D01*
X97848044Y-90075930D01*
X97670511Y-90089165D01*
X97538403Y-90106996D01*
X97467532Y-90129301D01*
X97466762Y-90129843D01*
X97396443Y-90221088D01*
X97386496Y-90333088D01*
X97069877Y-90333088D01*
X97066037Y-90262495D01*
X97087047Y-90070351D01*
X97140033Y-89913526D01*
X97159609Y-89878628D01*
X97220438Y-89793050D01*
X97295721Y-89728284D01*
X97396058Y-89681541D01*
X97532048Y-89650037D01*
X97714288Y-89630984D01*
X97953377Y-89621596D01*
X98259914Y-89619085D01*
X98457920Y-89619415D01*
X98671648Y-89621494D01*
X98828558Y-89626459D01*
X98941001Y-89635413D01*
X99021331Y-89649459D01*
X99081900Y-89669700D01*
X99135060Y-89697239D01*
X99238397Y-89767121D01*
X99351172Y-89889211D01*
X99415771Y-90045365D01*
X99443096Y-90255335D01*
X99438796Y-90458902D01*
X99391705Y-90637470D01*
X99293516Y-90773189D01*
X99137743Y-90879316D01*
X99087394Y-90903801D01*
X99021509Y-90928799D01*
X98944889Y-90946184D01*
X98844051Y-90957296D01*
X98705513Y-90963473D01*
X98515791Y-90966055D01*
X98261404Y-90966381D01*
X98103986Y-90964665D01*
X97958149Y-90963077D01*
X97717254Y-90952036D01*
G37*
X97717254Y-90952036D02*
X97532993Y-90930560D01*
X97394611Y-90895943D01*
X97291351Y-90845481D01*
X97212458Y-90776469D01*
X97147175Y-90686204D01*
X97118797Y-90628237D01*
X97076716Y-90458832D01*
X97069877Y-90333088D01*
X97386496Y-90333088D01*
X97439766Y-90434585D01*
X97468724Y-90457515D01*
X97552897Y-90492899D01*
X97681231Y-90517144D01*
X97862127Y-90531084D01*
X98103986Y-90535553D01*
X98415207Y-90531384D01*
X98499930Y-90529344D01*
X98699956Y-90523409D01*
X98839815Y-90515794D01*
X98932897Y-90504295D01*
X98992593Y-90486712D01*
X99032296Y-90460843D01*
X99065394Y-90424485D01*
X99111898Y-90336572D01*
X99107401Y-90219535D01*
X99030038Y-90117316D01*
X98981730Y-90099816D01*
X98863688Y-90082931D01*
X98696201Y-90071369D01*
X98495082Y-90065010D01*
X98276141Y-90063731D01*
X98055192Y-90067411D01*
X97848044Y-90075930D01*
X97670511Y-90089165D01*
X97538403Y-90106996D01*
X97467532Y-90129301D01*
X97466762Y-90129843D01*
X97396443Y-90221088D01*
X97386496Y-90333088D01*
X97069877Y-90333088D01*
X97066037Y-90262495D01*
X97087047Y-90070351D01*
X97140033Y-89913526D01*
X97159609Y-89878628D01*
X97220438Y-89793050D01*
X97295721Y-89728284D01*
X97396058Y-89681541D01*
X97532048Y-89650037D01*
X97714288Y-89630984D01*
X97953377Y-89621596D01*
X98259914Y-89619085D01*
X98457920Y-89619415D01*
X98671648Y-89621494D01*
X98828558Y-89626459D01*
X98941001Y-89635413D01*
X99021331Y-89649459D01*
X99081900Y-89669700D01*
X99135060Y-89697239D01*
X99238397Y-89767121D01*
X99351172Y-89889211D01*
X99415771Y-90045365D01*
X99443096Y-90255335D01*
X99438796Y-90458902D01*
X99391705Y-90637470D01*
X99293516Y-90773189D01*
X99137743Y-90879316D01*
X99087394Y-90903801D01*
X99021509Y-90928799D01*
X98944889Y-90946184D01*
X98844051Y-90957296D01*
X98705513Y-90963473D01*
X98515791Y-90966055D01*
X98261404Y-90966381D01*
X98103986Y-90964665D01*
X97958149Y-90963077D01*
X97717254Y-90952036D01*
G36*
X96357273Y-95334085D02*
G01*
X96345145Y-95480624D01*
X95671951Y-95491312D01*
X95558975Y-95493211D01*
X95342162Y-95498123D01*
X95187327Y-95504687D01*
X95083096Y-95514221D01*
X95018098Y-95528046D01*
X94980961Y-95547478D01*
X94960311Y-95573837D01*
X94943062Y-95630580D01*
X94975739Y-95719457D01*
X94984612Y-95730555D01*
X95015421Y-95754951D01*
X95065781Y-95772725D01*
X95147414Y-95785276D01*
X95272040Y-95794003D01*
X95451377Y-95800305D01*
X95697148Y-95805582D01*
X96364683Y-95817924D01*
X96364683Y-96086316D01*
X95682676Y-96086316D01*
X95667016Y-96086313D01*
X95386979Y-96084237D01*
X95173859Y-96076692D01*
X95016995Y-96061260D01*
X94905729Y-96035526D01*
X94829402Y-95997073D01*
X94777354Y-95943483D01*
X94738925Y-95872340D01*
X94721877Y-95829447D01*
X94688161Y-95633405D01*
X94727689Y-95426652D01*
X94732071Y-95414419D01*
X94768255Y-95338622D01*
X94820288Y-95281623D01*
X94898543Y-95240819D01*
X95013395Y-95213611D01*
X95175215Y-95197397D01*
X95394378Y-95189576D01*
X95681256Y-95187547D01*
X96369401Y-95187547D01*
X96357273Y-95334085D01*
G37*
X96357273Y-95334085D02*
X96345145Y-95480624D01*
X95671951Y-95491312D01*
X95558975Y-95493211D01*
X95342162Y-95498123D01*
X95187327Y-95504687D01*
X95083096Y-95514221D01*
X95018098Y-95528046D01*
X94980961Y-95547478D01*
X94960311Y-95573837D01*
X94943062Y-95630580D01*
X94975739Y-95719457D01*
X94984612Y-95730555D01*
X95015421Y-95754951D01*
X95065781Y-95772725D01*
X95147414Y-95785276D01*
X95272040Y-95794003D01*
X95451377Y-95800305D01*
X95697148Y-95805582D01*
X96364683Y-95817924D01*
X96364683Y-96086316D01*
X95682676Y-96086316D01*
X95667016Y-96086313D01*
X95386979Y-96084237D01*
X95173859Y-96076692D01*
X95016995Y-96061260D01*
X94905729Y-96035526D01*
X94829402Y-95997073D01*
X94777354Y-95943483D01*
X94738925Y-95872340D01*
X94721877Y-95829447D01*
X94688161Y-95633405D01*
X94727689Y-95426652D01*
X94732071Y-95414419D01*
X94768255Y-95338622D01*
X94820288Y-95281623D01*
X94898543Y-95240819D01*
X95013395Y-95213611D01*
X95175215Y-95197397D01*
X95394378Y-95189576D01*
X95681256Y-95187547D01*
X96369401Y-95187547D01*
X96357273Y-95334085D01*
G36*
X101336784Y-105055170D02*
G01*
X101319211Y-105129648D01*
X101279505Y-105240085D01*
X101244273Y-105317950D01*
X101172461Y-105450415D01*
X101089236Y-105584126D01*
X101006504Y-105701455D01*
X100936172Y-105784779D01*
X100890147Y-105816470D01*
X100886835Y-105813007D01*
X100893588Y-105762828D01*
X100920524Y-105670604D01*
X100959814Y-105559080D01*
X101003629Y-105450997D01*
X101044140Y-105369100D01*
X101080030Y-105315155D01*
X101150276Y-105223728D01*
X101227584Y-105132695D01*
X101294065Y-105062836D01*
X101331827Y-105034932D01*
X101336784Y-105055170D01*
G37*
X101336784Y-105055170D02*
X101319211Y-105129648D01*
X101279505Y-105240085D01*
X101244273Y-105317950D01*
X101172461Y-105450415D01*
X101089236Y-105584126D01*
X101006504Y-105701455D01*
X100936172Y-105784779D01*
X100890147Y-105816470D01*
X100886835Y-105813007D01*
X100893588Y-105762828D01*
X100920524Y-105670604D01*
X100959814Y-105559080D01*
X101003629Y-105450997D01*
X101044140Y-105369100D01*
X101080030Y-105315155D01*
X101150276Y-105223728D01*
X101227584Y-105132695D01*
X101294065Y-105062836D01*
X101331827Y-105034932D01*
X101336784Y-105055170D01*
G36*
X99412683Y-87647522D02*
G01*
X99414450Y-87705554D01*
X99414632Y-87754247D01*
X99403787Y-87790830D01*
X99372446Y-87818669D01*
X99311138Y-87841126D01*
X99210396Y-87861565D01*
X99060748Y-87883350D01*
X98852727Y-87909845D01*
X98576863Y-87944412D01*
X98500335Y-87954326D01*
X98321721Y-87979240D01*
X98183329Y-88001143D01*
X98097619Y-88017961D01*
X98077054Y-88027619D01*
X98104777Y-88033908D01*
X98200984Y-88052099D01*
X98350935Y-88078791D01*
X98540754Y-88111527D01*
X98756567Y-88147854D01*
X99393145Y-88253777D01*
X99404887Y-88413043D01*
X99416628Y-88572308D01*
X98732148Y-88683471D01*
X98533406Y-88716229D01*
X98340722Y-88749064D01*
X98189098Y-88776101D01*
X98090576Y-88795185D01*
X98057198Y-88804164D01*
X98076473Y-88808531D01*
X98159713Y-88821597D01*
X98294340Y-88840743D01*
X98464737Y-88863935D01*
X98655289Y-88889142D01*
X98850381Y-88914329D01*
X99034397Y-88937465D01*
X99191723Y-88956518D01*
X99306741Y-88969454D01*
X99363837Y-88974241D01*
X99375729Y-88977591D01*
X99403468Y-89037496D01*
X99412683Y-89172806D01*
X99411350Y-89276114D01*
X99400202Y-89339919D01*
X99368429Y-89358529D01*
X99305222Y-89349743D01*
X99249864Y-89340480D01*
X99124279Y-89321446D01*
X98943082Y-89294956D01*
X98717866Y-89262686D01*
X98460228Y-89226308D01*
X98181760Y-89187497D01*
X97928390Y-89152139D01*
X97675891Y-89116312D01*
X97457715Y-89084737D01*
X97284643Y-89058994D01*
X97167450Y-89040663D01*
X97116914Y-89031325D01*
X97107211Y-89025584D01*
X97078682Y-88960876D01*
X97068068Y-88843010D01*
X97066778Y-88790863D01*
X97067244Y-88742719D01*
X97078787Y-88705905D01*
X97110812Y-88676809D01*
X97172720Y-88651819D01*
X97273914Y-88627323D01*
X97423798Y-88599711D01*
X97631775Y-88565369D01*
X97907247Y-88520688D01*
X98570580Y-88412263D01*
X97946324Y-88304419D01*
X97818402Y-88282294D01*
X97604852Y-88245243D01*
X97418768Y-88212818D01*
X97276667Y-88187899D01*
X97195068Y-88173367D01*
X97152602Y-88164802D01*
X97095184Y-88139387D01*
X97072233Y-88084601D01*
X97068068Y-87976084D01*
X97068493Y-87925373D01*
X97071980Y-87836508D01*
X97077837Y-87800770D01*
X97083813Y-87799924D01*
X97149229Y-87790523D01*
X97278969Y-87771835D01*
X97463480Y-87745235D01*
X97693214Y-87712102D01*
X97958619Y-87673811D01*
X98250145Y-87631739D01*
X99412683Y-87463947D01*
X99412683Y-87647522D01*
G37*
X99412683Y-87647522D02*
X99414450Y-87705554D01*
X99414632Y-87754247D01*
X99403787Y-87790830D01*
X99372446Y-87818669D01*
X99311138Y-87841126D01*
X99210396Y-87861565D01*
X99060748Y-87883350D01*
X98852727Y-87909845D01*
X98576863Y-87944412D01*
X98500335Y-87954326D01*
X98321721Y-87979240D01*
X98183329Y-88001143D01*
X98097619Y-88017961D01*
X98077054Y-88027619D01*
X98104777Y-88033908D01*
X98200984Y-88052099D01*
X98350935Y-88078791D01*
X98540754Y-88111527D01*
X98756567Y-88147854D01*
X99393145Y-88253777D01*
X99404887Y-88413043D01*
X99416628Y-88572308D01*
X98732148Y-88683471D01*
X98533406Y-88716229D01*
X98340722Y-88749064D01*
X98189098Y-88776101D01*
X98090576Y-88795185D01*
X98057198Y-88804164D01*
X98076473Y-88808531D01*
X98159713Y-88821597D01*
X98294340Y-88840743D01*
X98464737Y-88863935D01*
X98655289Y-88889142D01*
X98850381Y-88914329D01*
X99034397Y-88937465D01*
X99191723Y-88956518D01*
X99306741Y-88969454D01*
X99363837Y-88974241D01*
X99375729Y-88977591D01*
X99403468Y-89037496D01*
X99412683Y-89172806D01*
X99411350Y-89276114D01*
X99400202Y-89339919D01*
X99368429Y-89358529D01*
X99305222Y-89349743D01*
X99249864Y-89340480D01*
X99124279Y-89321446D01*
X98943082Y-89294956D01*
X98717866Y-89262686D01*
X98460228Y-89226308D01*
X98181760Y-89187497D01*
X97928390Y-89152139D01*
X97675891Y-89116312D01*
X97457715Y-89084737D01*
X97284643Y-89058994D01*
X97167450Y-89040663D01*
X97116914Y-89031325D01*
X97107211Y-89025584D01*
X97078682Y-88960876D01*
X97068068Y-88843010D01*
X97066778Y-88790863D01*
X97067244Y-88742719D01*
X97078787Y-88705905D01*
X97110812Y-88676809D01*
X97172720Y-88651819D01*
X97273914Y-88627323D01*
X97423798Y-88599711D01*
X97631775Y-88565369D01*
X97907247Y-88520688D01*
X98570580Y-88412263D01*
X97946324Y-88304419D01*
X97818402Y-88282294D01*
X97604852Y-88245243D01*
X97418768Y-88212818D01*
X97276667Y-88187899D01*
X97195068Y-88173367D01*
X97152602Y-88164802D01*
X97095184Y-88139387D01*
X97072233Y-88084601D01*
X97068068Y-87976084D01*
X97068493Y-87925373D01*
X97071980Y-87836508D01*
X97077837Y-87800770D01*
X97083813Y-87799924D01*
X97149229Y-87790523D01*
X97278969Y-87771835D01*
X97463480Y-87745235D01*
X97693214Y-87712102D01*
X97958619Y-87673811D01*
X98250145Y-87631739D01*
X99412683Y-87463947D01*
X99412683Y-87647522D01*
G36*
X99412683Y-94521255D02*
G01*
X98798387Y-94532016D01*
X98184090Y-94542778D01*
X98788618Y-94800217D01*
X99393145Y-95057657D01*
X99405161Y-95220294D01*
X99417177Y-95382932D01*
X97063786Y-95382932D01*
X97075696Y-95197316D01*
X97087607Y-95011701D01*
X97712837Y-94992162D01*
X98338068Y-94972624D01*
X97712837Y-94716166D01*
X97087607Y-94459707D01*
X97075478Y-94315627D01*
X97063350Y-94171547D01*
X99412683Y-94171547D01*
X99412683Y-94521255D01*
G37*
X99412683Y-94521255D02*
X98798387Y-94532016D01*
X98184090Y-94542778D01*
X98788618Y-94800217D01*
X99393145Y-95057657D01*
X99405161Y-95220294D01*
X99417177Y-95382932D01*
X97063786Y-95382932D01*
X97075696Y-95197316D01*
X97087607Y-95011701D01*
X97712837Y-94992162D01*
X98338068Y-94972624D01*
X97712837Y-94716166D01*
X97087607Y-94459707D01*
X97075478Y-94315627D01*
X97063350Y-94171547D01*
X99412683Y-94171547D01*
X99412683Y-94521255D01*
G36*
X96364683Y-94015239D02*
G01*
X96249929Y-94015239D01*
X96186228Y-94010502D01*
X96140668Y-93976342D01*
X96122929Y-93888239D01*
X96110683Y-93761239D01*
X95417068Y-93750568D01*
X94723453Y-93739898D01*
X94723453Y-93429085D01*
X96130222Y-93429085D01*
X96130222Y-93311855D01*
X96133813Y-93249981D01*
X96164418Y-93204307D01*
X96247453Y-93194624D01*
X96364683Y-93194624D01*
X96364683Y-94015239D01*
G37*
X96364683Y-94015239D02*
X96249929Y-94015239D01*
X96186228Y-94010502D01*
X96140668Y-93976342D01*
X96122929Y-93888239D01*
X96110683Y-93761239D01*
X95417068Y-93750568D01*
X94723453Y-93739898D01*
X94723453Y-93429085D01*
X96130222Y-93429085D01*
X96130222Y-93311855D01*
X96133813Y-93249981D01*
X96164418Y-93204307D01*
X96247453Y-93194624D01*
X96364683Y-93194624D01*
X96364683Y-94015239D01*
G36*
X100740453Y-104915538D02*
G01*
X100755451Y-105013787D01*
X100765772Y-105143221D01*
X100770543Y-105289184D01*
X100768890Y-105437021D01*
X100759938Y-105572078D01*
X100742814Y-105679701D01*
X100727105Y-105730025D01*
X100700866Y-105750986D01*
X100674789Y-105694905D01*
X100649424Y-105562470D01*
X100646526Y-105536503D01*
X100643136Y-105414530D01*
X100648164Y-105260501D01*
X100659756Y-105101966D01*
X100676059Y-104966476D01*
X100695220Y-104881584D01*
X100699923Y-104871209D01*
X100721652Y-104863127D01*
X100740453Y-104915538D01*
G37*
X100740453Y-104915538D02*
X100755451Y-105013787D01*
X100765772Y-105143221D01*
X100770543Y-105289184D01*
X100768890Y-105437021D01*
X100759938Y-105572078D01*
X100742814Y-105679701D01*
X100727105Y-105730025D01*
X100700866Y-105750986D01*
X100674789Y-105694905D01*
X100649424Y-105562470D01*
X100646526Y-105536503D01*
X100643136Y-105414530D01*
X100648164Y-105260501D01*
X100659756Y-105101966D01*
X100676059Y-104966476D01*
X100695220Y-104881584D01*
X100699923Y-104871209D01*
X100721652Y-104863127D01*
X100740453Y-104915538D01*
G36*
X99674933Y-105479810D02*
G01*
X99775700Y-105516128D01*
X99906329Y-105578042D01*
X100050285Y-105656123D01*
X100191033Y-105740937D01*
X100312038Y-105823054D01*
X100396766Y-105893043D01*
X100428683Y-105941472D01*
X100409286Y-105946653D01*
X100335519Y-105930080D01*
X100225544Y-105891567D01*
X100145536Y-105859896D01*
X100040590Y-105815389D01*
X99963022Y-105773264D01*
X99883615Y-105716506D01*
X99773153Y-105628097D01*
X99705430Y-105571138D01*
X99639433Y-105509093D01*
X99619174Y-105479723D01*
X99620561Y-105478520D01*
X99674933Y-105479810D01*
G37*
X99674933Y-105479810D02*
X99775700Y-105516128D01*
X99906329Y-105578042D01*
X100050285Y-105656123D01*
X100191033Y-105740937D01*
X100312038Y-105823054D01*
X100396766Y-105893043D01*
X100428683Y-105941472D01*
X100409286Y-105946653D01*
X100335519Y-105930080D01*
X100225544Y-105891567D01*
X100145536Y-105859896D01*
X100040590Y-105815389D01*
X99963022Y-105773264D01*
X99883615Y-105716506D01*
X99773153Y-105628097D01*
X99705430Y-105571138D01*
X99639433Y-105509093D01*
X99619174Y-105479723D01*
X99620561Y-105478520D01*
X99674933Y-105479810D01*
G36*
X94723453Y-92725701D02*
G01*
X95094683Y-92725701D01*
X95143017Y-92725465D01*
X95330086Y-92717722D01*
X95439773Y-92699227D01*
X95472065Y-92670235D01*
X95434035Y-92637161D01*
X95666395Y-92637161D01*
X95666956Y-92688113D01*
X95693856Y-92714425D01*
X95764367Y-92724239D01*
X95895760Y-92725701D01*
X95937423Y-92725668D01*
X96051026Y-92722789D01*
X96108317Y-92709402D01*
X96126568Y-92677363D01*
X96123048Y-92618528D01*
X96103746Y-92551921D01*
X96026975Y-92467984D01*
X95914427Y-92433872D01*
X95788299Y-92460088D01*
X95716797Y-92510814D01*
X95668473Y-92618528D01*
X95666395Y-92637161D01*
X95434035Y-92637161D01*
X95426951Y-92631000D01*
X95304417Y-92581778D01*
X95104453Y-92522823D01*
X94742991Y-92426301D01*
X94730975Y-92263386D01*
X94728323Y-92222116D01*
X94726144Y-92135377D01*
X94730975Y-92101152D01*
X94750092Y-92105969D01*
X94830621Y-92128648D01*
X94958601Y-92165641D01*
X95117482Y-92212195D01*
X95491973Y-92322556D01*
X95598353Y-92231052D01*
X95709689Y-92167205D01*
X95868726Y-92136323D01*
X96034053Y-92150933D01*
X96180684Y-92208313D01*
X96283634Y-92305739D01*
X96290375Y-92318923D01*
X96316748Y-92411654D01*
X96339886Y-92551367D01*
X96355421Y-92713266D01*
X96375700Y-93038316D01*
X94723453Y-93038316D01*
X94723453Y-92725701D01*
G37*
X94723453Y-92725701D02*
X95094683Y-92725701D01*
X95143017Y-92725465D01*
X95330086Y-92717722D01*
X95439773Y-92699227D01*
X95472065Y-92670235D01*
X95434035Y-92637161D01*
X95666395Y-92637161D01*
X95666956Y-92688113D01*
X95693856Y-92714425D01*
X95764367Y-92724239D01*
X95895760Y-92725701D01*
X95937423Y-92725668D01*
X96051026Y-92722789D01*
X96108317Y-92709402D01*
X96126568Y-92677363D01*
X96123048Y-92618528D01*
X96103746Y-92551921D01*
X96026975Y-92467984D01*
X95914427Y-92433872D01*
X95788299Y-92460088D01*
X95716797Y-92510814D01*
X95668473Y-92618528D01*
X95666395Y-92637161D01*
X95434035Y-92637161D01*
X95426951Y-92631000D01*
X95304417Y-92581778D01*
X95104453Y-92522823D01*
X94742991Y-92426301D01*
X94730975Y-92263386D01*
X94728323Y-92222116D01*
X94726144Y-92135377D01*
X94730975Y-92101152D01*
X94750092Y-92105969D01*
X94830621Y-92128648D01*
X94958601Y-92165641D01*
X95117482Y-92212195D01*
X95491973Y-92322556D01*
X95598353Y-92231052D01*
X95709689Y-92167205D01*
X95868726Y-92136323D01*
X96034053Y-92150933D01*
X96180684Y-92208313D01*
X96283634Y-92305739D01*
X96290375Y-92318923D01*
X96316748Y-92411654D01*
X96339886Y-92551367D01*
X96355421Y-92713266D01*
X96375700Y-93038316D01*
X94723453Y-93038316D01*
X94723453Y-92725701D01*
G36*
X100428683Y-106281118D02*
G01*
X100421202Y-106300388D01*
X100361160Y-106360880D01*
X100255037Y-106439473D01*
X100119773Y-106526178D01*
X99972312Y-106611004D01*
X99829594Y-106683962D01*
X99708563Y-106735063D01*
X99626160Y-106754316D01*
X99619223Y-106753754D01*
X99614968Y-106730163D01*
X99662992Y-106678690D01*
X99750046Y-106608714D01*
X99862877Y-106529617D01*
X99988236Y-106450780D01*
X100112870Y-106381584D01*
X100223530Y-106331410D01*
X100311072Y-106300929D01*
X100395890Y-106278763D01*
X100428683Y-106281118D01*
G37*
X100428683Y-106281118D02*
X100421202Y-106300388D01*
X100361160Y-106360880D01*
X100255037Y-106439473D01*
X100119773Y-106526178D01*
X99972312Y-106611004D01*
X99829594Y-106683962D01*
X99708563Y-106735063D01*
X99626160Y-106754316D01*
X99619223Y-106753754D01*
X99614968Y-106730163D01*
X99662992Y-106678690D01*
X99750046Y-106608714D01*
X99862877Y-106529617D01*
X99988236Y-106450780D01*
X100112870Y-106381584D01*
X100223530Y-106331410D01*
X100311072Y-106300929D01*
X100395890Y-106278763D01*
X100428683Y-106281118D01*
G36*
X96693176Y-102890903D02*
G01*
X97107552Y-102893737D01*
X97322611Y-102895345D01*
X97692023Y-102898535D01*
X97995235Y-102902667D01*
X98240176Y-102908842D01*
X98434777Y-102918161D01*
X98586969Y-102931725D01*
X98704681Y-102950635D01*
X98795843Y-102975992D01*
X98868387Y-103008897D01*
X98930241Y-103050451D01*
X98989338Y-103101754D01*
X99053606Y-103163908D01*
X99055649Y-103165929D01*
X99130842Y-103259020D01*
X99232776Y-103411724D01*
X99355145Y-103613305D01*
X99491645Y-103853026D01*
X99635969Y-104120148D01*
X99781813Y-104403936D01*
X99784376Y-104409065D01*
X99854613Y-104561358D01*
X99891632Y-104666702D01*
X99895016Y-104719352D01*
X99864348Y-104713560D01*
X99799212Y-104643579D01*
X99793569Y-104636330D01*
X99733309Y-104552645D01*
X99642273Y-104420047D01*
X99530278Y-104253349D01*
X99407139Y-104067364D01*
X99282675Y-103876905D01*
X99166702Y-103696784D01*
X99069037Y-103541815D01*
X99005895Y-103451012D01*
X98898423Y-103325755D01*
X98797941Y-103236968D01*
X98655568Y-103139701D01*
X97138386Y-103143467D01*
X97060567Y-103143694D01*
X96728414Y-103145457D01*
X96422868Y-103148330D01*
X96152522Y-103152146D01*
X95925965Y-103156737D01*
X95751789Y-103161936D01*
X95638585Y-103167577D01*
X95594944Y-103173492D01*
X95595444Y-103194297D01*
X95634386Y-103258942D01*
X95708437Y-103345572D01*
X95756081Y-103398356D01*
X95831606Y-103496654D01*
X95871631Y-103569937D01*
X95910471Y-103622614D01*
X96002224Y-103671323D01*
X96159186Y-103722086D01*
X96287411Y-103760743D01*
X96626903Y-103891372D01*
X96934520Y-104050311D01*
X97187225Y-104226265D01*
X97309055Y-104316779D01*
X97474307Y-104418444D01*
X97623251Y-104490234D01*
X97713866Y-104526762D01*
X97800252Y-104574167D01*
X97844805Y-104628331D01*
X97867327Y-104706828D01*
X97870418Y-104721588D01*
X97903088Y-104805362D01*
X97944285Y-104839547D01*
X97978192Y-104847876D01*
X98043711Y-104896620D01*
X98062914Y-104929508D01*
X98043535Y-104966153D01*
X97960573Y-105007462D01*
X97830068Y-105061231D01*
X98044991Y-105197149D01*
X98149528Y-105259427D01*
X98296310Y-105337226D01*
X98416222Y-105390544D01*
X98478883Y-105416491D01*
X98555809Y-105472263D01*
X98584355Y-105548500D01*
X98586278Y-105585686D01*
X98560256Y-105650053D01*
X98475640Y-105698907D01*
X98463232Y-105704141D01*
X98390552Y-105739956D01*
X98367571Y-105761307D01*
X98377337Y-105764977D01*
X98448154Y-105783081D01*
X98575558Y-105812414D01*
X98745820Y-105849864D01*
X98945209Y-105892316D01*
X99000981Y-105904006D01*
X99245264Y-105955198D01*
X99424274Y-105993328D01*
X99547330Y-106021233D01*
X99623754Y-106041750D01*
X99662865Y-106057717D01*
X99673985Y-106071968D01*
X99666433Y-106087341D01*
X99649530Y-106106674D01*
X99594640Y-106140891D01*
X99485810Y-106183524D01*
X99348369Y-106223895D01*
X99171926Y-106273326D01*
X98806322Y-106400682D01*
X98413656Y-106564960D01*
X98014577Y-106756582D01*
X97629733Y-106965969D01*
X97279770Y-107183542D01*
X97184891Y-107248341D01*
X96990389Y-107387882D01*
X96807475Y-107527285D01*
X96646753Y-107657780D01*
X96518825Y-107770596D01*
X96434294Y-107856966D01*
X96403760Y-107908119D01*
X96400903Y-107920074D01*
X96361192Y-107987759D01*
X96284515Y-108089575D01*
X96183395Y-108208455D01*
X96120776Y-108279407D01*
X95984246Y-108440878D01*
X95851182Y-108606158D01*
X95731107Y-108762658D01*
X95633546Y-108897786D01*
X95568025Y-108998951D01*
X95544068Y-109053564D01*
X95544196Y-109054641D01*
X95570261Y-109067517D01*
X95645053Y-109078285D01*
X95773475Y-109087136D01*
X95960429Y-109094261D01*
X96210821Y-109099850D01*
X96529553Y-109104095D01*
X96921530Y-109107187D01*
X97193403Y-109108756D01*
X97502659Y-109110391D01*
X97783099Y-109111713D01*
X98024857Y-109112682D01*
X98218066Y-109113260D01*
X98352857Y-109113408D01*
X98419363Y-109113086D01*
X98478139Y-109110579D01*
X98638303Y-109083628D01*
X98776906Y-109020410D01*
X98905950Y-108911607D01*
X99037441Y-108747900D01*
X99183381Y-108519971D01*
X99274231Y-108371718D01*
X99393086Y-108186428D01*
X99515342Y-108003431D01*
X99633449Y-107833338D01*
X99739853Y-107686762D01*
X99827003Y-107574315D01*
X99887346Y-107506609D01*
X99913330Y-107494257D01*
X99913167Y-107499729D01*
X99890951Y-107560736D01*
X99838396Y-107676924D01*
X99760732Y-107837416D01*
X99663190Y-108031335D01*
X99550999Y-108247802D01*
X99540387Y-108267973D01*
X99382695Y-108560296D01*
X99248983Y-108789892D01*
X99132406Y-108965155D01*
X99026119Y-109094480D01*
X98923277Y-109186262D01*
X98817035Y-109248893D01*
X98700548Y-109290769D01*
X98695532Y-109292078D01*
X98598318Y-109306202D01*
X98429261Y-109318149D01*
X98187102Y-109327960D01*
X97870586Y-109335675D01*
X97478456Y-109341334D01*
X97009453Y-109344979D01*
X95485453Y-109352932D01*
X95301161Y-109244599D01*
X95237590Y-109203587D01*
X95113025Y-109105244D01*
X95021200Y-109010137D01*
X94997235Y-108975777D01*
X94929486Y-108869594D01*
X94833293Y-108712580D01*
X94714362Y-108514563D01*
X94578401Y-108285373D01*
X94431115Y-108034839D01*
X94278212Y-107772791D01*
X94125398Y-107509057D01*
X93978381Y-107253467D01*
X93842866Y-107015850D01*
X93724562Y-106806036D01*
X93629175Y-106633853D01*
X93562411Y-106509132D01*
X93529978Y-106441701D01*
X93528096Y-106436627D01*
X93485244Y-106237083D01*
X93484229Y-106015920D01*
X93525370Y-105816470D01*
X93554628Y-105750521D01*
X93621629Y-105620210D01*
X93718143Y-105442938D01*
X93838511Y-105228292D01*
X93977072Y-104985855D01*
X94128166Y-104725214D01*
X94286131Y-104455954D01*
X94445309Y-104187660D01*
X94600038Y-103929917D01*
X94744659Y-103692312D01*
X94873510Y-103484428D01*
X94980933Y-103315853D01*
X95061265Y-103196170D01*
X95108847Y-103134966D01*
X95133200Y-103111210D01*
X95194694Y-103054726D01*
X95256408Y-103008407D01*
X95326133Y-102971312D01*
X95411664Y-102942500D01*
X95520794Y-102921030D01*
X95661315Y-102905963D01*
X95841021Y-102896357D01*
X96067704Y-102891272D01*
X96349158Y-102889767D01*
X96693176Y-102890903D01*
G37*
X96693176Y-102890903D02*
X97107552Y-102893737D01*
X97322611Y-102895345D01*
X97692023Y-102898535D01*
X97995235Y-102902667D01*
X98240176Y-102908842D01*
X98434777Y-102918161D01*
X98586969Y-102931725D01*
X98704681Y-102950635D01*
X98795843Y-102975992D01*
X98868387Y-103008897D01*
X98930241Y-103050451D01*
X98989338Y-103101754D01*
X99053606Y-103163908D01*
X99055649Y-103165929D01*
X99130842Y-103259020D01*
X99232776Y-103411724D01*
X99355145Y-103613305D01*
X99491645Y-103853026D01*
X99635969Y-104120148D01*
X99781813Y-104403936D01*
X99784376Y-104409065D01*
X99854613Y-104561358D01*
X99891632Y-104666702D01*
X99895016Y-104719352D01*
X99864348Y-104713560D01*
X99799212Y-104643579D01*
X99793569Y-104636330D01*
X99733309Y-104552645D01*
X99642273Y-104420047D01*
X99530278Y-104253349D01*
X99407139Y-104067364D01*
X99282675Y-103876905D01*
X99166702Y-103696784D01*
X99069037Y-103541815D01*
X99005895Y-103451012D01*
X98898423Y-103325755D01*
X98797941Y-103236968D01*
X98655568Y-103139701D01*
X97138386Y-103143467D01*
X97060567Y-103143694D01*
X96728414Y-103145457D01*
X96422868Y-103148330D01*
X96152522Y-103152146D01*
X95925965Y-103156737D01*
X95751789Y-103161936D01*
X95638585Y-103167577D01*
X95594944Y-103173492D01*
X95595444Y-103194297D01*
X95634386Y-103258942D01*
X95708437Y-103345572D01*
X95756081Y-103398356D01*
X95831606Y-103496654D01*
X95871631Y-103569937D01*
X95910471Y-103622614D01*
X96002224Y-103671323D01*
X96159186Y-103722086D01*
X96287411Y-103760743D01*
X96626903Y-103891372D01*
X96934520Y-104050311D01*
X97187225Y-104226265D01*
X97309055Y-104316779D01*
X97474307Y-104418444D01*
X97623251Y-104490234D01*
X97713866Y-104526762D01*
X97800252Y-104574167D01*
X97844805Y-104628331D01*
X97867327Y-104706828D01*
X97870418Y-104721588D01*
X97903088Y-104805362D01*
X97944285Y-104839547D01*
X97978192Y-104847876D01*
X98043711Y-104896620D01*
X98062914Y-104929508D01*
X98043535Y-104966153D01*
X97960573Y-105007462D01*
X97830068Y-105061231D01*
X98044991Y-105197149D01*
X98149528Y-105259427D01*
X98296310Y-105337226D01*
X98416222Y-105390544D01*
X98478883Y-105416491D01*
X98555809Y-105472263D01*
X98584355Y-105548500D01*
X98586278Y-105585686D01*
X98560256Y-105650053D01*
X98475640Y-105698907D01*
X98463232Y-105704141D01*
X98390552Y-105739956D01*
X98367571Y-105761307D01*
X98377337Y-105764977D01*
X98448154Y-105783081D01*
X98575558Y-105812414D01*
X98745820Y-105849864D01*
X98945209Y-105892316D01*
X99000981Y-105904006D01*
X99245264Y-105955198D01*
X99424274Y-105993328D01*
X99547330Y-106021233D01*
X99623754Y-106041750D01*
X99662865Y-106057717D01*
X99673985Y-106071968D01*
X99666433Y-106087341D01*
X99649530Y-106106674D01*
X99594640Y-106140891D01*
X99485810Y-106183524D01*
X99348369Y-106223895D01*
X99171926Y-106273326D01*
X98806322Y-106400682D01*
X98413656Y-106564960D01*
X98014577Y-106756582D01*
X97629733Y-106965969D01*
X97279770Y-107183542D01*
X97184891Y-107248341D01*
X96990389Y-107387882D01*
X96807475Y-107527285D01*
X96646753Y-107657780D01*
X96518825Y-107770596D01*
X96434294Y-107856966D01*
X96403760Y-107908119D01*
X96400903Y-107920074D01*
X96361192Y-107987759D01*
X96284515Y-108089575D01*
X96183395Y-108208455D01*
X96120776Y-108279407D01*
X95984246Y-108440878D01*
X95851182Y-108606158D01*
X95731107Y-108762658D01*
X95633546Y-108897786D01*
X95568025Y-108998951D01*
X95544068Y-109053564D01*
X95544196Y-109054641D01*
X95570261Y-109067517D01*
X95645053Y-109078285D01*
X95773475Y-109087136D01*
X95960429Y-109094261D01*
X96210821Y-109099850D01*
X96529553Y-109104095D01*
X96921530Y-109107187D01*
X97193403Y-109108756D01*
X97502659Y-109110391D01*
X97783099Y-109111713D01*
X98024857Y-109112682D01*
X98218066Y-109113260D01*
X98352857Y-109113408D01*
X98419363Y-109113086D01*
X98478139Y-109110579D01*
X98638303Y-109083628D01*
X98776906Y-109020410D01*
X98905950Y-108911607D01*
X99037441Y-108747900D01*
X99183381Y-108519971D01*
X99274231Y-108371718D01*
X99393086Y-108186428D01*
X99515342Y-108003431D01*
X99633449Y-107833338D01*
X99739853Y-107686762D01*
X99827003Y-107574315D01*
X99887346Y-107506609D01*
X99913330Y-107494257D01*
X99913167Y-107499729D01*
X99890951Y-107560736D01*
X99838396Y-107676924D01*
X99760732Y-107837416D01*
X99663190Y-108031335D01*
X99550999Y-108247802D01*
X99540387Y-108267973D01*
X99382695Y-108560296D01*
X99248983Y-108789892D01*
X99132406Y-108965155D01*
X99026119Y-109094480D01*
X98923277Y-109186262D01*
X98817035Y-109248893D01*
X98700548Y-109290769D01*
X98695532Y-109292078D01*
X98598318Y-109306202D01*
X98429261Y-109318149D01*
X98187102Y-109327960D01*
X97870586Y-109335675D01*
X97478456Y-109341334D01*
X97009453Y-109344979D01*
X95485453Y-109352932D01*
X95301161Y-109244599D01*
X95237590Y-109203587D01*
X95113025Y-109105244D01*
X95021200Y-109010137D01*
X94997235Y-108975777D01*
X94929486Y-108869594D01*
X94833293Y-108712580D01*
X94714362Y-108514563D01*
X94578401Y-108285373D01*
X94431115Y-108034839D01*
X94278212Y-107772791D01*
X94125398Y-107509057D01*
X93978381Y-107253467D01*
X93842866Y-107015850D01*
X93724562Y-106806036D01*
X93629175Y-106633853D01*
X93562411Y-106509132D01*
X93529978Y-106441701D01*
X93528096Y-106436627D01*
X93485244Y-106237083D01*
X93484229Y-106015920D01*
X93525370Y-105816470D01*
X93554628Y-105750521D01*
X93621629Y-105620210D01*
X93718143Y-105442938D01*
X93838511Y-105228292D01*
X93977072Y-104985855D01*
X94128166Y-104725214D01*
X94286131Y-104455954D01*
X94445309Y-104187660D01*
X94600038Y-103929917D01*
X94744659Y-103692312D01*
X94873510Y-103484428D01*
X94980933Y-103315853D01*
X95061265Y-103196170D01*
X95108847Y-103134966D01*
X95133200Y-103111210D01*
X95194694Y-103054726D01*
X95256408Y-103008407D01*
X95326133Y-102971312D01*
X95411664Y-102942500D01*
X95520794Y-102921030D01*
X95661315Y-102905963D01*
X95841021Y-102896357D01*
X96067704Y-102891272D01*
X96349158Y-102889767D01*
X96693176Y-102890903D01*
G36*
X97380683Y-91709701D02*
G01*
X99412683Y-91709701D01*
X99412683Y-92139547D01*
X97068068Y-92139547D01*
X97068068Y-91162624D01*
X97380683Y-91162624D01*
X97380683Y-91709701D01*
G37*
X97380683Y-91709701D02*
X99412683Y-91709701D01*
X99412683Y-92139547D01*
X97068068Y-92139547D01*
X97068068Y-91162624D01*
X97380683Y-91162624D01*
X97380683Y-91709701D01*
G36*
X96357273Y-98772855D02*
G01*
X96345145Y-98919393D01*
X94723453Y-98940517D01*
X94723453Y-98626316D01*
X96369401Y-98626316D01*
X96357273Y-98772855D01*
G37*
X96357273Y-98772855D02*
X96345145Y-98919393D01*
X94723453Y-98940517D01*
X94723453Y-98626316D01*
X96369401Y-98626316D01*
X96357273Y-98772855D01*
G36*
X98844230Y-92502298D02*
G01*
X99027171Y-92532208D01*
X99211236Y-92603326D01*
X99336636Y-92717692D01*
X99411226Y-92883252D01*
X99442858Y-93107950D01*
X99437699Y-93323918D01*
X99390362Y-93498060D01*
X99293525Y-93629553D01*
X99140634Y-93731932D01*
X99100413Y-93751441D01*
X99032530Y-93778301D01*
X98956006Y-93797072D01*
X98856940Y-93809183D01*
X98721431Y-93816065D01*
X98535577Y-93819145D01*
X98285476Y-93819855D01*
X98166537Y-93819295D01*
X97920473Y-93814319D01*
X97710645Y-93804805D01*
X97551015Y-93791506D01*
X97455544Y-93775174D01*
X97436307Y-93769010D01*
X97265813Y-93675253D01*
X97136937Y-93533267D01*
X97067625Y-93362158D01*
X97057317Y-93273473D01*
X97065664Y-93118137D01*
X97102316Y-92980678D01*
X97160901Y-92881007D01*
X97235046Y-92839036D01*
X97240721Y-92828689D01*
X97185299Y-92808185D01*
X97143073Y-92792327D01*
X97095379Y-92739940D01*
X97075478Y-92636235D01*
X97063350Y-92491239D01*
X98279453Y-92491239D01*
X98279453Y-93155547D01*
X98142683Y-93155547D01*
X98132273Y-93155530D01*
X98046092Y-93148038D01*
X98011963Y-93110445D01*
X98005914Y-93018778D01*
X98005914Y-92882009D01*
X97820299Y-92882585D01*
X97782257Y-92883380D01*
X97596131Y-92912298D01*
X97465193Y-92979125D01*
X97395938Y-93078914D01*
X97394861Y-93206714D01*
X97404045Y-93234132D01*
X97447251Y-93291646D01*
X97525989Y-93334025D01*
X97648713Y-93362802D01*
X97823875Y-93379513D01*
X98059928Y-93385691D01*
X98365325Y-93382871D01*
X98532809Y-93379364D01*
X98721164Y-93373916D01*
X98852743Y-93366389D01*
X98940253Y-93354864D01*
X98996401Y-93337420D01*
X99033893Y-93312139D01*
X99065435Y-93277101D01*
X99108309Y-93206842D01*
X99120430Y-93098233D01*
X99067559Y-93007110D01*
X98957866Y-92944415D01*
X98799522Y-92921085D01*
X98631145Y-92921085D01*
X98631145Y-92480305D01*
X98844230Y-92502298D01*
G37*
X98844230Y-92502298D02*
X99027171Y-92532208D01*
X99211236Y-92603326D01*
X99336636Y-92717692D01*
X99411226Y-92883252D01*
X99442858Y-93107950D01*
X99437699Y-93323918D01*
X99390362Y-93498060D01*
X99293525Y-93629553D01*
X99140634Y-93731932D01*
X99100413Y-93751441D01*
X99032530Y-93778301D01*
X98956006Y-93797072D01*
X98856940Y-93809183D01*
X98721431Y-93816065D01*
X98535577Y-93819145D01*
X98285476Y-93819855D01*
X98166537Y-93819295D01*
X97920473Y-93814319D01*
X97710645Y-93804805D01*
X97551015Y-93791506D01*
X97455544Y-93775174D01*
X97436307Y-93769010D01*
X97265813Y-93675253D01*
X97136937Y-93533267D01*
X97067625Y-93362158D01*
X97057317Y-93273473D01*
X97065664Y-93118137D01*
X97102316Y-92980678D01*
X97160901Y-92881007D01*
X97235046Y-92839036D01*
X97240721Y-92828689D01*
X97185299Y-92808185D01*
X97143073Y-92792327D01*
X97095379Y-92739940D01*
X97075478Y-92636235D01*
X97063350Y-92491239D01*
X98279453Y-92491239D01*
X98279453Y-93155547D01*
X98142683Y-93155547D01*
X98132273Y-93155530D01*
X98046092Y-93148038D01*
X98011963Y-93110445D01*
X98005914Y-93018778D01*
X98005914Y-92882009D01*
X97820299Y-92882585D01*
X97782257Y-92883380D01*
X97596131Y-92912298D01*
X97465193Y-92979125D01*
X97395938Y-93078914D01*
X97394861Y-93206714D01*
X97404045Y-93234132D01*
X97447251Y-93291646D01*
X97525989Y-93334025D01*
X97648713Y-93362802D01*
X97823875Y-93379513D01*
X98059928Y-93385691D01*
X98365325Y-93382871D01*
X98532809Y-93379364D01*
X98721164Y-93373916D01*
X98852743Y-93366389D01*
X98940253Y-93354864D01*
X98996401Y-93337420D01*
X99033893Y-93312139D01*
X99065435Y-93277101D01*
X99108309Y-93206842D01*
X99120430Y-93098233D01*
X99067559Y-93007110D01*
X98957866Y-92944415D01*
X98799522Y-92921085D01*
X98631145Y-92921085D01*
X98631145Y-92480305D01*
X98844230Y-92502298D01*
G36*
X97711392Y-100945268D02*
G01*
X97489034Y-100988002D01*
X97312194Y-101020930D01*
X97191217Y-101042085D01*
X97136453Y-101049501D01*
X97133754Y-101049455D01*
X97092962Y-101033205D01*
X97073217Y-100975371D01*
X97068068Y-100857882D01*
X97070782Y-100754768D01*
X97089281Y-100686350D01*
X97139026Y-100645737D01*
X97235477Y-100620641D01*
X97394096Y-100598776D01*
X97615145Y-100571157D01*
X97615145Y-100506797D01*
X97927760Y-100506797D01*
X98093837Y-100481527D01*
X98188790Y-100466273D01*
X98349830Y-100438707D01*
X98513914Y-100409176D01*
X98767914Y-100362096D01*
X98455299Y-100311143D01*
X98426200Y-100306387D01*
X98264495Y-100279502D01*
X98125012Y-100255626D01*
X98035222Y-100239446D01*
X98021127Y-100236794D01*
X97957804Y-100233558D01*
X97932408Y-100268973D01*
X97927760Y-100362749D01*
X97927760Y-100506797D01*
X97615145Y-100506797D01*
X97615145Y-100159321D01*
X97394096Y-100131703D01*
X97240654Y-100110714D01*
X97141957Y-100085992D01*
X97090601Y-100046257D01*
X97071125Y-99979221D01*
X97068068Y-99872597D01*
X97069895Y-99806209D01*
X97080486Y-99715875D01*
X97097376Y-99679747D01*
X97103915Y-99680410D01*
X97171220Y-99691867D01*
X97302281Y-99716095D01*
X97487378Y-99751238D01*
X97716791Y-99795440D01*
X97980799Y-99846846D01*
X98269683Y-99903599D01*
X99412683Y-100129097D01*
X99412683Y-100603369D01*
X98308760Y-100826642D01*
X98251268Y-100838251D01*
X97968919Y-100894696D01*
X97927760Y-100902779D01*
X97711392Y-100945268D01*
G37*
X97711392Y-100945268D02*
X97489034Y-100988002D01*
X97312194Y-101020930D01*
X97191217Y-101042085D01*
X97136453Y-101049501D01*
X97133754Y-101049455D01*
X97092962Y-101033205D01*
X97073217Y-100975371D01*
X97068068Y-100857882D01*
X97070782Y-100754768D01*
X97089281Y-100686350D01*
X97139026Y-100645737D01*
X97235477Y-100620641D01*
X97394096Y-100598776D01*
X97615145Y-100571157D01*
X97615145Y-100506797D01*
X97927760Y-100506797D01*
X98093837Y-100481527D01*
X98188790Y-100466273D01*
X98349830Y-100438707D01*
X98513914Y-100409176D01*
X98767914Y-100362096D01*
X98455299Y-100311143D01*
X98426200Y-100306387D01*
X98264495Y-100279502D01*
X98125012Y-100255626D01*
X98035222Y-100239446D01*
X98021127Y-100236794D01*
X97957804Y-100233558D01*
X97932408Y-100268973D01*
X97927760Y-100362749D01*
X97927760Y-100506797D01*
X97615145Y-100506797D01*
X97615145Y-100159321D01*
X97394096Y-100131703D01*
X97240654Y-100110714D01*
X97141957Y-100085992D01*
X97090601Y-100046257D01*
X97071125Y-99979221D01*
X97068068Y-99872597D01*
X97069895Y-99806209D01*
X97080486Y-99715875D01*
X97097376Y-99679747D01*
X97103915Y-99680410D01*
X97171220Y-99691867D01*
X97302281Y-99716095D01*
X97487378Y-99751238D01*
X97716791Y-99795440D01*
X97980799Y-99846846D01*
X98269683Y-99903599D01*
X99412683Y-100129097D01*
X99412683Y-100603369D01*
X98308760Y-100826642D01*
X98251268Y-100838251D01*
X97968919Y-100894696D01*
X97927760Y-100902779D01*
X97711392Y-100945268D01*
G36*
X101111274Y-106303652D02*
G01*
X101223576Y-106344704D01*
X101359006Y-106408896D01*
X101496745Y-106486382D01*
X101615975Y-106567316D01*
X101676431Y-106613850D01*
X101755368Y-106674464D01*
X101793119Y-106703238D01*
X101793974Y-106703922D01*
X101788208Y-106736433D01*
X101747156Y-106737020D01*
X101655006Y-106706569D01*
X101531808Y-106652121D01*
X101396183Y-106582652D01*
X101266754Y-106507142D01*
X101162142Y-106434570D01*
X101102834Y-106384066D01*
X101047504Y-106324414D01*
X101042055Y-106295859D01*
X101042916Y-106295588D01*
X101111274Y-106303652D01*
G37*
X101111274Y-106303652D02*
X101223576Y-106344704D01*
X101359006Y-106408896D01*
X101496745Y-106486382D01*
X101615975Y-106567316D01*
X101676431Y-106613850D01*
X101755368Y-106674464D01*
X101793119Y-106703238D01*
X101793974Y-106703922D01*
X101788208Y-106736433D01*
X101747156Y-106737020D01*
X101655006Y-106706569D01*
X101531808Y-106652121D01*
X101396183Y-106582652D01*
X101266754Y-106507142D01*
X101162142Y-106434570D01*
X101102834Y-106384066D01*
X101047504Y-106324414D01*
X101042055Y-106295859D01*
X101042916Y-106295588D01*
X101111274Y-106303652D01*
G36*
X97380683Y-98978009D02*
G01*
X99412683Y-98978009D01*
X99412683Y-99407855D01*
X97068068Y-99407855D01*
X97068068Y-98430932D01*
X97380683Y-98430932D01*
X97380683Y-98978009D01*
G37*
X97380683Y-98978009D02*
X99412683Y-98978009D01*
X99412683Y-99407855D01*
X97068068Y-99407855D01*
X97068068Y-98430932D01*
X97380683Y-98430932D01*
X97380683Y-98978009D01*
G36*
X95566687Y-87606181D02*
G01*
X95591167Y-87753667D01*
X95620237Y-87977855D01*
X95620459Y-87979679D01*
X95642395Y-88193208D01*
X95648059Y-88368232D01*
X95636865Y-88542533D01*
X95608230Y-88753888D01*
X95590691Y-88863261D01*
X95565077Y-89009364D01*
X95544110Y-89112943D01*
X95531122Y-89156595D01*
X95526123Y-89151929D01*
X95510251Y-89092667D01*
X95489629Y-88979914D01*
X95467431Y-88829947D01*
X95458068Y-88761504D01*
X95436491Y-88612665D01*
X95418604Y-88501040D01*
X95407557Y-88446778D01*
X95400496Y-88423948D01*
X95394049Y-88382348D01*
X95394896Y-88322413D01*
X95404232Y-88229424D01*
X95423252Y-88088660D01*
X95453152Y-87885401D01*
X95472573Y-87759972D01*
X95499739Y-87612293D01*
X95523078Y-87536659D01*
X95544692Y-87534233D01*
X95566687Y-87606181D01*
G37*
X95566687Y-87606181D02*
X95591167Y-87753667D01*
X95620237Y-87977855D01*
X95620459Y-87979679D01*
X95642395Y-88193208D01*
X95648059Y-88368232D01*
X95636865Y-88542533D01*
X95608230Y-88753888D01*
X95590691Y-88863261D01*
X95565077Y-89009364D01*
X95544110Y-89112943D01*
X95531122Y-89156595D01*
X95526123Y-89151929D01*
X95510251Y-89092667D01*
X95489629Y-88979914D01*
X95467431Y-88829947D01*
X95458068Y-88761504D01*
X95436491Y-88612665D01*
X95418604Y-88501040D01*
X95407557Y-88446778D01*
X95400496Y-88423948D01*
X95394049Y-88382348D01*
X95394896Y-88322413D01*
X95404232Y-88229424D01*
X95423252Y-88088660D01*
X95453152Y-87885401D01*
X95472573Y-87759972D01*
X95499739Y-87612293D01*
X95523078Y-87536659D01*
X95544692Y-87534233D01*
X95566687Y-87606181D01*
G36*
X96345145Y-97747085D02*
G01*
X95954376Y-97766624D01*
X95563607Y-97786162D01*
X95964145Y-97958476D01*
X96035004Y-97989088D01*
X96186872Y-98057189D01*
X96283330Y-98107707D01*
X96336822Y-98149445D01*
X96359792Y-98191203D01*
X96364683Y-98241783D01*
X96364683Y-98352778D01*
X94723453Y-98352778D01*
X94723453Y-98081799D01*
X95160186Y-98070750D01*
X95596920Y-98059701D01*
X95160473Y-97883855D01*
X95046218Y-97837498D01*
X94898018Y-97774455D01*
X94803753Y-97727078D01*
X94751341Y-97687526D01*
X94728698Y-97647962D01*
X94723739Y-97600547D01*
X94723453Y-97493085D01*
X96369635Y-97493085D01*
X96345145Y-97747085D01*
G37*
X96345145Y-97747085D02*
X95954376Y-97766624D01*
X95563607Y-97786162D01*
X95964145Y-97958476D01*
X96035004Y-97989088D01*
X96186872Y-98057189D01*
X96283330Y-98107707D01*
X96336822Y-98149445D01*
X96359792Y-98191203D01*
X96364683Y-98241783D01*
X96364683Y-98352778D01*
X94723453Y-98352778D01*
X94723453Y-98081799D01*
X95160186Y-98070750D01*
X95596920Y-98059701D01*
X95160473Y-97883855D01*
X95046218Y-97837498D01*
X94898018Y-97774455D01*
X94803753Y-97727078D01*
X94751341Y-97687526D01*
X94728698Y-97647962D01*
X94723739Y-97600547D01*
X94723453Y-97493085D01*
X96369635Y-97493085D01*
X96345145Y-97747085D01*
G36*
X95195027Y-94105507D02*
G01*
X95322803Y-94154351D01*
X95463618Y-94254646D01*
X95632220Y-94413450D01*
X95747666Y-94525568D01*
X95874330Y-94627496D01*
X95970479Y-94670901D01*
X96044411Y-94658972D01*
X96104427Y-94594899D01*
X96115697Y-94571637D01*
X96110268Y-94492544D01*
X96048067Y-94430873D01*
X95945410Y-94406009D01*
X95937713Y-94405946D01*
X95873697Y-94391326D01*
X95872041Y-94344197D01*
X95883361Y-94305553D01*
X95895760Y-94207428D01*
X95898652Y-94183917D01*
X95944953Y-94138354D01*
X96039137Y-94140663D01*
X96170081Y-94191490D01*
X96270770Y-94261318D01*
X96342861Y-94377545D01*
X96364683Y-94542778D01*
X96340589Y-94725458D01*
X96264863Y-94852891D01*
X96133557Y-94927077D01*
X95942721Y-94951843D01*
X95903383Y-94951963D01*
X95817441Y-94947737D01*
X95748960Y-94928704D01*
X95679970Y-94884541D01*
X95592500Y-94804929D01*
X95468578Y-94679547D01*
X95381022Y-94592095D01*
X95259487Y-94483400D01*
X95168747Y-94424028D01*
X95098006Y-94406009D01*
X95087145Y-94406233D01*
X94997748Y-94434297D01*
X94961010Y-94495497D01*
X94974050Y-94570054D01*
X95033987Y-94638189D01*
X95137939Y-94680122D01*
X95193986Y-94693462D01*
X95236883Y-94732115D01*
X95237292Y-94816891D01*
X95229376Y-94876964D01*
X95206092Y-94950121D01*
X95154749Y-94969806D01*
X95052958Y-94952488D01*
X94970231Y-94926858D01*
X94817711Y-94832894D01*
X94719318Y-94699085D01*
X94693798Y-94607240D01*
X94702006Y-94448043D01*
X94763202Y-94297637D01*
X94866721Y-94178186D01*
X95001899Y-94111854D01*
X95065541Y-94101058D01*
X95195027Y-94105507D01*
G37*
X95195027Y-94105507D02*
X95322803Y-94154351D01*
X95463618Y-94254646D01*
X95632220Y-94413450D01*
X95747666Y-94525568D01*
X95874330Y-94627496D01*
X95970479Y-94670901D01*
X96044411Y-94658972D01*
X96104427Y-94594899D01*
X96115697Y-94571637D01*
X96110268Y-94492544D01*
X96048067Y-94430873D01*
X95945410Y-94406009D01*
X95937713Y-94405946D01*
X95873697Y-94391326D01*
X95872041Y-94344197D01*
X95883361Y-94305553D01*
X95895760Y-94207428D01*
X95898652Y-94183917D01*
X95944953Y-94138354D01*
X96039137Y-94140663D01*
X96170081Y-94191490D01*
X96270770Y-94261318D01*
X96342861Y-94377545D01*
X96364683Y-94542778D01*
X96340589Y-94725458D01*
X96264863Y-94852891D01*
X96133557Y-94927077D01*
X95942721Y-94951843D01*
X95903383Y-94951963D01*
X95817441Y-94947737D01*
X95748960Y-94928704D01*
X95679970Y-94884541D01*
X95592500Y-94804929D01*
X95468578Y-94679547D01*
X95381022Y-94592095D01*
X95259487Y-94483400D01*
X95168747Y-94424028D01*
X95098006Y-94406009D01*
X95087145Y-94406233D01*
X94997748Y-94434297D01*
X94961010Y-94495497D01*
X94974050Y-94570054D01*
X95033987Y-94638189D01*
X95137939Y-94680122D01*
X95193986Y-94693462D01*
X95236883Y-94732115D01*
X95237292Y-94816891D01*
X95229376Y-94876964D01*
X95206092Y-94950121D01*
X95154749Y-94969806D01*
X95052958Y-94952488D01*
X94970231Y-94926858D01*
X94817711Y-94832894D01*
X94719318Y-94699085D01*
X94693798Y-94607240D01*
X94702006Y-94448043D01*
X94763202Y-94297637D01*
X94866721Y-94178186D01*
X95001899Y-94111854D01*
X95065541Y-94101058D01*
X95195027Y-94105507D01*
G36*
X100908448Y-106412444D02*
G01*
X100966337Y-106470047D01*
X101039944Y-106568942D01*
X101120690Y-106694034D01*
X101199998Y-106830229D01*
X101269290Y-106962434D01*
X101319988Y-107075554D01*
X101343515Y-107154495D01*
X101331292Y-107184162D01*
X101322830Y-107182308D01*
X101267509Y-107137400D01*
X101190410Y-107045656D01*
X101104271Y-106924672D01*
X101021826Y-106792045D01*
X100955810Y-106665371D01*
X100897176Y-106532431D01*
X100867463Y-106450978D01*
X100865532Y-106412660D01*
X100887837Y-106403832D01*
X100908448Y-106412444D01*
G37*
X100908448Y-106412444D02*
X100966337Y-106470047D01*
X101039944Y-106568942D01*
X101120690Y-106694034D01*
X101199998Y-106830229D01*
X101269290Y-106962434D01*
X101319988Y-107075554D01*
X101343515Y-107154495D01*
X101331292Y-107184162D01*
X101322830Y-107182308D01*
X101267509Y-107137400D01*
X101190410Y-107045656D01*
X101104271Y-106924672D01*
X101021826Y-106792045D01*
X100955810Y-106665371D01*
X100897176Y-106532431D01*
X100867463Y-106450978D01*
X100865532Y-106412660D01*
X100887837Y-106403832D01*
X100908448Y-106412444D01*
G36*
X98183606Y-98196402D02*
G01*
X97897890Y-98195091D01*
X97640555Y-98192277D01*
X97421557Y-98188182D01*
X97250849Y-98183026D01*
X97138385Y-98177032D01*
X97094119Y-98170419D01*
X97084220Y-98144801D01*
X97072598Y-98057570D01*
X97068068Y-97935957D01*
X97068068Y-97727547D01*
X98123145Y-97727547D01*
X98435760Y-97727547D01*
X99100068Y-97727547D01*
X99100068Y-97576024D01*
X99086344Y-97458255D01*
X99032212Y-97374099D01*
X98926227Y-97330630D01*
X98757093Y-97319396D01*
X98642865Y-97325044D01*
X98546602Y-97348336D01*
X98489649Y-97395250D01*
X98451877Y-97484204D01*
X98435760Y-97598247D01*
X98435760Y-97727547D01*
X98123145Y-97727547D01*
X98123145Y-97528299D01*
X98123468Y-97503193D01*
X98157363Y-97283320D01*
X98242861Y-97104803D01*
X98374018Y-96980618D01*
X98478504Y-96936658D01*
X98657615Y-96905601D01*
X98854581Y-96905527D01*
X99039293Y-96935860D01*
X99181643Y-96996028D01*
X99247406Y-97044222D01*
X99318950Y-97117509D01*
X99366496Y-97208358D01*
X99394740Y-97331872D01*
X99408378Y-97503157D01*
X99412107Y-97737316D01*
X99412683Y-98196470D01*
X98266427Y-98196470D01*
X98183606Y-98196402D01*
G37*
X98183606Y-98196402D02*
X97897890Y-98195091D01*
X97640555Y-98192277D01*
X97421557Y-98188182D01*
X97250849Y-98183026D01*
X97138385Y-98177032D01*
X97094119Y-98170419D01*
X97084220Y-98144801D01*
X97072598Y-98057570D01*
X97068068Y-97935957D01*
X97068068Y-97727547D01*
X98123145Y-97727547D01*
X98435760Y-97727547D01*
X99100068Y-97727547D01*
X99100068Y-97576024D01*
X99086344Y-97458255D01*
X99032212Y-97374099D01*
X98926227Y-97330630D01*
X98757093Y-97319396D01*
X98642865Y-97325044D01*
X98546602Y-97348336D01*
X98489649Y-97395250D01*
X98451877Y-97484204D01*
X98435760Y-97598247D01*
X98435760Y-97727547D01*
X98123145Y-97727547D01*
X98123145Y-97528299D01*
X98123468Y-97503193D01*
X98157363Y-97283320D01*
X98242861Y-97104803D01*
X98374018Y-96980618D01*
X98478504Y-96936658D01*
X98657615Y-96905601D01*
X98854581Y-96905527D01*
X99039293Y-96935860D01*
X99181643Y-96996028D01*
X99247406Y-97044222D01*
X99318950Y-97117509D01*
X99366496Y-97208358D01*
X99394740Y-97331872D01*
X99408378Y-97503157D01*
X99412107Y-97737316D01*
X99412683Y-98196470D01*
X98266427Y-98196470D01*
X98183606Y-98196402D01*
G36*
X96364683Y-91318932D02*
G01*
X94723453Y-91318932D01*
X94723453Y-90967239D01*
X94723457Y-90936213D01*
X94724642Y-90780668D01*
X94730825Y-90685869D01*
X94746185Y-90636775D01*
X94774899Y-90618347D01*
X94821145Y-90615547D01*
X94860351Y-90617398D01*
X94899506Y-90637124D01*
X94915670Y-90694973D01*
X94918837Y-90810932D01*
X94918837Y-91006316D01*
X95465914Y-91006316D01*
X95465914Y-90850009D01*
X95465949Y-90836396D01*
X95472690Y-90742474D01*
X95500665Y-90702232D01*
X95563607Y-90693701D01*
X95572114Y-90693757D01*
X95630816Y-90704542D01*
X95655967Y-90749302D01*
X95661299Y-90850009D01*
X95661299Y-91006316D01*
X96130222Y-91006316D01*
X96130222Y-90810932D01*
X96131538Y-90714446D01*
X96143449Y-90646062D01*
X96178055Y-90619816D01*
X96247453Y-90615547D01*
X96364683Y-90615547D01*
X96364683Y-91318932D01*
G37*
X96364683Y-91318932D02*
X94723453Y-91318932D01*
X94723453Y-90967239D01*
X94723457Y-90936213D01*
X94724642Y-90780668D01*
X94730825Y-90685869D01*
X94746185Y-90636775D01*
X94774899Y-90618347D01*
X94821145Y-90615547D01*
X94860351Y-90617398D01*
X94899506Y-90637124D01*
X94915670Y-90694973D01*
X94918837Y-90810932D01*
X94918837Y-91006316D01*
X95465914Y-91006316D01*
X95465914Y-90850009D01*
X95465949Y-90836396D01*
X95472690Y-90742474D01*
X95500665Y-90702232D01*
X95563607Y-90693701D01*
X95572114Y-90693757D01*
X95630816Y-90704542D01*
X95655967Y-90749302D01*
X95661299Y-90850009D01*
X95661299Y-91006316D01*
X96130222Y-91006316D01*
X96130222Y-90810932D01*
X96131538Y-90714446D01*
X96143449Y-90646062D01*
X96178055Y-90619816D01*
X96247453Y-90615547D01*
X96364683Y-90615547D01*
X96364683Y-91318932D01*
G36*
X101615702Y-106047488D02*
G01*
X101769209Y-106059577D01*
X101874530Y-106082188D01*
X101904360Y-106094107D01*
X101938359Y-106114703D01*
X101911518Y-106131178D01*
X101815914Y-106153123D01*
X101693371Y-106171126D01*
X101496768Y-106180803D01*
X101301038Y-106173412D01*
X101143926Y-106149175D01*
X101034376Y-106120667D01*
X101132068Y-106082387D01*
X101157626Y-106074265D01*
X101280754Y-106054839D01*
X101443165Y-106045911D01*
X101615702Y-106047488D01*
G37*
X101615702Y-106047488D02*
X101769209Y-106059577D01*
X101874530Y-106082188D01*
X101904360Y-106094107D01*
X101938359Y-106114703D01*
X101911518Y-106131178D01*
X101815914Y-106153123D01*
X101693371Y-106171126D01*
X101496768Y-106180803D01*
X101301038Y-106173412D01*
X101143926Y-106149175D01*
X101034376Y-106120667D01*
X101132068Y-106082387D01*
X101157626Y-106074265D01*
X101280754Y-106054839D01*
X101443165Y-106045911D01*
X101615702Y-106047488D01*
G36*
X97380683Y-96203547D02*
G01*
X98123145Y-96203547D01*
X98123145Y-95773701D01*
X98474837Y-95773701D01*
X98474837Y-96203547D01*
X99100068Y-96203547D01*
X99100068Y-95656470D01*
X99412683Y-95656470D01*
X99412683Y-96633393D01*
X97068068Y-96633393D01*
X97068068Y-95656470D01*
X97380683Y-95656470D01*
X97380683Y-96203547D01*
G37*
X97380683Y-96203547D02*
X98123145Y-96203547D01*
X98123145Y-95773701D01*
X98474837Y-95773701D01*
X98474837Y-96203547D01*
X99100068Y-96203547D01*
X99100068Y-95656470D01*
X99412683Y-95656470D01*
X99412683Y-96633393D01*
X97068068Y-96633393D01*
X97068068Y-95656470D01*
X97380683Y-95656470D01*
X97380683Y-96203547D01*
G36*
X96357273Y-91739009D02*
G01*
X96345145Y-91885547D01*
X94723453Y-91906671D01*
X94723453Y-91592470D01*
X96369401Y-91592470D01*
X96357273Y-91739009D01*
G37*
X96357273Y-91739009D02*
X96345145Y-91885547D01*
X94723453Y-91906671D01*
X94723453Y-91592470D01*
X96369401Y-91592470D01*
X96357273Y-91739009D01*
G36*
X95321945Y-89643795D02*
G01*
X95345428Y-89658492D01*
X95430057Y-89724298D01*
X95544333Y-89823156D01*
X95670375Y-89939871D01*
X95771044Y-90032929D01*
X95893210Y-90129086D01*
X95982915Y-90170060D01*
X96049981Y-90159499D01*
X96104229Y-90101053D01*
X96115438Y-90078110D01*
X96110392Y-89998984D01*
X96048618Y-89937135D01*
X95946486Y-89912162D01*
X95886754Y-89906177D01*
X95864994Y-89871586D01*
X95877682Y-89785162D01*
X95893392Y-89714356D01*
X95919317Y-89653055D01*
X95968980Y-89639106D01*
X96068091Y-89654925D01*
X96109569Y-89664903D01*
X96247781Y-89742968D01*
X96334578Y-89876122D01*
X96364683Y-90057207D01*
X96348163Y-90185265D01*
X96272736Y-90330905D01*
X96144944Y-90425514D01*
X95974351Y-90459239D01*
X95881151Y-90455025D01*
X95777263Y-90431320D01*
X95678121Y-90377449D01*
X95565958Y-90283053D01*
X95423009Y-90137773D01*
X95308139Y-90020906D01*
X95224318Y-89951475D01*
X95157369Y-89921040D01*
X95090855Y-89918763D01*
X95056488Y-89923900D01*
X94993423Y-89955871D01*
X94977453Y-90029393D01*
X94980926Y-90068687D01*
X95018648Y-90127918D01*
X95114222Y-90171291D01*
X95137084Y-90179069D01*
X95214803Y-90213437D01*
X95241222Y-90239675D01*
X95234815Y-90280893D01*
X95231453Y-90366692D01*
X95231056Y-90393926D01*
X95218829Y-90443630D01*
X95173108Y-90457995D01*
X95072112Y-90448158D01*
X94965766Y-90423278D01*
X94815799Y-90337380D01*
X94721317Y-90205239D01*
X94713695Y-90184858D01*
X94692165Y-90028202D01*
X94722012Y-89868954D01*
X94795032Y-89732452D01*
X94903021Y-89644038D01*
X95008962Y-89611434D01*
X95175850Y-89604135D01*
X95321945Y-89643795D01*
G37*
X95321945Y-89643795D02*
X95345428Y-89658492D01*
X95430057Y-89724298D01*
X95544333Y-89823156D01*
X95670375Y-89939871D01*
X95771044Y-90032929D01*
X95893210Y-90129086D01*
X95982915Y-90170060D01*
X96049981Y-90159499D01*
X96104229Y-90101053D01*
X96115438Y-90078110D01*
X96110392Y-89998984D01*
X96048618Y-89937135D01*
X95946486Y-89912162D01*
X95886754Y-89906177D01*
X95864994Y-89871586D01*
X95877682Y-89785162D01*
X95893392Y-89714356D01*
X95919317Y-89653055D01*
X95968980Y-89639106D01*
X96068091Y-89654925D01*
X96109569Y-89664903D01*
X96247781Y-89742968D01*
X96334578Y-89876122D01*
X96364683Y-90057207D01*
X96348163Y-90185265D01*
X96272736Y-90330905D01*
X96144944Y-90425514D01*
X95974351Y-90459239D01*
X95881151Y-90455025D01*
X95777263Y-90431320D01*
X95678121Y-90377449D01*
X95565958Y-90283053D01*
X95423009Y-90137773D01*
X95308139Y-90020906D01*
X95224318Y-89951475D01*
X95157369Y-89921040D01*
X95090855Y-89918763D01*
X95056488Y-89923900D01*
X94993423Y-89955871D01*
X94977453Y-90029393D01*
X94980926Y-90068687D01*
X95018648Y-90127918D01*
X95114222Y-90171291D01*
X95137084Y-90179069D01*
X95214803Y-90213437D01*
X95241222Y-90239675D01*
X95234815Y-90280893D01*
X95231453Y-90366692D01*
X95231056Y-90393926D01*
X95218829Y-90443630D01*
X95173108Y-90457995D01*
X95072112Y-90448158D01*
X94965766Y-90423278D01*
X94815799Y-90337380D01*
X94721317Y-90205239D01*
X94713695Y-90184858D01*
X94692165Y-90028202D01*
X94722012Y-89868954D01*
X94795032Y-89732452D01*
X94903021Y-89644038D01*
X95008962Y-89611434D01*
X95175850Y-89604135D01*
X95321945Y-89643795D01*
G36*
X100732836Y-106482543D02*
G01*
X100751100Y-106569512D01*
X100764130Y-106695296D01*
X100771001Y-106844659D01*
X100770788Y-107002364D01*
X100762567Y-107153175D01*
X100745413Y-107281855D01*
X100714955Y-107438162D01*
X100686448Y-107281855D01*
X100681265Y-107253726D01*
X100659690Y-107141873D01*
X100643789Y-107066932D01*
X100639159Y-107018035D01*
X100640808Y-106907751D01*
X100649520Y-106770707D01*
X100663052Y-106633125D01*
X100679160Y-106521228D01*
X100695601Y-106461239D01*
X100710264Y-106449624D01*
X100732836Y-106482543D01*
G37*
X100732836Y-106482543D02*
X100751100Y-106569512D01*
X100764130Y-106695296D01*
X100771001Y-106844659D01*
X100770788Y-107002364D01*
X100762567Y-107153175D01*
X100745413Y-107281855D01*
X100714955Y-107438162D01*
X100686448Y-107281855D01*
X100681265Y-107253726D01*
X100659690Y-107141873D01*
X100643789Y-107066932D01*
X100639159Y-107018035D01*
X100640808Y-106907751D01*
X100649520Y-106770707D01*
X100663052Y-106633125D01*
X100679160Y-106521228D01*
X100695601Y-106461239D01*
X100710264Y-106449624D01*
X100732836Y-106482543D01*
G36*
X94723453Y-96928309D02*
G01*
X94724168Y-96906932D01*
X94957914Y-96906932D01*
X95544068Y-96906932D01*
X95623181Y-96906892D01*
X95826364Y-96905809D01*
X95966636Y-96902123D01*
X96055576Y-96894345D01*
X96104767Y-96880986D01*
X96125788Y-96860557D01*
X96130222Y-96831569D01*
X96128364Y-96795444D01*
X96105426Y-96727152D01*
X96047718Y-96680533D01*
X95944467Y-96651856D01*
X95784901Y-96637387D01*
X95558246Y-96633393D01*
X95396042Y-96635971D01*
X95228861Y-96644519D01*
X95101653Y-96657634D01*
X95033499Y-96673845D01*
X94987658Y-96716849D01*
X94957914Y-96810614D01*
X94957914Y-96906932D01*
X94724168Y-96906932D01*
X94729719Y-96741053D01*
X94756897Y-96583288D01*
X94814481Y-96470002D01*
X94911910Y-96394151D01*
X95058623Y-96348693D01*
X95264060Y-96326583D01*
X95537661Y-96320778D01*
X95719058Y-96323453D01*
X95893591Y-96331418D01*
X96029128Y-96343399D01*
X96106096Y-96358111D01*
X96202424Y-96414728D01*
X96281196Y-96521540D01*
X96331085Y-96683237D01*
X96356819Y-96910226D01*
X96374725Y-97219547D01*
X94723453Y-97219547D01*
X94723453Y-96928309D01*
G37*
X94723453Y-96928309D02*
X94724168Y-96906932D01*
X94957914Y-96906932D01*
X95544068Y-96906932D01*
X95623181Y-96906892D01*
X95826364Y-96905809D01*
X95966636Y-96902123D01*
X96055576Y-96894345D01*
X96104767Y-96880986D01*
X96125788Y-96860557D01*
X96130222Y-96831569D01*
X96128364Y-96795444D01*
X96105426Y-96727152D01*
X96047718Y-96680533D01*
X95944467Y-96651856D01*
X95784901Y-96637387D01*
X95558246Y-96633393D01*
X95396042Y-96635971D01*
X95228861Y-96644519D01*
X95101653Y-96657634D01*
X95033499Y-96673845D01*
X94987658Y-96716849D01*
X94957914Y-96810614D01*
X94957914Y-96906932D01*
X94724168Y-96906932D01*
X94729719Y-96741053D01*
X94756897Y-96583288D01*
X94814481Y-96470002D01*
X94911910Y-96394151D01*
X95058623Y-96348693D01*
X95264060Y-96326583D01*
X95537661Y-96320778D01*
X95719058Y-96323453D01*
X95893591Y-96331418D01*
X96029128Y-96343399D01*
X96106096Y-96358111D01*
X96202424Y-96414728D01*
X96281196Y-96521540D01*
X96331085Y-96683237D01*
X96356819Y-96910226D01*
X96374725Y-97219547D01*
X94723453Y-97219547D01*
X94723453Y-96928309D01*
%TD*%
D11*
%TO.C,D1*%
X101219991Y-112054005D03*
D12*
X101219991Y-114594005D03*
%TD*%
D11*
%TO.C,D2*%
X113920000Y-118150000D03*
D12*
X113920000Y-120690000D03*
%TD*%
D11*
%TO.C,D3*%
X123826000Y-112181000D03*
D12*
X123826000Y-114721000D03*
%TD*%
D13*
%TO.C,REF\u002A\u002A*%
X114317000Y-75775000D03*
%TD*%
D14*
%TO.C,BT1*%
X125476000Y-93345000D03*
X104394000Y-93345000D03*
D15*
X114935000Y-93345000D03*
%TD*%
D16*
%TO.C,SW1*%
X132905459Y-106336620D03*
X131543487Y-109009639D03*
X130181516Y-111682659D03*
%TD*%
M02*
