%TF.GenerationSoftware,KiCad,Pcbnew,(6.0.5)*%
%TF.CreationDate,2022-07-23T19:00:58-07:00*%
%TF.ProjectId,StormCloud,53746f72-6d43-46c6-9f75-642e6b696361,rev?*%
%TF.SameCoordinates,Original*%
%TF.FileFunction,Soldermask,Top*%
%TF.FilePolarity,Negative*%
%FSLAX46Y46*%
G04 Gerber Fmt 4.6, Leading zero omitted, Abs format (unit mm)*
G04 Created by KiCad (PCBNEW (6.0.5)) date 2022-07-23 19:00:58*
%MOMM*%
%LPD*%
G01*
G04 APERTURE LIST*
G04 Aperture macros list*
%AMRoundRect*
0 Rectangle with rounded corners*
0 $1 Rounding radius*
0 $2 $3 $4 $5 $6 $7 $8 $9 X,Y pos of 4 corners*
0 Add a 4 corners polygon primitive as box body*
4,1,4,$2,$3,$4,$5,$6,$7,$8,$9,$2,$3,0*
0 Add four circle primitives for the rounded corners*
1,1,$1+$1,$2,$3*
1,1,$1+$1,$4,$5*
1,1,$1+$1,$6,$7*
1,1,$1+$1,$8,$9*
0 Add four rect primitives between the rounded corners*
20,1,$1+$1,$2,$3,$4,$5,0*
20,1,$1+$1,$4,$5,$6,$7,0*
20,1,$1+$1,$6,$7,$8,$9,0*
20,1,$1+$1,$8,$9,$2,$3,0*%
%AMHorizOval*
0 Thick line with rounded ends*
0 $1 width*
0 $2 $3 position (X,Y) of the first rounded end (center of the circle)*
0 $4 $5 position (X,Y) of the second rounded end (center of the circle)*
0 Add line between two ends*
20,1,$1,$2,$3,$4,$5,0*
0 Add two circle primitives to create the rounded ends*
1,1,$1,$2,$3*
1,1,$1,$4,$5*%
G04 Aperture macros list end*
%ADD10C,1.000000*%
%ADD11C,2.000000*%
%ADD12C,1.300000*%
%ADD13C,0.500000*%
%ADD14C,0.100000*%
%ADD15RoundRect,0.050000X-0.900000X0.900000X-0.900000X-0.900000X0.900000X-0.900000X0.900000X0.900000X0*%
%ADD16C,1.900000*%
%ADD17O,2.600000X4.100000*%
%ADD18HorizOval,2.000000X-0.772741X0.207055X0.772741X-0.207055X0*%
%ADD19RoundRect,0.050000X-1.039175X0.951376X-1.375640X-0.304328X1.039175X-0.951376X1.375640X0.304328X0*%
%ADD20HorizOval,1.400000X-0.579555X0.155291X0.579555X-0.155291X0*%
G04 APERTURE END LIST*
D10*
G36*
X107838875Y-89154000D02*
G01*
X106426000Y-90773250D01*
X98821875Y-85979000D01*
X100980875Y-84836000D01*
X107838875Y-89154000D01*
G37*
X107838875Y-89154000D02*
X106426000Y-90773250D01*
X98821875Y-85979000D01*
X100980875Y-84836000D01*
X107838875Y-89154000D01*
G36*
X124206000Y-85852000D02*
G01*
X116601875Y-90646250D01*
X115189000Y-89027000D01*
X122047000Y-84709000D01*
X124206000Y-85852000D01*
G37*
X124206000Y-85852000D02*
X116601875Y-90646250D01*
X115189000Y-89027000D01*
X122047000Y-84709000D01*
X124206000Y-85852000D01*
D11*
X125904955Y-93795045D02*
G75*
G03*
X125904955Y-93795045I-4204955J0D01*
G01*
X104904955Y-93795045D02*
G75*
G03*
X104904955Y-93795045I-4204955J0D01*
G01*
D12*
X109600000Y-99500000D02*
G75*
G03*
X114800000Y-99500000I2600000J0D01*
G01*
X109600000Y-99500000D02*
X114800000Y-99500000D01*
D13*
G36*
X114400000Y-100900000D02*
G01*
X113900000Y-101600000D01*
X113100000Y-102000000D01*
X112300000Y-102200000D01*
X111300000Y-102000000D01*
X110700000Y-101700000D01*
X110000000Y-100900000D01*
X109700000Y-100200000D01*
X109700000Y-99500000D01*
X114900000Y-99500000D01*
X114400000Y-100900000D01*
G37*
X114400000Y-100900000D02*
X113900000Y-101600000D01*
X113100000Y-102000000D01*
X112300000Y-102200000D01*
X111300000Y-102000000D01*
X110700000Y-101700000D01*
X110000000Y-100900000D01*
X109700000Y-100200000D01*
X109700000Y-99500000D01*
X114900000Y-99500000D01*
X114400000Y-100900000D01*
D14*
G36*
X99822000Y-105156000D02*
G01*
X100965000Y-111125000D01*
X97409000Y-111125000D01*
X97917000Y-112903000D01*
X96139000Y-112903000D01*
X92964000Y-108331000D01*
X96520000Y-108331000D01*
X94742000Y-104902000D01*
X99822000Y-105156000D01*
G37*
X99822000Y-105156000D02*
X100965000Y-111125000D01*
X97409000Y-111125000D01*
X97917000Y-112903000D01*
X96139000Y-112903000D01*
X92964000Y-108331000D01*
X96520000Y-108331000D01*
X94742000Y-104902000D01*
X99822000Y-105156000D01*
G36*
X115125500Y-113411000D02*
G01*
X111950500Y-113411000D01*
X112268000Y-116713000D01*
X110267750Y-116903500D01*
X104870250Y-110680500D01*
X109093000Y-110617000D01*
X106553000Y-105156000D01*
X112776000Y-105156000D01*
X115125500Y-113411000D01*
G37*
X115125500Y-113411000D02*
X111950500Y-113411000D01*
X112268000Y-116713000D01*
X110267750Y-116903500D01*
X104870250Y-110680500D01*
X109093000Y-110617000D01*
X106553000Y-105156000D01*
X112776000Y-105156000D01*
X115125500Y-113411000D01*
G36*
X127000000Y-109982000D02*
G01*
X123825000Y-109982000D01*
X124079000Y-110871000D01*
X123317000Y-110871000D01*
X123317000Y-112141000D01*
X119380000Y-107950000D01*
X122174000Y-107950000D01*
X120904000Y-105283000D01*
X125603000Y-105283000D01*
X127000000Y-109982000D01*
G37*
X127000000Y-109982000D02*
X123825000Y-109982000D01*
X124079000Y-110871000D01*
X123317000Y-110871000D01*
X123317000Y-112141000D01*
X119380000Y-107950000D01*
X122174000Y-107950000D01*
X120904000Y-105283000D01*
X125603000Y-105283000D01*
X127000000Y-109982000D01*
%TO.C,G\u002A\u002A\u002A*%
G36*
X90606075Y-96617320D02*
G01*
X91040450Y-95486881D01*
X91404899Y-94824960D01*
X91859050Y-94159262D01*
X92355635Y-93550460D01*
X92847385Y-93059231D01*
X93070389Y-92881174D01*
X93341794Y-92670593D01*
X93467026Y-92505055D01*
X93486454Y-92311342D01*
X93466179Y-92163348D01*
X93353735Y-91464760D01*
X93281327Y-90927202D01*
X93245558Y-90495147D01*
X93243033Y-90113067D01*
X93270354Y-89725436D01*
X93300732Y-89458449D01*
X93570129Y-88131963D01*
X94029280Y-86897272D01*
X94664214Y-85770697D01*
X95460958Y-84768561D01*
X96405541Y-83907183D01*
X97483991Y-83202885D01*
X98682338Y-82671988D01*
X99264304Y-82492029D01*
X100087389Y-82340856D01*
X101012765Y-82287031D01*
X101955484Y-82328620D01*
X102830598Y-82463690D01*
X103271082Y-82583236D01*
X104130469Y-82865602D01*
X104416234Y-82296432D01*
X105096034Y-81168768D01*
X105923486Y-80180606D01*
X106877420Y-79345534D01*
X107936664Y-78677138D01*
X109080047Y-78189003D01*
X110286400Y-77894716D01*
X111412130Y-77806826D01*
X112627775Y-77914365D01*
X113815305Y-78225410D01*
X114948223Y-78722603D01*
X116000035Y-79388587D01*
X116944246Y-80206003D01*
X117754362Y-81157495D01*
X118403886Y-82225704D01*
X118516418Y-82461073D01*
X118700157Y-82863580D01*
X119556361Y-82583269D01*
X120290333Y-82408518D01*
X121144120Y-82308724D01*
X122029786Y-82287324D01*
X122859396Y-82347752D01*
X123339087Y-82435483D01*
X124595291Y-82851555D01*
X125753567Y-83454932D01*
X126793327Y-84229296D01*
X127693981Y-85158328D01*
X128434940Y-86225710D01*
X128667739Y-86658945D01*
X128913184Y-87187745D01*
X129139761Y-87738310D01*
X129312711Y-88223618D01*
X129366660Y-88408566D01*
X129482492Y-89039891D01*
X129546764Y-89785960D01*
X129558151Y-90563900D01*
X129515326Y-91290837D01*
X129421973Y-91863811D01*
X129338987Y-92221469D01*
X129318440Y-92429955D01*
X129369120Y-92554353D01*
X129499815Y-92659746D01*
X129532408Y-92681649D01*
X129930682Y-93002868D01*
X130385773Y-93455556D01*
X130844279Y-93979777D01*
X131252800Y-94515595D01*
X131484956Y-94873138D01*
X131892459Y-95630552D01*
X132173503Y-96332112D01*
X132346731Y-97049470D01*
X132430786Y-97854277D01*
X132446500Y-98568566D01*
X132380738Y-99743081D01*
X132178452Y-100781107D01*
X131822679Y-101731867D01*
X131296459Y-102644580D01*
X130822562Y-103281069D01*
X130131695Y-104034731D01*
X129370949Y-104653849D01*
X128489474Y-105174108D01*
X127517934Y-105600060D01*
X126707348Y-105912479D01*
X111688217Y-105935183D01*
X109561274Y-105938303D01*
X107643685Y-105940814D01*
X105923935Y-105942581D01*
X104390509Y-105943469D01*
X103031892Y-105943344D01*
X101836568Y-105942071D01*
X100793024Y-105939514D01*
X99889743Y-105935538D01*
X99115210Y-105930010D01*
X98457911Y-105922794D01*
X97906331Y-105913756D01*
X97448954Y-105902760D01*
X97074266Y-105889671D01*
X96770751Y-105874355D01*
X96526895Y-105856677D01*
X96331182Y-105836502D01*
X96172097Y-105813695D01*
X96038125Y-105788121D01*
X95917751Y-105759645D01*
X95880807Y-105750053D01*
X94684881Y-105325397D01*
X93603129Y-104721732D01*
X92650411Y-103957330D01*
X91841589Y-103050464D01*
X91191523Y-102019406D01*
X90715076Y-100882430D01*
X90427107Y-99657809D01*
X90354537Y-98955087D01*
X90355092Y-98929157D01*
X91787231Y-98929157D01*
X91948635Y-99976284D01*
X92311596Y-101005716D01*
X92880258Y-101996524D01*
X93073575Y-102259860D01*
X93829153Y-103062012D01*
X94723524Y-103700754D01*
X95734020Y-104163387D01*
X96837970Y-104437207D01*
X97000391Y-104459969D01*
X97149818Y-104465034D01*
X97506799Y-104469735D01*
X98058019Y-104474046D01*
X98790163Y-104477940D01*
X99689915Y-104481390D01*
X100743962Y-104484371D01*
X101938987Y-104486855D01*
X103261675Y-104488815D01*
X104698712Y-104490227D01*
X106236781Y-104491062D01*
X107862569Y-104491294D01*
X109562760Y-104490897D01*
X111324039Y-104489845D01*
X111798652Y-104489453D01*
X126265608Y-104476826D01*
X126983435Y-104230923D01*
X127988980Y-103777721D01*
X128895781Y-103152442D01*
X129670639Y-102383813D01*
X130280357Y-101500559D01*
X130397393Y-101276816D01*
X130819471Y-100187768D01*
X131027407Y-99082365D01*
X131021259Y-97978555D01*
X130801082Y-96894282D01*
X130380462Y-95873191D01*
X130177445Y-95549001D01*
X129883546Y-95159441D01*
X129532935Y-94741223D01*
X129159779Y-94331062D01*
X128798248Y-93965672D01*
X128482509Y-93681766D01*
X128246732Y-93516058D01*
X128161147Y-93488566D01*
X127961108Y-93422979D01*
X127764082Y-93295305D01*
X127526347Y-93102044D01*
X127746642Y-92413735D01*
X127984993Y-91575579D01*
X128115409Y-90860429D01*
X128145598Y-90203118D01*
X128085286Y-89551663D01*
X127834813Y-88403086D01*
X127443209Y-87398273D01*
X126888822Y-86495225D01*
X126150004Y-85651945D01*
X126000839Y-85508050D01*
X125062892Y-84764613D01*
X124044214Y-84225955D01*
X122949833Y-83894099D01*
X121784776Y-83771068D01*
X121682565Y-83770305D01*
X120731551Y-83839207D01*
X119826993Y-84058625D01*
X118892556Y-84447622D01*
X118814079Y-84486711D01*
X118435939Y-84670818D01*
X118131010Y-84807634D01*
X117954914Y-84872486D01*
X117939608Y-84874653D01*
X117859455Y-84777272D01*
X117736885Y-84517964D01*
X117594196Y-84145977D01*
X117545769Y-84004713D01*
X117071281Y-82881426D01*
X116456156Y-81900998D01*
X115720981Y-81068557D01*
X114886340Y-80389231D01*
X113972821Y-79868145D01*
X113001007Y-79510429D01*
X111991487Y-79321209D01*
X110964844Y-79305613D01*
X109941666Y-79468767D01*
X108942537Y-79815800D01*
X107988044Y-80351839D01*
X107098772Y-81082011D01*
X106847449Y-81340049D01*
X106230134Y-82094447D01*
X105750571Y-82894640D01*
X105364987Y-83816912D01*
X105278557Y-84074217D01*
X104987164Y-84977623D01*
X104112855Y-84538029D01*
X103235119Y-84146395D01*
X102429012Y-83902138D01*
X101620923Y-83786235D01*
X101141695Y-83770305D01*
X99994627Y-83867265D01*
X98933446Y-84162024D01*
X97944440Y-84660403D01*
X97013896Y-85368221D01*
X96718375Y-85647696D01*
X95923437Y-86578498D01*
X95325354Y-87588113D01*
X94928833Y-88658731D01*
X94738582Y-89772542D01*
X94759308Y-90911735D01*
X94995718Y-92058501D01*
X95010923Y-92108131D01*
X95137016Y-92522626D01*
X95232990Y-92854348D01*
X95283162Y-93048478D01*
X95286995Y-93073050D01*
X95202239Y-93173224D01*
X94984036Y-93338998D01*
X94819304Y-93446913D01*
X93858439Y-94160671D01*
X93074254Y-94982315D01*
X92470894Y-95890916D01*
X92052507Y-96865543D01*
X91823237Y-97885267D01*
X91787231Y-98929157D01*
X90355092Y-98929157D01*
X90380175Y-97758878D01*
X90606075Y-96617320D01*
G37*
D10*
X90606075Y-96617320D02*
X91040450Y-95486881D01*
X91404899Y-94824960D01*
X91859050Y-94159262D01*
X92355635Y-93550460D01*
X92847385Y-93059231D01*
X93070389Y-92881174D01*
X93341794Y-92670593D01*
X93467026Y-92505055D01*
X93486454Y-92311342D01*
X93466179Y-92163348D01*
X93353735Y-91464760D01*
X93281327Y-90927202D01*
X93245558Y-90495147D01*
X93243033Y-90113067D01*
X93270354Y-89725436D01*
X93300732Y-89458449D01*
X93570129Y-88131963D01*
X94029280Y-86897272D01*
X94664214Y-85770697D01*
X95460958Y-84768561D01*
X96405541Y-83907183D01*
X97483991Y-83202885D01*
X98682338Y-82671988D01*
X99264304Y-82492029D01*
X100087389Y-82340856D01*
X101012765Y-82287031D01*
X101955484Y-82328620D01*
X102830598Y-82463690D01*
X103271082Y-82583236D01*
X104130469Y-82865602D01*
X104416234Y-82296432D01*
X105096034Y-81168768D01*
X105923486Y-80180606D01*
X106877420Y-79345534D01*
X107936664Y-78677138D01*
X109080047Y-78189003D01*
X110286400Y-77894716D01*
X111412130Y-77806826D01*
X112627775Y-77914365D01*
X113815305Y-78225410D01*
X114948223Y-78722603D01*
X116000035Y-79388587D01*
X116944246Y-80206003D01*
X117754362Y-81157495D01*
X118403886Y-82225704D01*
X118516418Y-82461073D01*
X118700157Y-82863580D01*
X119556361Y-82583269D01*
X120290333Y-82408518D01*
X121144120Y-82308724D01*
X122029786Y-82287324D01*
X122859396Y-82347752D01*
X123339087Y-82435483D01*
X124595291Y-82851555D01*
X125753567Y-83454932D01*
X126793327Y-84229296D01*
X127693981Y-85158328D01*
X128434940Y-86225710D01*
X128667739Y-86658945D01*
X128913184Y-87187745D01*
X129139761Y-87738310D01*
X129312711Y-88223618D01*
X129366660Y-88408566D01*
X129482492Y-89039891D01*
X129546764Y-89785960D01*
X129558151Y-90563900D01*
X129515326Y-91290837D01*
X129421973Y-91863811D01*
X129338987Y-92221469D01*
X129318440Y-92429955D01*
X129369120Y-92554353D01*
X129499815Y-92659746D01*
X129532408Y-92681649D01*
X129930682Y-93002868D01*
X130385773Y-93455556D01*
X130844279Y-93979777D01*
X131252800Y-94515595D01*
X131484956Y-94873138D01*
X131892459Y-95630552D01*
X132173503Y-96332112D01*
X132346731Y-97049470D01*
X132430786Y-97854277D01*
X132446500Y-98568566D01*
X132380738Y-99743081D01*
X132178452Y-100781107D01*
X131822679Y-101731867D01*
X131296459Y-102644580D01*
X130822562Y-103281069D01*
X130131695Y-104034731D01*
X129370949Y-104653849D01*
X128489474Y-105174108D01*
X127517934Y-105600060D01*
X126707348Y-105912479D01*
X111688217Y-105935183D01*
X109561274Y-105938303D01*
X107643685Y-105940814D01*
X105923935Y-105942581D01*
X104390509Y-105943469D01*
X103031892Y-105943344D01*
X101836568Y-105942071D01*
X100793024Y-105939514D01*
X99889743Y-105935538D01*
X99115210Y-105930010D01*
X98457911Y-105922794D01*
X97906331Y-105913756D01*
X97448954Y-105902760D01*
X97074266Y-105889671D01*
X96770751Y-105874355D01*
X96526895Y-105856677D01*
X96331182Y-105836502D01*
X96172097Y-105813695D01*
X96038125Y-105788121D01*
X95917751Y-105759645D01*
X95880807Y-105750053D01*
X94684881Y-105325397D01*
X93603129Y-104721732D01*
X92650411Y-103957330D01*
X91841589Y-103050464D01*
X91191523Y-102019406D01*
X90715076Y-100882430D01*
X90427107Y-99657809D01*
X90354537Y-98955087D01*
X90355092Y-98929157D01*
X91787231Y-98929157D01*
X91948635Y-99976284D01*
X92311596Y-101005716D01*
X92880258Y-101996524D01*
X93073575Y-102259860D01*
X93829153Y-103062012D01*
X94723524Y-103700754D01*
X95734020Y-104163387D01*
X96837970Y-104437207D01*
X97000391Y-104459969D01*
X97149818Y-104465034D01*
X97506799Y-104469735D01*
X98058019Y-104474046D01*
X98790163Y-104477940D01*
X99689915Y-104481390D01*
X100743962Y-104484371D01*
X101938987Y-104486855D01*
X103261675Y-104488815D01*
X104698712Y-104490227D01*
X106236781Y-104491062D01*
X107862569Y-104491294D01*
X109562760Y-104490897D01*
X111324039Y-104489845D01*
X111798652Y-104489453D01*
X126265608Y-104476826D01*
X126983435Y-104230923D01*
X127988980Y-103777721D01*
X128895781Y-103152442D01*
X129670639Y-102383813D01*
X130280357Y-101500559D01*
X130397393Y-101276816D01*
X130819471Y-100187768D01*
X131027407Y-99082365D01*
X131021259Y-97978555D01*
X130801082Y-96894282D01*
X130380462Y-95873191D01*
X130177445Y-95549001D01*
X129883546Y-95159441D01*
X129532935Y-94741223D01*
X129159779Y-94331062D01*
X128798248Y-93965672D01*
X128482509Y-93681766D01*
X128246732Y-93516058D01*
X128161147Y-93488566D01*
X127961108Y-93422979D01*
X127764082Y-93295305D01*
X127526347Y-93102044D01*
X127746642Y-92413735D01*
X127984993Y-91575579D01*
X128115409Y-90860429D01*
X128145598Y-90203118D01*
X128085286Y-89551663D01*
X127834813Y-88403086D01*
X127443209Y-87398273D01*
X126888822Y-86495225D01*
X126150004Y-85651945D01*
X126000839Y-85508050D01*
X125062892Y-84764613D01*
X124044214Y-84225955D01*
X122949833Y-83894099D01*
X121784776Y-83771068D01*
X121682565Y-83770305D01*
X120731551Y-83839207D01*
X119826993Y-84058625D01*
X118892556Y-84447622D01*
X118814079Y-84486711D01*
X118435939Y-84670818D01*
X118131010Y-84807634D01*
X117954914Y-84872486D01*
X117939608Y-84874653D01*
X117859455Y-84777272D01*
X117736885Y-84517964D01*
X117594196Y-84145977D01*
X117545769Y-84004713D01*
X117071281Y-82881426D01*
X116456156Y-81900998D01*
X115720981Y-81068557D01*
X114886340Y-80389231D01*
X113972821Y-79868145D01*
X113001007Y-79510429D01*
X111991487Y-79321209D01*
X110964844Y-79305613D01*
X109941666Y-79468767D01*
X108942537Y-79815800D01*
X107988044Y-80351839D01*
X107098772Y-81082011D01*
X106847449Y-81340049D01*
X106230134Y-82094447D01*
X105750571Y-82894640D01*
X105364987Y-83816912D01*
X105278557Y-84074217D01*
X104987164Y-84977623D01*
X104112855Y-84538029D01*
X103235119Y-84146395D01*
X102429012Y-83902138D01*
X101620923Y-83786235D01*
X101141695Y-83770305D01*
X99994627Y-83867265D01*
X98933446Y-84162024D01*
X97944440Y-84660403D01*
X97013896Y-85368221D01*
X96718375Y-85647696D01*
X95923437Y-86578498D01*
X95325354Y-87588113D01*
X94928833Y-88658731D01*
X94738582Y-89772542D01*
X94759308Y-90911735D01*
X94995718Y-92058501D01*
X95010923Y-92108131D01*
X95137016Y-92522626D01*
X95232990Y-92854348D01*
X95283162Y-93048478D01*
X95286995Y-93073050D01*
X95202239Y-93173224D01*
X94984036Y-93338998D01*
X94819304Y-93446913D01*
X93858439Y-94160671D01*
X93074254Y-94982315D01*
X92470894Y-95890916D01*
X92052507Y-96865543D01*
X91823237Y-97885267D01*
X91787231Y-98929157D01*
X90355092Y-98929157D01*
X90380175Y-97758878D01*
X90606075Y-96617320D01*
%TD*%
D15*
%TO.C,D1*%
X97500000Y-113900000D03*
D16*
X97500000Y-116440000D03*
%TD*%
D15*
%TO.C,D2*%
X111800000Y-117900000D03*
D16*
X111800000Y-120440000D03*
%TD*%
D15*
%TO.C,D3*%
X124500000Y-112100000D03*
D16*
X124500000Y-114640000D03*
%TD*%
D17*
%TO.C,BT1*%
X122300000Y-93300000D03*
X101218000Y-93300000D03*
%TD*%
D18*
%TO.C,SW1*%
X132334000Y-110363000D03*
X134456316Y-102442408D03*
D19*
X133912796Y-104470852D03*
D20*
X133395158Y-106402704D03*
X132877520Y-108334555D03*
%TD*%
M02*
