%TF.GenerationSoftware,KiCad,Pcbnew,(6.0.5)*%
%TF.CreationDate,2022-07-23T18:44:09-07:00*%
%TF.ProjectId,StormCloud,53746f72-6d43-46c6-9f75-642e6b696361,rev?*%
%TF.SameCoordinates,Original*%
%TF.FileFunction,Copper,L1,Top*%
%TF.FilePolarity,Positive*%
%FSLAX46Y46*%
G04 Gerber Fmt 4.6, Leading zero omitted, Abs format (unit mm)*
G04 Created by KiCad (PCBNEW (6.0.5)) date 2022-07-23 18:44:09*
%MOMM*%
%LPD*%
G01*
G04 APERTURE LIST*
G04 Aperture macros list*
%AMHorizOval*
0 Thick line with rounded ends*
0 $1 width*
0 $2 $3 position (X,Y) of the first rounded end (center of the circle)*
0 $4 $5 position (X,Y) of the second rounded end (center of the circle)*
0 Add line between two ends*
20,1,$1,$2,$3,$4,$5,0*
0 Add two circle primitives to create the rounded ends*
1,1,$1,$2,$3*
1,1,$1,$4,$5*%
%AMRotRect*
0 Rectangle, with rotation*
0 The origin of the aperture is its center*
0 $1 length*
0 $2 width*
0 $3 Rotation angle, in degrees counterclockwise*
0 Add horizontal line*
21,1,$1,$2,0,0,$3*%
G04 Aperture macros list end*
%TA.AperFunction,NonConductor*%
%ADD10C,1.016000*%
%TD*%
%TA.AperFunction,NonConductor*%
%ADD11C,0.100000*%
%TD*%
%TA.AperFunction,NonConductor*%
%ADD12C,0.635000*%
%TD*%
%TA.AperFunction,EtchedComponent*%
%ADD13C,0.010000*%
%TD*%
%TA.AperFunction,ComponentPad*%
%ADD14R,1.800000X1.800000*%
%TD*%
%TA.AperFunction,ComponentPad*%
%ADD15C,1.800000*%
%TD*%
%TA.AperFunction,ComponentPad*%
%ADD16O,2.500000X4.000000*%
%TD*%
%TA.AperFunction,ComponentPad*%
%ADD17HorizOval,1.900000X-0.772741X0.207055X0.772741X-0.207055X0*%
%TD*%
%TA.AperFunction,ComponentPad*%
%ADD18RotRect,1.300000X2.500000X255.000000*%
%TD*%
%TA.AperFunction,ComponentPad*%
%ADD19HorizOval,1.300000X-0.579555X0.155291X0.579555X-0.155291X0*%
%TD*%
G04 APERTURE END LIST*
D10*
X125904955Y-93795045D02*
G75*
G03*
X125904955Y-93795045I-4204955J0D01*
G01*
D11*
G36*
X124206000Y-85852000D02*
G01*
X116601875Y-90646250D01*
X115189000Y-89027000D01*
X122047000Y-84709000D01*
X124206000Y-85852000D01*
G37*
X124206000Y-85852000D02*
X116601875Y-90646250D01*
X115189000Y-89027000D01*
X122047000Y-84709000D01*
X124206000Y-85852000D01*
G36*
X107838875Y-89154000D02*
G01*
X106426000Y-90773250D01*
X98821875Y-85979000D01*
X100980875Y-84836000D01*
X107838875Y-89154000D01*
G37*
X107838875Y-89154000D02*
X106426000Y-90773250D01*
X98821875Y-85979000D01*
X100980875Y-84836000D01*
X107838875Y-89154000D01*
D10*
X104904955Y-93795045D02*
G75*
G03*
X104904955Y-93795045I-4204955J0D01*
G01*
D11*
G36*
X126365000Y-109728000D02*
G01*
X123317000Y-109728000D01*
X123698000Y-110871000D01*
X123317000Y-110871000D01*
X123317000Y-111760000D01*
X120142000Y-108204000D01*
X122936000Y-108204000D01*
X121158000Y-105283000D01*
X125095000Y-105283000D01*
X126365000Y-109728000D01*
G37*
X126365000Y-109728000D02*
X123317000Y-109728000D01*
X123698000Y-110871000D01*
X123317000Y-110871000D01*
X123317000Y-111760000D01*
X120142000Y-108204000D01*
X122936000Y-108204000D01*
X121158000Y-105283000D01*
X125095000Y-105283000D01*
X126365000Y-109728000D01*
G36*
X114400000Y-100900000D02*
G01*
X113900000Y-101600000D01*
X113100000Y-102000000D01*
X112300000Y-102200000D01*
X111300000Y-102000000D01*
X110700000Y-101700000D01*
X110000000Y-100900000D01*
X109700000Y-100200000D01*
X109700000Y-99500000D01*
X114900000Y-99500000D01*
X114400000Y-100900000D01*
G37*
X114400000Y-100900000D02*
X113900000Y-101600000D01*
X113100000Y-102000000D01*
X112300000Y-102200000D01*
X111300000Y-102000000D01*
X110700000Y-101700000D01*
X110000000Y-100900000D01*
X109700000Y-100200000D01*
X109700000Y-99500000D01*
X114900000Y-99500000D01*
X114400000Y-100900000D01*
D12*
X109600000Y-99500000D02*
X114800000Y-99500000D01*
X109600000Y-99500000D02*
G75*
G03*
X114800000Y-99500000I2600000J0D01*
G01*
D11*
G36*
X114427000Y-113157000D02*
G01*
X111252000Y-113157000D01*
X111887000Y-116713000D01*
X110744000Y-116713000D01*
X105918000Y-110998000D01*
X109728000Y-110998000D01*
X107188000Y-105156000D01*
X112395000Y-105156000D01*
X114427000Y-113157000D01*
G37*
X114427000Y-113157000D02*
X111252000Y-113157000D01*
X111887000Y-116713000D01*
X110744000Y-116713000D01*
X105918000Y-110998000D01*
X109728000Y-110998000D01*
X107188000Y-105156000D01*
X112395000Y-105156000D01*
X114427000Y-113157000D01*
G36*
X99314000Y-105156000D02*
G01*
X100330000Y-110744000D01*
X97028000Y-110744000D01*
X97409000Y-112649000D01*
X96520000Y-112649000D01*
X93726000Y-108585000D01*
X96901000Y-108585000D01*
X95123000Y-105029000D01*
X99314000Y-105156000D01*
G37*
X99314000Y-105156000D02*
X100330000Y-110744000D01*
X97028000Y-110744000D01*
X97409000Y-112649000D01*
X96520000Y-112649000D01*
X93726000Y-108585000D01*
X96901000Y-108585000D01*
X95123000Y-105029000D01*
X99314000Y-105156000D01*
%TO.C,G\u002A\u002A\u002A*%
G36*
X90606075Y-96490320D02*
G01*
X91040450Y-95359881D01*
X91404899Y-94697960D01*
X91859050Y-94032262D01*
X92355635Y-93423460D01*
X92847385Y-92932231D01*
X93070389Y-92754174D01*
X93341794Y-92543593D01*
X93467026Y-92378055D01*
X93486454Y-92184342D01*
X93466179Y-92036348D01*
X93353735Y-91337760D01*
X93281327Y-90800202D01*
X93245558Y-90368147D01*
X93243033Y-89986067D01*
X93270354Y-89598436D01*
X93300732Y-89331449D01*
X93570129Y-88004963D01*
X94029280Y-86770272D01*
X94664214Y-85643697D01*
X95460958Y-84641561D01*
X96405541Y-83780183D01*
X97483991Y-83075885D01*
X98682338Y-82544988D01*
X99264304Y-82365029D01*
X100087389Y-82213856D01*
X101012765Y-82160031D01*
X101955484Y-82201620D01*
X102830598Y-82336690D01*
X103271082Y-82456236D01*
X104130469Y-82738602D01*
X104416234Y-82169432D01*
X105096034Y-81041768D01*
X105923486Y-80053606D01*
X106877420Y-79218534D01*
X107936664Y-78550138D01*
X109080047Y-78062003D01*
X110286400Y-77767716D01*
X111412130Y-77679826D01*
X112627775Y-77787365D01*
X113815305Y-78098410D01*
X114948223Y-78595603D01*
X116000035Y-79261587D01*
X116944246Y-80079003D01*
X117754362Y-81030495D01*
X118403886Y-82098704D01*
X118516418Y-82334073D01*
X118700157Y-82736580D01*
X119556361Y-82456269D01*
X120290333Y-82281518D01*
X121144120Y-82181724D01*
X122029786Y-82160324D01*
X122859396Y-82220752D01*
X123339087Y-82308483D01*
X124595291Y-82724555D01*
X125753567Y-83327932D01*
X126793327Y-84102296D01*
X127693981Y-85031328D01*
X128434940Y-86098710D01*
X128667739Y-86531945D01*
X128913184Y-87060745D01*
X129139761Y-87611310D01*
X129312711Y-88096618D01*
X129366660Y-88281566D01*
X129482492Y-88912891D01*
X129546764Y-89658960D01*
X129558151Y-90436900D01*
X129515326Y-91163837D01*
X129421973Y-91736811D01*
X129338987Y-92094469D01*
X129318440Y-92302955D01*
X129369120Y-92427353D01*
X129499815Y-92532746D01*
X129532408Y-92554649D01*
X129930682Y-92875868D01*
X130385773Y-93328556D01*
X130844279Y-93852777D01*
X131252800Y-94388595D01*
X131484956Y-94746138D01*
X131892459Y-95503552D01*
X132173503Y-96205112D01*
X132346731Y-96922470D01*
X132430786Y-97727277D01*
X132446500Y-98441566D01*
X132380738Y-99616081D01*
X132178452Y-100654107D01*
X131822679Y-101604867D01*
X131296459Y-102517580D01*
X130822562Y-103154069D01*
X130131695Y-103907731D01*
X129370949Y-104526849D01*
X128489474Y-105047108D01*
X127517934Y-105473060D01*
X126707348Y-105785479D01*
X111688217Y-105808183D01*
X109561274Y-105811303D01*
X107643685Y-105813814D01*
X105923935Y-105815581D01*
X104390509Y-105816469D01*
X103031892Y-105816344D01*
X101836568Y-105815071D01*
X100793024Y-105812514D01*
X99889743Y-105808538D01*
X99115210Y-105803010D01*
X98457911Y-105795794D01*
X97906331Y-105786756D01*
X97448954Y-105775760D01*
X97074266Y-105762671D01*
X96770751Y-105747355D01*
X96526895Y-105729677D01*
X96331182Y-105709502D01*
X96172097Y-105686695D01*
X96038125Y-105661121D01*
X95917751Y-105632645D01*
X95880807Y-105623053D01*
X94684881Y-105198397D01*
X93603129Y-104594732D01*
X92650411Y-103830330D01*
X91841589Y-102923464D01*
X91191523Y-101892406D01*
X90715076Y-100755430D01*
X90427107Y-99530809D01*
X90354537Y-98828087D01*
X90355092Y-98802157D01*
X91787231Y-98802157D01*
X91948635Y-99849284D01*
X92311596Y-100878716D01*
X92880258Y-101869524D01*
X93073575Y-102132860D01*
X93829153Y-102935012D01*
X94723524Y-103573754D01*
X95734020Y-104036387D01*
X96837970Y-104310207D01*
X97000391Y-104332969D01*
X97149818Y-104338034D01*
X97506799Y-104342735D01*
X98058019Y-104347046D01*
X98790163Y-104350940D01*
X99689915Y-104354390D01*
X100743962Y-104357371D01*
X101938987Y-104359855D01*
X103261675Y-104361815D01*
X104698712Y-104363227D01*
X106236781Y-104364062D01*
X107862569Y-104364294D01*
X109562760Y-104363897D01*
X111324039Y-104362845D01*
X111798652Y-104362453D01*
X126265608Y-104349826D01*
X126983435Y-104103923D01*
X127988980Y-103650721D01*
X128895781Y-103025442D01*
X129670639Y-102256813D01*
X130280357Y-101373559D01*
X130397393Y-101149816D01*
X130819471Y-100060768D01*
X131027407Y-98955365D01*
X131021259Y-97851555D01*
X130801082Y-96767282D01*
X130380462Y-95746191D01*
X130177445Y-95422001D01*
X129883546Y-95032441D01*
X129532935Y-94614223D01*
X129159779Y-94204062D01*
X128798248Y-93838672D01*
X128482509Y-93554766D01*
X128246732Y-93389058D01*
X128161147Y-93361566D01*
X127961108Y-93295979D01*
X127764082Y-93168305D01*
X127526347Y-92975044D01*
X127746642Y-92286735D01*
X127984993Y-91448579D01*
X128115409Y-90733429D01*
X128145598Y-90076118D01*
X128085286Y-89424663D01*
X127834813Y-88276086D01*
X127443209Y-87271273D01*
X126888822Y-86368225D01*
X126150004Y-85524945D01*
X126000839Y-85381050D01*
X125062892Y-84637613D01*
X124044214Y-84098955D01*
X122949833Y-83767099D01*
X121784776Y-83644068D01*
X121682565Y-83643305D01*
X120731551Y-83712207D01*
X119826993Y-83931625D01*
X118892556Y-84320622D01*
X118814079Y-84359711D01*
X118435939Y-84543818D01*
X118131010Y-84680634D01*
X117954914Y-84745486D01*
X117939608Y-84747653D01*
X117859455Y-84650272D01*
X117736885Y-84390964D01*
X117594196Y-84018977D01*
X117545769Y-83877713D01*
X117071281Y-82754426D01*
X116456156Y-81773998D01*
X115720981Y-80941557D01*
X114886340Y-80262231D01*
X113972821Y-79741145D01*
X113001007Y-79383429D01*
X111991487Y-79194209D01*
X110964844Y-79178613D01*
X109941666Y-79341767D01*
X108942537Y-79688800D01*
X107988044Y-80224839D01*
X107098772Y-80955011D01*
X106847449Y-81213049D01*
X106230134Y-81967447D01*
X105750571Y-82767640D01*
X105364987Y-83689912D01*
X105278557Y-83947217D01*
X104987164Y-84850623D01*
X104112855Y-84411029D01*
X103235119Y-84019395D01*
X102429012Y-83775138D01*
X101620923Y-83659235D01*
X101141695Y-83643305D01*
X99994627Y-83740265D01*
X98933446Y-84035024D01*
X97944440Y-84533403D01*
X97013896Y-85241221D01*
X96718375Y-85520696D01*
X95923437Y-86451498D01*
X95325354Y-87461113D01*
X94928833Y-88531731D01*
X94738582Y-89645542D01*
X94759308Y-90784735D01*
X94995718Y-91931501D01*
X95010923Y-91981131D01*
X95137016Y-92395626D01*
X95232990Y-92727348D01*
X95283162Y-92921478D01*
X95286995Y-92946050D01*
X95202239Y-93046224D01*
X94984036Y-93211998D01*
X94819304Y-93319913D01*
X93858439Y-94033671D01*
X93074254Y-94855315D01*
X92470894Y-95763916D01*
X92052507Y-96738543D01*
X91823237Y-97758267D01*
X91787231Y-98802157D01*
X90355092Y-98802157D01*
X90380175Y-97631878D01*
X90606075Y-96490320D01*
G37*
D13*
X90606075Y-96490320D02*
X91040450Y-95359881D01*
X91404899Y-94697960D01*
X91859050Y-94032262D01*
X92355635Y-93423460D01*
X92847385Y-92932231D01*
X93070389Y-92754174D01*
X93341794Y-92543593D01*
X93467026Y-92378055D01*
X93486454Y-92184342D01*
X93466179Y-92036348D01*
X93353735Y-91337760D01*
X93281327Y-90800202D01*
X93245558Y-90368147D01*
X93243033Y-89986067D01*
X93270354Y-89598436D01*
X93300732Y-89331449D01*
X93570129Y-88004963D01*
X94029280Y-86770272D01*
X94664214Y-85643697D01*
X95460958Y-84641561D01*
X96405541Y-83780183D01*
X97483991Y-83075885D01*
X98682338Y-82544988D01*
X99264304Y-82365029D01*
X100087389Y-82213856D01*
X101012765Y-82160031D01*
X101955484Y-82201620D01*
X102830598Y-82336690D01*
X103271082Y-82456236D01*
X104130469Y-82738602D01*
X104416234Y-82169432D01*
X105096034Y-81041768D01*
X105923486Y-80053606D01*
X106877420Y-79218534D01*
X107936664Y-78550138D01*
X109080047Y-78062003D01*
X110286400Y-77767716D01*
X111412130Y-77679826D01*
X112627775Y-77787365D01*
X113815305Y-78098410D01*
X114948223Y-78595603D01*
X116000035Y-79261587D01*
X116944246Y-80079003D01*
X117754362Y-81030495D01*
X118403886Y-82098704D01*
X118516418Y-82334073D01*
X118700157Y-82736580D01*
X119556361Y-82456269D01*
X120290333Y-82281518D01*
X121144120Y-82181724D01*
X122029786Y-82160324D01*
X122859396Y-82220752D01*
X123339087Y-82308483D01*
X124595291Y-82724555D01*
X125753567Y-83327932D01*
X126793327Y-84102296D01*
X127693981Y-85031328D01*
X128434940Y-86098710D01*
X128667739Y-86531945D01*
X128913184Y-87060745D01*
X129139761Y-87611310D01*
X129312711Y-88096618D01*
X129366660Y-88281566D01*
X129482492Y-88912891D01*
X129546764Y-89658960D01*
X129558151Y-90436900D01*
X129515326Y-91163837D01*
X129421973Y-91736811D01*
X129338987Y-92094469D01*
X129318440Y-92302955D01*
X129369120Y-92427353D01*
X129499815Y-92532746D01*
X129532408Y-92554649D01*
X129930682Y-92875868D01*
X130385773Y-93328556D01*
X130844279Y-93852777D01*
X131252800Y-94388595D01*
X131484956Y-94746138D01*
X131892459Y-95503552D01*
X132173503Y-96205112D01*
X132346731Y-96922470D01*
X132430786Y-97727277D01*
X132446500Y-98441566D01*
X132380738Y-99616081D01*
X132178452Y-100654107D01*
X131822679Y-101604867D01*
X131296459Y-102517580D01*
X130822562Y-103154069D01*
X130131695Y-103907731D01*
X129370949Y-104526849D01*
X128489474Y-105047108D01*
X127517934Y-105473060D01*
X126707348Y-105785479D01*
X111688217Y-105808183D01*
X109561274Y-105811303D01*
X107643685Y-105813814D01*
X105923935Y-105815581D01*
X104390509Y-105816469D01*
X103031892Y-105816344D01*
X101836568Y-105815071D01*
X100793024Y-105812514D01*
X99889743Y-105808538D01*
X99115210Y-105803010D01*
X98457911Y-105795794D01*
X97906331Y-105786756D01*
X97448954Y-105775760D01*
X97074266Y-105762671D01*
X96770751Y-105747355D01*
X96526895Y-105729677D01*
X96331182Y-105709502D01*
X96172097Y-105686695D01*
X96038125Y-105661121D01*
X95917751Y-105632645D01*
X95880807Y-105623053D01*
X94684881Y-105198397D01*
X93603129Y-104594732D01*
X92650411Y-103830330D01*
X91841589Y-102923464D01*
X91191523Y-101892406D01*
X90715076Y-100755430D01*
X90427107Y-99530809D01*
X90354537Y-98828087D01*
X90355092Y-98802157D01*
X91787231Y-98802157D01*
X91948635Y-99849284D01*
X92311596Y-100878716D01*
X92880258Y-101869524D01*
X93073575Y-102132860D01*
X93829153Y-102935012D01*
X94723524Y-103573754D01*
X95734020Y-104036387D01*
X96837970Y-104310207D01*
X97000391Y-104332969D01*
X97149818Y-104338034D01*
X97506799Y-104342735D01*
X98058019Y-104347046D01*
X98790163Y-104350940D01*
X99689915Y-104354390D01*
X100743962Y-104357371D01*
X101938987Y-104359855D01*
X103261675Y-104361815D01*
X104698712Y-104363227D01*
X106236781Y-104364062D01*
X107862569Y-104364294D01*
X109562760Y-104363897D01*
X111324039Y-104362845D01*
X111798652Y-104362453D01*
X126265608Y-104349826D01*
X126983435Y-104103923D01*
X127988980Y-103650721D01*
X128895781Y-103025442D01*
X129670639Y-102256813D01*
X130280357Y-101373559D01*
X130397393Y-101149816D01*
X130819471Y-100060768D01*
X131027407Y-98955365D01*
X131021259Y-97851555D01*
X130801082Y-96767282D01*
X130380462Y-95746191D01*
X130177445Y-95422001D01*
X129883546Y-95032441D01*
X129532935Y-94614223D01*
X129159779Y-94204062D01*
X128798248Y-93838672D01*
X128482509Y-93554766D01*
X128246732Y-93389058D01*
X128161147Y-93361566D01*
X127961108Y-93295979D01*
X127764082Y-93168305D01*
X127526347Y-92975044D01*
X127746642Y-92286735D01*
X127984993Y-91448579D01*
X128115409Y-90733429D01*
X128145598Y-90076118D01*
X128085286Y-89424663D01*
X127834813Y-88276086D01*
X127443209Y-87271273D01*
X126888822Y-86368225D01*
X126150004Y-85524945D01*
X126000839Y-85381050D01*
X125062892Y-84637613D01*
X124044214Y-84098955D01*
X122949833Y-83767099D01*
X121784776Y-83644068D01*
X121682565Y-83643305D01*
X120731551Y-83712207D01*
X119826993Y-83931625D01*
X118892556Y-84320622D01*
X118814079Y-84359711D01*
X118435939Y-84543818D01*
X118131010Y-84680634D01*
X117954914Y-84745486D01*
X117939608Y-84747653D01*
X117859455Y-84650272D01*
X117736885Y-84390964D01*
X117594196Y-84018977D01*
X117545769Y-83877713D01*
X117071281Y-82754426D01*
X116456156Y-81773998D01*
X115720981Y-80941557D01*
X114886340Y-80262231D01*
X113972821Y-79741145D01*
X113001007Y-79383429D01*
X111991487Y-79194209D01*
X110964844Y-79178613D01*
X109941666Y-79341767D01*
X108942537Y-79688800D01*
X107988044Y-80224839D01*
X107098772Y-80955011D01*
X106847449Y-81213049D01*
X106230134Y-81967447D01*
X105750571Y-82767640D01*
X105364987Y-83689912D01*
X105278557Y-83947217D01*
X104987164Y-84850623D01*
X104112855Y-84411029D01*
X103235119Y-84019395D01*
X102429012Y-83775138D01*
X101620923Y-83659235D01*
X101141695Y-83643305D01*
X99994627Y-83740265D01*
X98933446Y-84035024D01*
X97944440Y-84533403D01*
X97013896Y-85241221D01*
X96718375Y-85520696D01*
X95923437Y-86451498D01*
X95325354Y-87461113D01*
X94928833Y-88531731D01*
X94738582Y-89645542D01*
X94759308Y-90784735D01*
X94995718Y-91931501D01*
X95010923Y-91981131D01*
X95137016Y-92395626D01*
X95232990Y-92727348D01*
X95283162Y-92921478D01*
X95286995Y-92946050D01*
X95202239Y-93046224D01*
X94984036Y-93211998D01*
X94819304Y-93319913D01*
X93858439Y-94033671D01*
X93074254Y-94855315D01*
X92470894Y-95763916D01*
X92052507Y-96738543D01*
X91823237Y-97758267D01*
X91787231Y-98802157D01*
X90355092Y-98802157D01*
X90380175Y-97631878D01*
X90606075Y-96490320D01*
%TD*%
D14*
%TO.P,D1,1*%
%TO.N,GND*%
X97500000Y-113900000D03*
D15*
%TO.P,D1,2*%
%TO.N,/LED+*%
X97500000Y-116440000D03*
%TD*%
D14*
%TO.P,D2,1*%
%TO.N,GND*%
X111800000Y-117900000D03*
D15*
%TO.P,D2,2*%
%TO.N,/LED+*%
X111800000Y-120440000D03*
%TD*%
D14*
%TO.P,D3,1*%
%TO.N,GND*%
X124500000Y-112100000D03*
D15*
%TO.P,D3,2*%
%TO.N,/LED+*%
X124500000Y-114640000D03*
%TD*%
D16*
%TO.P,BT1,1*%
%TO.N,VCC*%
X122300000Y-93300000D03*
X101218000Y-93300000D03*
%TD*%
D17*
%TO.P,SW1,*%
%TO.N,*%
X132334000Y-110363000D03*
X134456316Y-102442408D03*
D18*
%TO.P,SW1,1*%
%TO.N,Net-(SW1-Pad1)*%
X133912796Y-104470852D03*
D19*
%TO.P,SW1,2*%
%TO.N,VCC*%
X133395158Y-106402704D03*
%TO.P,SW1,3*%
%TO.N,/LED+*%
X132877520Y-108334555D03*
%TD*%
M02*
