%TF.GenerationSoftware,KiCad,Pcbnew,(6.0.5)*%
%TF.CreationDate,2022-07-23T18:44:09-07:00*%
%TF.ProjectId,StormCloud,53746f72-6d43-46c6-9f75-642e6b696361,rev?*%
%TF.SameCoordinates,Original*%
%TF.FileFunction,Copper,L2,Bot*%
%TF.FilePolarity,Positive*%
%FSLAX46Y46*%
G04 Gerber Fmt 4.6, Leading zero omitted, Abs format (unit mm)*
G04 Created by KiCad (PCBNEW (6.0.5)) date 2022-07-23 18:44:09*
%MOMM*%
%LPD*%
G01*
G04 APERTURE LIST*
G04 Aperture macros list*
%AMHorizOval*
0 Thick line with rounded ends*
0 $1 width*
0 $2 $3 position (X,Y) of the first rounded end (center of the circle)*
0 $4 $5 position (X,Y) of the second rounded end (center of the circle)*
0 Add line between two ends*
20,1,$1,$2,$3,$4,$5,0*
0 Add two circle primitives to create the rounded ends*
1,1,$1,$2,$3*
1,1,$1,$4,$5*%
%AMRotRect*
0 Rectangle, with rotation*
0 The origin of the aperture is its center*
0 $1 length*
0 $2 width*
0 $3 Rotation angle, in degrees counterclockwise*
0 Add horizontal line*
21,1,$1,$2,0,0,$3*%
G04 Aperture macros list end*
%TA.AperFunction,ComponentPad*%
%ADD10R,1.800000X1.800000*%
%TD*%
%TA.AperFunction,ComponentPad*%
%ADD11C,1.800000*%
%TD*%
%TA.AperFunction,ComponentPad*%
%ADD12O,2.500000X4.000000*%
%TD*%
%TA.AperFunction,SMDPad,CuDef*%
%ADD13C,17.272000*%
%TD*%
%TA.AperFunction,ComponentPad*%
%ADD14HorizOval,1.900000X-0.772741X0.207055X0.772741X-0.207055X0*%
%TD*%
%TA.AperFunction,ComponentPad*%
%ADD15RotRect,1.300000X2.500000X255.000000*%
%TD*%
%TA.AperFunction,ComponentPad*%
%ADD16HorizOval,1.300000X-0.579555X0.155291X0.579555X-0.155291X0*%
%TD*%
%TA.AperFunction,Conductor*%
%ADD17C,0.508000*%
%TD*%
G04 APERTURE END LIST*
D10*
%TO.P,D1,1*%
%TO.N,GND*%
X97500000Y-113900000D03*
D11*
%TO.P,D1,2*%
%TO.N,/LED+*%
X97500000Y-116440000D03*
%TD*%
D10*
%TO.P,D2,1*%
%TO.N,GND*%
X111800000Y-117900000D03*
D11*
%TO.P,D2,2*%
%TO.N,/LED+*%
X111800000Y-120440000D03*
%TD*%
D10*
%TO.P,D3,1*%
%TO.N,GND*%
X124500000Y-112100000D03*
D11*
%TO.P,D3,2*%
%TO.N,/LED+*%
X124500000Y-114640000D03*
%TD*%
D12*
%TO.P,BT1,1*%
%TO.N,VCC*%
X122300000Y-93300000D03*
X101218000Y-93300000D03*
D13*
%TO.P,BT1,2*%
%TO.N,GND*%
X111759000Y-93300000D03*
%TD*%
D14*
%TO.P,SW1,*%
%TO.N,*%
X132334000Y-110363000D03*
X134456316Y-102442408D03*
D15*
%TO.P,SW1,1*%
%TO.N,Net-(SW1-Pad1)*%
X133912796Y-104470852D03*
D16*
%TO.P,SW1,2*%
%TO.N,VCC*%
X133395158Y-106402704D03*
%TO.P,SW1,3*%
%TO.N,/LED+*%
X132877520Y-108334555D03*
%TD*%
D17*
%TO.N,VCC*%
X125700000Y-93300000D02*
X127800000Y-95400000D01*
X122300000Y-101300000D02*
X122300000Y-93300000D01*
X101218000Y-101018000D02*
X105800000Y-105600000D01*
X127800000Y-95400000D02*
X127800000Y-103100000D01*
X130632695Y-105932695D02*
X133382362Y-106431852D01*
X101218000Y-93300000D02*
X101218000Y-101018000D01*
X105800000Y-105600000D02*
X118000000Y-105600000D01*
X118000000Y-105600000D02*
X122300000Y-101300000D01*
X127800000Y-103100000D02*
X130632695Y-105932695D01*
X122300000Y-93300000D02*
X125700000Y-93300000D01*
%TO.N,/LED+*%
X132864724Y-108363703D02*
X128936297Y-108363703D01*
X125760000Y-114740000D02*
X124500000Y-114740000D01*
X101700000Y-120340000D02*
X97600000Y-116240000D01*
X128936297Y-108363703D02*
X127800000Y-109500000D01*
X127800000Y-112700000D02*
X125760000Y-114740000D01*
X124500000Y-114640000D02*
X102760000Y-114640000D01*
X99460000Y-116440000D02*
X97500000Y-116440000D01*
X102760000Y-114640000D02*
X100960000Y-116440000D01*
X124500000Y-114740000D02*
X124460000Y-114740000D01*
X100960000Y-116440000D02*
X97500000Y-116440000D01*
X127800000Y-109500000D02*
X127800000Y-112700000D01*
X112000000Y-120340000D02*
X101700000Y-120340000D01*
%TD*%
%TA.AperFunction,Conductor*%
%TO.N,GND*%
G36*
X111714619Y-74703779D02*
G01*
X112194626Y-74711320D01*
X112199461Y-74711488D01*
X112913298Y-74750148D01*
X113180146Y-74764599D01*
X113184956Y-74764953D01*
X114162820Y-74855667D01*
X114167622Y-74856206D01*
X115141312Y-74984395D01*
X115146050Y-74985111D01*
X115630104Y-75067852D01*
X116114134Y-75150589D01*
X116118886Y-75151496D01*
X117079840Y-75354001D01*
X117084553Y-75355089D01*
X117387538Y-75431193D01*
X118037078Y-75594346D01*
X118041698Y-75595602D01*
X118984309Y-75871240D01*
X118988905Y-75872680D01*
X119920253Y-76184305D01*
X119924806Y-76185926D01*
X120085726Y-76246733D01*
X120843494Y-76533070D01*
X120847985Y-76534867D01*
X121752641Y-76917007D01*
X121757053Y-76918970D01*
X121909870Y-76990555D01*
X122646407Y-77335575D01*
X122650740Y-77337707D01*
X122947872Y-77491068D01*
X123523444Y-77788143D01*
X123527699Y-77790444D01*
X124382455Y-78274042D01*
X124386619Y-78276505D01*
X125222153Y-78792541D01*
X125226220Y-78795161D01*
X126041374Y-79342922D01*
X126045337Y-79345697D01*
X126838849Y-79924336D01*
X126842702Y-79927261D01*
X127613401Y-80535921D01*
X127617140Y-80538992D01*
X128363929Y-81176811D01*
X128367546Y-81180023D01*
X129089268Y-81846009D01*
X129092760Y-81849357D01*
X129788420Y-82542593D01*
X129791780Y-82546073D01*
X130460292Y-83265477D01*
X130463517Y-83269084D01*
X130577362Y-83401441D01*
X131103937Y-84013642D01*
X131106981Y-84017320D01*
X131718369Y-84785939D01*
X131721297Y-84789769D01*
X131823480Y-84928874D01*
X132302708Y-85581265D01*
X132305493Y-85585212D01*
X132856108Y-86398467D01*
X132858726Y-86402501D01*
X133377671Y-87236222D01*
X133380149Y-87240377D01*
X133467065Y-87392756D01*
X133695067Y-87792485D01*
X133866752Y-88093481D01*
X133869058Y-88097712D01*
X134087084Y-88516536D01*
X134322526Y-88968816D01*
X134324674Y-88973142D01*
X134568840Y-89489679D01*
X134744368Y-89861012D01*
X134746345Y-89865410D01*
X134815334Y-90027151D01*
X135131663Y-90768776D01*
X135133475Y-90773261D01*
X135483817Y-91690715D01*
X135485455Y-91695267D01*
X135800328Y-92625519D01*
X135801790Y-92630128D01*
X136001094Y-93302965D01*
X136080708Y-93571739D01*
X136081989Y-93576388D01*
X136279578Y-94351561D01*
X136324565Y-94528050D01*
X136325670Y-94532760D01*
X136531533Y-95493025D01*
X136532456Y-95497774D01*
X136592021Y-95839062D01*
X136684841Y-96370895D01*
X136701304Y-96465226D01*
X136702041Y-96469988D01*
X136762469Y-96916920D01*
X136833628Y-97443223D01*
X136834183Y-97448016D01*
X136920994Y-98349582D01*
X136928312Y-98425587D01*
X136928681Y-98430387D01*
X136939001Y-98609361D01*
X136985214Y-99410845D01*
X136985400Y-99415679D01*
X137004262Y-100398015D01*
X137004276Y-100401973D01*
X136996651Y-101026048D01*
X136996540Y-101030005D01*
X136953683Y-102011576D01*
X136953379Y-102016404D01*
X136921368Y-102405763D01*
X136895852Y-102472016D01*
X136838567Y-102513956D01*
X136767702Y-102518268D01*
X136705754Y-102483582D01*
X136672779Y-102422710D01*
X136628227Y-102221748D01*
X136628225Y-102221742D01*
X136627106Y-102216694D01*
X136537651Y-101994168D01*
X136511480Y-101951124D01*
X136415740Y-101793659D01*
X136415739Y-101793657D01*
X136413053Y-101789240D01*
X136409684Y-101785323D01*
X136409681Y-101785319D01*
X136260032Y-101611337D01*
X136256657Y-101607413D01*
X136072666Y-101453572D01*
X136020989Y-101423132D01*
X135927806Y-101368244D01*
X135866017Y-101331848D01*
X135682315Y-101260963D01*
X135679088Y-101260098D01*
X135679084Y-101260097D01*
X134004817Y-100811479D01*
X134004814Y-100811478D01*
X134002331Y-100810813D01*
X133999806Y-100810354D01*
X133999801Y-100810353D01*
X133923624Y-100796510D01*
X133826387Y-100778839D01*
X133710287Y-100777015D01*
X133591754Y-100775153D01*
X133591751Y-100775153D01*
X133586582Y-100775072D01*
X133581471Y-100775836D01*
X133581468Y-100775836D01*
X133467983Y-100792796D01*
X133349383Y-100810521D01*
X133344464Y-100812110D01*
X133344463Y-100812110D01*
X133126077Y-100882647D01*
X133126075Y-100882648D01*
X133121158Y-100884236D01*
X132908039Y-100994236D01*
X132903904Y-100997318D01*
X132903901Y-100997320D01*
X132778372Y-101090887D01*
X132715746Y-101137567D01*
X132549444Y-101310379D01*
X132413601Y-101508032D01*
X132411409Y-101512712D01*
X132411407Y-101512715D01*
X132386275Y-101566366D01*
X132311863Y-101725219D01*
X132246964Y-101956105D01*
X132246397Y-101961243D01*
X132246396Y-101961247D01*
X132243250Y-101989747D01*
X132220646Y-102194490D01*
X132224963Y-102274198D01*
X132230419Y-102374935D01*
X132233616Y-102433973D01*
X132285526Y-102668122D01*
X132374981Y-102890648D01*
X132377666Y-102895064D01*
X132377671Y-102895074D01*
X132480244Y-103063775D01*
X132498544Y-103132373D01*
X132475097Y-103202493D01*
X132422120Y-103276627D01*
X132422118Y-103276631D01*
X132417525Y-103283058D01*
X132394906Y-103341373D01*
X132394026Y-103344656D01*
X132394025Y-103344660D01*
X132098279Y-104448397D01*
X132033525Y-104690064D01*
X132023956Y-104751876D01*
X132038044Y-104896851D01*
X132092254Y-105032044D01*
X132097798Y-105039101D01*
X132097798Y-105039102D01*
X132164495Y-105124011D01*
X132190845Y-105189937D01*
X132177370Y-105259643D01*
X132132647Y-105308403D01*
X132107331Y-105324377D01*
X132103096Y-105328292D01*
X132062127Y-105366163D01*
X131998527Y-105397715D01*
X131954095Y-105397612D01*
X131194078Y-105259643D01*
X131042102Y-105232054D01*
X130975513Y-105197175D01*
X128599405Y-102821067D01*
X128565379Y-102758755D01*
X128562500Y-102731972D01*
X128562500Y-95467368D01*
X128563933Y-95448417D01*
X128566123Y-95434024D01*
X128566123Y-95434022D01*
X128567223Y-95426792D01*
X128562915Y-95373825D01*
X128562500Y-95363611D01*
X128562500Y-95355475D01*
X128559190Y-95327084D01*
X128558757Y-95322709D01*
X128553403Y-95256872D01*
X128553402Y-95256869D01*
X128552809Y-95249573D01*
X128550554Y-95242611D01*
X128549354Y-95236607D01*
X128547948Y-95230660D01*
X128547101Y-95223393D01*
X128522053Y-95154387D01*
X128520625Y-95150227D01*
X128500268Y-95087387D01*
X128500266Y-95087382D01*
X128498012Y-95080425D01*
X128494218Y-95074173D01*
X128491666Y-95068598D01*
X128488930Y-95063135D01*
X128486434Y-95056259D01*
X128446181Y-94994863D01*
X128443834Y-94991144D01*
X128405772Y-94928419D01*
X128398332Y-94919994D01*
X128398360Y-94919969D01*
X128395766Y-94917044D01*
X128392961Y-94913690D01*
X128388946Y-94907565D01*
X128332413Y-94854011D01*
X128329972Y-94851634D01*
X126286810Y-92808472D01*
X126274423Y-92794059D01*
X126265795Y-92782335D01*
X126261454Y-92776436D01*
X126220945Y-92742021D01*
X126213429Y-92735091D01*
X126207685Y-92729347D01*
X126204811Y-92727073D01*
X126204804Y-92727067D01*
X126185289Y-92711628D01*
X126181885Y-92708837D01*
X126131528Y-92666055D01*
X126131524Y-92666052D01*
X126125949Y-92661316D01*
X126119432Y-92657988D01*
X126114368Y-92654611D01*
X126109144Y-92651384D01*
X126103400Y-92646840D01*
X126057781Y-92625519D01*
X126036918Y-92615768D01*
X126032967Y-92613837D01*
X125974117Y-92583787D01*
X125967596Y-92580457D01*
X125960481Y-92578716D01*
X125954735Y-92576579D01*
X125948952Y-92574655D01*
X125942321Y-92571556D01*
X125870443Y-92556606D01*
X125866171Y-92555639D01*
X125794888Y-92538196D01*
X125789289Y-92537849D01*
X125789285Y-92537848D01*
X125783670Y-92537500D01*
X125783672Y-92537461D01*
X125779771Y-92537228D01*
X125775412Y-92536839D01*
X125768244Y-92535348D01*
X125760927Y-92535546D01*
X125690423Y-92537454D01*
X125687014Y-92537500D01*
X124179487Y-92537500D01*
X124111366Y-92517498D01*
X124064873Y-92463842D01*
X124053834Y-92420838D01*
X124044409Y-92294014D01*
X124044407Y-92293997D01*
X124044061Y-92289348D01*
X124032725Y-92239248D01*
X123987408Y-92038980D01*
X123986377Y-92034423D01*
X123891647Y-91790823D01*
X123761951Y-91563902D01*
X123600138Y-91358643D01*
X123409763Y-91179557D01*
X123195009Y-91030576D01*
X123190816Y-91028508D01*
X122964781Y-90917040D01*
X122964778Y-90917039D01*
X122960593Y-90914975D01*
X122914449Y-90900204D01*
X122716123Y-90836720D01*
X122711665Y-90835293D01*
X122453693Y-90793279D01*
X122339942Y-90791790D01*
X122197022Y-90789919D01*
X122197019Y-90789919D01*
X122192345Y-90789858D01*
X121933362Y-90825104D01*
X121682433Y-90898243D01*
X121678180Y-90900203D01*
X121678179Y-90900204D01*
X121641659Y-90917040D01*
X121445072Y-91007668D01*
X121406067Y-91033241D01*
X121230404Y-91148410D01*
X121230399Y-91148414D01*
X121226491Y-91150976D01*
X121031494Y-91325018D01*
X121028506Y-91328611D01*
X120924768Y-91453341D01*
X120865830Y-91492924D01*
X120794848Y-91494360D01*
X120734358Y-91457192D01*
X120705099Y-91401008D01*
X120604828Y-90964948D01*
X120603782Y-90960992D01*
X120435703Y-90398976D01*
X120434405Y-90395095D01*
X120230398Y-89845065D01*
X120228872Y-89841327D01*
X119989795Y-89305611D01*
X119988007Y-89301929D01*
X119714872Y-88782786D01*
X119712857Y-88779238D01*
X119406778Y-88278782D01*
X119404550Y-88275391D01*
X119066795Y-87795704D01*
X119064369Y-87792485D01*
X118696364Y-87335595D01*
X118693720Y-87332522D01*
X118414963Y-87028845D01*
X118401359Y-87020642D01*
X118400960Y-87020654D01*
X118392167Y-87026043D01*
X112131022Y-93287188D01*
X112123408Y-93301132D01*
X112123539Y-93302965D01*
X112127790Y-93309580D01*
X118389232Y-99571022D01*
X118403176Y-99578636D01*
X118404220Y-99578562D01*
X118411913Y-99573489D01*
X118577876Y-99399514D01*
X118580599Y-99396468D01*
X118957289Y-98946749D01*
X118959783Y-98943569D01*
X119306674Y-98470469D01*
X119308974Y-98467109D01*
X119624609Y-97972616D01*
X119626680Y-97969128D01*
X119909752Y-97455284D01*
X119911588Y-97451682D01*
X120160911Y-96920639D01*
X120162513Y-96916920D01*
X120377048Y-96370895D01*
X120378405Y-96367085D01*
X120557257Y-95808350D01*
X120558363Y-95804469D01*
X120700789Y-95235345D01*
X120701641Y-95231401D01*
X120706122Y-95206866D01*
X120738038Y-95143447D01*
X120799173Y-95107350D01*
X120870119Y-95110036D01*
X120929022Y-95151497D01*
X120999862Y-95241357D01*
X121190237Y-95420443D01*
X121404991Y-95569424D01*
X121467230Y-95600117D01*
X121519477Y-95648185D01*
X121537500Y-95713122D01*
X121537500Y-100931972D01*
X121517498Y-101000093D01*
X121500595Y-101021067D01*
X117721067Y-104800595D01*
X117658755Y-104834621D01*
X117631972Y-104837500D01*
X106168028Y-104837500D01*
X106099907Y-104817498D01*
X106078933Y-104800595D01*
X102017405Y-100739067D01*
X101983379Y-100676755D01*
X101980500Y-100649972D01*
X101980500Y-99945023D01*
X105479517Y-99945023D01*
X105479541Y-99945362D01*
X105485364Y-99953994D01*
X105803622Y-100245113D01*
X105806724Y-100247773D01*
X106264235Y-100614963D01*
X106267478Y-100617399D01*
X106747723Y-100954294D01*
X106751150Y-100956537D01*
X107252130Y-101261737D01*
X107255665Y-101263737D01*
X107775331Y-101535990D01*
X107778969Y-101537749D01*
X108315089Y-101775884D01*
X108318879Y-101777423D01*
X108869248Y-101980465D01*
X108873113Y-101981751D01*
X109435443Y-102148854D01*
X109439384Y-102149888D01*
X110011318Y-102280353D01*
X110015313Y-102281130D01*
X110594493Y-102374418D01*
X110598532Y-102374935D01*
X111182504Y-102430651D01*
X111186573Y-102430907D01*
X111772923Y-102448822D01*
X111777010Y-102448814D01*
X112363306Y-102428853D01*
X112367348Y-102428585D01*
X112951145Y-102370828D01*
X112955181Y-102370297D01*
X113534015Y-102274991D01*
X113538018Y-102274198D01*
X114109506Y-102141734D01*
X114113426Y-102140691D01*
X114675191Y-101971619D01*
X114679024Y-101970329D01*
X115228684Y-101765366D01*
X115232477Y-101763810D01*
X115767752Y-101523810D01*
X115771413Y-101522024D01*
X116290116Y-101247964D01*
X116293622Y-101245964D01*
X116793558Y-100939003D01*
X116796955Y-100936762D01*
X117276034Y-100598183D01*
X117279258Y-100595745D01*
X117735504Y-100226943D01*
X117738571Y-100224296D01*
X118030018Y-99955827D01*
X118038196Y-99942210D01*
X118038182Y-99941751D01*
X118032837Y-99933047D01*
X111771812Y-93672022D01*
X111757868Y-93664408D01*
X111756035Y-93664539D01*
X111749420Y-93668790D01*
X105487131Y-99931079D01*
X105479517Y-99945023D01*
X101980500Y-99945023D01*
X101980500Y-95715600D01*
X102000502Y-95647479D01*
X102053747Y-95601175D01*
X102068681Y-95594290D01*
X102068682Y-95594289D01*
X102072928Y-95592332D01*
X102217153Y-95497774D01*
X102287596Y-95451590D01*
X102287601Y-95451586D01*
X102291509Y-95449024D01*
X102486506Y-95274982D01*
X102591838Y-95148335D01*
X102650776Y-95108752D01*
X102721758Y-95107316D01*
X102782248Y-95144484D01*
X102812582Y-95205835D01*
X102823153Y-95262597D01*
X102824025Y-95266562D01*
X102968428Y-95835148D01*
X102969558Y-95839062D01*
X103150348Y-96397136D01*
X103151732Y-96400978D01*
X103368157Y-96946215D01*
X103369788Y-96949966D01*
X103620947Y-97480100D01*
X103622805Y-97483714D01*
X103907670Y-97996570D01*
X103909745Y-98000037D01*
X104227107Y-98493433D01*
X104229424Y-98496790D01*
X104577945Y-98968649D01*
X104580476Y-98971854D01*
X104958730Y-99420250D01*
X104961457Y-99423278D01*
X105103272Y-99570904D01*
X105117057Y-99578794D01*
X105118221Y-99578734D01*
X105125854Y-99573936D01*
X111386978Y-93312812D01*
X111394592Y-93298868D01*
X111394461Y-93297035D01*
X111390210Y-93290420D01*
X105126486Y-87026696D01*
X105112542Y-87019082D01*
X105110737Y-87019211D01*
X105104084Y-87023490D01*
X105080266Y-87047350D01*
X105077474Y-87050333D01*
X104690671Y-87491396D01*
X104688106Y-87494518D01*
X104330566Y-87959634D01*
X104328203Y-87962923D01*
X104001418Y-88450146D01*
X103999276Y-88453575D01*
X103704626Y-88960854D01*
X103702700Y-88964430D01*
X103441392Y-89489679D01*
X103439707Y-89493361D01*
X103212853Y-90034346D01*
X103211388Y-90038184D01*
X103019921Y-90592671D01*
X103018717Y-90596559D01*
X102863431Y-91162251D01*
X102862471Y-91166247D01*
X102814330Y-91399743D01*
X102780985Y-91462422D01*
X102719046Y-91497122D01*
X102648180Y-91492827D01*
X102591976Y-91452306D01*
X102551536Y-91401008D01*
X102518138Y-91358643D01*
X102327763Y-91179557D01*
X102113009Y-91030576D01*
X102108816Y-91028508D01*
X101882781Y-90917040D01*
X101882778Y-90917039D01*
X101878593Y-90914975D01*
X101832449Y-90900204D01*
X101634123Y-90836720D01*
X101629665Y-90835293D01*
X101371693Y-90793279D01*
X101257942Y-90791790D01*
X101115022Y-90789919D01*
X101115019Y-90789919D01*
X101110345Y-90789858D01*
X100851362Y-90825104D01*
X100600433Y-90898243D01*
X100596180Y-90900203D01*
X100596179Y-90900204D01*
X100559659Y-90917040D01*
X100363072Y-91007668D01*
X100324067Y-91033241D01*
X100148404Y-91148410D01*
X100148399Y-91148414D01*
X100144491Y-91150976D01*
X99949494Y-91325018D01*
X99782363Y-91525970D01*
X99779934Y-91529973D01*
X99681020Y-91692979D01*
X99646771Y-91749419D01*
X99545697Y-91990455D01*
X99481359Y-92243783D01*
X99459500Y-92460867D01*
X99459500Y-94116354D01*
X99473939Y-94310652D01*
X99474968Y-94315200D01*
X99474969Y-94315206D01*
X99511992Y-94478823D01*
X99531623Y-94565577D01*
X99533315Y-94569929D01*
X99533316Y-94569931D01*
X99585025Y-94702900D01*
X99626353Y-94809177D01*
X99756049Y-95036098D01*
X99917862Y-95241357D01*
X100108237Y-95420443D01*
X100322991Y-95569424D01*
X100385230Y-95600117D01*
X100437477Y-95648185D01*
X100455500Y-95713122D01*
X100455500Y-100950624D01*
X100454067Y-100969574D01*
X100451876Y-100983973D01*
X100451876Y-100983979D01*
X100450776Y-100991208D01*
X100451369Y-100998500D01*
X100451369Y-100998503D01*
X100455085Y-101044183D01*
X100455500Y-101054398D01*
X100455500Y-101062525D01*
X100458811Y-101090924D01*
X100459238Y-101095244D01*
X100465191Y-101168426D01*
X100467447Y-101175388D01*
X100468643Y-101181376D01*
X100470051Y-101187333D01*
X100470899Y-101194607D01*
X100473397Y-101201489D01*
X100473398Y-101201493D01*
X100495945Y-101263607D01*
X100497355Y-101267711D01*
X100519987Y-101337575D01*
X100523787Y-101343838D01*
X100526325Y-101349380D01*
X100529067Y-101354856D01*
X100531566Y-101361741D01*
X100535581Y-101367865D01*
X100571815Y-101423132D01*
X100574130Y-101426800D01*
X100612227Y-101489581D01*
X100615941Y-101493786D01*
X100615943Y-101493789D01*
X100619667Y-101498005D01*
X100619638Y-101498031D01*
X100622238Y-101500962D01*
X100625042Y-101504316D01*
X100629054Y-101510435D01*
X100634366Y-101515467D01*
X100685586Y-101563988D01*
X100688028Y-101566366D01*
X105213190Y-106091528D01*
X105225577Y-106105941D01*
X105238546Y-106123564D01*
X105256817Y-106139086D01*
X105279055Y-106157979D01*
X105286571Y-106164909D01*
X105292315Y-106170653D01*
X105295191Y-106172928D01*
X105295195Y-106172932D01*
X105314725Y-106188384D01*
X105318124Y-106191171D01*
X105326589Y-106198362D01*
X105374051Y-106238684D01*
X105380570Y-106242013D01*
X105385688Y-106245426D01*
X105390865Y-106248623D01*
X105396600Y-106253161D01*
X105403226Y-106256258D01*
X105403228Y-106256259D01*
X105463101Y-106284241D01*
X105467053Y-106286173D01*
X105525882Y-106316213D01*
X105525884Y-106316214D01*
X105532404Y-106319543D01*
X105539520Y-106321284D01*
X105545264Y-106323420D01*
X105551046Y-106325344D01*
X105557680Y-106328444D01*
X105615209Y-106340410D01*
X105629555Y-106343394D01*
X105633839Y-106344364D01*
X105705112Y-106361804D01*
X105710714Y-106362152D01*
X105710717Y-106362152D01*
X105716330Y-106362500D01*
X105716328Y-106362537D01*
X105720227Y-106362773D01*
X105724598Y-106363163D01*
X105731757Y-106364652D01*
X105809577Y-106362546D01*
X105812986Y-106362500D01*
X117932624Y-106362500D01*
X117951574Y-106363933D01*
X117965973Y-106366124D01*
X117965979Y-106366124D01*
X117973208Y-106367224D01*
X117980500Y-106366631D01*
X117980503Y-106366631D01*
X118026183Y-106362915D01*
X118036398Y-106362500D01*
X118044525Y-106362500D01*
X118048161Y-106362076D01*
X118048163Y-106362076D01*
X118051615Y-106361673D01*
X118072924Y-106359189D01*
X118077244Y-106358762D01*
X118150426Y-106352809D01*
X118157388Y-106350553D01*
X118163376Y-106349357D01*
X118169333Y-106347949D01*
X118176607Y-106347101D01*
X118183489Y-106344603D01*
X118183493Y-106344602D01*
X118245607Y-106322055D01*
X118249711Y-106320645D01*
X118319575Y-106298013D01*
X118325838Y-106294213D01*
X118331380Y-106291675D01*
X118336856Y-106288933D01*
X118343741Y-106286434D01*
X118389766Y-106256259D01*
X118405132Y-106246185D01*
X118408800Y-106243870D01*
X118471581Y-106205773D01*
X118475786Y-106202059D01*
X118475789Y-106202057D01*
X118480005Y-106198333D01*
X118480031Y-106198362D01*
X118482962Y-106195762D01*
X118486316Y-106192958D01*
X118492435Y-106188946D01*
X118545989Y-106132413D01*
X118548366Y-106129972D01*
X122791528Y-101886810D01*
X122805941Y-101874423D01*
X122817665Y-101865795D01*
X122823564Y-101861454D01*
X122857979Y-101820945D01*
X122864909Y-101813429D01*
X122870653Y-101807685D01*
X122872927Y-101804811D01*
X122872933Y-101804804D01*
X122888372Y-101785289D01*
X122891163Y-101781885D01*
X122933945Y-101731528D01*
X122933948Y-101731524D01*
X122938684Y-101725949D01*
X122942012Y-101719432D01*
X122945389Y-101714368D01*
X122948616Y-101709144D01*
X122953160Y-101703400D01*
X122984232Y-101636918D01*
X122986163Y-101632967D01*
X123016213Y-101574117D01*
X123019543Y-101567596D01*
X123021284Y-101560481D01*
X123023421Y-101554735D01*
X123025345Y-101548952D01*
X123028444Y-101542321D01*
X123043394Y-101470443D01*
X123044363Y-101466162D01*
X123048086Y-101450950D01*
X123061804Y-101394888D01*
X123062500Y-101383670D01*
X123062539Y-101383672D01*
X123062772Y-101379771D01*
X123063161Y-101375412D01*
X123064652Y-101368244D01*
X123062546Y-101290423D01*
X123062500Y-101287014D01*
X123062500Y-95715600D01*
X123082502Y-95647479D01*
X123135747Y-95601175D01*
X123150681Y-95594290D01*
X123150682Y-95594289D01*
X123154928Y-95592332D01*
X123299153Y-95497774D01*
X123369596Y-95451590D01*
X123369601Y-95451586D01*
X123373509Y-95449024D01*
X123568506Y-95274982D01*
X123735637Y-95074030D01*
X123784791Y-94993027D01*
X123868804Y-94854578D01*
X123868806Y-94854574D01*
X123871229Y-94850581D01*
X123972303Y-94609545D01*
X124036641Y-94356217D01*
X124054800Y-94175877D01*
X124081526Y-94110102D01*
X124139570Y-94069219D01*
X124180166Y-94062500D01*
X125331972Y-94062500D01*
X125400093Y-94082502D01*
X125421067Y-94099405D01*
X127000595Y-95678933D01*
X127034621Y-95741245D01*
X127037500Y-95768028D01*
X127037500Y-103032624D01*
X127036067Y-103051574D01*
X127033876Y-103065973D01*
X127033876Y-103065979D01*
X127032776Y-103073208D01*
X127033369Y-103080500D01*
X127033369Y-103080503D01*
X127037085Y-103126183D01*
X127037500Y-103136398D01*
X127037500Y-103144525D01*
X127040811Y-103172924D01*
X127041238Y-103177244D01*
X127047191Y-103250426D01*
X127049447Y-103257388D01*
X127050643Y-103263376D01*
X127052051Y-103269333D01*
X127052899Y-103276607D01*
X127055397Y-103283489D01*
X127055398Y-103283493D01*
X127077945Y-103345607D01*
X127079355Y-103349711D01*
X127101987Y-103419575D01*
X127105787Y-103425838D01*
X127108325Y-103431380D01*
X127111067Y-103436856D01*
X127113566Y-103443741D01*
X127117581Y-103449865D01*
X127153815Y-103505132D01*
X127156130Y-103508800D01*
X127194227Y-103571581D01*
X127197941Y-103575786D01*
X127197943Y-103575789D01*
X127201667Y-103580005D01*
X127201638Y-103580031D01*
X127204238Y-103582962D01*
X127207042Y-103586316D01*
X127211054Y-103592435D01*
X127216366Y-103597467D01*
X127267586Y-103645988D01*
X127270028Y-103648366D01*
X130062392Y-106440730D01*
X130070716Y-106449916D01*
X130099517Y-106485028D01*
X130164089Y-106534289D01*
X130165699Y-106535540D01*
X130229295Y-106585855D01*
X130235463Y-106588738D01*
X130240881Y-106592871D01*
X130247562Y-106595851D01*
X130314903Y-106625888D01*
X130316923Y-106626811D01*
X130383747Y-106658042D01*
X130383752Y-106658044D01*
X130390375Y-106661139D01*
X130396213Y-106662354D01*
X130398140Y-106663015D01*
X130403264Y-106665300D01*
X130410330Y-106667041D01*
X130412289Y-106667524D01*
X130412295Y-106667525D01*
X130414177Y-106667989D01*
X130416084Y-106668335D01*
X130416083Y-106668335D01*
X130484364Y-106680731D01*
X130487514Y-106681345D01*
X130557286Y-106695857D01*
X130557290Y-106695857D01*
X130564452Y-106697347D01*
X130571765Y-106697149D01*
X130572059Y-106697175D01*
X130583365Y-106698702D01*
X131733892Y-106907562D01*
X131797345Y-106939410D01*
X131833507Y-107000507D01*
X131830896Y-107071456D01*
X131790342Y-107129730D01*
X131771507Y-107141915D01*
X131769763Y-107142611D01*
X131589693Y-107256228D01*
X131433343Y-107400756D01*
X131429891Y-107405379D01*
X131429890Y-107405380D01*
X131321456Y-107550592D01*
X131264671Y-107593206D01*
X131220498Y-107601203D01*
X129003674Y-107601203D01*
X128984724Y-107599770D01*
X128970325Y-107597579D01*
X128970319Y-107597579D01*
X128963090Y-107596479D01*
X128955798Y-107597072D01*
X128955795Y-107597072D01*
X128910115Y-107600788D01*
X128899900Y-107601203D01*
X128891772Y-107601203D01*
X128888150Y-107601625D01*
X128888137Y-107601626D01*
X128863383Y-107604512D01*
X128859024Y-107604943D01*
X128785871Y-107610894D01*
X128778909Y-107613150D01*
X128772921Y-107614346D01*
X128766964Y-107615754D01*
X128759690Y-107616602D01*
X128752808Y-107619100D01*
X128752804Y-107619101D01*
X128690690Y-107641648D01*
X128686586Y-107643058D01*
X128616722Y-107665690D01*
X128610459Y-107669490D01*
X128604917Y-107672028D01*
X128599441Y-107674770D01*
X128592556Y-107677269D01*
X128586432Y-107681284D01*
X128531165Y-107717518D01*
X128527497Y-107719833D01*
X128464716Y-107757930D01*
X128460511Y-107761644D01*
X128460508Y-107761646D01*
X128456292Y-107765370D01*
X128456266Y-107765341D01*
X128453335Y-107767941D01*
X128449981Y-107770745D01*
X128443862Y-107774757D01*
X128438830Y-107780069D01*
X128390309Y-107831289D01*
X128387931Y-107833731D01*
X127308472Y-108913190D01*
X127294059Y-108925577D01*
X127276436Y-108938546D01*
X127271692Y-108944129D01*
X127271693Y-108944129D01*
X127242021Y-108979055D01*
X127235091Y-108986571D01*
X127229347Y-108992315D01*
X127227073Y-108995189D01*
X127227067Y-108995196D01*
X127211628Y-109014711D01*
X127208837Y-109018115D01*
X127166055Y-109068472D01*
X127166052Y-109068476D01*
X127161316Y-109074051D01*
X127157988Y-109080568D01*
X127154611Y-109085632D01*
X127151384Y-109090856D01*
X127146840Y-109096600D01*
X127143741Y-109103231D01*
X127115768Y-109163082D01*
X127113837Y-109167033D01*
X127080457Y-109232404D01*
X127078716Y-109239519D01*
X127076579Y-109245265D01*
X127074655Y-109251048D01*
X127071556Y-109257679D01*
X127068520Y-109272278D01*
X127056608Y-109329547D01*
X127055639Y-109333829D01*
X127038196Y-109405112D01*
X127037500Y-109416330D01*
X127037461Y-109416328D01*
X127037228Y-109420229D01*
X127036839Y-109424588D01*
X127035348Y-109431756D01*
X127035546Y-109439073D01*
X127037454Y-109509577D01*
X127037500Y-109512986D01*
X127037500Y-112331972D01*
X127017498Y-112400093D01*
X127000595Y-112421067D01*
X126066469Y-113355193D01*
X126004157Y-113389219D01*
X125933342Y-113384154D01*
X125876506Y-113341607D01*
X125851695Y-113275087D01*
X125859392Y-113221868D01*
X125898478Y-113117606D01*
X125902105Y-113102351D01*
X125907631Y-113051486D01*
X125908000Y-113044672D01*
X125908000Y-112372115D01*
X125903525Y-112356876D01*
X125902135Y-112355671D01*
X125894452Y-112354000D01*
X123110116Y-112354000D01*
X123094877Y-112358475D01*
X123093672Y-112359865D01*
X123092001Y-112367548D01*
X123092001Y-113044669D01*
X123092371Y-113051490D01*
X123097895Y-113102352D01*
X123101521Y-113117604D01*
X123146676Y-113238054D01*
X123155214Y-113253649D01*
X123231715Y-113355724D01*
X123244276Y-113368285D01*
X123346351Y-113444786D01*
X123361946Y-113453324D01*
X123421540Y-113475665D01*
X123478304Y-113518307D01*
X123503004Y-113584868D01*
X123487796Y-113654217D01*
X123468404Y-113680698D01*
X123401639Y-113750564D01*
X123398725Y-113754836D01*
X123398724Y-113754837D01*
X123352565Y-113822504D01*
X123297654Y-113867507D01*
X123248477Y-113877500D01*
X102827368Y-113877500D01*
X102808420Y-113876067D01*
X102801033Y-113874943D01*
X102794024Y-113873877D01*
X102794022Y-113873877D01*
X102786792Y-113872777D01*
X102779500Y-113873370D01*
X102779497Y-113873370D01*
X102733825Y-113877085D01*
X102723611Y-113877500D01*
X102715475Y-113877500D01*
X102711840Y-113877924D01*
X102711837Y-113877924D01*
X102693835Y-113880023D01*
X102687084Y-113880810D01*
X102682713Y-113881243D01*
X102671701Y-113882138D01*
X102616872Y-113886597D01*
X102616869Y-113886598D01*
X102609573Y-113887191D01*
X102602611Y-113889446D01*
X102596607Y-113890646D01*
X102590660Y-113892052D01*
X102583393Y-113892899D01*
X102514388Y-113917947D01*
X102510227Y-113919375D01*
X102447387Y-113939732D01*
X102447382Y-113939734D01*
X102440425Y-113941988D01*
X102434173Y-113945782D01*
X102428598Y-113948334D01*
X102423135Y-113951070D01*
X102416259Y-113953566D01*
X102410140Y-113957578D01*
X102354863Y-113993819D01*
X102351159Y-113996156D01*
X102288419Y-114034228D01*
X102279994Y-114041668D01*
X102279969Y-114041640D01*
X102277044Y-114044234D01*
X102273690Y-114047039D01*
X102267565Y-114051054D01*
X102262530Y-114056369D01*
X102262529Y-114056370D01*
X102214012Y-114107586D01*
X102211634Y-114110028D01*
X100681067Y-115640595D01*
X100618755Y-115674621D01*
X100591972Y-115677500D01*
X98752905Y-115677500D01*
X98684784Y-115657498D01*
X98647113Y-115619940D01*
X98622574Y-115582009D01*
X98619764Y-115577665D01*
X98603375Y-115559653D01*
X98580776Y-115534818D01*
X98529486Y-115478450D01*
X98498434Y-115414605D01*
X98506829Y-115344106D01*
X98552005Y-115289338D01*
X98578449Y-115275669D01*
X98638054Y-115253324D01*
X98653649Y-115244786D01*
X98755724Y-115168285D01*
X98768285Y-115155724D01*
X98844786Y-115053649D01*
X98853324Y-115038054D01*
X98898478Y-114917606D01*
X98902105Y-114902351D01*
X98907631Y-114851486D01*
X98908000Y-114844672D01*
X98908000Y-114172115D01*
X98903525Y-114156876D01*
X98902135Y-114155671D01*
X98894452Y-114154000D01*
X96110116Y-114154000D01*
X96094877Y-114158475D01*
X96093672Y-114159865D01*
X96092001Y-114167548D01*
X96092001Y-114844669D01*
X96092371Y-114851490D01*
X96097895Y-114902352D01*
X96101521Y-114917604D01*
X96146676Y-115038054D01*
X96155214Y-115053649D01*
X96231715Y-115155724D01*
X96244276Y-115168285D01*
X96346351Y-115244786D01*
X96361946Y-115253324D01*
X96421540Y-115275665D01*
X96478304Y-115318307D01*
X96503004Y-115384868D01*
X96487796Y-115454217D01*
X96468404Y-115480698D01*
X96447975Y-115502076D01*
X96401639Y-115550564D01*
X96398725Y-115554836D01*
X96398724Y-115554837D01*
X96383152Y-115577665D01*
X96271119Y-115741899D01*
X96173602Y-115951981D01*
X96111707Y-116175169D01*
X96087095Y-116405469D01*
X96087392Y-116410622D01*
X96087392Y-116410625D01*
X96092250Y-116494877D01*
X96100427Y-116636697D01*
X96101564Y-116641743D01*
X96101565Y-116641749D01*
X96125139Y-116746351D01*
X96151346Y-116862642D01*
X96153288Y-116867424D01*
X96153289Y-116867428D01*
X96236540Y-117072450D01*
X96238484Y-117077237D01*
X96359501Y-117274719D01*
X96511147Y-117449784D01*
X96689349Y-117597730D01*
X96889322Y-117714584D01*
X97105694Y-117797209D01*
X97110760Y-117798240D01*
X97110761Y-117798240D01*
X97139363Y-117804059D01*
X97332656Y-117843385D01*
X97463324Y-117848176D01*
X97558949Y-117851683D01*
X97558953Y-117851683D01*
X97564113Y-117851872D01*
X97569233Y-117851216D01*
X97569235Y-117851216D01*
X97642270Y-117841860D01*
X97793847Y-117822442D01*
X97798795Y-117820957D01*
X97798802Y-117820956D01*
X97960419Y-117772468D01*
X98031414Y-117772052D01*
X98085721Y-117804059D01*
X101113190Y-120831528D01*
X101125577Y-120845941D01*
X101138546Y-120863564D01*
X101144129Y-120868307D01*
X101179055Y-120897979D01*
X101186571Y-120904909D01*
X101192315Y-120910653D01*
X101195189Y-120912927D01*
X101195196Y-120912933D01*
X101214711Y-120928372D01*
X101218115Y-120931163D01*
X101268472Y-120973945D01*
X101268476Y-120973948D01*
X101274051Y-120978684D01*
X101280568Y-120982012D01*
X101285632Y-120985389D01*
X101290856Y-120988616D01*
X101296600Y-120993160D01*
X101363104Y-121024242D01*
X101367001Y-121026147D01*
X101432404Y-121059543D01*
X101439518Y-121061284D01*
X101445252Y-121063416D01*
X101451048Y-121065344D01*
X101457680Y-121068444D01*
X101529555Y-121083394D01*
X101533839Y-121084364D01*
X101605112Y-121101804D01*
X101610714Y-121102152D01*
X101610717Y-121102152D01*
X101616330Y-121102500D01*
X101616328Y-121102537D01*
X101620227Y-121102773D01*
X101624598Y-121103163D01*
X101631757Y-121104652D01*
X101709577Y-121102546D01*
X101712986Y-121102500D01*
X110483401Y-121102500D01*
X110551522Y-121122502D01*
X110590834Y-121162665D01*
X110595486Y-121170256D01*
X110659501Y-121274719D01*
X110811147Y-121449784D01*
X110989349Y-121597730D01*
X111189322Y-121714584D01*
X111405694Y-121797209D01*
X111410760Y-121798240D01*
X111410761Y-121798240D01*
X111460100Y-121808278D01*
X111632656Y-121843385D01*
X111763324Y-121848176D01*
X111858949Y-121851683D01*
X111858953Y-121851683D01*
X111864113Y-121851872D01*
X111869233Y-121851216D01*
X111869235Y-121851216D01*
X111942270Y-121841860D01*
X112093847Y-121822442D01*
X112098795Y-121820957D01*
X112098802Y-121820956D01*
X112310747Y-121757369D01*
X112315690Y-121755886D01*
X112396236Y-121716427D01*
X112519049Y-121656262D01*
X112519052Y-121656260D01*
X112523684Y-121653991D01*
X112712243Y-121519494D01*
X112876303Y-121356005D01*
X113011458Y-121167917D01*
X113033904Y-121122502D01*
X113111784Y-120964922D01*
X113111785Y-120964920D01*
X113114078Y-120960280D01*
X113181408Y-120738671D01*
X113211640Y-120509041D01*
X113213327Y-120440000D01*
X113207032Y-120363434D01*
X113194773Y-120214318D01*
X113194772Y-120214312D01*
X113194349Y-120209167D01*
X113150441Y-120034362D01*
X113139184Y-119989544D01*
X113139183Y-119989540D01*
X113137925Y-119984533D01*
X113045570Y-119772131D01*
X112919764Y-119577665D01*
X112901414Y-119557498D01*
X112829486Y-119478451D01*
X112798434Y-119414605D01*
X112806829Y-119344106D01*
X112852005Y-119289338D01*
X112878449Y-119275669D01*
X112938054Y-119253324D01*
X112953649Y-119244786D01*
X113055724Y-119168285D01*
X113068285Y-119155724D01*
X113144786Y-119053649D01*
X113153324Y-119038054D01*
X113198478Y-118917606D01*
X113202105Y-118902351D01*
X113207631Y-118851486D01*
X113208000Y-118844672D01*
X113208000Y-118172115D01*
X113203525Y-118156876D01*
X113202135Y-118155671D01*
X113194452Y-118154000D01*
X110410116Y-118154000D01*
X110394877Y-118158475D01*
X110393672Y-118159865D01*
X110392001Y-118167548D01*
X110392001Y-118844669D01*
X110392371Y-118851490D01*
X110397895Y-118902352D01*
X110401521Y-118917604D01*
X110446676Y-119038054D01*
X110455214Y-119053649D01*
X110531715Y-119155724D01*
X110544276Y-119168285D01*
X110646351Y-119244786D01*
X110661946Y-119253324D01*
X110721540Y-119275665D01*
X110778304Y-119318307D01*
X110803004Y-119384868D01*
X110787796Y-119454217D01*
X110768404Y-119480698D01*
X110713119Y-119538551D01*
X110651595Y-119573981D01*
X110622025Y-119577500D01*
X102068028Y-119577500D01*
X101999907Y-119557498D01*
X101978933Y-119540595D01*
X100066223Y-117627885D01*
X110392000Y-117627885D01*
X110396475Y-117643124D01*
X110397865Y-117644329D01*
X110405548Y-117646000D01*
X111527885Y-117646000D01*
X111543124Y-117641525D01*
X111544329Y-117640135D01*
X111546000Y-117632452D01*
X111546000Y-117627885D01*
X112054000Y-117627885D01*
X112058475Y-117643124D01*
X112059865Y-117644329D01*
X112067548Y-117646000D01*
X113189884Y-117646000D01*
X113205123Y-117641525D01*
X113206328Y-117640135D01*
X113207999Y-117632452D01*
X113207999Y-116955331D01*
X113207629Y-116948510D01*
X113202105Y-116897648D01*
X113198479Y-116882396D01*
X113153324Y-116761946D01*
X113144786Y-116746351D01*
X113068285Y-116644276D01*
X113055724Y-116631715D01*
X112953649Y-116555214D01*
X112938054Y-116546676D01*
X112817606Y-116501522D01*
X112802351Y-116497895D01*
X112751486Y-116492369D01*
X112744672Y-116492000D01*
X112072115Y-116492000D01*
X112056876Y-116496475D01*
X112055671Y-116497865D01*
X112054000Y-116505548D01*
X112054000Y-117627885D01*
X111546000Y-117627885D01*
X111546000Y-116510116D01*
X111541525Y-116494877D01*
X111540135Y-116493672D01*
X111532452Y-116492001D01*
X110855331Y-116492001D01*
X110848510Y-116492371D01*
X110797648Y-116497895D01*
X110782396Y-116501521D01*
X110661946Y-116546676D01*
X110646351Y-116555214D01*
X110544276Y-116631715D01*
X110531715Y-116644276D01*
X110455214Y-116746351D01*
X110446676Y-116761946D01*
X110401522Y-116882394D01*
X110397895Y-116897649D01*
X110392369Y-116948514D01*
X110392000Y-116955328D01*
X110392000Y-117627885D01*
X100066223Y-117627885D01*
X99855933Y-117417595D01*
X99821907Y-117355283D01*
X99826972Y-117284468D01*
X99869519Y-117227632D01*
X99936039Y-117202821D01*
X99945028Y-117202500D01*
X100892624Y-117202500D01*
X100911574Y-117203933D01*
X100925973Y-117206124D01*
X100925979Y-117206124D01*
X100933208Y-117207224D01*
X100940500Y-117206631D01*
X100940503Y-117206631D01*
X100986183Y-117202915D01*
X100996398Y-117202500D01*
X101004525Y-117202500D01*
X101008161Y-117202076D01*
X101008163Y-117202076D01*
X101011615Y-117201673D01*
X101032924Y-117199189D01*
X101037244Y-117198762D01*
X101110426Y-117192809D01*
X101117388Y-117190553D01*
X101123376Y-117189357D01*
X101129333Y-117187949D01*
X101136607Y-117187101D01*
X101143489Y-117184603D01*
X101143493Y-117184602D01*
X101205607Y-117162055D01*
X101209711Y-117160645D01*
X101279575Y-117138013D01*
X101285838Y-117134213D01*
X101291380Y-117131675D01*
X101296856Y-117128933D01*
X101303741Y-117126434D01*
X101365132Y-117086185D01*
X101368800Y-117083870D01*
X101431581Y-117045773D01*
X101435786Y-117042059D01*
X101435789Y-117042057D01*
X101440005Y-117038333D01*
X101440031Y-117038362D01*
X101442962Y-117035762D01*
X101446316Y-117032958D01*
X101452435Y-117028946D01*
X101505989Y-116972413D01*
X101508366Y-116969972D01*
X103038933Y-115439405D01*
X103101245Y-115405379D01*
X103128028Y-115402500D01*
X123244681Y-115402500D01*
X123312802Y-115422502D01*
X123352112Y-115462663D01*
X123356798Y-115470310D01*
X123356805Y-115470320D01*
X123359501Y-115474719D01*
X123511147Y-115649784D01*
X123689349Y-115797730D01*
X123889322Y-115914584D01*
X124105694Y-115997209D01*
X124110760Y-115998240D01*
X124110761Y-115998240D01*
X124163846Y-116009040D01*
X124332656Y-116043385D01*
X124463324Y-116048176D01*
X124558949Y-116051683D01*
X124558953Y-116051683D01*
X124564113Y-116051872D01*
X124569233Y-116051216D01*
X124569235Y-116051216D01*
X124642270Y-116041860D01*
X124793847Y-116022442D01*
X124798795Y-116020957D01*
X124798802Y-116020956D01*
X125010747Y-115957369D01*
X125015690Y-115955886D01*
X125023661Y-115951981D01*
X125219049Y-115856262D01*
X125219052Y-115856260D01*
X125223684Y-115853991D01*
X125412243Y-115719494D01*
X125576303Y-115556005D01*
X125579319Y-115551807D01*
X125582672Y-115547868D01*
X125584338Y-115549286D01*
X125633050Y-115511322D01*
X125679367Y-115502500D01*
X125692624Y-115502500D01*
X125711574Y-115503933D01*
X125725973Y-115506124D01*
X125725979Y-115506124D01*
X125733208Y-115507224D01*
X125740500Y-115506631D01*
X125740503Y-115506631D01*
X125786183Y-115502915D01*
X125796398Y-115502500D01*
X125804525Y-115502500D01*
X125808161Y-115502076D01*
X125808163Y-115502076D01*
X125811615Y-115501673D01*
X125832924Y-115499189D01*
X125837244Y-115498762D01*
X125910426Y-115492809D01*
X125917388Y-115490553D01*
X125923376Y-115489357D01*
X125929333Y-115487949D01*
X125936607Y-115487101D01*
X125943489Y-115484603D01*
X125943493Y-115484602D01*
X126005607Y-115462055D01*
X126009711Y-115460645D01*
X126079575Y-115438013D01*
X126085838Y-115434213D01*
X126091380Y-115431675D01*
X126096856Y-115428933D01*
X126103741Y-115426434D01*
X126109865Y-115422419D01*
X126165132Y-115386185D01*
X126168800Y-115383870D01*
X126231581Y-115345773D01*
X126235786Y-115342059D01*
X126235789Y-115342057D01*
X126240005Y-115338333D01*
X126240031Y-115338362D01*
X126242962Y-115335762D01*
X126246316Y-115332958D01*
X126252435Y-115328946D01*
X126305989Y-115272413D01*
X126308366Y-115269972D01*
X128291528Y-113286810D01*
X128305941Y-113274423D01*
X128317665Y-113265795D01*
X128323564Y-113261454D01*
X128357979Y-113220945D01*
X128364909Y-113213429D01*
X128370653Y-113207685D01*
X128372927Y-113204811D01*
X128372933Y-113204804D01*
X128388372Y-113185289D01*
X128391163Y-113181885D01*
X128433945Y-113131528D01*
X128433948Y-113131524D01*
X128438684Y-113125949D01*
X128442012Y-113119432D01*
X128445389Y-113114368D01*
X128448616Y-113109144D01*
X128453160Y-113103400D01*
X128484242Y-113036896D01*
X128486147Y-113032999D01*
X128519543Y-112967596D01*
X128521284Y-112960482D01*
X128523416Y-112954748D01*
X128525344Y-112948952D01*
X128528444Y-112942320D01*
X128543395Y-112870440D01*
X128544365Y-112866156D01*
X128560469Y-112800342D01*
X128561804Y-112794888D01*
X128562500Y-112783670D01*
X128562537Y-112783672D01*
X128562773Y-112779773D01*
X128563163Y-112775402D01*
X128564652Y-112768243D01*
X128562546Y-112690423D01*
X128562500Y-112687014D01*
X128562500Y-109868028D01*
X128582502Y-109799907D01*
X128599405Y-109778933D01*
X129215230Y-109163108D01*
X129277542Y-109129082D01*
X129304325Y-109126203D01*
X130259647Y-109126203D01*
X130327768Y-109146205D01*
X130374261Y-109199861D01*
X130384365Y-109270135D01*
X130363488Y-109323568D01*
X130291285Y-109428624D01*
X130289093Y-109433304D01*
X130289091Y-109433307D01*
X130286390Y-109439073D01*
X130189547Y-109645811D01*
X130124648Y-109876697D01*
X130098330Y-110115082D01*
X130111300Y-110354565D01*
X130163210Y-110588714D01*
X130252665Y-110811240D01*
X130377264Y-111016168D01*
X130380633Y-111020085D01*
X130380636Y-111020089D01*
X130434227Y-111082394D01*
X130533660Y-111197995D01*
X130717651Y-111351836D01*
X130924300Y-111473561D01*
X130929131Y-111475425D01*
X131104875Y-111543239D01*
X131104885Y-111543242D01*
X131108002Y-111544445D01*
X131111234Y-111545311D01*
X132783146Y-111993298D01*
X132787986Y-111994595D01*
X132790511Y-111995054D01*
X132790516Y-111995055D01*
X132846464Y-112005222D01*
X132963929Y-112026569D01*
X133080029Y-112028393D01*
X133198562Y-112030255D01*
X133198565Y-112030255D01*
X133203734Y-112030336D01*
X133208845Y-112029572D01*
X133208848Y-112029572D01*
X133322334Y-112012611D01*
X133440934Y-111994887D01*
X133585900Y-111948064D01*
X133664239Y-111922761D01*
X133664241Y-111922760D01*
X133669158Y-111921172D01*
X133882278Y-111811172D01*
X133886413Y-111808090D01*
X133886416Y-111808088D01*
X134070424Y-111670932D01*
X134074571Y-111667841D01*
X134178199Y-111560156D01*
X134239846Y-111524941D01*
X134310746Y-111528646D01*
X134368388Y-111570094D01*
X134394471Y-111636125D01*
X134381553Y-111704139D01*
X134038628Y-112385968D01*
X134036372Y-112390248D01*
X133945306Y-112555214D01*
X133568359Y-113238054D01*
X133561741Y-113250042D01*
X133559330Y-113254218D01*
X133257337Y-113754837D01*
X133052054Y-114095138D01*
X133049476Y-114099232D01*
X132510298Y-114920052D01*
X132507570Y-114924037D01*
X132259075Y-115272414D01*
X131937251Y-115723594D01*
X131934366Y-115727477D01*
X131756192Y-115958008D01*
X131336117Y-116501522D01*
X131333829Y-116504482D01*
X131330806Y-116508243D01*
X131223402Y-116636697D01*
X130700830Y-117261685D01*
X130697656Y-117265336D01*
X130039239Y-117994021D01*
X130035927Y-117997547D01*
X129350052Y-118700390D01*
X129346608Y-118703787D01*
X128634218Y-119379820D01*
X128630645Y-119383082D01*
X128549674Y-119454217D01*
X128182408Y-119776868D01*
X127892863Y-120031239D01*
X127889177Y-120034354D01*
X127385890Y-120443365D01*
X127127020Y-120653743D01*
X127123213Y-120656717D01*
X126449354Y-121162665D01*
X126337862Y-121246376D01*
X126333938Y-121249206D01*
X125526533Y-121808278D01*
X125522504Y-121810955D01*
X124694229Y-122338625D01*
X124690100Y-122341146D01*
X123842157Y-122836644D01*
X123837954Y-122838992D01*
X122971641Y-123301560D01*
X122967331Y-123303756D01*
X122083895Y-123732730D01*
X122079537Y-123734744D01*
X121180243Y-124129506D01*
X121175805Y-124131353D01*
X120335871Y-124462212D01*
X120262047Y-124491292D01*
X120257513Y-124492978D01*
X119330631Y-124817568D01*
X119326035Y-124819079D01*
X118387368Y-125107850D01*
X118382718Y-125109183D01*
X117847786Y-125251518D01*
X117433657Y-125361709D01*
X117428996Y-125362854D01*
X116470923Y-125578765D01*
X116466203Y-125579734D01*
X115500546Y-125758709D01*
X115495791Y-125759496D01*
X115291749Y-125789262D01*
X114524013Y-125901262D01*
X114519213Y-125901869D01*
X114030940Y-125954051D01*
X113542646Y-126006234D01*
X113537869Y-126006651D01*
X112948936Y-126046801D01*
X112558080Y-126073447D01*
X112553248Y-126073684D01*
X112062409Y-126088252D01*
X111571558Y-126102820D01*
X111566747Y-126102870D01*
X110888767Y-126096953D01*
X110584714Y-126094299D01*
X110579879Y-126094164D01*
X110145599Y-126073684D01*
X109598902Y-126047902D01*
X109594091Y-126047584D01*
X108615562Y-125963694D01*
X108610768Y-125963190D01*
X107636220Y-125841804D01*
X107631435Y-125841114D01*
X106662276Y-125682408D01*
X106657518Y-125681535D01*
X105695140Y-125485737D01*
X105690418Y-125484681D01*
X104736289Y-125252089D01*
X104731612Y-125250853D01*
X104110820Y-125074016D01*
X103787117Y-124981807D01*
X103782498Y-124980395D01*
X102849015Y-124675286D01*
X102844446Y-124673695D01*
X101923369Y-124332978D01*
X101918865Y-124331213D01*
X101011537Y-123955386D01*
X101007104Y-123953449D01*
X100521289Y-123729999D01*
X100114868Y-123543066D01*
X100110541Y-123540974D01*
X99234710Y-123096640D01*
X99230447Y-123094373D01*
X98999417Y-122965783D01*
X98372346Y-122616760D01*
X98368165Y-122614327D01*
X97914715Y-122338625D01*
X97529008Y-122104111D01*
X97524951Y-122101537D01*
X96705966Y-121559462D01*
X96701992Y-121556720D01*
X95904502Y-120983664D01*
X95900628Y-120980767D01*
X95125666Y-120377477D01*
X95121906Y-120374432D01*
X94370691Y-119741850D01*
X94367068Y-119738678D01*
X93640685Y-119077720D01*
X93637170Y-119074396D01*
X92936688Y-118386033D01*
X92933304Y-118382577D01*
X92382651Y-117798240D01*
X92259790Y-117667863D01*
X92256548Y-117664288D01*
X91610941Y-116924214D01*
X91607865Y-116920548D01*
X91135307Y-116334900D01*
X90991143Y-116156235D01*
X90988178Y-116152413D01*
X90401254Y-115364995D01*
X90398438Y-115361061D01*
X89842171Y-114551687D01*
X89839540Y-114547698D01*
X89314748Y-113717560D01*
X89312246Y-113713428D01*
X89273160Y-113646000D01*
X89262659Y-113627885D01*
X96092000Y-113627885D01*
X96096475Y-113643124D01*
X96097865Y-113644329D01*
X96105548Y-113646000D01*
X97227885Y-113646000D01*
X97243124Y-113641525D01*
X97244329Y-113640135D01*
X97246000Y-113632452D01*
X97246000Y-113627885D01*
X97754000Y-113627885D01*
X97758475Y-113643124D01*
X97759865Y-113644329D01*
X97767548Y-113646000D01*
X98889884Y-113646000D01*
X98905123Y-113641525D01*
X98906328Y-113640135D01*
X98907999Y-113632452D01*
X98907999Y-112955331D01*
X98907629Y-112948510D01*
X98902105Y-112897648D01*
X98898479Y-112882396D01*
X98853324Y-112761946D01*
X98844786Y-112746351D01*
X98768285Y-112644276D01*
X98755724Y-112631715D01*
X98653649Y-112555214D01*
X98638054Y-112546676D01*
X98517606Y-112501522D01*
X98502351Y-112497895D01*
X98451486Y-112492369D01*
X98444672Y-112492000D01*
X97772115Y-112492000D01*
X97756876Y-112496475D01*
X97755671Y-112497865D01*
X97754000Y-112505548D01*
X97754000Y-113627885D01*
X97246000Y-113627885D01*
X97246000Y-112510116D01*
X97241525Y-112494877D01*
X97240135Y-112493672D01*
X97232452Y-112492001D01*
X96555331Y-112492001D01*
X96548510Y-112492371D01*
X96497648Y-112497895D01*
X96482396Y-112501521D01*
X96361946Y-112546676D01*
X96346351Y-112555214D01*
X96244276Y-112631715D01*
X96231715Y-112644276D01*
X96155214Y-112746351D01*
X96146676Y-112761946D01*
X96101522Y-112882394D01*
X96097895Y-112897649D01*
X96092369Y-112948514D01*
X96092000Y-112955328D01*
X96092000Y-113627885D01*
X89262659Y-113627885D01*
X89052389Y-113265150D01*
X88819723Y-112863779D01*
X88817378Y-112859548D01*
X88359651Y-111995055D01*
X88357847Y-111991646D01*
X88355665Y-111987329D01*
X88278930Y-111827885D01*
X123092000Y-111827885D01*
X123096475Y-111843124D01*
X123097865Y-111844329D01*
X123105548Y-111846000D01*
X124227885Y-111846000D01*
X124243124Y-111841525D01*
X124244329Y-111840135D01*
X124246000Y-111832452D01*
X124246000Y-111827885D01*
X124754000Y-111827885D01*
X124758475Y-111843124D01*
X124759865Y-111844329D01*
X124767548Y-111846000D01*
X125889884Y-111846000D01*
X125905123Y-111841525D01*
X125906328Y-111840135D01*
X125907999Y-111832452D01*
X125907999Y-111155331D01*
X125907629Y-111148510D01*
X125902105Y-111097648D01*
X125898479Y-111082396D01*
X125853324Y-110961946D01*
X125844786Y-110946351D01*
X125768285Y-110844276D01*
X125755724Y-110831715D01*
X125653649Y-110755214D01*
X125638054Y-110746676D01*
X125517606Y-110701522D01*
X125502351Y-110697895D01*
X125451486Y-110692369D01*
X125444672Y-110692000D01*
X124772115Y-110692000D01*
X124756876Y-110696475D01*
X124755671Y-110697865D01*
X124754000Y-110705548D01*
X124754000Y-111827885D01*
X124246000Y-111827885D01*
X124246000Y-110710116D01*
X124241525Y-110694877D01*
X124240135Y-110693672D01*
X124232452Y-110692001D01*
X123555331Y-110692001D01*
X123548510Y-110692371D01*
X123497648Y-110697895D01*
X123482396Y-110701521D01*
X123361946Y-110746676D01*
X123346351Y-110755214D01*
X123244276Y-110831715D01*
X123231715Y-110844276D01*
X123155214Y-110946351D01*
X123146676Y-110961946D01*
X123101522Y-111082394D01*
X123097895Y-111097649D01*
X123092369Y-111148514D01*
X123092000Y-111155328D01*
X123092000Y-111827885D01*
X88278930Y-111827885D01*
X88186642Y-111636125D01*
X87929768Y-111102379D01*
X87927757Y-111097987D01*
X87861824Y-110946351D01*
X87536149Y-110197349D01*
X87534310Y-110192888D01*
X87177574Y-109277904D01*
X87175907Y-109273375D01*
X86854548Y-108345345D01*
X86853053Y-108340744D01*
X86567562Y-107401082D01*
X86566245Y-107396428D01*
X86478959Y-107063713D01*
X86317024Y-106446455D01*
X86315896Y-106441788D01*
X86315662Y-106440730D01*
X86103341Y-105483012D01*
X86102387Y-105478285D01*
X85926784Y-104512004D01*
X85926011Y-104507229D01*
X85817319Y-103743520D01*
X85787636Y-103534957D01*
X85787048Y-103530169D01*
X85784461Y-103505132D01*
X85686093Y-102553241D01*
X85685691Y-102548444D01*
X85679380Y-102450843D01*
X85622318Y-101568451D01*
X85622098Y-101563619D01*
X85621421Y-101537749D01*
X85596389Y-100581847D01*
X85596355Y-100577035D01*
X85598495Y-100401973D01*
X85608355Y-99595004D01*
X85608506Y-99590191D01*
X85609084Y-99578794D01*
X85658193Y-98609344D01*
X85658530Y-98604535D01*
X85664677Y-98535666D01*
X85745829Y-97626371D01*
X85746351Y-97621563D01*
X85783938Y-97328152D01*
X85871143Y-96647408D01*
X85871847Y-96642645D01*
X85912289Y-96400978D01*
X86033938Y-95674031D01*
X86034826Y-95669287D01*
X86048932Y-95601175D01*
X86150907Y-95108752D01*
X86233978Y-94707618D01*
X86235050Y-94702900D01*
X86470971Y-93749590D01*
X86472223Y-93744917D01*
X86744564Y-92801367D01*
X86745994Y-92796746D01*
X86752711Y-92776436D01*
X87054368Y-91864310D01*
X87055970Y-91859762D01*
X87081746Y-91790823D01*
X87399900Y-90939879D01*
X87401681Y-90935381D01*
X87626064Y-90398976D01*
X87780669Y-90029381D01*
X87782615Y-90024968D01*
X87856673Y-89865425D01*
X88196113Y-89134164D01*
X88198234Y-89129816D01*
X88544284Y-88453575D01*
X88645619Y-88255550D01*
X88647898Y-88251299D01*
X88736462Y-88093481D01*
X89128503Y-87394872D01*
X89130951Y-87390699D01*
X89581491Y-86655484D01*
X105477769Y-86655484D01*
X105477904Y-86657351D01*
X105482131Y-86663921D01*
X111746188Y-92927978D01*
X111760132Y-92935592D01*
X111761965Y-92935461D01*
X111768580Y-92931210D01*
X118030079Y-86669711D01*
X118037693Y-86655767D01*
X118037615Y-86654664D01*
X118032605Y-86647052D01*
X117870389Y-86491765D01*
X117867390Y-86489074D01*
X117418300Y-86111573D01*
X117415124Y-86109075D01*
X116942638Y-85761364D01*
X116939279Y-85759056D01*
X116445349Y-85442567D01*
X116441831Y-85440470D01*
X115928517Y-85156520D01*
X115924892Y-85154665D01*
X115394322Y-84904432D01*
X115390554Y-84902802D01*
X114844947Y-84687331D01*
X114841118Y-84685960D01*
X114282695Y-84506132D01*
X114278820Y-84505021D01*
X113709982Y-84361612D01*
X113705976Y-84360738D01*
X113129073Y-84254336D01*
X113125082Y-84253732D01*
X112542467Y-84184775D01*
X112538465Y-84184432D01*
X111952604Y-84153216D01*
X111948587Y-84153132D01*
X111361964Y-84159787D01*
X111357902Y-84159964D01*
X110772943Y-84204461D01*
X110768916Y-84204898D01*
X110188073Y-84287047D01*
X110184036Y-84287751D01*
X109609698Y-84407214D01*
X109605750Y-84408170D01*
X109040315Y-84564447D01*
X109036423Y-84565660D01*
X108482239Y-84758104D01*
X108478456Y-84759557D01*
X107937857Y-84987359D01*
X107934158Y-84989060D01*
X107409368Y-85251283D01*
X107405817Y-85253203D01*
X106899033Y-85548751D01*
X106895611Y-85550898D01*
X106408964Y-85878528D01*
X106405673Y-85880901D01*
X105941210Y-86239232D01*
X105938055Y-86241831D01*
X105497664Y-86629405D01*
X105494718Y-86632173D01*
X105485367Y-86641541D01*
X105477769Y-86655484D01*
X89581491Y-86655484D01*
X89644098Y-86553319D01*
X89646705Y-86549244D01*
X90191588Y-85732225D01*
X90194349Y-85728252D01*
X90770218Y-84932721D01*
X90773103Y-84928891D01*
X91341129Y-84204461D01*
X91379106Y-84156027D01*
X91382164Y-84152278D01*
X92017362Y-83403279D01*
X92020561Y-83399651D01*
X92684024Y-82675607D01*
X92687360Y-82672103D01*
X93378164Y-81974028D01*
X93381632Y-81970656D01*
X94098697Y-81299637D01*
X94102293Y-81296399D01*
X94236642Y-81180023D01*
X94844601Y-80653393D01*
X94848317Y-80650297D01*
X95614755Y-80036264D01*
X95618588Y-80033312D01*
X96408053Y-79449139D01*
X96411997Y-79446337D01*
X96563598Y-79342922D01*
X97223282Y-78892916D01*
X97227319Y-78890274D01*
X98059256Y-78368402D01*
X98063389Y-78365918D01*
X98914762Y-77876357D01*
X98919001Y-77874026D01*
X99648427Y-77491068D01*
X99788547Y-77417503D01*
X99792838Y-77415355D01*
X100679275Y-76992547D01*
X100683651Y-76990562D01*
X101585652Y-76602099D01*
X101590110Y-76600280D01*
X102506363Y-76246727D01*
X102510874Y-76245084D01*
X103272600Y-75984287D01*
X103440030Y-75926963D01*
X103444636Y-75925484D01*
X103491723Y-75911357D01*
X104385312Y-75643268D01*
X104389925Y-75641980D01*
X105340743Y-75396082D01*
X105345449Y-75394961D01*
X105533308Y-75354001D01*
X106305021Y-75185740D01*
X106309717Y-75184811D01*
X107276593Y-75012585D01*
X107281334Y-75011834D01*
X108254117Y-74876849D01*
X108258904Y-74876278D01*
X109236153Y-74778736D01*
X109240939Y-74778350D01*
X110221210Y-74718394D01*
X110226003Y-74718193D01*
X111207898Y-74695911D01*
X111212698Y-74695895D01*
X111714619Y-74703779D01*
G37*
%TD.AperFunction*%
%TD*%
M02*
